<svg width="640" height="1534" fill="none" xmlns="http://www.w3.org/2000/svg"><path d="M523.432 171.855l584.488-.191-.01-1.225-584.982.191-28.62 28.619-59.988.02a2.384 2.384 0 00-2.32-1.83 2.446 2.446 0 00-.002 4.872 2.386 2.386 0 002.321-1.831l60.536-.02 28.577-28.605zm-35.848 95.125l-126.016.026-13.818-13.817-19.169.064a2.43 2.43 0 01-3.202 1.639 2.416 2.416 0 01-1.555-2.036 2.421 2.421 0 011.14-2.296 2.404 2.404 0 013.603 1.467l19.616.008 13.818 13.818 126.116-.127 28.601 28.601 591.152-.165v1.211l-591.685.208-28.601-28.601zm271.456 55.186l-256.139.069-28.601-28.601-44.205.029a2.387 2.387 0 01-3.001.916 2.383 2.383 0 01-.304-4.187 2.388 2.388 0 013.101.469c.373.44.573 1 .564 1.577h44.35l28.587 28.586 256.211-.083 43.615 43.615 304.692-.014-.01 1.226-305.274.042-43.586-43.644zM468.284 136.603l18.887-18.887-229.33.003.001-1.211 418.461-.151.059 39.997 431.548-.214v1.211l-432.226.141-.605.001-157.48.051-28.62 28.62-105.39.034a2.392 2.392 0 01-2.321 1.832 2.437 2.437 0 01-1.725-.71 2.443 2.443 0 01-.528-.792 2.46 2.46 0 01.535-2.668 2.458 2.458 0 011.734-.717 2.407 2.407 0 012.306 1.845l104.9-.035 28.446-28.446.433.432v-.606l157.71-.051-.001-38.7-157.451.052-39.924 39.923-115.306.038a2.412 2.412 0 01-2.307 1.845 2.44 2.44 0 01-2.45-2.449 2.433 2.433 0 011.503-2.254c.296-.122.614-.184.934-.183a2.387 2.387 0 012.32 1.83l114.701-.037 38.77-38.77-26.953.008-20.185 20.186-285.657.136.058-1.268 285.153-.036zm160.531 143.375l-93.657.03a2.47 2.47 0 01-2.677 1.867 2.46 2.46 0 01-2.185-2.421 2.466 2.466 0 014.848-.671l93.182-.016 64.059-64.059-77.284.025a2.422 2.422 0 01-3.201 1.64 2.421 2.421 0 01-1.556-2.036 2.43 2.43 0 012.423-2.659 2.387 2.387 0 012.32 1.83l492.933-.161-.01 1.225-413.924.135-65.271 65.271zm64.861-1.463a2.43 2.43 0 01-2.658 1.787 2.427 2.427 0 01-2.113-2.405 2.468 2.468 0 012.437-2.437 2.404 2.404 0 012.334 1.844l29.533-.024-24.639-24.638-16.085.005-24.092 24.092c.235.361.365.78.374 1.211a2.452 2.452 0 01-3.385 2.269 2.413 2.413 0 01-.791-.528 2.413 2.413 0 01-.71-1.725 2.432 2.432 0 01.717-1.734 2.448 2.448 0 011.734-.717c.424.008.838.133 1.196.36l24.395-24.395 17.109-.02 25.935 25.935 382.903-.125.02 1.225-414.214.02zm9.052-44.785a2.465 2.465 0 01-1.211.346 2.446 2.446 0 11.932-4.704 2.443 2.443 0 011.504 2.268 2.526 2.526 0 01-.36 1.225l27.606 27.607 376.681-.181v1.211l-377.229.123-27.923-27.895zm-66.587 345.047l-59.989-.095a2.403 2.403 0 01-2.657 1.891 2.403 2.403 0 01-2.099-2.495 2.452 2.452 0 012.451-2.451 2.405 2.405 0 012.306 1.844l60.536-.02 28.601 28.601 442.47-.101v1.211l-443.076.159-28.543-28.544zm5.856-14.328l-209.281.068a2.406 2.406 0 01-2.307 1.846 2.443 2.443 0 01-2.449-2.45 2.418 2.418 0 01.711-1.725c.226-.227.495-.406.792-.528a2.41 2.41 0 01.933-.183 2.379 2.379 0 012.32 1.829l209.786-.083 28.601 28.601 436.737-.128v1.211l-437.314.1-28.529-28.558zm34.458 14.272l-28.659-28.659-184.202.06a2.405 2.405 0 01-2.307 1.846 2.443 2.443 0 01-1.994-3.92 2.446 2.446 0 014.316.849l184.706-.046 28.587 28.587 430.888-.097-.02 1.225-431.315.155zm-46.447-66.488l-126.088-.016-13.87 13.87-19.602.006a2.427 2.427 0 01-4.27.844 2.426 2.426 0 011.936-3.899 2.446 2.446 0 012.32 1.83l19.127.008 13.826-13.827 126.016-.055 28.62-28.62 449.697-.147v1.211l-449.193.161-28.519 28.634zm-13.886-26.112l-42.88.028a2.427 2.427 0 01-4.167.983 2.426 2.426 0 01-.603-1.601 2.486 2.486 0 012.451-2.451 2.4 2.4 0 012.305 1.844l42.404-.014 28.534-28.533 463.664-.252-.02 1.225-463.169.137-28.519 28.634zm43.081 134.894l-.433.433-28.471-28.472-104.944.078a2.383 2.383 0 01-2.22 1.817 2.433 2.433 0 01-1.725-.71 2.407 2.407 0 01-.71-1.725 2.46 2.46 0 01.717-1.734 2.445 2.445 0 011.734-.717 2.4 2.4 0 012.306 1.844l105.404-.049 28.601 28.601 448.298-.132.01 1.225-448.654.147.087-.606zm181.739-94.74l-17.123.006-24.495-24.495c-.388.275-.85.426-1.326.433a2.443 2.443 0 01-2.408-2.92 2.443 2.443 0 011.925-1.926 2.44 2.44 0 011.415.142 2.437 2.437 0 011.505 2.267 2.31 2.31 0 01-.289 1.096l24.149 24.148 16.1.01 24.655-24.655-29.404.009a2.417 2.417 0 01-1.873 1.751 2.426 2.426 0 111.017-4.294c.421.332.718.797.842 1.318l30.643-.01 241.585-.093v1.211l-241.009.093-25.909 25.909zm4.318 18.736c.227.364.356.781.374 1.21 0 .322-.063.641-.187.938a2.438 2.438 0 01-1.326 1.327 2.452 2.452 0 01-3.387-2.263 2.38 2.38 0 011.205-2.159 2.39 2.39 0 012.471.068l27.985-27.985 235.345-.077.01 1.225-234.851.077-27.639 27.639zm-90.782 21.188a2.45 2.45 0 01-2.363-1.485 2.44 2.44 0 01.006-1.928 2.438 2.438 0 011.4-1.325c.311-.115.642-.165.973-.148a2.404 2.404 0 012.32 1.83l77.284-.025-63.974-63.975-93.168.031a2.42 2.42 0 01-1.873 1.75 2.426 2.426 0 01-2.397-.906 2.42 2.42 0 01-.244-2.551c.201-.406.512-.747.898-.985a2.42 2.42 0 011.282-.363 2.448 2.448 0 012.335 1.844l93.657-.03 65.228 65.227 271.918-.089v1.211l-350.874.086a2.457 2.457 0 01-.855 1.319 2.46 2.46 0 01-1.481.527l-.072-.015zM327.071 640.25l283.394-.15 20.172 20.172 26.938.006-38.643-38.644-114.702.037a2.385 2.385 0 01-2.321 1.832 2.428 2.428 0 01-2.435-2.436 2.427 2.427 0 014.771-.621l115.307-.037 39.883 39.883 103.848-.107-17.665-17.664a2.508 2.508 0 01-3.622-3.08 2.508 2.508 0 014.816.639 2.51 2.51 0 01-.344 1.59l18.559 18.558 52.19-.031 25.736-25.736h264.777l.01 1.225-264.369.086-25.765 25.765-415.334.078a2.429 2.429 0 01-2.652 1.734 2.426 2.426 0 01-2.104-2.367 2.427 2.427 0 014.771-.592l226.664-.074-18.948-18.947-282.832.106a2.41 2.41 0 01-2.364 2.048 2.446 2.446 0 111.496-4.351c.35.282.616.655.768 1.078zm111.201-142.238l184.188-.074 28.605-28.606 456.755-.149-.01 1.225-456.226.135-28.62 28.62-184.692.06a2.43 2.43 0 01-3.201 1.64 2.421 2.421 0 01-1.556-2.036 2.43 2.43 0 012.423-2.659 2.448 2.448 0 012.334 1.844zm362.69-66.967a2.444 2.444 0 01-1.662-4.124 2.442 2.442 0 011.649-.762 2.381 2.381 0 012.32 1.83l304.611-.014.01 1.226-304.636.041a2.427 2.427 0 01-2.321 1.832l.029-.029zm-482.377-68.032l113.245-.051 28.62-28.62 104.698-.034 28.587 28.586 115.825-.037 35.59 35.589 69.847-.023 19.132-19.133-46.526.102-29.148-29.552-99.351.047-.014-1.225 99.855-.033 29.177 29.552 12.958-.019-42.664-42.663-145.69.047.001-1.211 146.194-.062 43.845 43.846 83.756-.013 221.358-.13.02 1.225-220.802.029-35.612 35.612-115.883.125-28.606 28.605-104.683.077-28.63-28.63-113.275.023a2.344 2.344 0 01-2.292 1.745 2.443 2.443 0 01-2.487-2.693 2.454 2.454 0 011.62-2.059 2.455 2.455 0 012.552.584c.326.33.552.745.651 1.198l113.736-.023 28.601 28.601 103.775-.034 28.62-28.619 115.826-.038 34.386-34.387-49.466.016-20.402 20.401-70.87.009-35.618-35.618-115.825.038-28.601-28.601-103.776.034-28.577 28.576-113.721.153a2.404 2.404 0 01-2.321 1.831 2.446 2.446 0 01-.012-4.886 2.4 2.4 0 012.348 1.772l.029-.029zm-22.111-84.195l184.605.055 28.601 28.601 249.192-.211 43.774 43.773 305.204-.028v1.211l-305.565.1-43.817-43.817-249.191.067-28.587-28.586-184.202.06a2.43 2.43 0 01-3.201 1.64 2.421 2.421 0 01-1.556-2.036 2.43 2.43 0 012.423-2.659 2.404 2.404 0 012.32 1.83zm25.341-50.96l184.202-.06 28.605-28.605 573.288-.144v1.211l-572.813.187-28.619 28.62-184.721.06a2.412 2.412 0 01-2.307 1.846 2.45 2.45 0 01-2.224-1.336 2.441 2.441 0 01.229-2.584 2.453 2.453 0 012.425-.926 2.439 2.439 0 011.891 1.775l.044-.044zm-30.941-14.244l209.267-.054 28.619-28.62 579.13-.16v1.21l-578.64.161-28.634 28.634-209.757.054a2.386 2.386 0 01-2.321 1.831 2.413 2.413 0 01-1.725-.71 2.413 2.413 0 01-.71-1.725 2.427 2.427 0 014.771-.621zm436.761 17.225a2.484 2.484 0 01-2.45-2.449 2.425 2.425 0 012.114-2.407 2.427 2.427 0 012.657 1.785l377.934-.109v1.211l-377.934.138a2.45 2.45 0 01-2.321 1.831zm26.969 214.548a2.441 2.441 0 01-2.232-1.337 2.438 2.438 0 01.237-2.592 2.442 2.442 0 012.438-.913 2.45 2.45 0 011.879 1.8l350.894-.129.01 1.225-350.905.115a2.413 2.413 0 01-.846 1.314c-.421.331-.94.513-1.475.517zm114.868 106.534a2.445 2.445 0 01-2.46-3.422 2.459 2.459 0 011.459-1.332 2.456 2.456 0 011.003-.117 2.387 2.387 0 012.32 1.829l235.926-.091.02 1.225-235.947.077a2.386 2.386 0 01-2.321 1.831zm-136.04 215.934l584.488-.191-.01-1.225-584.982.191-28.62 28.62-59.988.02a2.379 2.379 0 00-2.32-1.83 2.45 2.45 0 00-1.585 4.085c.411.451.976.731 1.584.787a2.388 2.388 0 002.321-1.832l60.536-.019 28.576-28.606zm-35.848 95.125l-126.016.027-13.817-13.818-19.17.064a2.432 2.432 0 01-1.873 1.751 2.421 2.421 0 01-2.884-2.147 2.434 2.434 0 01.242-1.311 2.437 2.437 0 012.181-1.348 2.405 2.405 0 012.32 1.83l19.616.008 13.818 13.818 126.117-.128 28.601 28.601 591.151-.164v1.211l-591.685.207-28.601-28.601zm271.457 55.187l-256.139.069-28.601-28.601-44.206.029a2.386 2.386 0 01-4.312-1.933 2.388 2.388 0 014.109-.869c.372.44.573 1 .564 1.577l44.349-.001 28.587 28.587 256.211-.084 43.617 43.615 304.7-.013-.02 1.225-305.27.042-43.589-43.643zM678.284 732.604l18.888-18.888-229.331.003.001-1.211 418.461-.151.059 39.997 431.548-.213v1.211l-432.225.141h-.606l-157.48.052-28.619 28.62-105.39.034a2.386 2.386 0 01-2.322 1.831 2.408 2.408 0 01-1.725-.71 2.426 2.426 0 01-.71-1.725 2.452 2.452 0 012.451-2.451 2.405 2.405 0 012.306 1.844l104.9-.034 28.447-28.447.432.432v-.605l157.711-.051-.002-38.7-157.451.051-39.924 39.924-115.306.037a2.405 2.405 0 01-2.307 1.846 2.432 2.432 0 01-1.733-.716 2.438 2.438 0 01-.716-1.733 2.427 2.427 0 012.436-2.437 2.385 2.385 0 012.32 1.83l114.701-.038 38.77-38.77-26.952.009-20.186 20.185-285.657.137.058-1.269 285.153-.035zm160.532 143.374l-93.658.031a2.468 2.468 0 01-4.227 1.07 2.463 2.463 0 01-.037-3.263 2.465 2.465 0 014.25.968l93.182-.016 64.059-64.06-77.284.026a2.43 2.43 0 01-3.201 1.639 2.419 2.419 0 01-1.556-2.035 2.426 2.426 0 011.14-2.297c.386-.238.83-.363 1.283-.362a2.381 2.381 0 012.32 1.83l492.933-.161-.01 1.225-413.924.135-65.27 65.27zm64.86-1.462a2.423 2.423 0 01-4.168.982 2.421 2.421 0 01-.603-1.6 2.472 2.472 0 012.437-2.437 2.404 2.404 0 012.334 1.844l29.533-.024-24.638-24.639-16.086.006-24.092 24.092c.235.361.365.78.374 1.211a2.436 2.436 0 01-.717 1.734 2.46 2.46 0 01-2.668.534 2.41 2.41 0 01-1.319-1.319 2.46 2.46 0 01.535-2.667 2.445 2.445 0 011.734-.717c.424.008.838.133 1.196.36l24.396-24.396 17.108-.02 25.936 25.936 382.902-.125.02 1.225-414.214.02zm9.052-44.785a2.472 2.472 0 01-1.211.346 2.447 2.447 0 01-2.409-2.92 2.456 2.456 0 011.926-1.925 2.44 2.44 0 012.512 1.046c.268.403.41.878.408 1.362a2.538 2.538 0 01-.361 1.226l27.607 27.606 376.68-.18v1.21l-377.228.124-27.924-27.895zm-66.587 345.049l-59.988-.1a2.425 2.425 0 01-.96 1.47c-.493.35-1.099.5-1.698.42a2.38 2.38 0 01-1.537-.83 2.426 2.426 0 01-.561-1.66 2.46 2.46 0 01.717-1.74c.227-.22.498-.4.795-.53.298-.12.617-.18.939-.18.534 0 1.052.19 1.469.52.418.34.712.8.836 1.32l60.536-.02 28.601 28.6 442.47-.1v1.21l-443.076.16-28.543-28.54zm5.856-14.33l-209.281.07c-.125.52-.419.98-.837 1.32a2.38 2.38 0 01-1.47.52c-.321 0-.64-.06-.938-.18-.297-.12-.568-.3-.795-.53a2.459 2.459 0 01-.716-1.74 2.428 2.428 0 011.503-2.25c.296-.12.613-.18.934-.18.536 0 1.057.18 1.478.51.42.33.717.8.842 1.32l209.785-.09 28.601 28.61 436.737-.13v1.21l-437.314.1-28.529-28.56zm34.458 14.27l-28.659-28.66-184.202.06c-.125.52-.419.99-.837 1.32a2.39 2.39 0 01-1.47.53c-.458.01-.91-.11-1.303-.35a2.463 2.463 0 01-.92-.99 2.43 2.43 0 01.229-2.58c.277-.37.651-.65 1.08-.81.428-.17.894-.21 1.345-.12.45.09.866.31 1.2.62.335.31.574.71.691 1.16l184.707-.05 28.586 28.59 430.888-.1-.02 1.23-431.315.15zm-46.447-66.49l-126.087-.01-13.871 13.87h-19.602c-.117.44-.355.84-.686 1.15-.331.31-.742.52-1.187.6-.444.09-.904.05-1.328-.11a2.408 2.408 0 01-1.555-2.03c-.044-.45.04-.91.242-1.31a2.417 2.417 0 012.18-1.35c.534.01 1.049.19 1.468.52.419.33.718.79.852 1.31l19.127.01 13.827-13.83 126.015-.06 28.62-28.62 449.697-.14v1.21l-449.193.16-28.519 28.63zm-13.886-26.11l-42.879.03a2.393 2.393 0 01-.993 1.39c-.489.33-1.081.47-1.666.4a2.416 2.416 0 01-1.509-.81 2.416 2.416 0 01-.603-1.6c.01-.65.271-1.26.729-1.72a2.479 2.479 0 011.722-.73 2.39 2.39 0 011.47.53c.417.33.711.79.836 1.31l42.404-.01 28.533-28.53 463.664-.25-.02 1.22-463.169.14-28.519 28.63zm224.818 40.16h-17.12l-24.5-24.49c-.38.27-.85.42-1.32.43-.49 0-.96-.14-1.36-.41a2.443 2.443 0 01.88-4.44c.47-.09.96-.04 1.41.15a2.441 2.441 0 011.51 2.26c-.01.39-.11.76-.29 1.1l24.15 24.15 16.1.01 24.65-24.66-29.4.01a2.443 2.443 0 01-1.88 1.75c-.44.09-.9.05-1.32-.11-.43-.16-.8-.43-1.07-.79a2.36 2.36 0 01-.49-1.25c-.04-.45.04-.9.24-1.31.2-.4.51-.74.9-.98s.83-.37 1.28-.36c.54 0 1.06.18 1.48.51.42.33.72.79.84 1.32l30.65-.01 241.58-.1v1.21l-241.01.1-25.91 25.91zm4.32 18.73c.23.37.36.78.37 1.21 0 .32-.06.64-.18.94-.13.3-.31.57-.53.79-.23.23-.5.41-.8.54-.3.12-.61.18-.94.18-.32 0-.64-.06-.93-.18-.3-.13-.57-.31-.8-.53a2.504 2.504 0 01-.72-1.74c-.01-.43.09-.86.31-1.24.21-.38.52-.7.9-.92.38-.21.81-.32 1.24-.31.44.02.86.15 1.23.38l27.99-27.98 235.34-.08.01 1.23-234.85.07-27.64 27.64zm-90.782 21.19c-.331.02-.661-.04-.972-.15-.31-.12-.593-.3-.832-.53a2.4 2.4 0 01-.559-.81 2.429 2.429 0 01.006-1.92 2.442 2.442 0 011.401-1.33c.31-.11.641-.16.972-.15.536.01 1.054.19 1.475.52.42.33.717.79.845 1.31l77.286-.02-63.976-63.98-93.167.03c-.118.44-.356.84-.687 1.15-.331.31-.742.52-1.187.6-.444.09-.904.05-1.328-.11a2.405 2.405 0 01-1.555-2.03c-.043-.45.041-.91.242-1.31a2.42 2.42 0 012.181-1.35 2.42 2.42 0 011.48.53c.422.33.722.79.854 1.31l93.658-.03 65.225 65.23 271.92-.09v1.21l-350.874.09a2.48 2.48 0 01-.855 1.32c-.422.33-.943.52-1.481.52l-.072-.01zm-316.205-68.19l184.187-.07 28.606-28.61 456.754-.15-.01 1.23-456.226.13-28.62 28.62-184.692.06c-.118.44-.355.84-.686 1.15-.332.31-.743.52-1.187.6-.444.09-.904.05-1.328-.11a2.408 2.408 0 01-1.556-2.03c-.043-.45.041-.91.243-1.31a2.417 2.417 0 012.18-1.35c.538.01 1.058.19 1.48.52.422.34.723.8.855 1.32zm362.687-66.96c-.63-.03-1.22-.3-1.65-.76-.44-.45-.68-1.05-.68-1.68 0-.63.24-1.23.67-1.69.43-.45 1.02-.73 1.65-.76.54 0 1.06.18 1.48.51.42.33.71.8.84 1.32l304.61-.01.01 1.22-304.64.04c-.13.52-.43.98-.85 1.31-.42.33-.93.52-1.47.52l.03-.02zm-482.375-68.036l113.246-.052 28.62-28.619 104.698-.035 28.586 28.587 115.826-.038 35.589 35.589 69.85-.022 19.13-19.133-46.527.102-29.148-29.553-99.351.047-.014-1.225 99.855-.032 29.178 29.552 12.957-.019-42.664-42.664-145.689.048v-1.211l146.194-.062 43.849 43.845 83.75-.013 221.36-.13.02 1.225-220.8.029-35.61 35.61-115.887.13-28.605 28.6-104.684.08-28.63-28.63-113.274.02c-.134.51-.432.95-.847 1.27-.415.31-.924.48-1.446.48a2.442 2.442 0 01-2.486-2.7 2.435 2.435 0 011.619-2.05c.437-.16.909-.19 1.361-.08.452.1.865.33 1.191.66.326.33.552.74.651 1.2l113.736-.03 28.601 28.61 103.776-.04 28.619-28.62 115.825-.04 34.39-34.383-49.47.017-20.4 20.401-70.87.009-35.618-35.618-115.826.038-28.601-28.601-103.776.033-28.576 28.577-113.721.152a2.406 2.406 0 01-2.321 1.832 2.446 2.446 0 01-.013-4.886 2.399 2.399 0 012.349 1.772l.028-.029zm-22.111-84.196l184.606.055 28.601 28.602 249.191-.212 43.778 43.774 305.2-.028v1.211l-305.56.1-43.821-43.817-249.192.067-28.587-28.587-184.202.061a2.43 2.43 0 01-3.201 1.639 2.419 2.419 0 01-1.556-2.036 2.43 2.43 0 011.14-2.296 2.407 2.407 0 013.603 1.467zm25.341-50.959l184.202-.06 28.605-28.605 573.288-.144v1.21l-572.812.187-28.62 28.62-184.721.061a2.406 2.406 0 01-2.307 1.845 2.443 2.443 0 01-1.994-3.92 2.44 2.44 0 012.424-.925 2.45 2.45 0 011.892 1.774l.043-.043zm-30.941-14.244l209.267-.054 28.62-28.62 579.129-.161v1.211l-578.64.16-28.634 28.635-209.757.054a2.386 2.386 0 01-2.321 1.831 2.422 2.422 0 01-2.435-2.435 2.425 2.425 0 012.114-2.406 2.422 2.422 0 012.657 1.785zm436.761 17.225a2.481 2.481 0 01-2.449-2.45 2.426 2.426 0 014.771-.621l377.933-.109v1.211l-377.934.138a2.445 2.445 0 01-2.321 1.831zm26.969 214.55c-.46.01-.914-.11-1.309-.35a2.446 2.446 0 01.402-4.39c.431-.16.899-.2 1.35-.1.451.09.866.31 1.199.63.332.31.568.72.68 1.17l350.894-.13.01 1.22-350.905.12c-.128.52-.426.98-.846 1.31-.42.33-.939.51-1.475.52zm114.866 106.53c-.34.03-.68-.01-1-.12-.32-.1-.62-.28-.87-.51-.25-.23-.45-.5-.59-.82-.14-.31-.21-.64-.21-.98 0-.34.08-.68.21-.99.14-.31.34-.59.59-.82a2.466 2.466 0 011.87-.63c.54 0 1.06.18 1.48.51.42.33.72.8.84 1.32l235.94-.09.01 1.22-235.95.08c-.12.52-.42.99-.84 1.32-.42.33-.94.51-1.48.51z" fill="#E3EDF3"/></svg>