<svg width="126" height="126" fill="none" xmlns="http://www.w3.org/2000/svg"><g opacity=".2" fill="#022348"><path d="M30.163 12.587a5.66 5.66 0 005.712-5.668 6.99 6.99 0 012.07-4.89 6.999 6.999 0 014.91-2.027 6.914 6.914 0 016.502 4.13c.366.834.563 1.732.581 2.642.1 3.162 2.565 5.728 5.729 5.728h21.238c2.97 0 5.298-2.409 5.379-5.378.145-3.895 2.82-6.8 6.517-7.079a7 7 0 017.535 5.718 9.54 9.54 0 01.135 1.802 5.067 5.067 0 005.066 5.066h11.123c7.61 0 12.453 4.809 12.507 12.468.033 4.9 0 9.805 0 14.705v73.042c0 6.358-3.277 10.989-8.81 12.404a14.72 14.72 0 01-3.59.425c-29.486.025-58.974.025-88.463 0-7.368 0-12.379-4.965-12.298-12.371 0-1.695-.415-2.329-2.105-2.69a22.996 22.996 0 01-6.135-2.28c-3.67-2.087-4.844-6.03-2.691-9.655 6.006-10.053 7.842-21.224 9.36-32.562 1.845-13.748 1.582-27.571 1.55-41.373 0-4.62 1.792-8.31 5.871-10.52a13.65 13.65 0 015.635-1.507c2.209-.132 4.424-.145 6.672-.13zm-7.584 26.997c-3.206 0-5.875 2.52-5.992 5.723-.013.33-.024.66-.033.99-.345 10.853-1.281 21.643-3.44 32.271-1.555 7.681-3.654 15.179-7.841 21.94-1.12 1.796-.813 3.195 1.216 4.028a33.635 33.635 0 007.707 2.233c14.037 2.119 28.094 4.087 42.147 6.094 18.524 2.642 37.047 5.274 55.568 7.895 5.21.737 8.639-2.259 8.639-7.53v-71.88c0-.974-.79-1.764-1.765-1.764H22.579zm-.082 73.116c-3.201-.459-6.533 1.988-4.95 4.807 1.228 2.185 3.566 3.542 6.558 3.542h54.358c.347 0 .69-.028 1.032-.045a.075.075 0 00.07-.074.073.073 0 00-.063-.073L22.497 112.7z"/><path d="M55.196 61.986a2.422 2.422 0 002.427-2.421V49.51a6 6 0 016-6h52.127c1.013 0 1.834.82 1.834 1.834 0 12.452 0 24.898.032 37.35 0 1.575-.414 2.075-2.029 2.043-4.903-.102-9.806-.032-14.714-.032a1.91 1.91 0 00-1.91 1.91v10.571a6 6 0 01-6 6H21.995c-.875 0-1.665-.707-1.665-1.581-.032-12.5-.026-25.006-.118-37.506 0-1.613.355-2.151 2.083-2.151 10.963.08 21.931.037 32.9.037zm12.437 4.067a6 6 0 00-6 6v2.565a6 6 0 006 6h2.531a6 6 0 006-6v-2.565a6 6 0 00-6-6h-2.531zm12.73 8.554a6 6 0 006 6h2.53a6 6 0 006-6v-2.549a6 6 0 00-6-6h-2.53a6 6 0 00-6 6v2.55zm27.158 6.038a6 6 0 006-6V72.09a6 6 0 00-6-6h-2.494a6 6 0 00-6 6v2.555a6 6 0 006 6h2.494zm-64.51-14.592c.003 0 .006.002.006.005v8.592a6 6 0 006 6h2.612a5.993 5.993 0 005.996-6 1003.81 1003.81 0 00-.04-7.753c0-.285-.591-.801-.914-.807-4.51-.053-9.02-.037-13.66-.037zm27.132-4.169a6 6 0 006-6v-2.366a6 6 0 00-6-6H67.67a6 6 0 00-6 6v2.366a6 6 0 006 6h2.472zm28.884-6.027a6 6 0 006 6h2.531a6 6 0 006-6V53.55a6 6 0 00-6-6h-2.531a6 6 0 00-6 6v2.307zM24.406 74.64a6 6 0 006 6h2.343a6 6 0 006-6v-2.48a6 6 0 00-6-6h-2.343a6 6 0 00-6 6v2.48zm18.578 18.7a6.002 6.002 0 006 6.004c2.596-.002 5.158-.014 7.719-.063.317 0 .877-.85.888-1.312.07-3.964 0-7.928.065-11.887 0-1.119-.415-1.404-1.454-1.393-3.907.037-7.82 0-11.732 0-.847 0-1.486.78-1.486 1.627v7.024zm27.148 6.001c3.314.004 6-2.687 6-6v-2.625a5.993 5.993 0 00-6-5.997c-2.57.005-5.116.015-7.665.04-.312 0-.883.645-.888.995a406.91 406.91 0 000 12.548c0 .35.576.984.888.99 2.547.036 5.094.047 7.665.05zm24.761-8.523a6 6 0 00-6-6H86.39a6 6 0 00-6 6v2.442a6 6 0 006 6h2.505a6 6 0 006-6v-2.442zm-8.493-43.3a6 6 0 00-6 6v2.307a6 6 0 006 6h2.386a6 6 0 006-6v-2.307a6 6 0 00-6-6H86.4zM32.776 99.25a6 6 0 006-6v-2.388a6 6 0 00-6-6h-2.349a6 6 0 00-6 6v2.388a6 6 0 006 6h2.349z"/></g></svg>