<svg width="1180" height="386" fill="none" xmlns="http://www.w3.org/2000/svg"><rect width="1180" height="386" rx="4" fill="url(#paint0_linear_115_2)"/><mask id="a" style="mask-type:alpha" maskUnits="userSpaceOnUse" x="0" y="0" width="1180" height="386"><rect width="1180" height="386" rx="4" fill="#fff"/></mask><g mask="url(#a)" fill="#fff" fill-opacity=".07"><path d="M1023.43 27.855l584.49-.19-.01-1.226-584.98.191-28.622 28.62-59.988.02a2.385 2.385 0 00-2.32-1.83 2.446 2.446 0 00-.002 4.871 2.383 2.383 0 002.321-1.83l60.536-.02 28.575-28.606zm-35.846 95.125l-126.016.027-13.818-13.818-19.169.064a2.43 2.43 0 01-4.27.844 2.42 2.42 0 01-.245-2.551 2.424 2.424 0 012.181-1.348 2.404 2.404 0 012.32 1.83l19.616.008 13.818 13.818 126.116-.128 28.603 28.601 591.15-.164v1.21l-591.69.208-28.596-28.601zm271.456 55.187l-256.14.069-28.6-28.601-44.205.029a2.386 2.386 0 01-4.312-1.933 2.39 2.39 0 012.646-1.686 2.386 2.386 0 012.026 2.393h44.35l28.585 28.587 256.21-.084 43.62 43.615 304.69-.013-.01 1.225-305.27.042-43.59-43.643zM968.284-7.396l18.887-18.888-229.33.003.001-1.21 418.458-.152.06 39.997 431.55-.213v1.21l-432.23.142h-.6l-157.48.051-28.621 28.62-105.39.035a2.389 2.389 0 01-2.321 1.831 2.43 2.43 0 01-1.725-.71 2.434 2.434 0 01-.524-2.663 2.444 2.444 0 012.265-1.513 2.406 2.406 0 012.306 1.844l104.9-.034 28.45-28.447.43.432v-.605l157.71-.052v-38.7l-157.45.052-39.927 39.924-115.306.037a2.413 2.413 0 01-2.307 1.846 2.442 2.442 0 01-2.265-1.511 2.473 2.473 0 01-.002-1.872 2.437 2.437 0 011.32-1.32 2.427 2.427 0 012.412.329c.421.332.718.796.842 1.317l114.701-.037 38.772-38.77-26.955.009L968.73-6.23l-285.657.137.058-1.269 285.153-.035zm160.536 143.374l-93.66.031a2.479 2.479 0 01-2.68 1.867 2.45 2.45 0 01-1.55-.798 2.436 2.436 0 01-.63-1.623c-.01-.601.2-1.183.59-1.639.4-.455.94-.752 1.54-.834.59-.082 1.19.055 1.7.387.5.332.86.835 1.01 1.415l93.19-.017 64.06-64.059-77.29.026a2.38 2.38 0 01-.69 1.142 2.42 2.42 0 01-2.51.497 2.48 2.48 0 01-1.07-.795c-.27-.36-.44-.79-.49-1.24-.04-.451.04-.905.25-1.311.2-.406.51-.748.89-.986a2.44 2.44 0 011.29-.362c.53 0 1.05.18 1.47.512.43.332.72.796.85 1.317l492.93-.16-.01 1.224-413.92.136-65.27 65.27zm64.86-1.462a2.435 2.435 0 01-2.66 1.786 2.408 2.408 0 01-1.51-.804 2.365 2.365 0 01-.6-1.601c0-.643.26-1.258.72-1.714a2.456 2.456 0 011.71-.722 2.403 2.403 0 012.34 1.844l29.53-.024-24.64-24.639-16.08.005-24.1 24.093c.24.36.37.78.38 1.21 0 .322-.07.641-.19.939-.12.297-.3.568-.53.796a2.475 2.475 0 01-1.73.716c-.32.002-.64-.06-.94-.182a2.531 2.531 0 01-.79-.527c-.23-.227-.4-.496-.53-.792a2.484 2.484 0 01-.18-.934c0-.322.06-.64.19-.938.12-.298.3-.568.53-.796.23-.227.5-.408.79-.531.3-.123.62-.186.94-.186.43.009.84.133 1.2.36l24.39-24.395 17.11-.02 25.94 25.935 382.9-.125.02 1.226-414.21.02zm9.05-44.785a2.5 2.5 0 01-1.21.346 2.47 2.47 0 01-1.37-.408c-.4-.268-.71-.65-.9-1.097-.19-.447-.24-.94-.14-1.415.09-.476.33-.912.67-1.255a2.443 2.443 0 012.67-.53c.45.187.83.502 1.1.906.26.403.41.877.4 1.362-.01.433-.13.855-.36 1.225l27.61 27.607 376.68-.181v1.211l-377.23.123-27.92-27.894zm-66.59 345.047l-59.99-.096a2.357 2.357 0 01-.96 1.465c-.49.35-1.1.503-1.7.427a2.42 2.42 0 01-1.53-.838 2.386 2.386 0 01-.56-1.658c0-.321.06-.64.18-.938.13-.298.31-.568.53-.796a2.475 2.475 0 011.74-.717c.53.008 1.05.193 1.47.527.41.334.71.797.83 1.317l60.54-.019 28.6 28.601 442.47-.102v1.211l-443.08.159-28.54-28.543zm5.86-14.329l-209.284.069a2.406 2.406 0 01-2.307 1.845 2.432 2.432 0 01-1.733-.716 2.427 2.427 0 01-.716-1.733 2.427 2.427 0 012.436-2.437 2.385 2.385 0 012.32 1.83l209.784-.083 28.6 28.601 436.74-.128v1.21l-437.31.1-28.53-28.558zm34.45 14.273l-28.65-28.659-184.206.06a2.406 2.406 0 01-2.307 1.846 2.453 2.453 0 01-2.224-1.336 2.449 2.449 0 012.654-3.51 2.45 2.45 0 011.892 1.775l184.711-.046 28.58 28.587 430.89-.098-.02 1.225-431.32.156zm-46.44-66.488l-126.09-.017-13.87 13.87-19.602.007a2.43 2.43 0 01-3.201 1.639 2.419 2.419 0 01-1.556-2.035 2.426 2.426 0 011.14-2.296c.386-.239.83-.364 1.283-.363a2.44 2.44 0 012.32 1.83l19.127.008 13.829-13.827 126.01-.056 28.62-28.619 449.7-.147v1.21l-449.19.162-28.52 28.634zm-13.89-26.113l-42.88.029a2.42 2.42 0 01-2.66 1.786 2.433 2.433 0 01-1.51-.804 2.465 2.465 0 01-.6-1.6c.01-.647.27-1.265.73-1.723a2.5 2.5 0 011.72-.729c.54.008 1.05.193 1.47.527.42.334.71.798.84 1.318l42.4-.014 28.54-28.533 463.66-.253-.02 1.225-463.17.137-28.52 28.634zm43.08 134.895l-.43.432-28.47-28.471-104.94.077c-.13.503-.41.952-.81 1.28-.4.327-.9.516-1.41.537-.33.002-.64-.06-.94-.182a2.517 2.517 0 01-.79-.528 2.343 2.343 0 01-.53-.791 2.487 2.487 0 01-.18-.934c0-.322.06-.641.19-.938.12-.298.3-.568.53-.796a2.417 2.417 0 011.73-.717c.54.007 1.05.193 1.47.526.42.334.71.798.84 1.318l105.4-.049 28.6 28.602 448.3-.133.01 1.226-448.65.146.08-.605zm181.74-94.741l-17.12.006-24.5-24.495c-.38.276-.85.427-1.32.433-.49.002-.96-.139-1.36-.407a2.44 2.44 0 01-.91-1.097 2.451 2.451 0 011.78-3.341c.48-.094.97-.045 1.42.141.45.186.83.501 1.1.905.27.404.41.878.4 1.363 0 .383-.1.76-.28 1.095l24.15 24.149 16.09.009 24.66-24.655-29.4.01c-.12.437-.36.833-.69 1.142-.33.31-.74.52-1.19.608-.44.088-.9.05-1.32-.11-.43-.161-.8-.436-1.07-.796-.28-.36-.45-.789-.49-1.24a2.47 2.47 0 01.24-1.311 2.433 2.433 0 012.18-1.348 2.382 2.382 0 012.32 1.83l30.65-.01 241.58-.094v1.211l-241.01.093-25.91 25.909zm4.32 18.736c.23.365.36.782.37 1.211 0 .322-.06.64-.18.938a2.71 2.71 0 01-.53.795 2.475 2.475 0 01-1.74.718 2.475 2.475 0 01-1.73-.717 2.369 2.369 0 01-.53-.795 2.514 2.514 0 01-.19-.938c-.01-.435.09-.866.3-1.247.22-.381.53-.696.91-.911a2.38 2.38 0 012.47.067l27.99-27.985 235.34-.077.01 1.225-234.85.077-27.64 27.639zm-90.78 21.189a2.467 2.467 0 01-1.81-.677 2.439 2.439 0 01-.56-.809 2.644 2.644 0 01-.19-.964c0-.331.07-.659.2-.963.13-.305.32-.579.57-.807a2.428 2.428 0 011.8-.666c.54.003 1.06.184 1.48.516.42.331.72.793.84 1.313l77.29-.025-63.98-63.974-93.16.03c-.12.438-.36.834-.69 1.143a2.415 2.415 0 01-2.51.497c-.43-.16-.8-.436-1.07-.796a2.354 2.354 0 01-.49-1.24 2.47 2.47 0 01.24-1.311 2.442 2.442 0 012.18-1.348c.54.008 1.06.193 1.48.526.42.334.72.797.86 1.319l93.65-.031 65.23 65.228 271.92-.089v1.211l-350.87.085c-.14.522-.44.985-.86 1.319-.42.334-.94.519-1.48.527l-.07-.014zm-427.41 74.051l283.39-.15 20.18 20.172 26.94.005-38.65-38.644-114.7.038a2.383 2.383 0 01-2.32 1.831 2.45 2.45 0 01-1.73-.71 2.433 2.433 0 01-.1-3.326 2.42 2.42 0 013.17-.414c.49.329.85.824 1 1.394l115.3-.038 39.88 39.883 103.85-.106-17.66-17.665a2.514 2.514 0 01-2.78-.122 2.487 2.487 0 01-.93-1.334 2.514 2.514 0 01.09-1.624 2.504 2.504 0 012.65-1.551c.56.074 1.07.329 1.46.725.39.397.64.913.7 1.466.07.553-.05 1.112-.34 1.589l18.56 18.559 52.19-.032 25.73-25.736h264.78l.01 1.225-264.37.086-25.76 25.765-415.338.079a2.427 2.427 0 01-4.756-.633 2.425 2.425 0 012.128-2.38 2.425 2.425 0 012.643 1.787l226.663-.074-18.95-18.947-282.829.107a2.41 2.41 0 01-2.364 2.047 2.437 2.437 0 01-2.197-1.292 2.447 2.447 0 114.46-1.98zm111.202-142.238l184.188-.075 28.61-28.605 456.75-.149-.01 1.225-456.23.134-28.62 28.62-184.688.06a2.427 2.427 0 01-4.27.845 2.424 2.424 0 01.653-3.537c.386-.238.83-.364 1.283-.362a2.44 2.44 0 012.334 1.844zm362.688-66.968a2.416 2.416 0 01-1.65-.751 2.41 2.41 0 01-.68-1.684c0-.628.24-1.233.67-1.689a2.441 2.441 0 011.65-.762c.54 0 1.06.18 1.48.512.42.332.71.796.84 1.318l304.61-.013.01 1.225-304.64.042a2.42 2.42 0 01-.85 1.31c-.42.331-.93.514-1.47.521l.03-.029zm-482.375-68.031l113.245-.052 28.62-28.62 104.7-.034 28.59 28.587 115.82-.038 35.59 35.589 69.85-.023 19.13-19.132-46.53.101-29.15-29.552-99.35.047-.01-1.225 99.86-.033 29.17 29.553 12.96-.019-42.66-42.664-145.69.048v-1.211l146.19-.062 43.85 43.845 83.75-.013 221.36-.13.02 1.225-220.8.029-35.61 35.613-115.89.124-28.6 28.605-104.69.078-28.63-28.63-113.27.023a2.348 2.348 0 01-2.293 1.744 2.442 2.442 0 01-2.487-2.692 2.451 2.451 0 014.172-1.475c.326.329.552.745.651 1.197l113.737-.022 28.6 28.601 103.78-.034 28.62-28.62 115.82-.038 34.39-34.387-49.47.016-20.4 20.402-70.87.009-35.62-35.618-115.82.037-28.61-28.601-103.771.034-28.576 28.577-113.722.152a2.4 2.4 0 01-2.321 1.831 2.445 2.445 0 01-.012-4.886 2.406 2.406 0 012.348 1.772l.029-.028zm-22.111-84.196l184.605.055 28.601 28.601 249.19-.211 43.78 43.774 305.2-.028v1.211l-305.57.099-43.81-43.816-249.19.067-28.59-28.587-184.202.06a2.427 2.427 0 01-4.27.845 2.424 2.424 0 01.653-3.537 2.398 2.398 0 012.757.154c.421.331.718.793.846 1.313zm25.341-50.959l184.205-.06 28.6-28.606 573.29-.144v1.211l-572.81.187-28.62 28.62-184.723.06a2.413 2.413 0 01-2.307 1.846 2.444 2.444 0 01-.915-4.73 2.447 2.447 0 013.236 1.66l.044-.044zm-30.941-14.245l209.266-.054 28.62-28.62 579.13-.16v1.21l-578.64.161-28.63 28.634-209.761.055a2.389 2.389 0 01-2.321 1.83 2.427 2.427 0 01-2.253-1.5 2.412 2.412 0 01-.182-.934 2.427 2.427 0 014.771-.622zM1227.63 86.84a2.47 2.47 0 01-2.44-2.45 2.418 2.418 0 012.11-2.406c.58-.076 1.18.063 1.66.391.49.329.85.824 1 1.394l377.93-.11v1.212l-377.93.137c-.14.517-.44.975-.86 1.306-.42.33-.93.515-1.47.526zm26.97 214.547c-.46.01-.91-.11-1.3-.346-.4-.237-.72-.58-.93-.99a2.448 2.448 0 01-.25-1.33c.04-.459.21-.896.49-1.262s.66-.646 1.09-.808a2.447 2.447 0 012.55.524c.33.318.56.724.68 1.17l350.89-.129.01 1.225-350.9.115c-.13.52-.43.982-.85 1.314-.42.332-.94.514-1.48.517zm114.87 106.535a2.433 2.433 0 01-1.87-.629 2.501 2.501 0 01-.59-.819 2.4 2.4 0 01-.21-.987c0-.34.08-.676.21-.988a2.456 2.456 0 012.46-1.449 2.382 2.382 0 012.32 1.83l235.94-.092.01 1.225-235.95.078a2.383 2.383 0 01-2.32 1.831zM236.166 381.743l-584.488.191.014 1.225 584.978-.191 28.62-28.62 59.988-.02a2.384 2.384 0 002.32 1.83 2.446 2.446 0 00.002-4.872 2.386 2.386 0 00-2.321 1.831l-60.536.02-28.577 28.606zm35.848-95.126l126.016-.026 13.818 13.818 19.169-.064a2.427 2.427 0 014.27-.845 2.424 2.424 0 01-.653 3.537 2.398 2.398 0 01-2.757-.154 2.403 2.403 0 01-.846-1.313l-19.616-.008-13.818-13.818-126.116.128-28.601-28.601-591.148.164.001-1.211 591.68-.208 28.601 28.601zM.558 231.431l256.139-.069 28.601 28.601 44.205-.029a2.387 2.387 0 013.001-.916 2.383 2.383 0 01.304 4.187 2.383 2.383 0 01-3.665-2.046h-44.35l-28.587-28.586-256.21.083-43.616-43.614-304.697.013.015-1.225 305.274-.043L.558 231.431zm290.756 185.563l-18.887 18.888 229.33-.003-.001 1.21-418.461.152-.059-39.997-431.549.213.001-1.211 432.226-.141h.605l157.48-.052 28.62-28.62 105.39-.034a2.386 2.386 0 012.321-1.831 2.417 2.417 0 012.253 1.501c.121.296.183.613.182.934a2.452 2.452 0 01-2.451 2.451 2.406 2.406 0 01-2.306-1.844l-104.9.034-28.446 28.447-.433-.433v.606l-157.71.051.001 38.7 157.451-.051 39.924-39.924 115.306-.038a2.412 2.412 0 012.307-1.845 2.432 2.432 0 011.734.716 2.452 2.452 0 01.005 3.459 2.443 2.443 0 01-1.726.711 2.387 2.387 0 01-2.32-1.83l-114.701.038-38.77 38.77 26.953-.009 20.185-20.185 285.657-.137-.058 1.268-285.153.036zM130.783 273.62l93.657-.031a2.47 2.47 0 012.677-1.867 2.465 2.465 0 01.056 4.894 2.465 2.465 0 01-2.719-1.802l-93.182.016-64.059 64.059 77.284-.025a2.43 2.43 0 013.201-1.64 2.428 2.428 0 011.556 2.036 2.43 2.43 0 01-2.423 2.659 2.387 2.387 0 01-2.32-1.83l-492.935.161.015-1.225 413.921-.135 65.271-65.27zm-64.86 1.462a2.427 2.427 0 014.167-.983c.389.443.603 1.012.603 1.601a2.468 2.468 0 01-2.437 2.437 2.402 2.402 0 01-2.334-1.844l-29.533.024 24.639 24.639 16.085-.006 24.092-24.092a2.308 2.308 0 01-.374-1.211 2.452 2.452 0 013.385-2.268 2.41 2.41 0 011.319 1.319c.122.296.184.613.182.933a2.441 2.441 0 01-1.512 2.266 2.441 2.441 0 01-.939.185 2.316 2.316 0 01-1.196-.36l-24.395 24.396-17.109.02-25.935-25.936-382.904.125-.014-1.225 414.21-.02zm-9.053 44.785a2.472 2.472 0 011.211-.346 2.446 2.446 0 11-2.437 2.437 2.53 2.53 0 01.361-1.226l-27.607-27.607-376.677.181.001-1.211 377.225-.123 27.924 27.895zM123.458-25.18l59.989.096a2.406 2.406 0 014.756.603 2.457 2.457 0 01-.717 1.734 2.448 2.448 0 01-1.734.717 2.406 2.406 0 01-2.306-1.844l-60.536.02-28.6-28.601-442.475.101v-1.21l443.08-.16 28.543 28.544zm-5.856 14.329l209.281-.069a2.408 2.408 0 012.307-1.845 2.44 2.44 0 012.264 1.51c.123.298.186.617.185.939a2.432 2.432 0 01-1.503 2.254 2.423 2.423 0 01-2.411-.33 2.38 2.38 0 01-.842-1.317l-209.786.083-28.601-28.601-436.738.128.001-1.21 437.314-.1L117.6-10.852zM83.143-25.124l28.659 28.659 184.202-.06a2.408 2.408 0 012.307-1.846 2.447 2.447 0 012.48 2.66 2.45 2.45 0 01-2.91 2.186 2.448 2.448 0 01-1.892-1.775l-184.706.046-28.587-28.587-430.886.098.015-1.226 431.318-.155zm46.447 66.488l126.088.017 13.87-13.87 19.602-.007a2.43 2.43 0 011.873-1.75 2.424 2.424 0 011.744 4.442 2.43 2.43 0 01-1.283.363 2.444 2.444 0 01-2.32-1.83l-19.127-.008-13.826 13.827-126.016.055-28.62 28.62-449.695.147.001-1.21 449.19-.162 28.519-28.634zm13.886 26.112l42.88-.028a2.424 2.424 0 014.77.618 2.488 2.488 0 01-2.451 2.451 2.4 2.4 0 01-2.305-1.844l-42.404.014-28.534 28.533-463.661.253.015-1.226 463.171-.136 28.519-28.635zM100.395-67.418l.433-.433 28.471 28.472 104.944-.078a2.388 2.388 0 012.22-1.817 2.429 2.429 0 012.253 1.502 2.457 2.457 0 01-.535 2.668 2.448 2.448 0 01-1.734.716 2.401 2.401 0 01-2.306-1.844l-105.404.05-28.601-28.602-448.297.132-.014-1.225 448.657-.147-.087.606zm-181.739 94.74l17.123-.005 24.495 24.494c.388-.275.85-.426 1.326-.433a2.445 2.445 0 01.483 4.846 2.445 2.445 0 01-2.92-2.409c.004-.383.103-.76.289-1.095l-24.149-24.15-16.1-.008-24.654 24.655 29.403-.01a2.426 2.426 0 114.514 1.707 2.428 2.428 0 01-2.18 1.348 2.383 2.383 0 01-2.32-1.83l-30.643.01-241.581.093v-1.21l241.005-.094 25.909-25.909zm-4.318-18.736a2.486 2.486 0 01-.374-1.21 2.45 2.45 0 014.9-.002 2.385 2.385 0 01-3.676 2.091l-27.985 27.986-235.341.077-.014-1.225 234.851-.077 27.64-27.64zM5.12-12.602a2.446 2.446 0 11-.016 4.886 2.404 2.404 0 01-2.32-1.83L-74.5-9.52l63.974 63.974 93.168-.03a2.428 2.428 0 014.27-.845 2.423 2.423 0 01-.654 3.537 2.42 2.42 0 01-1.282.362 2.444 2.444 0 01-2.335-1.844l-93.657.03-65.228-65.227-271.921.089v-1.21l350.877-.087a2.448 2.448 0 012.336-1.845l.072.014zm427.407-74.051l-283.394.15-20.172-20.172-26.938-.005 38.643 38.643 114.702-.037a2.382 2.382 0 012.321-1.831 2.42 2.42 0 012.252 1.501c.122.296.184.614.183.934a2.427 2.427 0 01-4.771.621l-115.307.038-39.883-39.883-103.848.106L13.98-88.923a2.506 2.506 0 112.558 4.31 2.508 2.508 0 01-3.752-1.87 2.507 2.507 0 01.344-1.59L-5.43-106.63l-52.19.032-25.736 25.736h-264.773l-.014-1.225 264.37-.087 25.764-25.765 415.334-.078a2.429 2.429 0 012.652-1.734 2.423 2.423 0 012.104 2.367 2.425 2.425 0 01-2.128 2.38 2.425 2.425 0 01-2.643-1.788l-226.664.074 18.948 18.948 282.832-.107a2.41 2.41 0 012.364-2.048 2.443 2.443 0 012.05 3.837 2.447 2.447 0 01-4.314-.564zM321.326 55.585l-184.188.075-28.605 28.605-456.758.15.015-1.226 456.224-.135 28.62-28.62 184.692-.06a2.43 2.43 0 011.873-1.75 2.423 2.423 0 012.642 3.457 2.435 2.435 0 01-2.181 1.348 2.444 2.444 0 01-2.334-1.844zm-362.69 66.967a2.447 2.447 0 01.013 4.886 2.379 2.379 0 01-2.32-1.829l-304.611.013-.014-1.225 304.64-.042a2.429 2.429 0 012.321-1.832l-.029.029zm482.377 68.032l-113.245.051-28.62 28.62-104.699.034-28.586-28.586-115.826.038-35.589-35.59-69.847.023-19.132 19.133 46.526-.102 29.148 29.552 99.351-.046.014 1.225-99.855.032-29.177-29.552-12.958.019 42.664 42.664 145.69-.048-.001 1.211-146.194.062-43.845-43.845-83.756.013-221.36.13-.014-1.226 220.798-.028 35.612-35.613 115.883-.124 28.606-28.606 104.683-.077 28.63 28.63 113.274-.023a2.35 2.35 0 012.293-1.745 2.443 2.443 0 012.487 2.693 2.45 2.45 0 01-2.981 2.137 2.44 2.44 0 01-1.842-1.86l-113.736.023-28.601-28.601-103.775.034-28.62 28.62-115.826.037-34.386 34.387 49.466-.016 20.401-20.401 70.87-.009 35.619 35.618 115.825-.038 28.601 28.601 103.776-.034 28.576-28.576 113.721-.153a2.412 2.412 0 012.322-1.831 2.446 2.446 0 01.012 4.886 2.405 2.405 0 01-2.348-1.772l-.029.029zm22.111 84.195l-184.605-.055-28.601-28.601-249.192.211-43.773-43.773-305.202.028v-1.211l305.562-.1L1.13 245.095l249.191-.067 28.587 28.586 184.202-.06a2.43 2.43 0 013.201-1.639 2.419 2.419 0 011.556 2.035 2.434 2.434 0 01-1.14 2.297 2.404 2.404 0 01-3.603-1.468zm-25.341 50.96l-184.202.06-28.605 28.605-573.289.144v-1.21l572.814-.188 28.619-28.619 184.721-.061a2.412 2.412 0 012.307-1.845 2.44 2.44 0 012.48 2.66 2.443 2.443 0 01-2.91 2.185 2.442 2.442 0 01-1.891-1.775l-.044.044zm30.941 14.244l-209.267.054-28.619 28.62-579.127.16v-1.21l578.637-.16 28.634-28.635 209.757-.054a2.39 2.39 0 012.321-1.831 2.413 2.413 0 011.725.71 2.413 2.413 0 01.71 1.725 2.427 2.427 0 01-4.771.621zm-436.76-17.225a2.482 2.482 0 012.449 2.449 2.428 2.428 0 01-3.78 2.015 2.423 2.423 0 01-.991-1.393l-377.931.109v-1.211l377.931-.138a2.446 2.446 0 012.321-1.831zM4.993 108.21a2.449 2.449 0 012.232 1.337 2.446 2.446 0 11-4.553 1.705l-350.892.129-.014-1.225 350.906-.114a2.405 2.405 0 012.321-1.832zM-109.874 1.676a2.443 2.443 0 012.46 3.422 2.449 2.449 0 01-2.462 1.45 2.382 2.382 0 01-2.319-1.83l-235.932.091-.014-1.225 235.946-.077a2.389 2.389 0 012.321-1.831z"/></g><defs><linearGradient id="paint0_linear_115_2" x1="18.438" y1="22.092" x2="1105.03" y2="864.367" gradientUnits="userSpaceOnUse"><stop offset=".216" stop-color="#0F4881"/><stop offset="1" stop-color="#0E2C4E"/></linearGradient></defs></svg>