<svg width="46" height="46" fill="none" xmlns="http://www.w3.org/2000/svg"><circle cx="23" cy="23" r="23" fill="#FF8515"/><g clip-path="url(#clip0_41_578)" fill="#fff"><path d="M17.09 22.186l-1.399-.377c-.21-.059-.452-.29-.629-.048s0 .49.172.684c.413.469.936.828 1.522 1.044.253.127.517.226.79.296a1.925 1.925 0 011.313 1.077c-.764.27-1.533.539-2.297.803-.855.312-1.715.619-2.554.963a3.764 3.764 0 00-2.323 2.332c-.167.512-.162.538-.694.538-1.076 0-2.19-.026-3.28 0A1.612 1.612 0 016 27.765V26.3a1.994 1.994 0 011.436-2.046c.769-.29 1.543-.539 2.291-.878.38-.175.73-.406 1.043-.684.2-.183.354-.412.447-.667.107-.28-.054-.42-.355-.334-.463.134-.925.301-1.399.393a3.083 3.083 0 01-1.898-.226c-.473-.216-.479-.383-.08-.69a4.64 4.64 0 001.925-3.591c.037-.646.102-1.292.204-1.933a2.78 2.78 0 011.866-2.213 4.126 4.126 0 013.926.334 2.809 2.809 0 011.302 2.256c.064.614.113 1.233.161 1.847a.416.416 0 01-.043.231 2.9 2.9 0 00-.323 2.111c.033.672.253 1.32.635 1.874l-.048.102zm6.84 9.827c.049-.129.108-.253.146-.382.516-1.676 1.03-3.351 1.543-5.024.119-.382.124-.414.495-.29 1.124.37 2.243.753 3.356 1.157a13.8 13.8 0 011.651.679 1.904 1.904 0 011.135 1.917c-.032.748 0 1.502 0 2.25a1.569 1.569 0 01-.683 1.416c-.25.159-.538.25-.834.264H14.605a1.482 1.482 0 01-1.614-1.459 25.752 25.752 0 010-2.95 1.79 1.79 0 011.221-1.514 30.662 30.662 0 012.458-.974c.844-.302 1.613-.539 2.442-.814.382-.118.382-.091.5.286.516 1.68 1.036 3.362 1.56 5.045a.83.83 0 00.21.361c.15-1.158.317-2.32.43-3.484-.03-.27-.127-.53-.28-.754a.598.598 0 010-.635.57.57 0 01.366-.242c.451-.033.909 0 1.366 0a.538.538 0 01.484.737 2.571 2.571 0 00-.232 1.869c.124.84.22 1.68.334 2.525l.08.016zm9.751-2.514a3.319 3.319 0 00-1.56-2.413 7.01 7.01 0 00-1.188-.597 72.795 72.795 0 00-2.27-.857 62.089 62.089 0 00-2.248-.775c.253-.404.538-.845.796-1.27.049-.07.172-.098.269-.125a3.58 3.58 0 001.79-1.023.985.985 0 00.162-1.324 3.03 3.03 0 01-.263-.442 4.45 4.45 0 01-.345-1.05 4.503 4.503 0 00-.408-1.545 3.285 3.285 0 01-.194-.706c.387 0 .339-.22.323-.446-.043-.657-.086-1.309-.08-1.966a.836.836 0 01.537-.754c.186-.1.346-.242.468-.414a1.414 1.414 0 01.914-.641 4.625 4.625 0 012.582.065c.272.14.52.321.736.538.162.135.275.35.458.426a.996.996 0 01.607 1.076c0 .598-.07 1.19-.123 1.783 0 .21 0 .307.242.355.123 0 .306.21.295.312-.037.501-.129.991-.21 1.486a.144.144 0 01-.058.103c-.694.447-.71 1.308-1.173 1.906-.328.42-.215.802.15 1.2.408.457.93.795 1.512.98.65.21 1.296.464 1.941.695.947.345 1.76 1.013 1.646 2.321-.037.399 0 .808 0 1.217a3.97 3.97 0 01-.123.835 1.476 1.476 0 01-1.28 1.077c-1.297-.011-2.582-.027-3.905-.027zm-6.706-12.945c-.065.43-.156 1.104-.264 1.772-.038.236 0 .355.269.387a.464.464 0 01.398.539 9.933 9.933 0 01-.21 1.647 1.35 1.35 0 01-.457.587 1.767 1.767 0 00-.538.857 4.152 4.152 0 01-2.414 2.692c-1.587.732-3.48-.436-4.158-1.616-.236-.42-.387-.888-.597-1.324a1.383 1.383 0 00-.36-.49 1.54 1.54 0 01-.597-.926c-.074-.44-.12-.885-.14-1.33 0-.377.161-.539.538-.625.28-.043.226-.226.21-.41-.065-.683-.15-1.367-.194-2.056a3.236 3.236 0 01.086-.78 1.144 1.144 0 01.645-.862c.249-.123.46-.308.614-.539a1.97 1.97 0 011.253-.905 6.58 6.58 0 014.184.437c1.194.511 1.732 1.437 1.732 2.945z"/></g><defs><clipPath id="clip0_41_578"><path fill="#fff" transform="translate(6 13)" d="M0 0h33v21H0z"/></clipPath></defs></svg>