<svg width="24" height="21" fill="none" xmlns="http://www.w3.org/2000/svg"><g clip-path="url(#clip0_125_277)" fill="#FF8515"><path d="M24 11.036c0 .22-.046.434-.076.655a10.182 10.182 0 01-1.629 4.478 10.563 10.563 0 01-3.514 3.307 10.669 10.669 0 01-4.892 1.472 11.087 11.087 0 01-6.404-1.541 10.596 10.596 0 01-4.292-4.861 10.085 10.085 0 01-.758-5.298c.038-.294.083-.581.129-.89H0l3.451-4.341 3.444 4.356H4.938c-.121 0-.167 0-.197.147a8.052 8.052 0 00.013 4.026 8.219 8.219 0 001.967 3.545 8.168 8.168 0 002.536 1.928 8.394 8.394 0 003.107.831 8.651 8.651 0 004.404-.686 8.364 8.364 0 003.424-2.772 7.924 7.924 0 001.623-5.268 8.218 8.218 0 00-1.288-4.045 8.549 8.549 0 00-3.16-2.921 8.866 8.866 0 00-4.227-1.054 8.863 8.863 0 00-4.22 1.081l-.09.044-1.61-1.523.66-.383a10.668 10.668 0 014.551-1.31A10.91 10.91 0 0117.64.9a10.567 10.567 0 014.122 3.212 9.928 9.928 0 012.155 5.07c0 .257.053.515.083.736v1.118z"/><path d="M12.136 9.565V5.357a1.036 1.036 0 01.176-.645 1.088 1.088 0 011.03-.47 1.062 1.062 0 01.805.514c.085.14.134.298.144.46v6.269a1.047 1.047 0 01-.536 1.019 1.12 1.12 0 01-1.179-.047l-3.42-2.318c-.197-.123-.35-.3-.44-.509a1.095 1.095 0 01-.069-.661c.033-.135.095-.261.18-.372a1.07 1.07 0 011.14-.364c.174.046.338.121.486.22.515.34 1.016.685 1.517 1.031l.166.081z"/></g><defs><clipPath id="clip0_125_277"><path fill="#fff" d="M0 0h24v21H0z"/></clipPath></defs></svg>