<svg width="46" height="46" fill="none" xmlns="http://www.w3.org/2000/svg"><circle cx="23" cy="23" r="23" fill="#FF8515"/><path d="M12 11h19.424v19.479H14.226a21.27 21.27 0 00.04 2.675 2.07 2.07 0 002.147 1.653 2.15 2.15 0 001.365-.547 2.16 2.16 0 00.697-1.299c0-.09.034-.187.05-.301H38c-.087.502-.202 1-.346 1.488a4.293 4.293 0 01-1.612 2.092 4.273 4.273 0 01-2.528.749H16.299a4.234 4.234 0 01-2.526-.827 4.254 4.254 0 01-1.54-2.173A5.361 5.361 0 0112 32.433V11zm3.274 9.753v2.13h12.904v-2.13H15.274zm0 6.46H28.19v-2.125H15.263l.011 2.124zm5.93-11.214l-1.699-1.704-1.54 1.534 2.362 2.328a1.099 1.099 0 001.7 0l2.344-2.329 1.105-1.096-1.524-1.522-2.747 2.789z" fill="#fff"/></svg>