<svg width="20" height="24" fill="none" xmlns="http://www.w3.org/2000/svg"><g clip-path="url(#clip0_131_205)" fill="#FF8515"><path d="M10.419 23.968h-.973a9.22 9.22 0 01-1.748-.256 9.857 9.857 0 01-4.507-2.428 10.009 10.009 0 01-2.202-3.02A9.917 9.917 0 010 14.724a9.601 9.601 0 01.096-2.245 9.807 9.807 0 01.63-2.285 10.05 10.05 0 016.781-5.88c.327-.088.662-.144.99-.215V3.02h-.631a1.5 1.5 0 01-1.213-1.254A1.48 1.48 0 017.371.224C7.566.13 7.77.055 7.978 0h3.989l.191.04a1.5 1.5 0 011.148 1.534 1.504 1.504 0 01-1.292 1.414h-.55v1.119a10.37 10.37 0 014.5 1.901l.646-.655a1.476 1.476 0 011.348-.432 1.443 1.443 0 011.188.975 1.4 1.4 0 01-.247 1.462c-.223.264-.479.504-.726.743a.113.113 0 000 .168 9.46 9.46 0 01.973 1.694c.562 1.258.864 2.617.886 3.994.006.9-.118 1.796-.367 2.66a10.012 10.012 0 01-3.255 5.034 9.847 9.847 0 01-2.736 1.598 9.56 9.56 0 01-2.72.647l-.535.072zm6.677-9.979a7.15 7.15 0 00-4.343-6.577 7.122 7.122 0 00-7.742 1.435 7.145 7.145 0 00-1.705 7.699 7.125 7.125 0 006.41 4.578 7.106 7.106 0 005.195-1.984 7.128 7.128 0 002.185-5.119v-.032z"/><path d="M10.834 13.319l.941.247 1.755.464a1.11 1.11 0 01.83 1.15 1.127 1.127 0 01-1.045.975 3.006 3.006 0 01-.798-.152l-2.992-.799a1.1 1.1 0 01-.861-1.11v-4.33a1.104 1.104 0 011.08-1.123 1.1 1.1 0 011.122 1.082v3.596h-.032z"/></g><defs><clipPath id="clip0_131_205"><path fill="#fff" d="M0 0h20v24H0z"/></clipPath></defs></svg>