<svg width="22" height="22" fill="none" xmlns="http://www.w3.org/2000/svg"><path fill-rule="evenodd" clip-rule="evenodd" d="M11 22c6.075 0 11-4.925 11-11S17.075 0 11 0 0 4.925 0 11s4.925 11 11 11zm-1.764-8.862v-1.426h.131c.808 0 1.654 0 2.495-.005.495-.001.986-.08 1.457-.232a3.05 3.05 0 001.34-.8c.372-.379.64-.848.779-1.363a4.268 4.268 0 000-2.267 3.045 3.045 0 00-.602-1.216A3.002 3.002 0 0013.77 5a4.449 4.449 0 00-1.913-.418H7.826v8.555h-1.41v1.426h1.41v2.852h1.41v-2.852h4.924v-1.426H9.236zm.065-2.852h-.065V6.01h2.574c.366-.001.729.057 1.076.17.343.097.648.299.873.578.224.28.358.622.382.982.05.374.033.754-.052 1.121a1.716 1.716 0 01-.478.858 1.69 1.69 0 01-.866.45 3.984 3.984 0 01-.883.118h-2.56z" fill="#FF8515"/></svg>