<svg width="21" height="21" fill="none" xmlns="http://www.w3.org/2000/svg"><path d="M21.028 4.885a4.267 4.267 0 01-1.317 1.846l-5.44-5.422a13.48 13.48 0 011.035-.95 1.8 1.8 0 012.324.144c.957.917 1.887 1.856 2.844 2.813.276.277.456.635.515 1.022.01.029.024.056.039.083v.464zm-9.928-.57l5.678 5.632-.166.171-8.655 8.571a1.92 1.92 0 01-.857.498L.99 20.999a.776.776 0 01-.763-.237.729.729 0 01-.183-.79c.244-.896.51-1.736.753-2.62.354-1.21.72-2.415 1.073-3.625.081-.255.228-.484.427-.663l6.435-6.372 2.369-2.377zM6.525 17.684a1.849 1.849 0 00-.221-.21.863.863 0 01-.354-.763c0-.47-.05-.934-.067-1.404 0-.16-.066-.226-.221-.232-.476-.033-.946-.072-1.422-.1a1.014 1.014 0 01-.841-.38c0-.028-.061-.045-.094-.067-.034-.022-.034.044-.04.066-.309 1.067-.624 2.133-.929 3.206a.37.37 0 00.089.281c.141.178.3.341.476.487a.42.42 0 00.32.077 188.28 188.28 0 003.304-.961zm12.361-9.848L17.708 8.94l-5.65-5.626 1.184-1.105 5.644 5.626z" fill="#FF8515"/></svg>