<svg width="46" height="46" fill="none" xmlns="http://www.w3.org/2000/svg"><circle cx="23" cy="23" r="23" fill="#FF8515"/><g clip-path="url(#clip0_9_390)" fill="#fff"><path d="M21.17 33.208c.076-.502.158-1.053.261-1.654a31.402 31.402 0 01-1.531-1.55c-.442-.486-1.793-1.865-1.09-3.906.703-2.04 2.621-2.35 3.27-2.454l.654-.122c.387-.077.812-.16 1.259-.215.313-.786.69-1.544 1.128-2.267a4.431 4.431 0 012.567-1.947c.215-.048.434-.073.654-.072.883 0 2.126.381 3.041 2.207.175.342.338.684.502 1.031.163.348.338.712.512 1.048l.883.127.256.039c.463-.463.927-.921 1.357-1.412.763-.872 1.455-1.82.998-3.062-.458-1.24-1.592-1.516-2.725-1.698-1.701-.27-3.407-.475-5.102-.762a1.216 1.216 0 01-.774-.584c-.757-1.479-1.422-3.006-2.18-4.474a7.836 7.836 0 00-1.395-1.93 1.74 1.74 0 00-1.295-.557 1.722 1.722 0 00-1.278.595 6.325 6.325 0 00-1.182 1.617c-.698 1.379-1.357 2.758-1.94 4.203-.344.844-.802 1.335-1.76 1.34-.644.043-1.282.14-1.908.292-1.23.164-2.448.407-3.647.728-1.71.552-2.18 2.036-1.215 3.57.26.399.56.769.9 1.102 1.09 1.104 2.18 2.256 3.324 3.31a1.7 1.7 0 01.545 1.765c-.338 1.875-.605 3.767-.834 5.251-.065 2.84 1.39 3.828 3.58 2.857.09-.038.177-.08.262-.127a379.365 379.365 0 003.854-2.134.304.304 0 00.049-.155z"/><path d="M23.225 34.196c.114-.733.245-1.693.43-2.636a1.256 1.256 0 00-.446-1.33 30.416 30.416 0 01-1.739-1.726c-.436-.458-.856-.982-.621-1.655.234-.673.888-.882 1.548-.987a19.902 19.902 0 012.261-.364c.259-.002.51-.089.714-.248.205-.16.352-.383.42-.635a15.16 15.16 0 011.128-2.377c.273-.463.7-.81 1.205-.982.605-.121 1.04.43 1.28.982.436.86.818 1.748 1.287 2.587.187.278.471.475.795.552.91.193 1.843.259 2.758.44 1.38.271 1.739 1.291.818 2.378-.638.75-1.385 1.407-2.022 2.157-.207.266-.31.6-.29.938.093.888.3 1.759.437 2.647.098.651.169 1.357-.447 1.793-.616.436-1.194.165-1.76-.133-.72-.386-1.45-.744-2.142-1.169a1.081 1.081 0 00-1.248 0c-.753.463-1.527.9-2.322 1.29-1.248.652-2.071.105-2.044-1.522z"/></g><defs><clipPath id="clip0_9_390"><path fill="#fff" transform="translate(9 9)" d="M0 0h27v27H0z"/></clipPath></defs></svg>