<svg width="19" height="21" fill="none" xmlns="http://www.w3.org/2000/svg"><path d="M18.101 4.07l.172.425a.32.32 0 000 .057c.046.259.077.52.092.784V18.45a2.598 2.598 0 01-2.562 2.548H2.655A2.552 2.552 0 01.517 19.93a3.056 3.056 0 01-.225-.356l-.178-.446a.271.271 0 000-.053A6.944 6.944 0 010 18.287V15.89c0-3.536.007-7.071.021-10.607a2.616 2.616 0 012.666-2.666h1.925V1.308H6.29a.225.225 0 00.14-.067c.186-.198.385-.383.595-.556A3.635 3.635 0 019.658.036a3.34 3.34 0 012.331 1.233.2.2 0 00.14.05h1.664v1.312h1.97A2.58 2.58 0 0117.902 3.7c.057.132.125.256.2.37zm-5.627 1.184V2.63h-1.447a1.222 1.222 0 00-.713-1.038 2.334 2.334 0 00-2.199 0c-.308.14-.547.397-.666.713a3.057 3.057 0 00-.09.357H5.935v2.62l6.54-.03zM4.362 12.48a2.583 2.583 0 00-.196.132.655.655 0 00.467 1.151h9.124a.656.656 0 000-1.311h-9.07a2.887 2.887 0 00-.325.028zm9.659 4.537a.666.666 0 00.303-.962.714.714 0 00-.663-.314H4.633a.657.657 0 00-.65.916.656.656 0 00.65.392h9.113c.092-.006.184-.016.275-.032zM4.35 9.21a.684.684 0 00-.391.755.666.666 0 00.673.524h9.092a.713.713 0 00.46-.146.656.656 0 00-.457-1.169H4.655a3.016 3.016 0 00-.303.036z" fill="#FF8515"/></svg>