<svg width="46" height="46" fill="none" xmlns="http://www.w3.org/2000/svg"><circle cx="23" cy="23" r="23" fill="#FF8515"/><g clip-path="url(#clip0_104_3)"><path d="M12.421 11H34.6l.128.059a1.845 1.845 0 011.262 1.787v21.362A1.954 1.954 0 0134.193 36H12.78A1.778 1.778 0 0111 34.208v-21.4a1.558 1.558 0 01.534-1.273 6.19 6.19 0 01.887-.535zm11.872 14.049a5.004 5.004 0 00-2.603-4.42 4.84 4.84 0 00-5.484.354 4.93 4.93 0 00-2.069 4.093l10.156-.027zm-7.777 3.745l5.965 5.826 9.087-8.512-1.422-1.434-7.665 7.084-4.533-4.43-1.432 1.466zm.144-12.498a2.554 2.554 0 002.529 2.568 2.554 2.554 0 002.555-2.557 2.559 2.559 0 00-2.555-2.557 2.543 2.543 0 00-2.529 2.546zm8.815-.444v.851h6.906v-.85h-6.906zm0 3.125v.85h6.906v-.85h-6.906zm6.906 2.947H25.48v.846h6.9v-.846z" fill="#fff"/></g><defs><clipPath id="clip0_104_3"><path fill="#fff" transform="translate(11 11)" d="M0 0h25v25H0z"/></clipPath></defs></svg>