<svg width="46" height="46" fill="none" xmlns="http://www.w3.org/2000/svg"><circle cx="23" cy="23" r="23" fill="#FF8515"/><g clip-path="url(#clip0_104_4)" fill="#fff"><path d="M16.683 23.444V13.29a2.254 2.254 0 012.24-2.29h9.51a1.412 1.412 0 011.087.447 817.231 817.231 0 006.038 6.032 1.426 1.426 0 01.442 1.07V33.69a2.276 2.276 0 01-2.3 2.305H19.064a2.33 2.33 0 01-2.381-2.386c.01-3.387 0-6.773 0-10.165zm9.648.061h-3.976a1.133 1.133 0 10.05 2.26h7.939a1.133 1.133 0 00-.05-2.26H26.33zm-1.112 6.788h2.864a1.133 1.133 0 00-.03-2.264h-5.637a1.138 1.138 0 100 2.27l2.803-.006zm8.536-11.332l-5.713-5.712v4.473a1.152 1.152 0 001.24 1.24h4.473zM15.012 35.965c-.697.038-1.396.038-2.093 0A2.19 2.19 0 0111 33.77v-20.5A2.259 2.259 0 0113.235 11h1.793l-.208.447a4.405 4.405 0 00-.407 1.889V33.69a4.43 4.43 0 00.559 2.188c.016.028.03.057.04.087z"/></g><defs><clipPath id="clip0_104_4"><path fill="#fff" transform="translate(11 11)" d="M0 0h25v25H0z"/></clipPath></defs></svg>