<svg width="46" height="46" fill="none" xmlns="http://www.w3.org/2000/svg"><circle cx="23" cy="23" r="23" fill="#FF8515"/><g clip-path="url(#clip0_104_2)" fill="#fff"><path d="M15.809 12.872v4.64h15.304v-4.63c.95-.053 1.902-.038 2.85.044.366.054.697.57.98.925.104.14.03.43.03.656V35.35c0 1.387-.272 1.65-1.64 1.65H13.678C12.24 37 12 36.758 12 35.29V14.545c0-1.388.267-1.662 1.619-1.673h2.19zm-.32 14.906l6.927 5.824 9.43-11.884-1.708-1.425-7.964 9.997-3.693-3.136c-1.719-1.484-1.719-1.484-2.992.624z"/><path d="M27.471 11.415l1.703.123v4.19H17.8v-4.195l1.77-.113v-.812a1.554 1.554 0 01.434-1.129 1.443 1.443 0 011.101-.441 76.59 76.59 0 014.716 0c1.142.032 1.477.56 1.65 2.377zm-3.945-.742c-.457 0-.895.186-1.219.518a1.793 1.793 0 00-.505 1.25c0 .47.182.92.505 1.252.324.332.762.518 1.22.518.43.014.85-.147 1.165-.45.316-.302.501-.72.516-1.163a1.824 1.824 0 00-.437-1.334 1.737 1.737 0 00-.563-.428 1.698 1.698 0 00-.682-.163z"/></g><defs><clipPath id="clip0_104_2"><path fill="#fff" transform="translate(12 9)" d="M0 0h23v28H0z"/></clipPath></defs></svg>