<svg width="49" height="50" fill="none" xmlns="http://www.w3.org/2000/svg"><g opacity=".5" clip-path="url(#clip0_154_229)"><path d="M48.75 2.014a.733.733 0 00-.792-.114L.423 23.986a.733.733 0 00-.014 1.322L13.86 31.91c.247.121.54.094.761-.07l13.08-9.777-10.268 10.562a.732.732 0 00-.206.567l1.023 13.314a.733.733 0 001.285.422l7.14-8.274 8.826 4.218a.732.732 0 001.015-.442L48.965 2.784a.733.733 0 00-.216-.77z" fill="rgba(255,255,255,0.5)"/></g><defs><clipPath id="clip0_154_229"><path fill="rgba(255,255,255,0.5)" transform="translate(0 .008)" d="M0 0h49v49H0z"/></clipPath></defs></svg>