<svg width="62" height="62" fill="none" xmlns="http://www.w3.org/2000/svg"><path d="M31 62a31 31 0 110-62 31 31 0 010 62zm0-61a30 30 0 100 60 30 30 0 000-60z" fill="#fff"/><path d="M23.54 22.21a7.47 7.47 0 017.33-7.57 7.472 7.472 0 01.21 14.94 7.51 7.51 0 01-7.54-7.37zm20.19 21.73v-4.4c0-1.05-.179-2.091-.53-3.08-1.15-3.12-3.5-4.13-6-4.86a2.71 2.71 0 00-2.64.43c-1.14.89-2.32 1.74-3.51 2.62-1.22-.92-2.42-1.79-3.59-2.69a2.51 2.51 0 00-2.46-.39l-1.28.43a7.93 7.93 0 00-5.45 7.55v4.43a3.43 3.43 0 003.43 3.42h18.6a3.427 3.427 0 003.43-3.46z" fill="#fff" fill-opacity=".5"/><path d="M30.87 30.08A8 8 0 0123 22.23a7.618 7.618 0 012.12-5.54 8.061 8.061 0 015.7-2.55 7.998 7.998 0 018.173 11.067 8 8 0 01-7.933 4.873h-.19zm.2-14.94h-.19a6.999 6.999 0 00-5 2.24A6.588 6.588 0 0024 22.19a7 7 0 006.83 6.89h.2A6.892 6.892 0 0038 22a7.002 7.002 0 00-2.12-5 6.88 6.88 0 00-4.81-1.86zm9.23 32.72H21.7a3.93 3.93 0 01-3.93-3.92v-4.43a8.37 8.37 0 015.8-8l1.27-.4a3.001 3.001 0 012.88.47c.83.64 1.67 1.26 2.53 1.9L31 34l.79-.57c.81-.6 1.62-1.2 2.42-1.82a3.2 3.2 0 013.08-.51c2.41.7 5.09 1.73 6.36 5.17a9.53 9.53 0 01.56 3.24v4.41a3.93 3.93 0 01-3.91 3.94zM25.89 31.92a2.55 2.55 0 00-.75.12l-1.26.4a7.38 7.38 0 00-5.11 7.07v4.43a2.93 2.93 0 002.93 2.92h18.6a2.93 2.93 0 002.93-2.92v-4.4a8.611 8.611 0 00-.5-2.91c-1.11-3-3.42-3.89-5.7-4.55a2.22 2.22 0 00-2.19.34c-.8.63-1.62 1.23-2.44 1.83l-1.38 1-1.36-1c-.86-.64-1.7-1.26-2.54-1.9a1.91 1.91 0 00-1.23-.43z" fill="#fff"/></svg>