<svg width="35" height="35" fill="none" xmlns="http://www.w3.org/2000/svg"><path d="M17.347 35C7.43 34.64-.115 27.203.001 17.287.125 7.044 8.208-.16 17.725.003c10.179.179 17.379 8.077 17.274 17.59C34.883 27.797 26.944 34.856 17.347 35zm5.17-24.656c0-.887.052-1.895-.03-2.892-.026-.289-.417-.78-.657-.785-1.51-.036-3.051-.137-4.524.121-1.769.309-2.897 1.532-3.198 3.344-.198 1.206-.275 2.431-.402 3.682l-1.967.366c-.428 3.723-.39 3.83 1.961 4.354.036.08.105.16.105.242.02 2.479.039 4.958.044 7.417 0 3.938 0 3.913 3.953 3.693.913-.05 1.178-.416 1.156-1.27-.044-1.693 0-3.387 0-5.084V18.34c.858 0 1.559.099 2.207-.039.38-.08.91-.496.976-.826a27.39 27.39 0 00.293-3.087c-1.051-1.132-3.826.947-3.495-2.237.253-2.572 2.413-.751 3.578-1.806z" fill="#004584"/></svg>