<svg width="46" height="46" fill="none" xmlns="http://www.w3.org/2000/svg"><circle cx="23" cy="23" r="23" fill="#FF8515"/><path d="M12 14.11c0-.19.07-.37.12-.55a2.9 2.9 0 012.71-2.1H27a.985.985 0 00-.11.12l-2.8 2.77a.261.261 0 01-.22.09H16.8a1.69 1.69 0 00-1.56.86 1.46 1.46 0 00-.24.77v13.12A1.699 1.699 0 0016.77 31h13a1.67 1.67 0 001.72-1.41 1.579 1.579 0 000-.38V22.1a.32.32 0 01.1-.26l2.8-2.77.13-.07c.004.04.004.08 0 .12v11.93A2.91 2.91 0 0132 34H14.69a2.9 2.9 0 01-2.57-2.09c0-.19-.08-.38-.12-.57V14.11z" fill="#fff"/><path d="M36 14.38l-.1.08c-3.487 3.453-6.95 6.9-10.39 10.34l-.09.11-4.37-4.37L31.59 10c.31.3.64.61 1 .93l3.31 3.34.09.08.01.03zM19.45 22l4.5 4.5-5.89 1.4 1.39-5.9z" fill="#fff"/></svg>