<svg width="46" height="46" fill="none" xmlns="http://www.w3.org/2000/svg"><circle cx="23" cy="23" r="23" fill="#FF8515"/><path d="M14.907 10h15.684c.231.057.458.132.678.223a2.154 2.154 0 011.235 2.08v21.506a2.126 2.126 0 01-1.226 1.968A5.17 5.17 0 0130.6 36H14.907a5.79 5.79 0 01-.678-.223 2.163 2.163 0 01-1.225-2.08V12.191a2.145 2.145 0 011.226-1.968 5.79 5.79 0 01.677-.223zm10.029 1.096v5.774a.576.576 0 00.928.558c.54-.288 1.096-.548 1.635-.827a.335.335 0 01.325 0l1.588.827c.547.278.928.046.928-.567v-5.794l-5.404.028zm-2.164 9.731h-4.977a.53.53 0 00-.408.604c.055.315.278.464.696.464h9.37c.095.01.192.01.287 0a.51.51 0 00.409-.594c0-.307-.27-.465-.669-.465l-4.708-.009zm0 4.346h-4.707a1.537 1.537 0 00-.288 0 .52.52 0 00-.428.594c.056.316.28.464.678.464h9.444c.108.015.217.015.325 0a.54.54 0 00.279-.798.622.622 0 00-.595-.242l-4.708-.018zm0 5.413h4.708c.102.01.205.01.307 0a.51.51 0 00.408-.594c0-.316-.269-.464-.668-.464h-9.5a1.147 1.147 0 00-.306 0 .51.51 0 00-.362.603c.055.298.26.437.65.437l4.763.018zM19.504 16.5h2.628a.539.539 0 100-1.077h-5.284a.547.547 0 00-.594.548.56.56 0 00.594.529h2.656z" fill="#fff"/></svg>