<svg width="78" height="90" fill="none" xmlns="http://www.w3.org/2000/svg"><g clip-path="url(#clip0_9_224)" stroke="#0146A6" stroke-miterlimit="10"><path d="M38.827 89.379C30.71 82.84 21.509 77.76 14.724 69.655A58.264 58.264 0 01.533 31.469c-.05-7.07.01-14.142-.04-21.212-.01-1.154.335-1.549 1.48-1.795 12.04-2.545 24.072-5.257 36.104-7.87a3.659 3.659 0 011.568 0c12.13 2.613 24.25 5.325 36.39 7.919.987.207 1.253.572 1.253 1.529 0 7.702.237 15.414-.079 23.106-.789 19.122-8.964 34.408-24.28 45.868-4.605 3.442-9.27 6.785-14.102 10.365zm31.992-62.82V15.275c0-.986-.286-1.311-1.243-1.518-9.862-2.12-19.724-4.31-29.536-6.45a5.592 5.592 0 00-2.288 0c-9.862 2.14-19.675 4.34-29.527 6.45-1.036.217-1.322.601-1.322 1.617v16.37c.247 14.478 5.375 27.003 15.868 36.973 4.704 4.468 10.217 8.087 15.414 12.041a1.628 1.628 0 001.45-.128c3.255-2.317 6.47-4.694 9.675-7.08a52.544 52.544 0 0019.724-29.044c1.834-6.38 1.903-12.9 1.785-17.949z" fill="#CADAEF"/><path d="M28.896 35.148v-5.04a10 10 0 1119.99 0v4.98h2.298a1.775 1.775 0 012.021 1.973v16.677a1.736 1.736 0 01-1.923 1.962H26.41a1.695 1.695 0 01-1.854-1.834V36.893a1.647 1.647 0 011.766-1.745c.798-.03 1.578 0 2.574 0zm14.99-.089c0-1.972.128-3.807 0-5.64a4.93 4.93 0 00-4.793-4.32 4.822 4.822 0 00-5.03 3.836 46.874 46.874 0 000 6.124h9.823zm-5.129 15.395c2.525 0 2.584 0 1.914-2.426-.306-1.075-.424-1.894.582-2.811 1.005-.917.769-2.9-.326-3.945a2.959 2.959 0 00-4.083 0c-1.104.986-1.41 2.959-.305 3.945 1.104.986.818 1.883.532 2.959-.582 2.17-.483 2.268 1.687 2.278z"/></g><defs><clipPath id="clip0_9_224"><path fill="#fff" d="M0 0h77.86v90H0z"/></clipPath></defs></svg>