<svg width="21" height="20" fill="none" xmlns="http://www.w3.org/2000/svg"><g opacity=".5" fill="#fff"><path d="M1.607 2.412v12.006c-.004.17.005.339.025.507.105.754.493 1.1 1.272 1.125 1.131.022 2.265 0 3.4.02.398 0 .8.016 1.2.03a1.896 1.896 0 011.62.867 1.488 1.488 0 001.01.671 1.572 1.572 0 001.586-.572 5.43 5.43 0 01.55-.595c.33-.25.735-.38 1.149-.363 1.018-.022 2.034-.022 3.052-.033.506 0 1.016 0 1.525-.017.845-.03 1.271-.456 1.305-1.296.019-.5.016-1.002.016-1.503V2.442c.323-.02.646-.02.969 0 .385.05.625.396.627.85v14.17c0 .735-.275 1.01-.999 1.01-1.926 0-3.853.02-5.78 0a2.51 2.51 0 00-1.613.52 8.267 8.267 0 01-1.038.689 2.14 2.14 0 01-.95.32 2.525 2.525 0 01-1.1-.315A13.908 13.908 0 018.08 18.8a1.891 1.891 0 00-1.125-.339H.99c-.71 0-.991-.275-.991-.993.006-4.63.008-9.26.008-13.89V3.21a.79.79 0 01.826-.796c.242-.005.487-.002.773-.002z"/><path d="M3.242 14.44V.033A.275.275 0 013.336 0c1.3 0 2.604-.019 3.887.245.813.157 1.575.51 2.22 1.03a.49.49 0 01.199.435v13.365c-.369-.175-.707-.374-1.068-.506-.853-.314-1.745-.275-2.631-.242-.826.025-1.63.066-2.447.1l-.254.013zM17.663.017v14.4h-1.101c-.909-.024-1.817-.073-2.725-.079a4.002 4.002 0 00-2.543.801c0-.09-.014-.154-.014-.217V1.71a.523.523 0 01.206-.452 4.886 4.886 0 012.631-1.1C15.236.065 16.377.054 17.514 0c.05.003.1.008.149.017z"/></g></svg>