<svg width="91" height="90" fill="none" xmlns="http://www.w3.org/2000/svg"><g clip-path="url(#clip0_9_211)" stroke="#0146A6" stroke-miterlimit="10"><path d="M42.23 46.5h42V.5h-78v46h6"/><path d="M69.77 64.35a7.47 7.47 0 017.33-7.57 7.47 7.47 0 11.22 14.93 7.5 7.5 0 01-7.55-7.36zM90 86.07v-4.4a9.17 9.17 0 00-.52-3.07c-1.16-3.13-3.5-4.13-6-4.86a2.69 2.69 0 00-2.63.43c-1.15.89-2.33 1.74-3.51 2.61-1.34-.91-2.51-1.78-3.69-2.68a2.51 2.51 0 00-2.43-.39L70 74.1a7.92 7.92 0 00-5.45 7.55v4.43a3.44 3.44 0 003.44 3.42h18.54A3.43 3.43 0 0090 86.07zM37.77 64.35a7.47 7.47 0 017.33-7.57 7.47 7.47 0 11.22 14.93 7.5 7.5 0 01-7.55-7.36zM58 86.07v-4.4a9.17 9.17 0 00-.52-3.07c-1.16-3.13-3.5-4.13-6-4.86a2.69 2.69 0 00-2.63.43c-1.15.89-2.33 1.74-3.51 2.61-1.34-.91-2.51-1.78-3.69-2.68a2.51 2.51 0 00-2.43-.39L38 74.1a7.92 7.92 0 00-5.45 7.55v4.43a3.44 3.44 0 003.44 3.42h18.54A3.43 3.43 0 0058 86.07zM5.77 64.35a7.47 7.47 0 017.33-7.57 7.47 7.47 0 11.22 14.93 7.5 7.5 0 01-7.55-7.36zM26 86.07v-4.4a9.168 9.168 0 00-.52-3.07c-1.16-3.13-3.5-4.13-6-4.86a2.69 2.69 0 00-2.63.43c-1.15.89-2.33 1.74-3.51 2.61C12 75.87 10.83 75 9.65 74.1a2.51 2.51 0 00-2.43-.39L6 74.1a7.92 7.92 0 00-5.49 7.55v4.43a3.44 3.44 0 003.43 3.42h18.59A3.43 3.43 0 0026 86.07zm-6.23-64.72a7.47 7.47 0 017.33-7.57 7.47 7.47 0 11.22 14.93 7.5 7.5 0 01-7.55-7.36zM40 43.07v-4.4a9.17 9.17 0 00-.52-3.07c-1.16-3.13-3.5-4.13-6-4.86a2.69 2.69 0 00-2.63.43c-1.15.89-2.33 1.74-3.51 2.61-1.34-.91-2.51-1.78-3.69-2.68a2.51 2.51 0 00-2.43-.39L20 31.1a7.92 7.92 0 00-5.45 7.55v4.43a3.44 3.44 0 003.44 3.42h18.54A3.43 3.43 0 0040 43.07z" fill="#CADAEF"/><path d="M42.23 41h42V6h-78v35h6"/></g><defs><clipPath id="clip0_9_211"><path fill="#fff" d="M0 0h90.47v90H0z"/></clipPath></defs></svg>