<svg width="20" height="20" fill="none" xmlns="http://www.w3.org/2000/svg"><path d="M9.543 20C4.087 19.8-.063 15.71 0 10.255.069 4.621 4.515.658 9.75.748c5.599.098 9.56 4.443 9.502 9.676-.064 5.614-4.431 9.497-9.71 9.576zm2.843-13.564c0-.488.03-1.042-.016-1.59-.014-.16-.23-.43-.362-.432-.83-.02-1.678-.076-2.488.066-.973.17-1.594.843-1.759 1.84-.11.663-.152 1.337-.222 2.025l-1.081.202c-.236 2.048-.214 2.107 1.078 2.395.02.044.058.088.058.133.01 1.364.021 2.727.024 4.08 0 2.166 0 2.153 2.175 2.031.502-.027.648-.228.636-.698-.024-.932 0-1.863 0-2.797v-2.857c.472 0 .857.055 1.214-.021.21-.044.5-.273.537-.455.085-.562.14-1.13.16-1.698-.577-.622-2.104.521-1.922-1.23.14-1.415 1.328-.414 1.968-.994z" fill="#FF8515"/></svg>