<svg width="74" height="90" fill="none" xmlns="http://www.w3.org/2000/svg"><g clip-path="url(#clip0_9_176)" stroke="#0146A6"><path d="M58.042 82.846H.496V11.162L11.291.496h46.751v82.35z" fill="#fff" stroke-miterlimit="10"/><path d="M15.379 23.812h27.78m-27.78 8.106h27.78m-27.78 7.769h27.78m-27.78 8.106h27.78m-27.78 7.769h27.78m-27.78 8.106h21.827" stroke-miterlimit="10"/><path d="M11.41 11.41H.496L11.41.496V11.41z" fill="#CADAEF" stroke-linejoin="round"/><path d="M72.925 40.46c-.437 2.848-2.054 5.18-3.354 7.64-2.153 4.068-4.425 8.077-6.627 12.135a1.737 1.737 0 01-2.769.407 1.33 1.33 0 01-.377-1.677 177.356 177.356 0 012.67-5.318c1.904-3.632 3.78-7.283 5.784-10.855a7.937 7.937 0 00.635-6.141c-.14-.556-.328-1.102-.496-1.647h-.16l-.337.585-8.979 16.49c-.149.268-.297.546-.456.814-.437.744-.467.793-1.2.396-2.263-1.21-4.485-2.48-6.737-3.7-.517-.278-.288-.586-.12-.913 2.322-4.276 4.614-8.563 6.946-12.819 2.331-4.256 4.564-8.225 6.865-12.333a1.826 1.826 0 012.788-.565c.219-.298.457-.596.655-.923.566-.923 1.092-1.885 1.677-2.788a1.538 1.538 0 012.084-.595 1.599 1.599 0 01.922 2.183c-.357.863-.813 1.676-1.23 2.51-.228.446-.476.883-.724 1.35.377.227.724.396.992.624a1.667 1.667 0 01.655 2.371c-.447.993-.992 1.985-1.449 2.917a.833.833 0 000 .685 17.363 17.363 0 012.262 6.638c.01.073.034.144.07.208l.01 2.322z" fill="#fff" stroke-miterlimit="10"/><path d="M55.68 56.723c-2.252-1.23-4.494-2.49-6.746-3.721-.645-.357-.764-.308-1.121.377L36.62 74.215c-2.262 4.256-3.105 8.93-3.82 13.632a1.915 1.915 0 01-.06.457c0 .436-.089 1.071.06 1.22.149.149 1.925-.893 2.917-1.478a56.279 56.279 0 001.846-1.608c3.125-2.857 6.092-5.844 7.937-9.743.327-.684.734-1.32 1.101-1.984 3.103-5.702 6.208-11.407 9.317-17.115.198-.407.198-.635-.238-.873z" fill="#CADAEF" stroke-miterlimit="10"/></g><defs><clipPath id="clip0_9_176"><path fill="#fff" d="M0 0h73.421v90H0z"/></clipPath></defs></svg>