<svg width="25" height="20" fill="none" xmlns="http://www.w3.org/2000/svg"><g opacity=".5" fill="rgba(255,255,255,0.5)"><path d="M24.472 15.535h-2.227v-7.67l-.272.152-7.57 4.12c-.648.352-1.299.7-1.939 1.063a.403.403 0 01-.454 0c-1.927-1.057-3.857-2.11-5.79-3.16L.193 6.753 0 6.644l1.317-.723L11.73.242c.17-.09.34-.242.52-.242s.327.155.49.245l9.8 5.346c.593.324 1.187.65 1.783.97a.25.25 0 01.152.252v8.485l-.002.237zM24.4 6.68v-.027H12.249v1.089h9.909a.37.37 0 00.158-.028L24.4 6.68z"/><path d="M20.013 10.888v4.763a.504.504 0 01-.087.246 8.357 8.357 0 01-1.971 2.178 8.937 8.937 0 01-5.191 1.905 9.41 9.41 0 01-4.396-.776 8.727 8.727 0 01-3.811-3.253.727.727 0 01-.117-.416v-4.647l.152.082c2.5 1.493 4.997 2.989 7.494 4.486a.242.242 0 00.291 0c2.494-1.494 4.992-2.985 7.494-4.475l.142-.093z"/></g></svg>