<svg width="21" height="21" fill="none" xmlns="http://www.w3.org/2000/svg"><path fill-rule="evenodd" clip-rule="evenodd" d="M10.4 20.8c5.744 0 10.4-4.656 10.4-10.4C20.8 4.656 16.144 0 10.4 0 4.656 0 0 4.656 0 10.4c0 5.744 4.656 10.4 10.4 10.4zm-3.147-9.314l-2.39-.891c-.244-.082-.244-.446 0-.527l9.847-3.81c.203-.08.405.122.365.325l-1.783 8.51c-.04.203-.284.284-.446.162l-2.391-1.743c-.162-.121-.365-.121-.486 0L8.63 14.607c-.162.121-.405.08-.445-.122l-.933-2.999zm5.512-3.323L8.064 11.04c-.203.081-.284.325-.162.527l.486 1.783c.04.162.243.122.243 0l.122-.972c0-.203.122-.365.243-.487l3.85-3.606c.081-.04 0-.162-.081-.122z" fill="#fff"/></svg>