<svg width="97" height="90" fill="none" xmlns="http://www.w3.org/2000/svg"><g clip-path="url(#clip0_1:208)"><path d="M64.07 39.76l-.29-.95a31.21 31.21 0 016-1.38 51.92 51.92 0 0116.32 1.06l-.22 1a51.341 51.341 0 00-16-1c-1.974.23-3.92.656-5.81 1.27zm-52.26-.13l-.2-1c4-.81 9.71-1.73 13.93-1.46a36.74 36.74 0 014.15.52l-.18 1a36.915 36.915 0 00-4-.5c-4.14-.26-9.73.64-13.7 1.44zm42.54 12.81l-.4-.92c4.89-2.09 11.61-4.67 15.87-5.09a51.917 51.917 0 0116.28 1.06l-.22 1a51.338 51.338 0 00-16-1c-4.1.34-10.71 2.88-15.53 4.95zm-11.47-.23c-4.28-2.05-10.77-4.6-17.4-5-4.11-.26-9.7.64-13.67 1.44l-.2-1c4-.81 9.71-1.72 13.93-1.46 6.8.44 13.42 3 17.77 5.12l-.43.9zm11.47 9.23l-.4-.92c4.89-2.09 11.61-4.67 15.87-5.09a51.917 51.917 0 0116.28 1.06l-.22 1a51.338 51.338 0 00-16-1c-4.1.34-10.71 2.88-15.53 4.95zm-11.47-.23c-4.28-2.05-10.77-4.6-17.4-5-4.11-.26-9.7.64-13.67 1.44l-.2-1c4-.81 9.71-1.72 13.93-1.46 6.8.44 13.42 3 17.77 5.12l-.43.9zm11.47 10.23l-.4-.92c4.89-2.09 11.61-4.67 15.87-5.09a51.917 51.917 0 0116.28 1.06l-.22 1a51.338 51.338 0 00-16-1c-4.1.34-10.71 2.88-15.53 4.95zm-11.47-.23c-4.28-2-10.77-4.6-17.4-5-4.11-.26-9.7.64-13.67 1.44l-.2-1c4-.81 9.71-1.72 13.93-1.46 6.8.44 13.42 3 17.77 5.12l-.43.9z" fill="#0F4881"/><path d="M48.14.5h.41s0 .05.06.06l1.07.24 4.39 1 3 .66 4.76 1 2.81.61 3.36.75a.2.2 0 01.18.23v13.21c-.002.441-.029.882-.08 1.32-.11.85-.22 1.7-.37 2.54a27.375 27.375 0 01-1 4c-.28.82-.58 1.65-.94 2.44-.59 1.15-1.16 2.3-1.79 3.44a21.431 21.431 0 01-2.18 3.22c-.7.85-1.4 1.68-2.14 2.48a20.215 20.215 0 01-1.57 1.5c-.54.48-1.08 1-1.65 1.38-1.28 1-2.57 1.9-3.86 2.85l-4.16 3a.22.22 0 01-.22 0c-.23-.15-.45-.33-.68-.49l-3.12-2.29c-.85-.63-1.69-1.26-2.54-1.87a36.234 36.234 0 01-3.64-2.91c-.63-.59-1.24-1.21-1.82-1.86-.58-.65-1.24-1.43-1.82-2.18a27.212 27.212 0 01-2.69-4.25c-.39-.75-.74-1.53-1.08-2.31a24.592 24.592 0 01-1.38-4.09c-.25-1-.45-2-.64-3.06-.1-.53-.16-1.07-.21-1.61-.05-.54-.06-.88-.09-1.33 0 0 0-.07-.06-.1V4.82c.06.01.12.01.18 0l.94-.21 3.15-.7 5.41-1.18 6.39-1.4L48 .59a.61.61 0 00.14-.09zm16.75 11.9V8c0-.6.09-.43-.46-.56-1.52-.35-3-.67-4.55-1-1-.22-2-.45-3-.66l-4.74-1L48.63 4a1 1 0 00-.41 0L45 4.68l-5.7 1.26-4.3.93-2.8.62c-.39.09-.39.09-.39.5v9.35c0 .77.08 1.55.16 2.32.08.77.17 1.36.3 2a22.726 22.726 0 001 3.8c.36.94.73 1.89 1.15 2.8a24.441 24.441 0 002.39 4 25.225 25.225 0 002.53 3c.41.42.83.83 1.26 1.22.43.39 1 .86 1.49 1.26.67.53 1.37 1 2.06 1.53l4 3a.19.19 0 00.18 0c.67-.48 1.33-1 2-1.46.95-.71 1.9-1.42 2.86-2.11A29.171 29.171 0 0056.6 36a22.357 22.357 0 001.63-1.75c.67-.8 1.31-1.62 1.91-2.46a25.654 25.654 0 002.41-4.32A27.925 27.925 0 0064 23.22a26.5 26.5 0 00.72-4.15c.07-.76.12-1.52.13-2.28.05-1.46.04-2.93.04-4.39z" fill="#E1ECF9"/><path d="M48.35 47a.74.74 0 01-.39-.11l-.53-.38-4.16-3.06-1.67-1.23a36.007 36.007 0 01-3.69-2.94c-.63-.59-1.25-1.23-1.85-1.89-.6-.66-1.25-1.45-1.85-2.22a27.634 27.634 0 01-2.73-4.32c-.41-.79-.77-1.6-1.1-2.34A26.917 26.917 0 0129 24.34c-.25-1-.44-2-.64-3.09-.11-.56-.17-1.14-.22-1.65 0-.29-.05-.57-.06-.85l-.08-.63V4.31h.63l.74-.17L48.14 0h.61l.1.1.94.21L64.7 3.58l3.43.75a.69.69 0 01.58.72v13.21c0 .461-.03.922-.09 1.38-.11.91-.22 1.73-.37 2.57a26.619 26.619 0 01-1 4.05 26.627 26.627 0 01-1 2.49c-.6 1.3-1.18 2.44-1.75 3.48a20.996 20.996 0 01-2.24 3.3c-.63.76-1.37 1.66-2.15 2.5-.51.55-1.07 1-1.61 1.54s-1.06.93-1.68 1.4L54 43l-1.58 1.16-3.71 2.73a.7.7 0 01-.36.11zM29 18c.033.07.053.144.06.22v.49c0 .27 0 .54.05.81.06.51.11 1.05.21 1.56.2 1.08.39 2.06.63 3a24.64 24.64 0 001.36 4c.32.73.67 1.51 1.07 2.29A26.996 26.996 0 0035 34.56c.58.75 1.19 1.47 1.81 2.16.62.69 1.19 1.28 1.78 1.83a36.857 36.857 0 003.59 2.86c.57.41 1.12.82 1.68 1.24L48 45.71l.31.23 3.52-2.59 1.59-1.17c.91-.66 1.82-1.33 2.72-2 .59-.45 1.15-.93 1.61-1.35.46-.42 1.07-1 1.54-1.46.76-.83 1.5-1.71 2.12-2.46a19.999 19.999 0 002.13-3.15c.57-1 1.13-2.14 1.72-3.42.35-.77.63-1.57.92-2.39a28.998 28.998 0 001-3.91c.14-.81.25-1.62.36-2.51.052-.421.079-.845.08-1.27v-13l-3.22-.7-14.82-3.27L48.49 1h-.21a1 1 0 01-.21.08L29.55 5.14l-.55.13V18zm19.36 24.85a.71.71 0 01-.41-.13l-3.44-2.53-1.21-.89-1.45-1.09a22.2 22.2 0 01-1.51-1.28c-.57-.52-.87-.81-1.28-1.24a24.996 24.996 0 01-2.59-3.09A25.559 25.559 0 0134 28.49c-.44-.95-.82-1.93-1.17-2.84a23.401 23.401 0 01-1.06-3.87 24.503 24.503 0 01-.3-2.07c-.07-.66-.11-1.34-.15-2V8c0-.64.16-.84.78-1l2.8-.63L45.67 4l2.44-.54a1.63 1.63 0 01.63 0l12.78 2.86 3 .67h.23c.53.08.63.38.62.79v8.96c0 .77-.06 1.55-.13 2.33a25.507 25.507 0 01-.74 4.22 28.004 28.004 0 01-1.5 4.4 25.003 25.003 0 01-2.46 4.39c-.54.78-1.17 1.6-1.92 2.5A23.173 23.173 0 0157 36.37a29.56 29.56 0 01-3.38 2.8c-.64.45-1.27.92-1.9 1.39l-1 .71-2 1.46a.62.62 0 01-.36.12zM32.3 8v9.65c0 .66.07 1.32.14 2 .07.68.17 1.33.29 2a21.496 21.496 0 001 3.71c.33.89.71 1.85 1.14 2.77a24.003 24.003 0 002.33 4 25.655 25.655 0 002.49 3c.4.41.81.82 1.24 1.2.43.38 1 .89 1.46 1.24.46.35.94.71 1.42 1.06l1.22.89 3.24 2.39 1.77-1.3 1-.71c.64-.48 1.27-.95 1.92-1.41a29.534 29.534 0 003.27-2.7 22.99 22.99 0 001.59-1.71c.73-.88 1.34-1.68 1.88-2.43a24.47 24.47 0 002.36-4.23 27.639 27.639 0 001.46-4.19 24.78 24.78 0 00.74-4.23c.08-.76.12-1.51.13-2.25V8h-.08l-3-.67-12.78-2.84h-.21L45.89 5 35.1 7.36 32.3 8z" fill="#0F4881"/><path d="M53.06 29.67H42a1.45 1.45 0 01-1.48-1.06 1.579 1.579 0 010-.38V19.4a1.4 1.4 0 011.29-1.4h.83v-2.06a5.68 5.68 0 015-5.66 5.55 5.55 0 014.27 1.21 5.41 5.41 0 012 3.58c.055.485.085.972.09 1.46V18h.69a1.341 1.341 0 011 .36 1.482 1.482 0 01.49 1.12v8.66a1.45 1.45 0 01-1.53 1.53h-1.59zm-2.4-1h4.06c.48 0 .53-.3.53-.52v-8.67a.509.509 0 00-.16-.38.31.31 0 00-.27-.1 4.17 4.17 0 01-.5 0H53v-2.44a11.9 11.9 0 00-.08-1.36 4.37 4.37 0 00-1.68-2.92 4.499 4.499 0 00-3.52-1 4.59 4.59 0 00-3 1.62 4.64 4.64 0 00-1.1 3v2.89l-.35.11-.15-.48.13.49h-1.43a.388.388 0 00-.4.4v8.83a.46.46 0 00.53.44l8.71.09zm-2.3-1.73h-.84a.82.82 0 01-.65-.36 1 1 0 01-.13-.86c.1-.35.19-.71.28-1.07v-.19a2 2 0 01-.79-1.74 2 2 0 011.26-1.77 1.92 1.92 0 012 .23 2 2 0 010 3.28c.12.44.24.87.35 1.3a1 1 0 01-.14.83.879.879 0 01-.67.36c-.16-.01-.41-.01-.67-.01zm-.65-1c.41.025.82.025 1.23 0-.12-.49-.24-.95-.37-1.4a.72.72 0 01.32-.84.999.999 0 00.5-.84A.999.999 0 0049 22a.94.94 0 00-1-.12 1 1 0 00-.66.92 1 1 0 00.62 1l.33.2-.24.88c-.15.34-.24.69-.34 1.04v.02zM51.44 19h-6.18v-3.28a3.11 3.11 0 013.14-2.92 3.08 3.08 0 012.76 1.83c.205.426.302.897.28 1.37v3zm-5.21-1h4.21v-2a1.85 1.85 0 00-.18-.88 2.06 2.06 0 00-1.9-1.27 2 2 0 00-1.39.5 1.92 1.92 0 00-.74 1.44V18z" fill="#0F4881"/><path d="M89.29 29.61v52.62a37.19 37.19 0 00-19.7-.54c-5.59 1.36-21.75 6.12-21.75 6.12S31.76 82.26 26 81.2c-11.69-2.16-18.86.23-18.86.23V29.61H0v59h95.67v-59h-6.38z" fill="#E1ECF9"/><path d="M96.67 89.11H0v-59.5h1v58.5h94.67v-58.5h1v59.5z" fill="#0F4881"/><path d="M48.32 88.33h-.15c-.16 0-16.1-5.55-21.72-6.59-11.45-2.16-18.55.14-18.62.17l-.65.22V23.64l.37-.1c.45-.11 11.14-2.78 18-2.35 1.06.07 2.17.2 3.29.37l-.16 1c-1.09-.17-2.16-.29-3.19-.36-6-.37-15.32 1.76-17.3 2.23v56.34c2-.54 8.64-1.87 18.45-.06 5.47 1 20 6 21.72 6.57 1.64-.49 16.35-4.8 21.64-6.07a38.05 38.05 0 0119.32.33V24.39a50.52 50.52 0 00-19.38-2c-.726.072-1.447.186-2.16.34l-.2-1c.75-.165 1.507-.288 2.27-.37A50.931 50.931 0 0190 23.56l.33.12v59.26l-.67-.24a37.08 37.08 0 00-19.41-.52c-5.53 1.34-21.57 6.06-21.73 6.11l-.2.04z" fill="#0F4881"/><path d="M48.84 46.5h-1v42.11h1V46.5zm47.83-16.89h-7.06v1h7.06v-1zm-89.06 0H0v1h7.61v-1z" fill="#0F4881"/></g><defs><clipPath id="clip0_1:208"><path fill="#fff" d="M0 0h96.67v89.11H0z"/></clipPath></defs></svg>