<svg width="20" height="20" fill="none" xmlns="http://www.w3.org/2000/svg"><g clip-path="url(#clip0_28_1139)" fill="#FF8515"><path d="M4.546 9.956V1.832A1.803 1.803 0 016.338 0h7.609a1.13 1.13 0 01.87.358 624.148 624.148 0 004.83 4.825A1.142 1.142 0 0120 6.04v12.112a1.819 1.819 0 01-1.84 1.844H6.452a1.865 1.865 0 01-1.906-1.909c.009-2.709 0-5.418 0-8.131zm7.72.048H9.083a.907.907 0 10.041 1.808h6.35a.906.906 0 00-.04-1.808h-3.17zm-.89 5.431h2.291a.906.906 0 00-.024-1.812h-4.51a.91.91 0 100 1.816l2.243-.004zm6.829-9.066l-4.57-4.57v3.58a.92.92 0 00.99.99h3.58zM3.21 19.972c-.558.03-1.117.03-1.674 0A1.751 1.751 0 010 18.217V1.816A1.807 1.807 0 011.788 0h1.434l-.167.357c-.219.474-.33.99-.325 1.511v16.284c-.005.612.15 1.215.447 1.75a.526.526 0 01.033.07z"/></g><defs><clipPath id="clip0_28_1139"><path fill="#fff" d="M0 0h20v20H0z"/></clipPath></defs></svg>