<svg width="48" height="39" fill="none" xmlns="http://www.w3.org/2000/svg"><path d="M47.105 29.903H42.82V15.138l-.524.293-14.572 7.933c-1.247.676-2.499 1.346-3.73 2.043a.775.775 0 01-.875 0 3784.62 3784.62 0 00-11.145-6.083L.372 13 0 12.79l2.536-1.394L22.578.466c.325-.173.655-.466 1-.466.347 0 .63.299.944.472l18.863 10.29c1.142.624 2.284 1.253 3.432 1.866a.482.482 0 01.293.487v16.332l-.005.456zm-.136-17.045v-.052h-23.39v2.096H42.65a.714.714 0 00.304-.053l4.014-1.99z" fill="#FF8515"/><path d="M38.522 20.956v9.17a.969.969 0 01-.167.471 16.085 16.085 0 01-3.794 4.192 17.201 17.201 0 01-9.992 3.668c-2.9.188-5.802-.324-8.462-1.494a16.798 16.798 0 01-7.336-6.261 1.399 1.399 0 01-.225-.802v-8.944l.293.157c4.81 2.875 9.619 5.753 14.425 8.635a.466.466 0 00.561 0c4.8-2.875 9.608-5.746 14.425-8.614l.272-.178z" fill="#FF8515"/></svg>