<svg width="134" height="90" fill="none" xmlns="http://www.w3.org/2000/svg"><g clip-path="url(#clip0_1:231)"><path d="M53.58 9.5s2.25-8.44 9.12-8.44c6.87 0 8 6.5 8 6.5l.3 2.32-17.42-.38zm39 66h40s.16 7.33-7.92 9.67-29.08.33-29.08.33h-14l4.91-2.25 3.5-4 1.59-3.75h1z" fill="#E1ECF9"/><path d="M119.08 86.5h-36c-.975.004-1.95-.08-2.91-.25h-.11c-8.48-1.65-9.47-10.3-9.47-14.23v-8.19h1V72c0 4.51 1.19 11.75 8.6 13.23a14.48 14.48 0 007.54-3.58c1.91-1.91 3.87-6.79 3.89-6.84l.13-.31h41.84v.5c0 .09 0 2.16-2.06 6.22s-9.06 5.28-12.45 5.28zm-36-1h36c2.55 0 9.61-.85 11.55-4.72a18.697 18.697 0 001.89-5.28H92.41c-.48 1.15-2.2 5.08-4 6.85a13.912 13.912 0 01-5.3 3.15h-.03zm-11.5-35h-1v-40h-17l.06-.56c0-.09 1.15-9.44 9.5-9.44s8.5 8.66 8.5 11.5l-.06 38.5zm-16.92-41h15.82c-.35-4.12-1.87-8-7.4-8-6.43 0-8.08 6.09-8.42 8z" fill="#0F4881"/><path d="M121.08 68.5h-1v-55c0-3.76-1.08-12.5-11.5-12.5h-44V0h44c11.6 0 12.5 10.33 12.5 13.5v55z" fill="#0F4881"/><path d="M104.58 23.5a7 7 0 100-14 7 7 0 000 14z" fill="#E1ECF9"/><path d="M104.58 24a7.503 7.503 0 01-6.929-4.63A7.5 7.5 0 11104.58 24zm0-14a6.5 6.5 0 106.5 6.5 6.51 6.51 0 00-6.5-6.5z" fill="#0F4881"/><path d="M110.36 35.76l-5.78-4.62-5.77 4.62 2.65-12.9.98.2-2.09 10.18 4.23-3.38 4.22 3.38-2.13-10.05.98-.21 2.71 12.78zM92.58 15h-11v1h11v-1zm0 8.17h-11v1h11v-1zm0 8.16h-11v1h11v-1zm17 8.17h-28v1h28v-1zm0 8.17h-28v1h28v-1zm0 8.16h-21.5v1h21.5v-1zm0 8.17h-28v1h28v-1zM42.07 79.57L0 57l42.07-21.56L85.17 57l-43.1 22.57zM2.15 57l39.93 21.43L83 57 42.08 36.56 2.15 57z" fill="#0F4881"/><path d="M42.08 58.5c2.485 0 4.5-.895 4.5-2s-2.015-2-4.5-2-4.5.895-4.5 2 2.015 2 4.5 2z" fill="#E1ECF9"/><path d="M42.08 59c-2.85 0-5-1.07-5-2.5s2.15-2.5 5-2.5 5 1.07 5 2.5-2.15 2.5-5 2.5zm0-4c-2.44 0-4 .89-4 1.5s1.56 1.5 4 1.5 4-.89 4-1.5-1.56-1.5-4-1.5zm.5 35C24.83 90 17 80.22 17 76.5V65.75h1V76.5c0 3 7.41 12.5 24.63 12.5 17.38 0 23.5-9.47 23.5-11.5V66.13h1V77.5C67.08 80 60.68 90 42.58 90z" fill="#0F4881"/><path d="M9.95 71.5h-1V61.33l28.53-5.32.19.98-27.72 5.18v9.33z" fill="#0F4881"/><path d="M4.58 87.5a7.65 7.65 0 005 2 7.65 7.65 0 005-2l-5-16-5 16z" fill="#E1ECF9"/><path d="M9.58 90a8.12 8.12 0 01-5.36-2.15L4 87.64l5.58-17.82 5.56 17.82-.21.21A8.08 8.08 0 019.58 90zm-4.43-2.66A7.15 7.15 0 009.58 89 7.11 7.11 0 0014 87.34L9.58 73.18 5.15 87.34z" fill="#0F4881"/></g><defs><clipPath id="clip0_1:231"><path fill="#fff" d="M0 0h133.58v90H0z"/></clipPath></defs></svg>