<svg width="46" height="46" fill="none" xmlns="http://www.w3.org/2000/svg"><circle cx="23" cy="23" r="23" fill="#FF8515"/><path d="M32.39 38.002c-.365-.409-.694-.773-1.014-1.147l-4.189-4.713a.311.311 0 00-.222-.08H16.116a6.046 6.046 0 01-6.11-6.171v-5.336c-.02-.763.007-1.526.08-2.285a5.745 5.745 0 012.535-4.109 6.01 6.01 0 013.548-1.058h13.846A5.957 5.957 0 0136 19.106v7.114a5.7 5.7 0 01-2.339 4.58 9.016 9.016 0 01-1.094.675c-.124.071-.186.125-.186.285v5.967l.008.275zM21.895 26.344h2.455v-1.778a1.671 1.671 0 01.844-1.539l.614-.391a3.86 3.86 0 001.574-1.778 3.938 3.938 0 00-1.05-4.198 4.606 4.606 0 00-3.272-1.28 4.348 4.348 0 00-4.01 2.17 6.376 6.376 0 00-.65 3.299h2.401c0-.418 0-.827.063-1.236a1.779 1.779 0 01.889-1.53 2.597 2.597 0 012.303-.133 1.467 1.467 0 01.89.809 1.61 1.61 0 01-.587 1.938l-1.494 1.032a2.054 2.054 0 00-.96 1.779v2.16l-.01.676zm0 3.45h2.428v-2.463h-2.419l-.009 2.463z" fill="#fff"/></svg>