<svg width="79" height="91" fill="none" xmlns="http://www.w3.org/2000/svg"><g clip-path="url(#clip0_1:298)"><path d="M74.694 10.445L18.564.932 5.02 80.842l56.13 9.514 13.544-79.91z" fill="#fff"/><path d="M61.55 90.93L4.44 81.25 18.16.36 75.27 10 61.55 90.93zM5.6 80.43l55.13 9.35 13.39-78.92L19 1.51 5.6 80.43z" fill="#0146A6"/><path d="M58.5 83.5H.5V11.25L11.38.5H58.5v83z" fill="#fff"/><path d="M59 84H0V11L11.17 0H59v84zM1 83h57V1H11.58L1 11.46V83z" fill="#0146A6"/><path d="M43.5 23.5h-28v1h28v-1zm0 8.17h-28v1h28v-1zm0 7.83h-28v1h28v-1zm0 8.17h-28v1h28v-1zm0 7.83h-28v1h28v-1zm0 8.17h-28v1h28v-1z" fill="#0146A6"/><path d="M11.5 11.5H.5l11-11v11z" fill="#CADAEF"/><path d="M11.5 12H.5a.5.5 0 01-.5-.31.47.47 0 01.11-.54l11-11a.47.47 0 01.58-.15.5.5 0 01.31.5v11a.5.5 0 01-.5.5zm-9.79-1H11V1.71L1.71 11z" fill="#0146A6"/><path d="M64.14 76.09c7.859 0 14.23-6.371 14.23-14.23s-6.371-14.23-14.23-14.23c-7.86 0-14.23 6.371-14.23 14.23s6.37 14.23 14.23 14.23z" fill="#CADAEF"/><path d="M66.06 76.48a14.74 14.74 0 1112.69-12.69 14.76 14.76 0 01-12.69 12.69zm-.13-28.24a13.74 13.74 0 1011.83 11.83 13.76 13.76 0 00-11.83-11.83z" fill="#0146A6"/><path d="M63.51 68.23l-5.83-6a.5.5 0 01.71-.69l5.1 5.25 8.64-9.6a.5.5 0 01.74.66l-9.36 10.38z" fill="#0146A6"/></g><defs><clipPath id="clip0_1:298"><path fill="#fff" d="M0 0h78.87v90.93H0z"/></clipPath></defs></svg>