<svg width="80" height="90" fill="none" xmlns="http://www.w3.org/2000/svg"><g clip-path="url(#clip0_9_189)" stroke="#0146A6" stroke-miterlimit="10"><path d="M23.432 81.837L7.975 66.213c.265-.162.52-.34.761-.534 4.059-4.052 8.12-8.11 12.185-12.175a4.546 4.546 0 013.301-1.404h28.6a4.486 4.486 0 014.655 4.645 4.583 4.583 0 01-4.783 4.526H39.125a1.344 1.344 0 00-1.245 1.255 1.324 1.324 0 00.939 1.503c.32.095.654.135.988.118h15.812a3.469 3.469 0 001.779-.534c5.109-3.36 10.179-6.769 15.288-10.129a4.101 4.101 0 016.335 2.688 3.815 3.815 0 01-1.453 3.953c-4.902 3.657-9.813 7.28-14.735 10.87-2.055 1.533-4.101 3.074-6.186 4.566-.401.29-.88.451-1.374.465h-25.24a1.59 1.59 0 00-1.255.524 337.86 337.86 0 00-5.346 5.287z" fill="#fff"/><path d="M28.027 39.224l-5.613-5.544c.919-1.295 1.828-2.62 2.777-3.953a1.224 1.224 0 00.138-1.157c-.405-1.848-1.561-2.53-3.35-2.579a12.415 12.415 0 01-2.47-.415c-.208-.05-.515-.326-.515-.504V17.65c1.68-.286 3.301-.543 4.942-.87.296-.059.533-.395.78-.622.06-.05 0-.168.09-.237 1.136-1.492.483-2.708-.544-3.953-.662-.78-1.206-1.68-1.77-2.47l5.505-5.545c1.255.88 2.58 1.789 3.874 2.738a1.324 1.324 0 001.246.227c1.897-.386 2.45-1.64 2.55-3.38A27.73 27.73 0 0136.16.573h7.837c.227 1.285.455 2.55.672 3.815.01.115.01.23 0 .346 0 .988.514 1.403 1.423 1.838a2.45 2.45 0 003.064-.385c.939-.801 1.976-1.453 3.034-2.175.158.149.296.257.415.376l5.168 5.139c-.919 1.304-1.798 2.58-2.727 3.824a1.541 1.541 0 00-.148 1.473c.424 1.73 1.541 2.273 3.152 2.352a19.22 19.22 0 012.47.405c.198 0 .396.089.692.158v5.93c0 1.858 0 1.858-1.858 2.174-.988.168-1.976.366-2.964.514-.494.069-.662.355-.92.74-1.067 1.602-.592 2.887.574 4.171.605.74 1.16 1.519 1.66 2.333l-5.613 5.563c-1.127-.79-2.411-1.61-3.666-2.599a1.581 1.581 0 00-1.542-.177c-1.789.415-2.293 1.59-2.372 3.221 0 .8-.257 1.591-.366 2.392-.069.464-.227.692-.77.692h-6.503c-.583 0-.8-.198-.88-.771a83.889 83.889 0 00-.711-4.18.988.988 0 00-.356-.623 16.796 16.796 0 00-2.233-.92 1.146 1.146 0 00-.752.248c-1.304.929-2.638 1.867-3.913 2.777zm12.146-24.558a6.917 6.917 0 106.917 6.918 6.968 6.968 0 00-6.917-6.918zM23.362 85.375l-3.696 3.953L.692 70.107l3.745-3.894 18.925 19.162z" fill="#CADAEF"/></g><defs><clipPath id="clip0_9_189"><path fill="#fff" d="M0 0h79.465v90H0z"/></clipPath></defs></svg>