<svg width="90" height="90" fill="none" xmlns="http://www.w3.org/2000/svg"><g clip-path="url(#clip0_9_195)"><path d="M50.668 50.668c4.858-2.087 11.623-4.69 15.896-5.107a39.371 39.371 0 0114.276 1.053m-30.172-5.047c4.858-2.086 11.623-4.689 15.896-5.106a39.32 39.32 0 0114.276 1.063M9.816 46.783c3.864-.775 7.67-1.729 11.921-1.46 6.766.427 13.383 2.98 17.774 5.126M9.816 37.683c3.864-.775 7.67-1.729 11.921-1.46 6.766.437 13.383 2.98 17.774 5.126m11.157 18.409c4.858-2.076 11.623-4.69 15.896-5.097a39.144 39.144 0 0114.276 1.054m-71.024.158c3.864-.774 7.67-1.728 11.921-1.45 6.766.427 13.383 2.98 17.774 5.116m11.157 10.333c4.858-2.086 11.623-4.69 15.896-5.107a39.322 39.322 0 0114.276 1.063m-71.024.159c3.864-.775 7.67-1.729 11.921-1.46 6.766.437 13.383 2.98 17.774 5.126" stroke="#0146A6" stroke-miterlimit="10"/><path d="M84.198 29.864v53.192s-6.845-3.22-17.883-.547C60.603 83.89 44.31 88.7 44.31 88.7s-16.244-5.614-22.036-6.687c-11.813-2.175-17.038.239-17.038.239V29.864H0v59.61h88.619v-59.61h-4.421z" fill="#CADAEF"/><path d="M5.792 29.864H.507v59.64h88.619v-59.64h-4.61" stroke="#0146A6" stroke-miterlimit="10"/><path d="M64.338 22.462a18.99 18.99 0 012.226-.357c11.276-1.103 18.12 2.116 18.12 2.116v58.834s-6.844-3.219-17.882-.546c-5.673 1.38-21.996 6.19-21.996 6.19s-16.243-5.614-22.035-6.687c-11.813-2.176-17.049.239-17.049.239V24.22s9.09-2.802 16.025-2.365c1.093.07 2.196.19 3.279.368m19.79 20.112v47.168" stroke="#0146A6" stroke-miterlimit="10"/><path d="M50.46 19.114V.497H39.172v18.617H29.14l15.677 17.933 15.687-17.932H50.46z" fill="#CADAEF" stroke="#0146A6" stroke-miterlimit="10"/></g><defs><clipPath id="clip0_9_195"><path fill="#fff" d="M0 0h89.623v90H0z"/></clipPath></defs></svg>