<svg width="159" height="98" fill="none" xmlns="http://www.w3.org/2000/svg"><g clip-path="url(#clip0_1:546)"><path d="M123.42 55.48v-1h20.01v27h-3.04v-25.5l-16.97-.5z" fill="#E1ECF9"/><path d="M28.21 97.42a28.21 28.21 0 1128.21-28.21 28.24 28.24 0 01-28.21 28.21zm0-55.42a27.21 27.21 0 1027.21 27.21A27.25 27.25 0 0028.21 42zm102 55.42a28.212 28.212 0 01-27.668-33.714 28.21 28.21 0 0155.878 5.504 28.243 28.243 0 01-28.21 28.21zm0-55.42a27.21 27.21 0 1027.21 27.21A27.252 27.252 0 00130.21 42z" fill="#0F4881"/><path d="M28.62 82.47a13.8 13.8 0 1113.8-13.8 13.81 13.81 0 01-13.8 13.8zm0-26.6a12.8 12.8 0 1012.8 12.8 12.81 12.81 0 00-12.8-12.8z" fill="#0F4881"/><path d="M38.776 77.22l-.653.758 6.802 5.849.652-.759-6.801-5.848zM22 74.22h-2.64v-7.59H22v7.59zm-1.65-1H21v-5.59h-.65v5.59zm6.65.95h-2.69V62.32H27v11.85zm-1.65-1H26v-9.85h-.65v9.85zm6.55 1.05h-2.65v-7.59h2.65v7.59zm-1.65-1h.65v-5.59h-.65v5.59zm6.6.97H34.2v-9.6h2.65v9.6zm-1.65-1h.65v-7.6h-.65v7.6zm44.01-16.77a28.21 28.21 0 1128.21-28.21 28.242 28.242 0 01-28.21 28.21zm0-55.42a27.21 27.21 0 1027.21 27.21A27.253 27.253 0 0079.21 1z" fill="#0F4881"/><path d="M95.27 26.84v2.75c0 .29-.21.37-.45.41-.83.16-1.66.33-2.49.47a.52.52 0 00-.48.41c-.12.49-.25 1-.38 1.45a.24.24 0 00.08.29l1 .87 1.2 1.07a.301.301 0 01.08.42c-.47.81-.92 1.63-1.39 2.44-.15.25-.23.27-.51.17-.88-.31-1.76-.62-2.64-1a.26.26 0 00-.31.07c-.38.4-.77.8-1.17 1.18a.35.35 0 00-.09.45c.32.85.62 1.71.92 2.57.09.25.06.31-.14.46l-.18.13c-.69.39-1.37.8-2.07 1.17-.5.26-.44.28-.83-.15-.6-.66-1.17-1.33-1.74-2a.22.22 0 00-.26-.08c-.52.15-1 .29-1.55.41a.38.38 0 00-.32.34c-.08.48-.17 1-.27 1.43-.1.43-.19.92-.28 1.38a.28.28 0 01-.29.25.35.35 0 00-.11 0h-2.81c-.23 0-.28-.05-.33-.28-.05-.23-.13-.53-.18-.8-.12-.65-.25-1.31-.36-2a.38.38 0 00-.36-.36l-.3-.07-1.26-.23a.27.27 0 00-.22.09c-.18.18-.33.38-.5.56l-1.43 1.62a.26.26 0 01-.36.07c-.83-.47-1.67-.93-2.49-1.41-.24-.14-.25-.22-.16-.48.31-.9.64-1.8 1-2.7a.19.19 0 00-.06-.25c-.43-.42-.86-.84-1.28-1.27a.2.2 0 00-.25 0l-2.63.94c-.33.12-.39.1-.57-.19-.3-.5-.59-1-.88-1.5-.18-.32-.33-.65-.5-1a.24.24 0 010-.31l.76-.7c.48-.43 1-.85 1.46-1.29a.269.269 0 00.09-.2c-.14-.56-.3-1.12-.45-1.68a.32.32 0 00-.29-.24l-2.6-.52c-.28-.05-.49-.15-.47-.48v-2.68c0-.29.21-.38.46-.42l.22-.05 2.39-.45a.39.39 0 00.36-.32c.13-.53.27-1.06.42-1.58a.17.17 0 00-.06-.21l-.85-.72-1.41-1.25a.25.25 0 01-.05-.35c.47-.84.93-1.68 1.41-2.51.13-.23.21-.24.47-.15l2.71 1a.19.19 0 00.24-.05c.42-.43.84-.86 1.27-1.28a.22.22 0 000-.27c-.32-.88-.63-1.75-.94-2.63-.11-.31-.09-.38.19-.56.46-.28.93-.55 1.4-.82.47-.27.71-.37 1.07-.56a.23.23 0 01.32.05c.17.18.34.34.5.52.5.58 1 1.17 1.49 1.74A.19.19 0 0075 16l1.67-.44a.27.27 0 00.23-.24c0-.15.07-.29.09-.43.15-.76.28-1.53.44-2.28.07-.35.06-.41.45-.44h2.72c.28 0 .38.19.41.44a1.417 1.417 0 000 .22c.15.81.31 1.62.46 2.43a.37.37 0 00.31.34c.54.13 1.07.28 1.6.42a.24.24 0 00.22-.02c.12-.13.24-.27.35-.41.52-.59 1-1.18 1.54-1.76.23-.26.27-.26.56-.1L88.38 15a.793.793 0 01.15.12.25.25 0 01.1.3 1.396 1.396 0 00-.06.19c-.31.86-.61 1.72-.93 2.58a.24.24 0 00.07.29c.42.41.83.83 1.24 1.26a.22.22 0 00.28.05c.87-.32 1.75-.63 2.62-.93.33-.12.4-.1.59.21.31.51.61 1 .91 1.55.16.29.3.59.45.89a.24.24 0 010 .32l-.76.7-1.47 1.27c-.06.05-.13.14-.12.19l.45 1.69a.33.33 0 00.3.24l2.62.5c.24.05.44.13.45.42zM79.2 35.77a7.56 7.56 0 10-7.54-7.57 7.63 7.63 0 007.54 7.57z" fill="#E1ECF9"/><path d="M80.56 44.77h-2.73c-.46-.06-.74-.19-.86-.68-.07-.27-.13-.55-.18-.83l-.36-1.93-.29-.06-.39-.1L75 41c-.07.07-.13.15-.19.22l-1.63 1.85a.77.77 0 01-1 .17l-.77-.43-1.72-1a.781.781 0 01-.38-1.08l.9-2.54-1-1-2.49.88a.83.83 0 01-1.16-.4c-.3-.5-.6-1-.88-1.51-.12-.21-.23-.43-.34-.65l-.18-.34a.75.75 0 01.16-.91l.24-.22.53-.49.69-.61.65-.57c-.09-.35-.18-.71-.28-1.06l-.07-.31-1.18-.22-1.35-.25a.91.91 0 01-.88-.87v-2.8a.91.91 0 01.89-.91l.63-.13 1.94-.37c.11-.46.23-.91.36-1.36-.24-.2-.48-.4-.71-.61l-1-.85-.45-.4a.75.75 0 01-.16-1l.39-.7c.34-.6.68-1.21 1-1.81a.788.788 0 011.06-.38l2.56.91c.34-.35.68-.7 1-1-.3-.84-.6-1.67-.89-2.5a.82.82 0 01.4-1.14c.47-.29.94-.57 1.41-.83l.7-.37.39-.2a.74.74 0 01.92.15l.16.17c.12.12.24.24.35.37l1.37 1.6 1-.28.32-.08V15l.17-.9c.09-.52.19-1 .3-1.57.11-.57.26-.77.84-.82h2.82a.91.91 0 01.9.88l.05.19.1.55c.12.61.24 1.22.35 1.83l.83.22.54.14.1-.11.55-.64 1.11-1.27a.81.81 0 011.18-.2l1.8 1 .52.31a.797.797 0 01.21.15.759.759 0 01.27.87l-.18.52-.75 2.11 1 1.05 2.48-.89a.84.84 0 011.18.43c.32.51.62 1 .92 1.56.11.19.2.38.3.58l.17.33a.74.74 0 01-.16.92l-.28.26-.48.44L92 24.09c.12.45.24.9.37 1.35l2.55.49c.69.13.85.55.86.89v2.77a.9.9 0 01-.86.9l-1 .19c-.51.1-1 .2-1.53.28-.17.48-.3.93-.43 1.37l1.1 1 1 .86a.8.8 0 01.18 1l-.43.76c-.31.56-.63 1.13-1 1.69a.8.8 0 01-1.1.39c-.85-.29-1.69-.59-2.53-.9-.34.36-.68.71-1 1 .31.87.61 1.71.9 2.54a.79.79 0 01-.3 1 1.28 1.28 0 01-.25.16l-.58.34c-.49.28-1 .57-1.5.84l-.11.06c-.6.32-.84.22-1.27-.25-.43-.47-1-1.14-1.46-1.69l-.25-.13-1.36.32c-.08.47-.16.93-.26 1.39 0 .28-.11.57-.17.85l-.11.53a.77.77 0 01-.77.65l-.13.03zm-2.64-1h2.57l.09-.42c.06-.28.12-.56.17-.84.1-.47.18-.94.27-1.42a.85.85 0 01.69-.73l1.53-.36a.71.71 0 01.78.24l.34.4c.46.53.91 1.07 1.39 1.59l.1.11.12-.07c.49-.26 1-.54 1.46-.82l.59-.34h.07c-.3-.88-.59-1.7-.89-2.51a.86.86 0 01.22-1c.39-.37.77-.76 1.14-1.15a.74.74 0 01.85-.19l2.59.84c.34-.57.63-1.09.92-1.61l.36-.64-.87-.79L91.22 33a.75.75 0 01-.22-.8c.14-.48.27-.96.39-1.44a1 1 0 01.87-.78l1.51-.28 1-.19v-2.59l-2.62-.5a.8.8 0 01-.69-.6v-.09c-.15-.54-.3-1.07-.43-1.61a.771.771 0 01.26-.69l1.43-1.27.47-.43.15-.15-.1-.19a6.45 6.45 0 00-.27-.52c-.29-.52-.59-1-.9-1.54-.87.3-1.74.62-2.61.93a.7.7 0 01-.81-.18l-1.23-1.25a.72.72 0 01-.19-.81c.28-.75.54-1.5.81-2.25l.12-.33-.51-.29-1.76-1-1.07 1.23-.55.63c-.082.11-.172.214-.27.31a.71.71 0 01-.65.18l-.74-.19-.86-.22a.88.88 0 01-.69-.74c-.11-.63-.23-1.25-.35-1.88l-.1-.54c0-.12 0-.19-.06-.26h-2.64c-.12.56-.21 1.07-.31 1.58l-.18.94v.21a.8.8 0 01-.6.65l-.42.11-1.26.33a.7.7 0 01-.67-.23l-1.5-1.74c-.09-.11-.2-.21-.3-.32l-.06-.06-.24.13c-.22.11-.45.22-.67.35-.45.25-.9.52-1.35.79l.9 2.59a.73.73 0 01-.17.8c-.43.41-.85.84-1.26 1.27a.68.68 0 01-.77.17c-.88-.31-1.75-.63-2.63-.93-.34.59-.65 1.15-1 1.7l-.3.55.32.28c.31.29.63.57 1 .85s.56.48.84.72a.66.66 0 01.22.72c-.14.52-.29 1-.41 1.57a.9.9 0 01-.76.69l-2 .37-.44.08-.24.06v2.6h.06l1.35.25 1.25.23a.81.81 0 01.69.61l.11.41c.11.42.23.85.33 1.27a.75.75 0 01-.23.7l-.78.68-.69.6-.5.47-.12.1.1.19c.1.21.21.41.32.6.27.5.56 1 .86 1.47l2.6-.91a.709.709 0 01.78.17c.42.43.84.84 1.27 1.26a.69.69 0 01.18.79c-.32.86-.63 1.74-.93 2.61l1.62.93.63.35 1.5-1.71c.11-.12.21-.25.33-.37a.77.77 0 01.72-.2c.3.06.59.14.89.21l.39.1.25.05a.88.88 0 01.78.77l.36 2 .15.64zm1.28-7.5a8.08 8.08 0 01-8-8.07 8.09 8.09 0 018.08-8 8.17 8.17 0 018 8 8.14 8.14 0 01-8.07 8.1l-.01-.03zm0-1a7.12 7.12 0 007.07-7.09 7.15 7.15 0 00-7-7 7.06 7.06 0 100 14.12l-.07-.03zm61.22 49.21h-22v-29h22v29zm-21-1h20v-27h-20v27z" fill="#0F4881"/><path d="M144.43 82.48h-4.54v-1h3.54v-27h-20.01v1.5h-1v-2.5h22.01v29z" fill="#0F4881"/><path d="M135.92 62.48h-13a.512.512 0 01-.5-.5.503.503 0 01.5-.5h13a.501.501 0 110 1zm0 5h-13a.512.512 0 01-.5-.5.503.503 0 01.5-.5h13a.501.501 0 110 1zm0 5h-13a.512.512 0 01-.5-.5.503.503 0 01.5-.5h13a.501.501 0 110 1zm0 5h-13a.512.512 0 01-.5-.5.503.503 0 01.5-.5h13a.501.501 0 110 1z" fill="#0F4881"/></g><defs><clipPath id="clip0_1:546"><path fill="#fff" d="M0 0h158.42v97.42H0z"/></clipPath></defs></svg>