<svg width="62" height="62" fill="none" xmlns="http://www.w3.org/2000/svg"><path d="M31 62a31 31 0 110-62 31 31 0 010 62zm0-61a30 30 0 100 60 30 30 0 000-60z" fill="#fff"/><path d="M27.64 48.11a2.89 2.89 0 01-1.86-.69A2.26 2.26 0 0125.2 46c-1 .47-2.48.84-3.46-.34a2.159 2.159 0 01-.58-1.78.91.91 0 010-.16 2.07 2.07 0 01-2.04-.72 2.16 2.16 0 01.19-2.69 3.41 3.41 0 01-1.18-1.79c-.17-1.22.31-1.76 1.4-2.44 1.09-.68 3.8-2 3.92-2.09l.45.89s-2.84 1.42-3.84 2.05c-1 .63-1 .81-.94 1.45.06.64.79 1.16 1.22 1.47l.54.38-.51.41c-.11.09-1 .91-.43 1.79.57.88 2.31 0 2.32 0l.51.86a1.49 1.49 0 00-.63.87 1.251 1.251 0 00.36 1c1 1.16 3.18-.45 3.2-.47l.65.76a1.082 1.082 0 00-.14.32 1.31 1.31 0 00.26 1c.383.292.86.431 1.34.39.3-.09 2.49-1.19 4.81-2.35l6-3a20.07 20.07 0 007.18-6l.83.55a20.67 20.67 0 01-7.57 6.38c-2 1-4.15 2.05-6 3-3.38 1.69-4.68 2.34-5 2.42-.141 0-.282-.017-.42-.05zm-3.4-15.64a9.998 9.998 0 01-3.24-.59l.37-.94s2.8 1.08 4.78.15c1.98-.93 3.23-3.85 3.24-3.88l.17-.42 5.61 1.68a2.22 2.22 0 002.26-.78v-.1c.34-.67.27-.72.14-.8-.61-.35-9.51-3.5-10.51-3.83a2.839 2.839 0 00-2.25.3 4.489 4.489 0 01-3 .74 6.367 6.367 0 01-1.14-.42l.45-.9c.296.15.608.268.93.35a3.669 3.669 0 002.16-.55 3.83 3.83 0 013.24-.48c.39.13 10 3.49 10.71 3.93 1 .6.49 1.61.24 2.1v.1a3.19 3.19 0 01-3.44 1.29L30.15 28a8.81 8.81 0 01-3.55 4c-.742.33-1.548.49-2.36.47z" fill="#fff"/><path d="M32.63 41.062l-6.854 3.487.454.892 6.854-3.488-.454-.891zm-1.936-2.99l-8.407 4.273.453.891 8.407-4.272-.453-.892zm-2.202-2.581l-8.668 4.263.442.898 8.668-4.264-.442-.897z" fill="#fff"/><path d="M44.796 20.558l-5.076 2.57 6.544 12.928 5.077-2.57-6.545-12.927zm-23.858 2.443l-5.345-1.952-4.97 13.611 5.344 1.952L20.937 23z" fill="#fff" fill-opacity=".5"/><path d="M16.27 37.25L10 35l5.29-14.6 6.29 2.3-5.31 14.55zm-5-2.9l4.4 1.65 4.63-12.71-4.41-1.61-4.62 12.67zm34.78 2.38l-7-13.82 6-3L52 33.7l-5.95 3.03zm-5.66-13.38l6.1 12 4.18-2.12-6.09-12-4.19 2.12z" fill="#fff"/></svg>