<svg width="90" height="90" fill="none" xmlns="http://www.w3.org/2000/svg"><g clip-path="url(#clip0_9_160)" stroke-miterlimit="10"><path d="M72.42 74.86a33.243 33.243 0 01-51.904 4.029M11.637 56.27a33.234 33.234 0 0166.468 0" stroke="#0F4881"/><path d="M69.216 58.601a7.41 7.41 0 017.272-7.51 7.412 7.412 0 01.218 14.822 7.45 7.45 0 01-7.49-7.312zm20.07 21.558v-4.366a9.104 9.104 0 00-.516-3.055c-1.151-3.095-3.472-4.087-5.953-4.822a2.689 2.689 0 00-2.609.427c-1.14.883-2.311 1.726-3.482 2.6-1.22-.904-2.4-1.777-3.571-2.67a2.49 2.49 0 00-2.411-.386l-1.3.387a7.877 7.877 0 00-5.406 7.49v4.395a3.412 3.412 0 003.412 3.392h18.393a3.402 3.402 0 003.443-3.392zM5.724 58.601a7.41 7.41 0 017.272-7.51 7.412 7.412 0 01.218 14.822 7.45 7.45 0 01-7.49-7.312zm20.07 21.558v-4.366a9.11 9.11 0 00-.516-3.055c-1.151-3.095-3.473-4.087-5.953-4.822a2.689 2.689 0 00-2.609.427c-1.14.883-2.311 1.726-3.482 2.6-1.22-.904-2.4-1.777-3.571-2.67a2.49 2.49 0 00-2.411-.386l-1.3.387a7.876 7.876 0 00-5.446 7.49v4.395a3.413 3.413 0 003.413 3.392H22.35a3.402 3.402 0 003.443-3.392zM37.47 8.006a7.41 7.41 0 017.272-7.51 7.302 7.302 0 017.55 7.302 7.353 7.353 0 01-7.332 7.52 7.45 7.45 0 01-7.49-7.312zm20.07 21.557v-4.365a9.108 9.108 0 00-.516-3.055c-1.151-3.096-3.473-4.088-5.953-4.822a2.689 2.689 0 00-2.609.427c-1.14.883-2.311 1.726-3.482 2.599-1.22-.903-2.4-1.776-3.571-2.669a2.49 2.49 0 00-2.411-.387l-1.3.387a7.876 7.876 0 00-5.407 7.49v4.395a3.413 3.413 0 003.413 3.393h18.393a3.4 3.4 0 003.442-3.393z" fill="#CADAEF" stroke="#0146A6"/><path d="M28.006 59.722v-13.67a6.2 6.2 0 01.178-.616 2.351 2.351 0 012.272-1.468h20.466a2.342 2.342 0 012.372 2.361v13.096c.008.499-.15.987-.447 1.388a2.36 2.36 0 01-2.044.992H40.466a.437.437 0 00-.327.13l-5.744 5.178-.11.08v-5.388h-4.067a2.31 2.31 0 01-2.123-1.726l-.09-.357z" stroke="#0146A6"/><path d="M55.555 50.09h2.977a2.281 2.281 0 012.192 1.815v12.222a2.079 2.079 0 01-.08.337 2.043 2.043 0 01-1.656 1.429 4.247 4.247 0 01-.714.07h-3.8v5.357l-.159-.14-5.625-5.109a.408.408 0 00-.297-.109h-4.276a2.63 2.63 0 01-1.558-.436 1.985 1.985 0 01-.892-1.597" stroke="#0146A6"/><path d="M32.47 48.83h15.873M32.47 52.797h15.873M32.47 56.766h15.873" stroke="#0146A6" stroke-linecap="round"/></g><defs><clipPath id="clip0_9_160"><path fill="#fff" d="M0 0h89.752v90H0z"/></clipPath></defs></svg>