<svg width="33" height="38" fill="none" xmlns="http://www.w3.org/2000/svg"><path d="M32.364 7.278l.306.758a.579.579 0 000 .102c.084.463.139.932.166 1.402v23.449a4.645 4.645 0 01-4.582 4.556H4.747a4.563 4.563 0 01-3.823-1.911 5.48 5.48 0 01-.401-.637l-.32-.797a.483.483 0 000-.095A12.423 12.423 0 010 32.696v-4.288c0-6.321.013-12.643.038-18.964a4.677 4.677 0 014.767-4.766h3.44V2.339h3.002a.401.401 0 00.248-.12c.335-.353.69-.685 1.065-.995a6.5 6.5 0 014.709-1.16 5.97 5.97 0 014.167 2.205c.068.06.157.093.248.09h2.976v2.344h3.524a4.614 4.614 0 013.823 1.912c.102.236.224.459.357.663zM22.303 9.393v-4.69h-2.588a2.185 2.185 0 00-1.274-1.854 4.174 4.174 0 00-3.932 0c-.55.25-.979.709-1.191 1.274a5.41 5.41 0 00-.16.638H10.61v4.683l11.693-.05zM7.8 22.316a3.968 3.968 0 00-.35.236 1.172 1.172 0 00.834 2.058h16.313a1.172 1.172 0 100-2.345H8.379a5.189 5.189 0 00-.58.051zm17.268 8.112a1.191 1.191 0 00.542-1.72 1.274 1.274 0 00-1.185-.561H8.284a1.172 1.172 0 100 2.338h16.294c.164-.01.328-.03.49-.057zM7.78 16.466a1.223 1.223 0 00-.7 1.351 1.192 1.192 0 001.204.937h16.255c.296.011.587-.081.822-.261a1.173 1.173 0 00-.815-2.09H8.322a5.384 5.384 0 00-.542.063z" fill="#004584"/></svg>