<svg width="588" height="544" fill="none" xmlns="http://www.w3.org/2000/svg"><path d="M519 231.73c37.832 0 68.5-30.669 68.5-68.5 0-37.832-30.668-68.5-68.5-68.5s-68.5 30.668-68.5 68.5c0 37.831 30.668 68.5 68.5 68.5z" fill="url(#paint0_radial_43_591)"/><path d="M505.75 151.31a11.69 11.69 0 018.42-14.14 9.463 9.463 0 0110.36 3.27c.08.127.194.228.33.29 2.28.73 2.91 2.58 3.22 4.65a19.687 19.687 0 01-.32 6 2 2 0 00.22.79c.171.283.3.589.38.91a10.42 10.42 0 01-1.68 5.91c-.1.18-.35.44-.52.44-.72 0-.72.47-.88.94a23.023 23.023 0 01-1.16 3.2 8.243 8.243 0 01-7.78 4.69 8.61 8.61 0 01-7.91-4.56 29.485 29.485 0 01-1.52-4 4.995 4.995 0 00-.6-1c0-.1-.2-.17-.27-.27a10.576 10.576 0 01-1.67-5.92 1.2 1.2 0 011.13-1.26c.083-.01.167-.01.25 0v.06z" fill="#fff"/><path d="M524.88 185.71v-9.82a5.294 5.294 0 014.86-5.71c.266-.02.534-.02.8 0h.22l-5-2.42c-.44-.238-.867-.498-1.28-.78l-4.71 14.82a33.846 33.846 0 01-1.69-4.36 1.228 1.228 0 01-.073-.588c.025-.198.098-.388.213-.552a17.563 17.563 0 001.4-3 1.94 1.94 0 00-1.12-2.5 2.183 2.183 0 00-.42-.11 7.542 7.542 0 00-2.68 0 2.066 2.066 0 00-2 2.14c.007.248.061.492.16.72.377.993.828 1.955 1.35 2.88.12.22.32.51.25.69-.52 1.69-1.11 3.22-1.69 4.84h-.18c-1.55-4.95-3.12-9.87-4.68-14.87l-.64.35a33.777 33.777 0 01-9.58 4.28 4.999 4.999 0 00-3.79 3.77 19.76 19.76 0 00-.1 8.79c.043.156.119.3.223.424.103.125.232.225.377.296 1.06.56 2.12 1.11 3.23 1.57a47.866 47.866 0 0020.11 3.38c2.46-.09 4.91-.36 7.33-.81a6.794 6.794 0 01-.89-3.43z" fill="#fff"/><path d="M534.54 173.35v-1.55a1.834 1.834 0 01.475-1.305 1.834 1.834 0 011.255-.595h5.11a1.816 1.816 0 011.76 1.68v1.79h4.19a1.92 1.92 0 012.07 1.76v11a1.888 1.888 0 01-1.68 1.9h-16.91c-2 0-2.64-.63-2.64-2.61v-9.81c0-1.69.71-2.32 2.33-2.34h3.87s.01.16.17.08zm1.84 0h5v-1c.1-.71-.2-.91-.88-.88-.68.03-1.82 0-2.73 0-1.68.1-1.68.1-1.44 1.92l.05-.04z" fill="#fff"/><path d="M68.5 236.73c37.832 0 68.5-30.669 68.5-68.5 0-37.832-30.668-68.5-68.5-68.5-37.831 0-68.5 30.668-68.5 68.5 0 37.831 30.669 68.5 68.5 68.5z" fill="url(#paint1_radial_43_591)"/><path d="M85.43 176.86v-1.71a8.79 8.79 0 017.44-8.65 9.99 9.99 0 018 2.27c.19.15.361.321.51.51-.7-.13-1.39-.29-2.08-.39a14.16 14.16 0 00-7.41.61 10.43 10.43 0 00-6 6.23c-.13.34-.25.69-.39 1l-.07.13zm-31.19-22.54a11.76 11.76 0 018.47-14.21 9.483 9.483 0 0110.42 3.31c.1.1.2.25.34.29 2.27.73 2.93 2.59 3.23 4.65.2 2.034.091 4.087-.32 6.09.033.273.107.539.22.79.167.286.298.592.39.91a10.62 10.62 0 01-1.69 5.95c-.12.19-.36.43-.53.43-.73 0-.73.45-.88.91a20.879 20.879 0 01-1.19 3.23 8.222 8.222 0 01-7.81 4.75 8.657 8.657 0 01-8-4.59 32.244 32.244 0 01-1.51-4 4.625 4.625 0 00-.49-1c0-.11-.2-.17-.27-.29a10.74 10.74 0 01-1.62-5.95 1.235 1.235 0 01.339-.889 1.224 1.224 0 01.871-.381h.06-.03z" fill="#88A4BA"/><path d="M69.81 189.41l5.54-5.59 2.57-2.61a17.41 17.41 0 01-.71-9.05l-2.83-1.36c-.42-.21-.79-.46-1.29-.77l-4.74 14.93a33.431 33.431 0 01-1.69-4.39 1.212 1.212 0 01.13-1.15 19.006 19.006 0 001.41-3 2 2 0 00-1.12-2.51 1.302 1.302 0 00-.42-.11 6.991 6.991 0 00-2.73-.09 2.042 2.042 0 00-1.598.943 2.05 2.05 0 00-.182 1.847c.381.997.84 1.963 1.37 2.89.11.24.31.51.25.7-.54 1.71-1.13 3.23-1.7 4.88h-.18a2328.224 2328.224 0 01-4.74-14.91 5.003 5.003 0 00-.64.35 33.781 33.781 0 01-9.65 4.27 5.109 5.109 0 00-3.81 3.8 20.07 20.07 0 00-.09 8.86 1.225 1.225 0 00.61.73c1.07.56 2.13 1.12 3.24 1.58a48.078 48.078 0 0019.62 3.47 59.492 59.492 0 013.38-3.71z" fill="#88A4BA"/><path d="M94.19 161.42a14.005 14.005 0 0113.742 10.617A13.999 13.999 0 0188.7 188.23c-.69-.29-.69-.29-1.25.25L75.58 200.2c-.358.354-.735.687-1.13 1a3.613 3.613 0 01-4.17.39 4.53 4.53 0 01-2.39-4.61 2.36 2.36 0 01.59-1.29c1.21-1.37 2.44-2.68 3.72-4 2.86-2.92 5.76-5.83 8.64-8.74.27-.29.53-.6.8-.91a.471.471 0 000-.55A14.002 14.002 0 0188 162.75a12.947 12.947 0 012-.79 11.734 11.734 0 014.19-.54zm.15 3.29a10.709 10.709 0 00-10.74 10.67v.12a10.87 10.87 0 0010.71 10.59 10.695 10.695 0 007.555-3.121A10.68 10.68 0 00105 175.42v-.18a10.499 10.499 0 00-3.061-7.454 10.508 10.508 0 00-7.439-3.096l-.16.02z" fill="#88A4BA"/><path d="M293.75 543.73c37.832 0 68.5-30.669 68.5-68.5 0-37.832-30.668-68.5-68.5-68.5s-68.5 30.668-68.5 68.5c0 37.831 30.668 68.5 68.5 68.5z" fill="url(#paint2_radial_43_591)"/><path d="M319.77 464.57h-52.1v-2.7c0-.1.2-.23.34-.28l8.29-3.13c5.7-2.16 11.397-4.31 17.09-6.45.198-.063.412-.063.61 0l21.92 8.28c1.17.45 2.34.89 3.51 1.31a.411.411 0 01.32.47c.01.82.02 1.64.02 2.5zm-26.06-3.79a2.104 2.104 0 001.56-.574c.207-.197.373-.433.487-.695.113-.263.172-.545.173-.831a2.177 2.177 0 00-2.18-2.18 2.182 2.182 0 00-2.18 2.18 2.1 2.1 0 002.14 2.1zM266 469.02v-2.9h55c.38 0 .49.07.48.33v2.59l-55.48-.02zm4.83 23.48v-20.15h-1.75v-1.74h10v1.72h-1.74v20.17h1.73v1.73h-10v-1.73h1.76zm39.42-20.15h-1.78v-1.58c0-.07.2-.18.31-.18h9.72v1.52c0 .08-.18.21-.28.22h-1.47v20.17H318c.52 0 .52 0 .52.54v1a.713.713 0 010 .16h-10v-1.52c0-.07.21-.18.33-.18h1.42l-.02-20.15zm-18.03 21.9h-10v-1.75H284v-20.14h-1.73v-1.75h10v1.72h-1.74v20.17h1.41c.29 0 .38.09.37.38-.1.46-.09.9-.09 1.37zm3.14-.01v-1.74h1.38c.29 0 .4-.06.4-.38v-19.79h-1.77v-1.75h9.45c.68 0 .61 0 .59.57v1.17h-1.79v19.75c0 .35.09.48.46.46.37-.02.86 0 1.33 0v1.71h-10.05zm27.26 1.47v2.79h-57.74v-2.79h57.74z" fill="#fff"/><path d="M207.64 223.37h48.51v11.13h-34.69v12.36h16.66c7.267 0 12.803 1.52 16.61 4.56 3.807 3.04 5.707 7.42 5.7 13.14 0 6-2.12 10.667-6.36 14s-10.213 5-17.92 5h-28.49l-.02-60.19zm27.73 49.81c3.54 0 6.26-.703 8.16-2.11a7.145 7.145 0 002.83-6.13c0-5.28-3.667-7.917-11-7.91h-13.9v16.15h13.91zm35.64-49.8h13.82v39.16l28.68-39.16h13.05v60.1h-13.74v-39.06l-28.68 39.06h-13.13v-60.1zm81.77 57.12a29.775 29.775 0 01-11.68-11.08 32.193 32.193 0 010-32 30.003 30.003 0 0111.68-11.14 37.312 37.312 0 0130.82-1.24 28.323 28.323 0 0110.61 7.9l-8.94 8.25a19.163 19.163 0 00-15.11-7 19.763 19.763 0 00-10 2.45 17.222 17.222 0 00-6.84 6.83 21.376 21.376 0 000 19.89 17.35 17.35 0 006.84 6.83 20.003 20.003 0 0010 2.45 19.113 19.113 0 0015.13-7.14l8.93 8.25a27.83 27.83 0 01-10.64 8 35.381 35.381 0 01-14.18 2.75 34.324 34.324 0 01-16.61-4m61.04 0a29.706 29.706 0 01-11.68-11.08 32.193 32.193 0 010-32 29.865 29.865 0 0111.68-11.14 37.312 37.312 0 0130.82-1.24 28.318 28.318 0 0110.6 7.9l-8.92 8.25a19.181 19.181 0 00-15.11-7 19.807 19.807 0 00-10 2.45 17.35 17.35 0 00-6.84 6.83 21.487 21.487 0 000 19.89 17.35 17.35 0 006.84 6.83 20.005 20.005 0 0010 2.45 19.113 19.113 0 0015.11-7.14l8.92 8.25a27.83 27.83 0 01-10.64 8 35.337 35.337 0 01-14.17 2.75 34.324 34.324 0 01-16.61-4" fill="#004584"/><path d="M171.46 223.38h-12.42l-26.79 60.1h14.22l24.99-60.1z" fill="#F1841F"/><path d="M174.26 226.69l-6.32 15.46 7.42 17.89h-14.73l-4.3 10.56h23.4l5.32 12.88h14.6l-25.39-56.79z" fill="#004584"/><path d="M477.81 80.73a252.324 252.324 0 00-284.353-58.941A252.313 252.313 0 00109.69 80.73" stroke="#E3EDF3" stroke-miterlimit="10"/><path d="M103.68 87.21l7.7-17.49 9.44 8.93-17.14 8.56zm380.14 0l-7.7-17.49-9.44 8.93 17.14 8.56zM371.89 493.98l19.1-.39-4.62-12.15-14.48 12.54z" fill="#E3EDF3"/><path d="M375 492.96c100.36-33.35 172.74-128 172.74-239.53 0-2.667-.043-5.29-.13-7.87" stroke="#E3EDF3" stroke-miterlimit="10"/><path d="M546.9 239.84l6.71 17.89-12.99.21 6.28-18.1zM215.61 493.98l-19.1-.39 4.62-12.15 14.48 12.54z" fill="#E3EDF3"/><path d="M212.48 492.96c-100.36-33.35-172.74-128-172.74-239.53 0-2.667.043-5.29.13-7.87" stroke="#E3EDF3" stroke-miterlimit="10"/><path d="M40.6 239.84l-6.71 17.89 12.99.21-6.28-18.1z" fill="#E3EDF3"/><defs><radialGradient id="paint0_radial_43_591" cx="0" cy="0" r="1" gradientUnits="userSpaceOnUse" gradientTransform="translate(532.15 127.94) scale(109.54)"><stop stop-color="#FFB271"/><stop offset=".17" stop-color="#FEAF6B"/><stop offset=".39" stop-color="#FBA55A"/><stop offset=".65" stop-color="#F6953E"/><stop offset=".88" stop-color="#F0841F"/></radialGradient><radialGradient id="paint1_radial_43_591" cx="0" cy="0" r="1" gradientUnits="userSpaceOnUse" gradientTransform="translate(79 150.73) scale(73.76)"><stop offset=".37" stop-color="#fff"/><stop offset=".73" stop-color="#F6F8FB"/><stop offset="1" stop-color="#ECF1F7"/></radialGradient><radialGradient id="paint2_radial_43_591" cx="0" cy="0" r="1" gradientUnits="userSpaceOnUse" gradientTransform="matrix(73.4 0 0 73.4 313.82 448.25)"><stop stop-color="#ECF1F7"/><stop offset=".14" stop-color="#E6EDF4"/><stop offset=".15" stop-color="#E6EDF4"/><stop offset=".39" stop-color="#DCE6EF"/><stop offset=".8" stop-color="#C1D3E2"/><stop offset=".84" stop-color="#BED1E1"/></radialGradient></defs></svg>