<svg width="126" height="126" viewBox="0 0 126 126" fill="none" xmlns="http://www.w3.org/2000/svg">
<g opacity="0.2">
<path d="M30.1629 12.5866C33.3175 12.6074 35.8749 10.0739 35.8749 6.91914C35.8947 5.08054 36.6383 3.32374 37.9448 2.02913C39.2513 0.734527 41.0155 0.00631351 42.8553 0.00217694C43.766 -0.020679 44.6722 0.136633 45.5218 0.465063C46.3714 0.793494 47.1477 1.28656 47.8059 1.9159C48.4641 2.54524 48.9914 3.29844 49.3573 4.13216C49.7232 4.96589 49.9205 5.86368 49.938 6.77391C50.0383 9.93616 52.5028 12.5022 55.6666 12.5022H76.9048C79.8755 12.5022 82.2027 10.0931 82.2837 7.12352C82.429 3.22937 85.1038 0.324897 88.8013 0.0452062C90.5454 -0.117406 92.2871 0.37972 93.6822 1.43835C95.0773 2.49697 96.0243 4.04008 96.336 5.76272C96.4376 6.35776 96.4826 6.96106 96.4706 7.56457C96.4706 10.3628 98.739 12.6313 101.537 12.6313H112.66C120.27 12.6313 125.113 17.4398 125.167 25.099C125.2 29.999 125.167 34.9043 125.167 39.8043C125.167 64.1553 125.167 88.5027 125.167 112.846C125.167 119.204 121.89 123.835 116.357 125.25C115.182 125.539 113.977 125.681 112.767 125.675C83.2812 125.7 53.7933 125.7 24.3036 125.675C16.9357 125.675 11.9251 120.71 12.0058 113.304C12.0058 111.609 11.5914 110.975 9.90144 110.614C7.75791 110.15 5.69182 109.383 3.76598 108.334C0.0954672 106.247 -1.0778 102.304 1.07499 98.6791C7.08128 88.6264 8.91653 77.4549 10.4343 66.1167C12.2803 52.3688 12.0166 38.5457 11.9843 24.744C11.9843 20.1237 13.7765 16.434 17.856 14.2234C19.6037 13.3213 21.526 12.8075 23.4909 12.7173C25.6998 12.5854 27.9151 12.5717 30.1629 12.5866ZM22.5793 39.5837C19.373 39.5837 16.7044 42.1033 16.5865 45.3074C16.5743 45.6374 16.5633 45.9668 16.5536 46.2963C16.2091 57.1504 15.2727 67.94 13.1145 78.5683C11.5591 86.249 9.46011 93.7469 5.27293 100.508C4.15348 102.304 4.46025 103.703 6.48926 104.536C8.95983 105.585 11.5473 106.335 14.1963 106.769C28.2325 108.888 42.2902 110.856 56.3425 112.863C74.8673 115.505 93.3903 118.137 111.911 120.758C117.121 121.495 120.55 118.499 120.55 113.228C120.55 89.2646 120.55 65.3045 120.55 41.3479C120.55 40.3736 119.76 39.5837 118.785 39.5837H22.5793ZM22.4967 112.7C19.2959 112.241 15.9637 114.688 17.5472 117.507C18.7749 119.692 21.1129 121.049 24.1045 121.049C42.2202 121.049 60.3396 121.049 78.4625 121.049C78.81 121.049 79.1528 121.021 79.4953 121.004C79.5347 121.002 79.5658 120.969 79.5658 120.93C79.5658 120.893 79.5388 120.862 79.5025 120.857L22.4967 112.7Z" fill="#022348"/>
<path d="M55.196 61.9864C56.5357 61.9894 57.6233 60.9042 57.6233 59.5645V49.5107C57.6233 46.197 60.3096 43.5107 63.6233 43.5107H115.75C116.763 43.5107 117.584 44.3319 117.584 45.3449C117.584 57.7965 117.584 70.2427 117.616 82.6943C117.616 84.2702 117.202 84.7704 115.587 84.7382C110.684 84.636 105.781 84.7059 100.873 84.7059C99.8177 84.7059 98.9623 85.5613 98.9623 86.6165V97.187C98.9623 100.501 96.276 103.187 92.9623 103.187H21.9961C21.1214 103.187 20.3315 102.48 20.3315 101.606C20.2992 89.1057 20.3046 76.6003 20.2131 64.1003C20.2131 62.4867 20.5683 61.9488 22.296 61.9488C33.2591 62.0295 44.2275 61.9864 55.196 61.9864ZM67.6329 66.0527C64.3191 66.0527 61.6329 68.739 61.6329 72.0527V74.6181C61.6329 77.9318 64.3191 80.6181 67.6329 80.6181H70.1642C73.4779 80.6181 76.1642 77.9318 76.1642 74.6181V72.0527C76.1642 68.739 73.4779 66.0527 70.1642 66.0527H67.6329ZM80.3622 74.6074C80.3622 77.9211 83.0485 80.6074 86.3622 80.6074H88.8935C92.2072 80.6074 94.8935 77.9211 94.8935 74.6074V72.0581C94.8935 68.7444 92.2072 66.0581 88.8935 66.0581H86.3622C83.0485 66.0581 80.3622 68.7444 80.3622 72.0581V74.6074ZM107.521 80.645C110.834 80.645 113.521 77.9587 113.521 74.645V72.0904C113.521 68.7767 110.834 66.0904 107.521 66.0904H105.027C101.713 66.0904 99.0269 68.7767 99.0269 72.0904V74.645C99.0269 77.9587 101.713 80.645 105.027 80.645H107.521ZM43.0112 66.0527C43.0142 66.0527 43.0166 66.0551 43.0166 66.0581V74.6504C43.0166 77.9641 45.7029 80.6504 49.0166 80.6504H51.6287C54.9424 80.6504 57.631 77.9641 57.6251 74.6504C57.6206 72.0573 57.61 69.4781 57.5856 66.8972C57.5856 66.6121 56.9936 66.0957 56.6707 66.0904C52.1606 66.0366 47.6505 66.0527 43.0112 66.0527ZM70.1427 61.8843C73.4564 61.8843 76.1427 59.198 76.1427 55.8843V53.5178C76.1427 50.2041 73.4564 47.5178 70.1427 47.5178H67.6705C64.3568 47.5178 61.6705 50.2041 61.6705 53.5178V55.8842C61.6705 59.198 64.3568 61.8843 67.6705 61.8843H70.1427ZM99.0269 55.8574C99.0269 59.1711 101.713 61.8574 105.027 61.8574H107.558C110.872 61.8574 113.558 59.1711 113.558 55.8574V53.5501C113.558 50.2364 110.872 47.5501 107.558 47.5501H105.027C101.713 47.5501 99.0269 50.2364 99.0269 53.5501V55.8574ZM24.4057 74.6396C24.4057 77.9533 27.092 80.6396 30.4057 80.6396H32.7487C36.0624 80.6396 38.7487 77.9533 38.7487 74.6396V72.1603C38.7487 68.8466 36.0624 66.1603 32.7487 66.1603H30.4057C27.092 66.1603 24.4057 68.8466 24.4057 72.1603V74.6396ZM42.9843 93.3412C42.9843 96.6549 45.6706 99.3471 48.9843 99.345C51.5802 99.3434 54.1416 99.331 56.703 99.2821C57.0205 99.2821 57.5802 98.4323 57.591 97.9697C57.661 94.0056 57.591 90.0415 57.6556 86.0828C57.6556 84.9641 57.2412 84.679 56.2024 84.6898C52.2951 84.7274 48.3824 84.6898 44.4697 84.6898C43.6226 84.6898 42.9843 85.4694 42.9843 86.3165V93.3412ZM70.1319 99.3424C73.4456 99.3456 76.1319 96.655 76.1319 93.3412V90.7167C76.1319 87.403 73.4456 84.7143 70.1319 84.7202C67.5623 84.7248 65.0164 84.7354 62.4671 84.7597C62.1549 84.7597 61.5844 85.4051 61.579 85.7547C61.5145 89.9393 61.5145 94.1221 61.579 98.3032C61.579 98.6528 62.1549 99.2875 62.4671 99.2928C65.0139 99.3293 67.5608 99.34 70.1319 99.3424ZM94.8935 90.8189C94.8935 87.5051 92.2072 84.8189 88.8935 84.8189H86.3891C83.0754 84.8189 80.3891 87.5052 80.3891 90.8189V93.2606C80.3891 96.5743 83.0754 99.2606 86.3891 99.2606H88.8935C92.2072 99.2606 94.8935 96.5743 94.8935 93.2606V90.8189ZM86.3998 47.5178C83.0861 47.5178 80.3998 50.2041 80.3998 53.5178V55.8251C80.3998 59.1388 83.0861 61.8251 86.3998 61.8251H88.7859C92.0996 61.8251 94.7859 59.1388 94.7859 55.8251V53.5178C94.7859 50.2041 92.0996 47.5178 88.7859 47.5178H86.3998ZM32.7756 99.2498C36.0893 99.2498 38.7756 96.5635 38.7756 93.2498V90.8619C38.7756 87.5482 36.0893 84.8619 32.7756 84.8619H30.4272C27.1135 84.8619 24.4272 87.5482 24.4272 90.8619V93.2498C24.4272 96.5635 27.1135 99.2498 30.4272 99.2498H32.7756Z" fill="#022348"/>
</g>
</svg>
