<svg width="1180" height="386" viewBox="0 0 1180 386" fill="none" xmlns="http://www.w3.org/2000/svg">
<rect width="1180" height="386" rx="4" fill="url(#paint0_linear_115_2)"/>
<mask id="mask0_115_2" style="mask-type:alpha" maskUnits="userSpaceOnUse" x="0" y="0" width="1180" height="386">
<rect width="1180" height="386" rx="4" fill="white"/>
</mask>
<g mask="url(#mask0_115_2)">
<path d="M1023.43 27.855L1607.92 27.6641L1607.91 26.4389L1022.93 26.6301L994.308 55.2499L934.32 55.2695C934.195 54.7479 933.899 54.2837 933.478 53.9517C933.057 53.6197 932.536 53.4393 932 53.4397C931.392 53.4955 930.827 53.7764 930.416 54.2272C930.004 54.678 929.776 55.2661 929.776 55.8763C929.776 56.4864 930.004 57.0745 930.415 57.525C930.826 57.9756 931.391 58.256 931.998 58.3114C932.535 58.3115 933.055 58.1308 933.476 57.7985C933.898 57.4662 934.195 57.0018 934.319 56.4802L994.855 56.4604L1023.43 27.855ZM987.584 122.98L861.568 123.007L847.75 109.189L828.581 109.253C828.463 109.69 828.225 110.086 827.894 110.396C827.563 110.705 827.152 110.915 826.707 111.003C826.263 111.091 825.803 111.053 825.379 110.893C824.956 110.733 824.585 110.457 824.311 110.097C824.036 109.737 823.867 109.308 823.824 108.857C823.781 108.406 823.864 107.952 824.066 107.546C824.267 107.14 824.579 106.799 824.964 106.561C825.349 106.323 825.794 106.197 826.247 106.198C826.782 106.201 827.301 106.383 827.721 106.714C828.141 107.046 828.439 107.508 828.567 108.028L848.183 108.036L862.001 121.854L988.117 121.726L1016.72 150.327L1607.87 150.163L1607.87 151.373L1016.18 151.581L987.584 122.98ZM1259.04 178.167L1002.9 178.236L974.3 149.635L930.095 149.664C929.79 150.153 929.318 150.516 928.766 150.684C928.214 150.853 927.62 150.815 927.094 150.58C926.568 150.344 926.145 149.925 925.904 149.402C925.663 148.878 925.62 148.284 925.783 147.731C925.946 147.178 926.304 146.702 926.79 146.392C927.277 146.082 927.859 145.959 928.429 146.045C928.999 146.132 929.519 146.422 929.891 146.862C930.264 147.302 930.464 147.862 930.455 148.438L974.805 148.438L1003.39 177.025L1259.6 176.941L1303.22 220.556L1607.91 220.543L1607.9 221.768L1302.63 221.81L1259.04 178.167ZM968.284 -7.39626L987.171 -26.2839L757.841 -26.281L757.842 -27.4917L1176.3 -27.6429L1176.36 12.354L1607.91 12.1409L1607.91 13.3517L1175.68 13.4929L1175.08 13.4931L1017.6 13.5445L988.979 42.1643L883.589 42.1987C883.464 42.7204 883.167 43.1848 882.746 43.5171C882.325 43.8494 881.804 44.03 881.268 44.03C880.948 44.0314 880.631 43.9695 880.334 43.8476C880.038 43.7258 879.769 43.5465 879.543 43.3201C879.317 43.0937 879.137 42.8247 879.015 42.5286C878.894 42.2325 878.832 41.9152 878.833 41.5949C878.833 41.273 878.896 40.9541 879.019 40.6565C879.142 40.359 879.322 40.0886 879.55 39.8608C879.778 39.6331 880.048 39.4526 880.346 39.3296C880.643 39.2065 880.962 39.1434 881.284 39.1439C881.819 39.151 882.336 39.3363 882.754 39.6703C883.171 40.0042 883.465 40.4679 883.59 40.988L988.49 40.9538L1016.94 12.507L1017.37 12.9393L1017.37 12.3339L1175.08 12.2823L1175.08 -26.4173L1017.63 -26.3659L977.703 13.5576L862.397 13.5953C862.272 14.1155 861.977 14.5793 861.56 14.9136C861.142 15.2478 860.625 15.4334 860.09 15.4409C859.768 15.4416 859.449 15.3787 859.152 15.2559C858.854 15.133 858.584 14.9526 858.356 14.7251C858.129 14.4975 857.948 14.2272 857.825 13.9297C857.703 13.6322 857.64 13.3134 857.64 12.9914C857.639 12.6712 857.701 12.3538 857.823 12.0576C857.945 11.7615 858.125 11.4924 858.351 11.2658C858.578 11.0393 858.847 10.8598 859.143 10.7378C859.439 10.6157 859.757 10.5536 860.077 10.5548C860.613 10.5544 861.134 10.7348 861.555 11.0668C861.976 11.3987 862.273 11.863 862.397 12.3845L977.098 12.3471L1015.87 -26.423L988.915 -26.4142L968.73 -6.22895L683.073 -6.09239L683.131 -7.36079L968.284 -7.39626ZM1128.82 135.978L1035.16 136.009C1035.02 136.592 1034.66 137.104 1034.17 137.448C1033.68 137.791 1033.08 137.944 1032.48 137.876C1031.88 137.808 1031.33 137.524 1030.93 137.078C1030.53 136.633 1030.3 136.055 1030.3 135.455C1030.29 134.854 1030.5 134.272 1030.89 133.816C1031.29 133.361 1031.83 133.064 1032.43 132.982C1033.02 132.9 1033.62 133.037 1034.13 133.369C1034.63 133.701 1034.99 134.204 1035.14 134.784L1128.33 134.767L1192.39 70.7082L1115.1 70.7335C1114.98 71.171 1114.75 71.5668 1114.41 71.8761C1114.08 72.1855 1113.67 72.396 1113.23 72.4838C1112.78 72.5717 1112.32 72.5334 1111.9 72.3732C1111.48 72.2131 1111.11 71.9375 1110.83 71.5777C1110.56 71.2179 1110.39 70.7882 1110.34 70.3373C1110.3 69.8865 1110.38 69.4325 1110.59 69.0267C1110.79 68.6208 1111.1 68.2795 1111.48 68.0413C1111.87 67.803 1112.31 67.6774 1112.77 67.6786C1113.3 67.6783 1113.82 67.8586 1114.24 68.1906C1114.67 68.5226 1114.96 68.9869 1115.09 69.5084L1608.02 69.3473L1608.01 70.5724L1194.09 70.7077L1128.82 135.978ZM1193.68 134.516C1193.53 135.085 1193.17 135.581 1192.68 135.91C1192.19 136.238 1191.6 136.378 1191.02 136.302C1190.43 136.227 1189.9 135.941 1189.51 135.498C1189.12 135.056 1188.9 134.487 1188.91 133.897C1188.91 133.254 1189.17 132.639 1189.63 132.183C1190.08 131.728 1190.7 131.469 1191.34 131.461C1191.88 131.461 1192.41 131.644 1192.83 131.978C1193.25 132.313 1193.55 132.78 1193.68 133.305L1223.21 133.281L1198.57 108.642L1182.49 108.647L1158.39 132.74C1158.63 133.1 1158.76 133.52 1158.77 133.95C1158.77 134.272 1158.7 134.591 1158.58 134.889C1158.46 135.186 1158.28 135.457 1158.05 135.685C1157.82 135.912 1157.55 136.093 1157.25 136.216C1156.96 136.339 1156.64 136.402 1156.32 136.401C1156 136.403 1155.68 136.341 1155.38 136.219C1155.09 136.097 1154.82 135.918 1154.59 135.692C1154.36 135.465 1154.19 135.196 1154.06 134.9C1153.94 134.604 1153.88 134.287 1153.88 133.966C1153.88 133.644 1153.94 133.326 1154.07 133.028C1154.19 132.73 1154.37 132.46 1154.6 132.232C1154.83 132.005 1155.1 131.824 1155.39 131.701C1155.69 131.578 1156.01 131.515 1156.33 131.515C1156.76 131.524 1157.17 131.648 1157.53 131.875L1181.92 107.48L1199.03 107.46L1224.97 133.395L1607.87 133.27L1607.89 134.496L1193.68 134.516ZM1202.73 89.7305C1202.36 89.9487 1201.94 90.068 1201.52 90.0767C1201.03 90.0789 1200.56 89.9371 1200.15 89.6692C1199.75 89.4013 1199.44 89.0195 1199.25 88.5722C1199.06 88.1249 1199.01 87.6323 1199.11 87.1568C1199.2 86.6814 1199.44 86.2445 1199.78 85.9017C1200.12 85.5589 1200.56 85.3256 1201.03 85.2314C1201.51 85.1372 1202 85.1863 1202.45 85.3726C1202.9 85.5588 1203.28 85.8737 1203.55 86.2775C1203.81 86.6812 1203.96 87.1554 1203.95 87.6401C1203.94 88.0725 1203.82 88.4945 1203.59 88.8654L1231.2 116.472L1607.88 116.291L1607.88 117.502L1230.65 117.625L1202.73 89.7305ZM1136.14 434.778L1076.15 434.682C1076.03 435.274 1075.69 435.796 1075.19 436.147C1074.7 436.497 1074.09 436.65 1073.49 436.574C1072.9 436.497 1072.35 436.198 1071.96 435.736C1071.57 435.274 1071.37 434.682 1071.4 434.078C1071.4 433.757 1071.46 433.438 1071.58 433.14C1071.71 432.842 1071.89 432.572 1072.11 432.344C1072.34 432.117 1072.61 431.936 1072.91 431.813C1073.21 431.69 1073.53 431.627 1073.85 431.627C1074.38 431.635 1074.9 431.82 1075.32 432.154C1075.73 432.488 1076.03 432.951 1076.15 433.471L1136.69 433.452L1165.29 462.053L1607.76 461.951L1607.76 463.162L1164.68 463.321L1136.14 434.778ZM1142 420.449L932.716 420.518C932.591 421.038 932.297 421.502 931.879 421.836C931.461 422.17 930.944 422.356 930.409 422.363C930.087 422.364 929.768 422.301 929.471 422.178C929.173 422.055 928.903 421.875 928.676 421.647C928.448 421.42 928.268 421.15 928.145 420.852C928.022 420.555 927.959 420.236 927.96 419.914C927.958 419.593 928.021 419.276 928.143 418.98C928.265 418.684 928.444 418.415 928.671 418.188C928.897 417.962 929.166 417.782 929.463 417.66C929.759 417.538 930.076 417.476 930.396 417.477C930.933 417.477 931.453 417.657 931.874 417.989C932.295 418.321 932.592 418.785 932.716 419.307L1142.5 419.224L1171.1 447.825L1607.84 447.697L1607.84 448.907L1170.53 449.007L1142 420.449ZM1176.45 434.722L1147.8 406.063L963.594 406.123C963.469 406.643 963.175 407.107 962.757 407.441C962.339 407.776 961.822 407.961 961.287 407.969C960.828 407.977 960.377 407.856 959.983 407.62C959.59 407.384 959.271 407.042 959.063 406.633C958.855 406.225 958.767 405.765 958.807 405.308C958.848 404.851 959.016 404.415 959.293 404.049C959.57 403.683 959.944 403.402 960.372 403.238C960.801 403.074 961.267 403.034 961.717 403.123C962.167 403.212 962.583 403.425 962.918 403.739C963.252 404.053 963.492 404.454 963.609 404.898L1148.32 404.852L1176.9 433.439L1607.79 433.341L1607.77 434.566L1176.45 434.722ZM1130.01 368.234L1003.92 368.217L990.05 382.087L970.448 382.094C970.33 382.531 970.092 382.927 969.761 383.236C969.43 383.546 969.019 383.756 968.575 383.844C968.13 383.932 967.67 383.894 967.247 383.733C966.823 383.573 966.453 383.298 966.178 382.938C965.903 382.578 965.735 382.148 965.691 381.698C965.648 381.247 965.732 380.793 965.934 380.387C966.135 379.981 966.446 379.64 966.831 379.402C967.217 379.163 967.661 379.038 968.114 379.039C968.648 379.049 969.163 379.233 969.582 379.564C970.001 379.894 970.3 380.352 970.434 380.869L989.561 380.877L1003.39 367.05L1129.4 366.994L1158.02 338.375L1607.72 338.228L1607.72 339.438L1158.53 339.6L1130.01 368.234ZM1116.12 342.121L1073.24 342.15C1073.09 342.719 1072.74 343.215 1072.25 343.544C1071.76 343.873 1071.17 344.012 1070.58 343.936C1070 343.861 1069.46 343.575 1069.07 343.132C1068.69 342.69 1068.47 342.121 1068.47 341.532C1068.48 340.885 1068.74 340.267 1069.2 339.809C1069.66 339.351 1070.28 339.09 1070.92 339.08C1071.46 339.088 1071.97 339.273 1072.39 339.607C1072.81 339.941 1073.1 340.405 1073.23 340.925L1115.63 340.911L1144.17 312.378L1607.83 312.125L1607.81 313.35L1144.64 313.487L1116.12 342.121ZM1159.2 477.016L1158.77 477.448L1130.3 448.977L1025.36 449.054C1025.23 449.557 1024.95 450.006 1024.55 450.334C1024.15 450.661 1023.65 450.85 1023.14 450.871C1022.81 450.873 1022.5 450.811 1022.2 450.689C1021.91 450.567 1021.64 450.388 1021.41 450.161C1021.18 449.935 1021 449.666 1020.88 449.37C1020.76 449.074 1020.7 448.756 1020.7 448.436C1020.7 448.114 1020.76 447.795 1020.89 447.498C1021.01 447.2 1021.19 446.93 1021.42 446.702C1021.64 446.474 1021.92 446.294 1022.21 446.171C1022.51 446.048 1022.83 445.985 1023.15 445.985C1023.69 445.992 1024.2 446.178 1024.62 446.511C1025.04 446.845 1025.33 447.309 1025.46 447.829L1130.86 447.78L1159.46 476.382L1607.76 476.249L1607.77 477.475L1159.12 477.621L1159.2 477.016ZM1340.94 382.275L1323.82 382.281L1299.32 357.786C1298.94 358.062 1298.47 358.213 1298 358.219C1297.51 358.221 1297.04 358.08 1296.64 357.812C1296.23 357.544 1295.92 357.162 1295.73 356.715C1295.54 356.267 1295.5 355.775 1295.59 355.299C1295.68 354.824 1295.92 354.387 1296.26 354.044C1296.6 353.701 1297.04 353.468 1297.51 353.374C1297.99 353.28 1298.48 353.329 1298.93 353.515C1299.38 353.701 1299.76 354.016 1300.03 354.42C1300.3 354.824 1300.44 355.298 1300.43 355.783C1300.43 356.166 1300.33 356.543 1300.15 356.878L1324.3 381.027L1340.39 381.036L1365.05 356.381L1335.65 356.391C1335.53 356.828 1335.29 357.224 1334.96 357.533C1334.63 357.843 1334.22 358.053 1333.77 358.141C1333.33 358.229 1332.87 358.191 1332.45 358.031C1332.02 357.87 1331.65 357.595 1331.38 357.235C1331.1 356.875 1330.93 356.446 1330.89 355.995C1330.85 355.544 1330.93 355.09 1331.13 354.684C1331.33 354.278 1331.64 353.937 1332.03 353.699C1332.42 353.46 1332.86 353.335 1333.31 353.336C1333.85 353.336 1334.37 353.516 1334.79 353.848C1335.21 354.18 1335.51 354.644 1335.63 355.166L1366.28 355.156L1607.86 355.062L1607.86 356.273L1366.85 356.366L1340.94 382.275ZM1345.26 401.011C1345.49 401.376 1345.62 401.793 1345.63 402.222C1345.63 402.544 1345.57 402.862 1345.45 403.16C1345.32 403.457 1345.14 403.727 1344.92 403.955C1344.69 404.182 1344.42 404.363 1344.12 404.486C1343.82 404.609 1343.5 404.673 1343.18 404.673C1342.86 404.673 1342.54 404.61 1342.25 404.487C1341.95 404.364 1341.68 404.183 1341.45 403.956C1341.22 403.728 1341.04 403.458 1340.92 403.161C1340.8 402.864 1340.73 402.545 1340.73 402.223C1340.72 401.788 1340.82 401.357 1341.03 400.976C1341.25 400.595 1341.56 400.28 1341.94 400.065C1342.32 399.849 1342.75 399.741 1343.18 399.753C1343.62 399.765 1344.04 399.896 1344.41 400.132L1372.4 372.147L1607.74 372.07L1607.75 373.295L1372.9 373.372L1345.26 401.011ZM1254.48 422.2C1254.15 422.215 1253.82 422.163 1253.51 422.047C1253.2 421.931 1252.91 421.753 1252.67 421.523C1252.43 421.294 1252.24 421.019 1252.11 420.714C1251.99 420.409 1251.92 420.081 1251.92 419.75C1251.92 419.419 1251.99 419.091 1252.12 418.787C1252.25 418.482 1252.44 418.208 1252.69 417.98C1252.93 417.752 1253.21 417.576 1253.52 417.461C1253.83 417.347 1254.16 417.296 1254.49 417.314C1255.03 417.317 1255.55 417.498 1255.97 417.83C1256.39 418.161 1256.69 418.623 1256.81 419.143L1334.1 419.118L1270.12 355.144L1176.96 355.174C1176.84 355.612 1176.6 356.008 1176.27 356.317C1175.94 356.626 1175.53 356.837 1175.08 356.925C1174.64 357.012 1174.18 356.974 1173.76 356.814C1173.33 356.654 1172.96 356.378 1172.69 356.018C1172.41 355.659 1172.24 355.229 1172.2 354.778C1172.16 354.327 1172.24 353.873 1172.44 353.467C1172.64 353.062 1172.95 352.72 1173.34 352.482C1173.73 352.244 1174.17 352.118 1174.62 352.119C1175.16 352.127 1175.68 352.312 1176.1 352.645C1176.52 352.979 1176.82 353.442 1176.96 353.964L1270.61 353.933L1335.84 419.161L1607.76 419.072L1607.76 420.283L1256.89 420.368C1256.75 420.89 1256.45 421.353 1256.03 421.687C1255.61 422.021 1255.09 422.206 1254.55 422.214L1254.48 422.2ZM827.07 496.251L1110.46 496.101L1130.64 516.273L1157.58 516.278L1118.93 477.634L1004.23 477.672C1004.11 478.193 1003.81 478.658 1003.39 478.99C1002.97 479.322 1002.45 479.503 1001.91 479.503C1001.59 479.504 1001.27 479.442 1000.98 479.321C1000.68 479.199 1000.41 479.02 1000.18 478.793C999.958 478.567 999.779 478.298 999.657 478.002C999.535 477.706 999.473 477.388 999.474 477.068C999.474 476.479 999.689 475.91 1000.08 475.467C1000.47 475.024 1001 474.738 1001.59 474.662C1002.17 474.586 1002.76 474.725 1003.25 475.053C1003.74 475.382 1004.1 475.877 1004.25 476.447L1119.55 476.409L1159.43 516.292L1263.28 516.186L1245.62 498.521C1245.25 498.744 1244.82 498.868 1244.39 498.882C1243.84 498.898 1243.29 498.728 1242.84 498.399C1242.39 498.07 1242.06 497.601 1241.91 497.065C1241.76 496.529 1241.79 495.958 1242 495.441C1242.2 494.924 1242.58 494.491 1243.06 494.21C1243.54 493.93 1244.1 493.817 1244.65 493.89C1245.21 493.964 1245.72 494.219 1246.11 494.615C1246.5 495.012 1246.75 495.528 1246.81 496.081C1246.88 496.634 1246.76 497.193 1246.47 497.67L1265.03 516.229L1317.22 516.197L1342.95 490.461L1607.73 490.461L1607.74 491.686L1343.37 491.772L1317.61 517.537L902.272 517.616C902.111 518.174 901.755 518.657 901.268 518.975C900.781 519.294 900.196 519.427 899.62 519.35C899.044 519.273 898.514 518.992 898.128 518.558C897.742 518.123 897.525 517.564 897.516 516.983C897.523 516.396 897.742 515.832 898.134 515.394C898.525 514.956 899.062 514.675 899.644 514.603C900.226 514.531 900.815 514.672 901.301 515.001C901.787 515.329 902.137 515.823 902.287 516.39L1128.95 516.316L1110 497.369L827.171 497.476C827.085 498.043 826.8 498.561 826.367 498.936C825.933 499.311 825.38 499.52 824.807 499.523C824.357 499.531 823.914 499.414 823.527 499.186C823.139 498.958 822.822 498.628 822.61 498.231C822.399 497.835 822.3 497.388 822.326 496.939C822.352 496.49 822.501 496.057 822.757 495.687C823.013 495.317 823.365 495.025 823.776 494.842C824.187 494.66 824.641 494.594 825.086 494.652C825.532 494.71 825.953 494.891 826.303 495.173C826.653 495.455 826.919 495.828 827.07 496.251ZM938.272 354.013L1122.46 353.938L1151.07 325.333L1607.82 325.184L1607.81 326.409L1151.58 326.543L1122.96 355.163L938.272 355.223C938.154 355.661 937.916 356.057 937.585 356.366C937.254 356.675 936.843 356.886 936.399 356.974C935.954 357.062 935.494 357.023 935.071 356.863C934.647 356.703 934.277 356.427 934.002 356.068C933.727 355.708 933.558 355.278 933.515 354.827C933.472 354.376 933.556 353.922 933.757 353.517C933.959 353.111 934.27 352.769 934.655 352.531C935.041 352.293 935.485 352.167 935.938 352.169C936.476 352.176 936.996 352.361 937.418 352.695C937.84 353.028 938.14 353.491 938.272 354.013ZM1300.96 287.045C1300.33 287.017 1299.74 286.748 1299.31 286.294C1298.87 285.841 1298.63 285.238 1298.63 284.61C1298.63 283.982 1298.87 283.377 1299.3 282.921C1299.73 282.465 1300.32 282.192 1300.95 282.159C1301.49 282.159 1302.01 282.339 1302.43 282.671C1302.85 283.003 1303.14 283.467 1303.27 283.989L1607.88 283.976L1607.89 285.201L1303.25 285.243C1303.12 285.761 1302.82 286.222 1302.4 286.553C1301.98 286.884 1301.47 287.067 1300.93 287.074L1300.96 287.045ZM818.585 219.014L931.83 218.962L960.45 190.342L1065.15 190.308L1093.74 218.895L1209.56 218.857L1245.15 254.446L1315 254.423L1334.13 235.291L1287.6 235.392L1258.45 205.84L1159.1 205.887L1159.09 204.662L1258.95 204.629L1288.12 234.182L1301.08 234.163L1258.42 191.499L1112.73 191.547L1112.73 190.336L1258.92 190.274L1302.77 234.119L1386.52 234.106L1607.88 233.976L1607.9 235.201L1387.1 235.23L1351.49 270.843L1235.6 270.967L1207 299.572L1102.31 299.65L1073.68 271.02L960.41 271.043C960.276 271.547 959.978 271.992 959.563 272.308C959.147 272.624 958.639 272.793 958.117 272.787C957.654 272.798 957.197 272.676 956.8 272.437C956.403 272.198 956.082 271.85 955.875 271.436C955.668 271.021 955.583 270.556 955.63 270.095C955.677 269.633 955.855 269.195 956.141 268.83C956.428 268.466 956.813 268.19 957.25 268.036C957.687 267.881 958.159 267.854 958.611 267.957C959.063 268.061 959.476 268.291 959.802 268.62C960.128 268.949 960.354 269.365 960.453 269.817L1074.19 269.795L1102.79 298.396L1206.57 298.362L1235.19 269.742L1351.01 269.704L1385.4 235.317L1335.93 235.333L1315.53 255.735L1244.66 255.744L1209.04 220.126L1093.22 220.163L1064.61 191.562L960.839 191.596L932.263 220.173L818.541 220.325C818.413 220.845 818.116 221.308 817.695 221.639C817.275 221.971 816.756 222.153 816.22 222.156C815.593 222.128 815.001 221.859 814.567 221.405C814.133 220.952 813.89 220.349 813.888 219.721C813.886 219.093 814.126 218.488 814.558 218.032C814.99 217.576 815.58 217.303 816.208 217.27C816.74 217.264 817.26 217.434 817.685 217.755C818.11 218.076 818.416 218.529 818.556 219.042L818.585 219.014ZM796.474 134.818L981.079 134.873L1009.68 163.474L1258.87 163.263L1302.65 207.037L1607.85 207.009L1607.85 208.22L1302.28 208.319L1258.47 164.503L1009.28 164.57L980.69 135.983L796.488 136.043C796.37 136.481 796.132 136.877 795.801 137.186C795.47 137.495 795.059 137.706 794.615 137.794C794.17 137.882 793.71 137.843 793.287 137.683C792.863 137.523 792.493 137.247 792.218 136.888C791.943 136.528 791.774 136.098 791.731 135.647C791.688 135.196 791.772 134.742 791.973 134.337C792.175 133.931 792.486 133.589 792.871 133.351C793.257 133.113 793.701 132.987 794.154 132.989C794.689 132.992 795.208 133.173 795.628 133.505C796.049 133.836 796.346 134.298 796.474 134.818ZM821.815 83.859L1006.02 83.7988L1034.62 55.1934L1607.91 55.0494L1607.91 56.26L1035.1 56.4473L1006.48 85.067L821.757 85.1274C821.632 85.6475 821.337 86.1115 820.92 86.4457C820.502 86.78 819.985 86.9655 819.45 86.973C818.991 86.9815 818.539 86.8608 818.146 86.6247C817.753 86.3886 817.434 86.0466 817.226 85.6378C817.018 85.229 816.929 84.7698 816.97 84.3128C817.01 83.8557 817.179 83.4192 817.455 83.0531C817.732 82.687 818.106 82.4061 818.535 82.2424C818.964 82.0787 819.43 82.0388 819.88 82.1274C820.33 82.2159 820.746 82.4293 821.081 82.7432C821.415 83.057 821.654 83.4587 821.771 83.9022L821.815 83.859ZM790.874 69.6143L1000.14 69.5604L1028.76 40.9406L1607.89 40.7802L1607.89 41.9909L1029.25 42.1512L1000.62 70.7853L790.859 70.8395C790.734 71.3611 790.437 71.8255 790.016 72.1578C789.595 72.49 789.074 72.6708 788.538 72.6707C788.218 72.6722 787.9 72.6102 787.604 72.4884C787.308 72.3665 787.039 72.1872 786.813 71.9608C786.586 71.7345 786.407 71.4655 786.285 71.1694C786.163 70.8732 786.101 70.5559 786.103 70.2357C786.103 69.6464 786.318 69.0772 786.707 68.6344C787.096 68.1916 787.633 67.9055 788.217 67.8294C788.801 67.7532 789.393 67.8925 789.882 68.2209C790.371 68.5494 790.724 69.0447 790.874 69.6143ZM1227.63 86.8396C1226.99 86.8304 1226.37 86.5694 1225.91 86.1121C1225.46 85.6548 1225.19 85.0371 1225.19 84.3902C1225.19 83.8009 1225.4 83.2318 1225.79 82.789C1226.18 82.3462 1226.71 82.06 1227.3 81.9838C1227.88 81.9078 1228.48 82.047 1228.96 82.3754C1229.45 82.7039 1229.81 83.1992 1229.96 83.7688L1607.89 83.6597L1607.89 84.8705L1229.96 85.0084C1229.82 85.5249 1229.52 85.9834 1229.1 86.314C1228.68 86.6447 1228.17 86.8292 1227.63 86.8396ZM1254.6 301.387C1254.14 301.397 1253.69 301.277 1253.3 301.041C1252.9 300.804 1252.58 300.461 1252.37 300.051C1252.16 299.64 1252.08 299.179 1252.12 298.721C1252.16 298.262 1252.33 297.825 1252.61 297.459C1252.89 297.093 1253.27 296.813 1253.7 296.651C1254.13 296.49 1254.6 296.453 1255.05 296.546C1255.5 296.638 1255.91 296.856 1256.25 297.175C1256.58 297.493 1256.81 297.899 1256.93 298.345L1607.82 298.216L1607.83 299.441L1256.93 299.556C1256.8 300.076 1256.5 300.538 1256.08 300.87C1255.66 301.202 1255.14 301.384 1254.6 301.387ZM1369.47 407.922C1369.13 407.953 1368.79 407.913 1368.47 407.805C1368.15 407.697 1367.85 407.522 1367.6 407.293C1367.35 407.064 1367.15 406.785 1367.01 406.474C1366.87 406.163 1366.8 405.827 1366.8 405.487C1366.8 405.147 1366.88 404.811 1367.01 404.499C1367.15 404.188 1367.35 403.909 1367.6 403.68C1367.85 403.451 1368.15 403.276 1368.47 403.168C1368.79 403.059 1369.14 403.019 1369.47 403.05C1370.01 403.05 1370.53 403.23 1370.95 403.562C1371.37 403.894 1371.67 404.358 1371.79 404.88L1607.73 404.788L1607.74 406.013L1371.79 406.091C1371.67 406.612 1371.37 407.077 1370.95 407.409C1370.53 407.741 1370.01 407.922 1369.47 407.922Z" fill="white" fill-opacity="0.07"/>
<path d="M236.166 381.743L-348.322 381.934L-348.308 383.159L236.67 382.968L265.29 354.348L325.278 354.328C325.403 354.85 325.699 355.314 326.12 355.646C326.541 355.978 327.062 356.158 327.598 356.158C328.206 356.102 328.771 355.821 329.182 355.37C329.594 354.92 329.822 354.332 329.822 353.721C329.822 353.111 329.594 352.523 329.183 352.073C328.772 351.622 328.207 351.342 327.6 351.286C327.063 351.286 326.543 351.467 326.122 351.799C325.7 352.131 325.403 352.596 325.279 353.117L264.743 353.137L236.166 381.743ZM272.014 286.617L398.03 286.591L411.848 300.409L431.017 300.345C431.135 299.907 431.373 299.511 431.704 299.202C432.035 298.893 432.446 298.682 432.891 298.594C433.335 298.506 433.795 298.545 434.219 298.705C434.642 298.865 435.012 299.141 435.287 299.5C435.562 299.86 435.731 300.29 435.774 300.741C435.817 301.192 435.733 301.646 435.532 302.051C435.33 302.457 435.019 302.799 434.634 303.037C434.249 303.275 433.804 303.401 433.351 303.399C432.816 303.396 432.297 303.215 431.877 302.883C431.457 302.552 431.159 302.09 431.031 301.57L411.415 301.562L397.597 287.744L271.481 287.872L242.88 259.271L-348.268 259.435L-348.267 258.224L243.413 258.016L272.014 286.617ZM0.557716 231.431L256.697 231.362L285.298 259.963L329.503 259.934C329.808 259.444 330.28 259.082 330.832 258.913C331.384 258.745 331.978 258.782 332.504 259.018C333.03 259.254 333.453 259.672 333.694 260.196C333.935 260.72 333.978 261.313 333.815 261.867C333.652 262.42 333.294 262.896 332.808 263.205C332.321 263.515 331.739 263.639 331.169 263.552C330.599 263.466 330.079 263.176 329.707 262.736C329.334 262.296 329.134 261.736 329.143 261.159L284.793 261.159L256.206 232.573L-0.00480257 232.656L-43.6196 189.042L-348.317 189.055L-348.302 187.83L-43.0282 187.787L0.557716 231.431ZM291.314 416.994L272.427 435.882L501.757 435.879L501.756 437.089L83.2949 437.241L83.236 397.244L-348.313 397.457L-348.312 396.246L83.9138 396.105L84.5191 396.105L241.999 396.053L270.619 367.433L376.009 367.399C376.134 366.877 376.431 366.413 376.852 366.081C377.273 365.748 377.794 365.568 378.33 365.568C378.65 365.566 378.967 365.628 379.264 365.75C379.56 365.872 379.829 366.051 380.055 366.278C380.281 366.504 380.461 366.773 380.583 367.069C380.704 367.365 380.766 367.682 380.765 368.003C380.765 368.325 380.702 368.644 380.579 368.941C380.456 369.239 380.276 369.509 380.048 369.737C379.82 369.964 379.55 370.145 379.252 370.268C378.955 370.391 378.636 370.454 378.314 370.454C377.779 370.447 377.262 370.261 376.844 369.927C376.427 369.593 376.133 369.13 376.008 368.61L271.108 368.644L242.662 397.091L242.229 396.658L242.229 397.264L84.5187 397.315L84.5204 436.015L241.971 435.964L281.895 396.04L397.201 396.002C397.326 395.482 397.621 395.018 398.038 394.684C398.456 394.35 398.973 394.164 399.508 394.157C399.83 394.156 400.149 394.219 400.446 394.342C400.744 394.465 401.014 394.645 401.242 394.873C401.469 395.1 401.65 395.37 401.772 395.668C401.895 395.965 401.958 396.284 401.958 396.606C401.959 396.926 401.897 397.244 401.775 397.54C401.653 397.836 401.473 398.105 401.247 398.332C401.02 398.558 400.751 398.738 400.455 398.86C400.159 398.982 399.841 399.044 399.521 399.043C398.985 399.043 398.464 398.863 398.043 398.531C397.622 398.199 397.325 397.735 397.201 397.213L282.5 397.251L243.73 436.021L270.683 436.012L290.868 415.827L576.525 415.69L576.467 416.958L291.314 416.994ZM130.783 273.62L224.44 273.589C224.583 273.005 224.933 272.494 225.426 272.15C225.919 271.806 226.52 271.654 227.117 271.722C227.714 271.79 228.265 272.074 228.667 272.519C229.07 272.965 229.296 273.542 229.302 274.143C229.309 274.743 229.097 275.326 228.705 275.781C228.313 276.237 227.768 276.533 227.173 276.616C226.578 276.698 225.973 276.561 225.473 276.229C224.972 275.897 224.61 275.394 224.454 274.814L131.272 274.83L67.213 338.889L144.497 338.864C144.615 338.427 144.853 338.031 145.184 337.722C145.515 337.412 145.926 337.202 146.37 337.114C146.815 337.026 147.275 337.064 147.698 337.224C148.122 337.385 148.492 337.66 148.767 338.02C149.042 338.38 149.211 338.809 149.254 339.26C149.297 339.711 149.213 340.165 149.012 340.571C148.81 340.977 148.499 341.318 148.114 341.556C147.728 341.795 147.284 341.92 146.831 341.919C146.295 341.919 145.774 341.739 145.353 341.407C144.932 341.075 144.636 340.611 144.511 340.089L-348.424 340.25L-348.409 339.025L65.5122 338.89L130.783 273.62ZM65.9222 275.082C66.0729 274.512 66.4258 274.017 66.915 273.688C67.4042 273.359 67.9962 273.22 68.5805 273.295C69.1648 273.371 69.7014 273.657 70.0901 274.099C70.4788 274.542 70.6931 275.111 70.6929 275.7C70.6847 276.344 70.4253 276.959 69.9701 277.414C69.5148 277.869 68.8998 278.129 68.2562 278.137C67.7165 278.136 67.1927 277.954 66.7694 277.619C66.346 277.285 66.0474 276.818 65.9218 276.293L36.389 276.317L61.0277 300.956L77.1129 300.95L101.205 276.858C100.97 276.497 100.84 276.078 100.831 275.647C100.831 275.325 100.894 275.006 101.017 274.709C101.14 274.411 101.32 274.141 101.548 273.913C101.776 273.685 102.046 273.505 102.344 273.382C102.641 273.259 102.96 273.196 103.282 273.196C103.602 273.195 103.92 273.257 104.216 273.379C104.512 273.5 104.781 273.68 105.007 273.906C105.234 274.132 105.413 274.401 105.535 274.698C105.657 274.994 105.719 275.311 105.717 275.631C105.718 275.953 105.655 276.272 105.532 276.57C105.408 276.867 105.228 277.138 105 277.365C104.773 277.593 104.502 277.774 104.205 277.897C103.907 278.02 103.588 278.083 103.266 278.082C102.842 278.074 102.428 277.949 102.07 277.722L77.6746 302.118L60.5661 302.138L34.6306 276.202L-348.273 276.327L-348.287 275.102L65.9222 275.082ZM56.8705 319.867C57.2374 319.649 57.6546 319.53 58.0813 319.521C58.5659 319.519 59.0402 319.661 59.4439 319.928C59.8476 320.196 60.1626 320.578 60.3488 321.025C60.5351 321.473 60.5842 321.965 60.49 322.441C60.3958 322.916 60.1625 323.353 59.8197 323.696C59.4769 324.039 59.0401 324.272 58.5646 324.366C58.0891 324.46 57.5965 324.411 57.1492 324.225C56.7019 324.039 56.32 323.724 56.0522 323.32C55.7843 322.916 55.6424 322.442 55.6446 321.958C55.658 321.525 55.7822 321.103 56.0054 320.732L28.3985 293.125L-348.279 293.306L-348.278 292.095L28.9466 291.972L56.8705 319.867ZM123.457 -25.1802L183.446 -25.0845C183.57 -25.6758 183.913 -26.1987 184.405 -26.5492C184.898 -26.8996 185.504 -27.0519 186.103 -26.9758C186.703 -26.8997 187.251 -26.6008 187.64 -26.1385C188.029 -25.6762 188.229 -25.0844 188.202 -24.4807C188.202 -24.1588 188.139 -23.8399 188.016 -23.5423C187.893 -23.2447 187.712 -22.9743 187.485 -22.7466C187.257 -22.5189 186.987 -22.3383 186.689 -22.2153C186.391 -22.0923 186.073 -22.0292 185.751 -22.0296C185.216 -22.0368 184.699 -22.222 184.281 -22.556C183.864 -22.89 183.57 -23.3537 183.445 -23.8738L122.909 -23.854L94.3082 -52.4551L-348.166 -52.3538L-348.166 -53.5645L94.9139 -53.7236L123.457 -25.1802ZM117.601 -10.8515L326.882 -10.9199C327.007 -11.44 327.301 -11.9039 327.719 -12.2382C328.137 -12.5725 328.654 -12.758 329.189 -12.7655C329.511 -12.7662 329.83 -12.7033 330.127 -12.5804C330.425 -12.4576 330.695 -12.2772 330.922 -12.0497C331.15 -11.8221 331.33 -11.5518 331.453 -11.2543C331.576 -10.9568 331.639 -10.638 331.638 -10.3161C331.639 -9.9958 331.577 -9.67843 331.455 -9.38224C331.333 -9.08608 331.154 -8.81695 330.927 -8.59042C330.701 -8.36389 330.432 -8.18442 330.135 -8.06238C329.839 -7.94035 329.522 -7.87817 329.202 -7.87941C328.665 -7.87902 328.145 -8.05935 327.724 -8.39137C327.303 -8.72335 327.006 -9.1876 326.882 -9.70914L117.096 -9.62621L88.495 -38.2273L-348.243 -38.099L-348.242 -39.3097L89.0719 -39.4093L117.601 -10.8515ZM83.1433 -25.1238L111.802 3.53488L296.004 3.47472C296.129 2.95453 296.423 2.49061 296.841 2.15635C297.259 1.8221 297.776 1.63656 298.311 1.62906C298.77 1.62057 299.221 1.74128 299.615 1.9774C300.008 2.21351 300.327 2.55548 300.535 2.96429C300.743 3.37309 300.831 3.83227 300.791 4.28931C300.75 4.74635 300.582 5.18284 300.305 5.54894C300.028 5.91505 299.654 6.196 299.226 6.35969C298.797 6.52339 298.331 6.56323 297.881 6.47467C297.431 6.38612 297.015 6.17271 296.68 5.85887C296.346 5.54504 296.106 5.14342 295.989 4.69985L111.283 4.74577L82.6961 -23.8409L-348.19 -23.7433L-348.175 -24.9685L83.1433 -25.1238ZM129.59 41.364L255.678 41.3805L269.548 27.5103L289.15 27.5039C289.268 27.0665 289.506 26.6707 289.837 26.3613C290.168 26.052 290.579 25.8415 291.023 25.7536C291.468 25.6657 291.928 25.7041 292.351 25.8642C292.775 26.0243 293.145 26.2999 293.42 26.6597C293.695 27.0196 293.863 27.4492 293.907 27.9001C293.95 28.3509 293.866 28.805 293.664 29.2108C293.463 29.6166 293.152 29.9579 292.767 30.1962C292.381 30.4344 291.937 30.56 291.484 30.5588C290.95 30.5487 290.435 30.3645 290.016 30.0341C289.597 29.7038 289.298 29.2455 289.164 28.729L270.037 28.7209L256.211 42.5478L130.195 42.6034L101.575 71.2231L-348.12 71.3701L-348.119 70.1593L101.071 69.9981L129.59 41.364ZM143.476 67.4764L186.356 67.448C186.506 66.8782 186.859 66.3827 187.348 66.0539C187.838 65.7251 188.43 65.5855 189.014 65.6612C189.598 65.7369 190.135 66.0228 190.523 66.4654C190.912 66.9079 191.126 67.4769 191.126 68.0662C191.117 68.7131 190.855 69.3309 190.398 69.7886C189.94 70.2462 189.322 70.5076 188.675 70.5172C188.14 70.5101 187.623 70.3248 187.206 69.9908C186.788 69.6569 186.494 69.1932 186.37 68.673L143.966 68.6869L115.432 97.2201L-348.229 97.4726L-348.214 96.2474L114.957 96.1105L143.476 67.4764ZM100.395 -67.4181L100.828 -67.8506L129.299 -39.3793L234.243 -39.4568C234.366 -39.9593 234.649 -40.4083 235.049 -40.736C235.45 -41.0637 235.946 -41.2524 236.463 -41.2736C236.783 -41.275 237.101 -41.213 237.397 -41.0912C237.693 -40.9693 237.962 -40.7901 238.188 -40.5637C238.414 -40.3373 238.594 -40.0683 238.716 -39.7722C238.837 -39.4761 238.899 -39.1588 238.898 -38.8385C238.898 -38.5166 238.835 -38.1977 238.712 -37.9001C238.589 -37.6026 238.409 -37.3322 238.181 -37.1045C237.953 -36.8767 237.683 -36.6962 237.385 -36.5731C237.088 -36.4501 236.769 -36.387 236.447 -36.3875C235.912 -36.3946 235.395 -36.5799 234.978 -36.9138C234.56 -37.2478 234.266 -37.7115 234.141 -38.2316L128.737 -38.1827L100.136 -66.7838L-348.161 -66.6517L-348.175 -67.8769L100.482 -68.0235L100.395 -67.4181ZM-81.344 27.3223L-64.221 27.3167L-39.7264 51.8113C-39.3384 51.5358 -38.8758 51.3849 -38.4002 51.3784C-37.9156 51.3763 -37.4413 51.5181 -37.0376 51.786C-36.6339 52.0539 -36.3189 52.4357 -36.1327 52.883C-35.9464 53.3303 -35.8973 53.8229 -35.9915 54.2984C-36.0857 54.7738 -36.319 55.2107 -36.6618 55.5535C-37.0046 55.8963 -37.4415 56.1296 -37.9169 56.2238C-38.3924 56.318 -38.885 56.2689 -39.3323 56.0826C-39.7796 55.8964 -40.1614 55.5815 -40.4293 55.1777C-40.6972 54.774 -40.839 54.2997 -40.8369 53.8151C-40.8333 53.4317 -40.7341 53.0551 -40.5483 52.7196L-64.697 28.5708L-80.7967 28.5617L-105.451 53.2165L-76.0483 53.2069C-75.9306 52.7694 -75.6927 52.3736 -75.3616 52.0643C-75.0305 51.7549 -74.6195 51.5444 -74.1751 51.4565C-73.7307 51.3687 -73.2706 51.407 -72.847 51.5671C-72.4234 51.7273 -72.0532 52.0029 -71.7783 52.3627C-71.5034 52.7225 -71.3348 53.1522 -71.2916 53.603C-71.2484 54.0539 -71.3322 54.5079 -71.5338 54.9137C-71.7353 55.3195 -72.0463 55.6608 -72.4317 55.8991C-72.8171 56.1373 -73.2615 56.2629 -73.7144 56.2617C-74.2507 56.2621 -74.7713 56.0817 -75.1922 55.7497C-75.6132 55.4177 -75.9099 54.9535 -76.0344 54.4319L-106.677 54.442L-348.258 54.5353L-348.258 53.3246L-107.253 53.2315L-81.344 27.3223ZM-85.6619 8.58638C-85.8891 8.222 -86.0181 7.80497 -86.0362 7.37582C-86.0361 7.05403 -85.9727 6.7354 -85.8494 6.43805C-85.7262 6.14075 -85.5456 5.87059 -85.318 5.64298C-85.0904 5.41538 -84.8202 5.23477 -84.5229 5.11153C-84.2256 4.98831 -83.9069 4.92483 -83.5851 4.92473C-83.2634 4.92462 -82.9448 4.98793 -82.6475 5.11096C-82.3503 5.23399 -82.0802 5.41437 -81.8528 5.64185C-81.6253 5.86929 -81.4449 6.13938 -81.3219 6.43662C-81.1988 6.73386 -81.1356 7.05243 -81.1357 7.3742C-81.1202 7.80968 -81.2244 8.24116 -81.4369 8.62177C-81.6493 9.00239 -81.962 9.31757 -82.3409 9.53312C-82.7198 9.74864 -83.1504 9.85631 -83.586 9.84435C-84.0216 9.83238 -84.4456 9.7013 -84.8118 9.46534L-112.797 37.4507L-348.138 37.5276L-348.152 36.3025L-113.301 36.2257L-85.6619 8.58638ZM5.12006 -12.602C5.45105 -12.6174 5.78168 -12.5654 6.09185 -12.4492C6.40207 -12.3329 6.68537 -12.1549 6.92455 -11.9258C7.16379 -11.6967 7.35391 -11.4214 7.48351 -11.1165C7.61306 -10.8116 7.67928 -10.4835 7.67821 -10.1522C7.67713 -9.82085 7.60873 -9.49319 7.4772 -9.18898C7.34567 -8.88477 7.15369 -8.61046 6.91298 -8.38262C6.67222 -8.15482 6.38775 -7.97825 6.07683 -7.86361C5.76587 -7.74902 5.43488 -7.69878 5.10401 -7.71591C4.56868 -7.71906 4.04984 -7.90073 3.62962 -8.23215C3.20941 -8.56358 2.91188 -9.02579 2.78412 -9.5456L-74.5001 -9.52038L-10.5259 54.4538L82.6417 54.4233C82.7595 53.9859 82.9974 53.5901 83.3285 53.2807C83.6595 52.9714 84.0705 52.7609 84.5149 52.6731C84.9593 52.5852 85.4195 52.6235 85.843 52.7836C86.2666 52.9438 86.6368 53.2194 86.9117 53.5792C87.1866 53.939 87.3552 54.3686 87.3984 54.8195C87.4417 55.2704 87.3578 55.7244 87.1563 56.1302C86.9548 56.536 86.6438 56.8774 86.2584 57.1156C85.873 57.3538 85.4287 57.4795 84.9757 57.4782C84.4378 57.4705 83.9175 57.2856 83.4955 56.9522C83.0735 56.6188 82.7733 56.1555 82.6413 55.6341L-11.0163 55.6647L-76.2441 -9.56305L-348.165 -9.4742L-348.165 -10.6849L2.71244 -10.7707C2.84474 -11.2922 3.14532 -11.7557 3.56753 -12.0894C3.98974 -12.423 4.51009 -12.6082 5.04799 -12.6164L5.12006 -12.602ZM432.527 -86.6531L149.133 -86.5028L128.961 -106.675L102.023 -106.68L140.666 -68.0366L255.368 -68.0741C255.492 -68.5957 255.789 -69.0602 256.21 -69.3924C256.632 -69.7247 257.152 -69.9054 257.689 -69.9053C258.009 -69.9068 258.326 -69.8448 258.622 -69.7229C258.918 -69.6011 259.187 -69.4218 259.414 -69.1955C259.64 -68.9691 259.819 -68.7001 259.941 -68.404C260.063 -68.1079 260.125 -67.7905 260.124 -67.4703C260.124 -66.8811 259.909 -66.3119 259.52 -65.8691C259.131 -65.4262 258.594 -65.1401 258.01 -65.064C257.425 -64.9879 256.834 -65.127 256.345 -65.4555C255.856 -65.784 255.503 -66.2793 255.353 -66.849L140.046 -66.8113L100.163 -106.694L-3.68459 -106.588L13.9804 -88.9233C14.3512 -89.1464 14.7731 -89.2706 15.2056 -89.284C15.7624 -89.3 16.3085 -89.1301 16.7578 -88.8012C17.2071 -88.4722 17.534 -88.0028 17.6868 -87.4673C17.8396 -86.9317 17.8096 -86.3604 17.6017 -85.8435C17.3938 -85.3266 17.0196 -84.8936 16.5384 -84.6127C16.0571 -84.3319 15.4962 -84.2192 14.9441 -84.2926C14.3919 -84.3659 13.88 -84.6211 13.4892 -85.0178C13.0984 -85.4145 12.851 -85.9301 12.7859 -86.4833C12.7207 -87.0365 12.8417 -87.5956 13.1297 -88.0726L-5.42858 -106.631L-57.6192 -106.599L-83.3553 -80.8633L-348.128 -80.8633L-348.142 -82.0884L-83.7729 -82.1748L-58.0079 -107.94L357.326 -108.018C357.487 -108.577 357.843 -109.059 358.33 -109.378C358.817 -109.696 359.402 -109.829 359.978 -109.752C360.554 -109.676 361.084 -109.394 361.47 -108.96C361.856 -108.525 362.073 -107.967 362.082 -107.385C362.075 -106.798 361.856 -106.234 361.464 -105.796C361.073 -105.359 360.536 -105.078 359.954 -105.005C359.372 -104.933 358.783 -105.074 358.297 -105.403C357.811 -105.732 357.461 -106.225 357.311 -106.793L130.647 -106.719L149.595 -87.7713L432.427 -87.8782C432.513 -88.4451 432.798 -88.9628 433.231 -89.3382C433.665 -89.7136 434.218 -89.9219 434.791 -89.9256C435.241 -89.933 435.684 -89.8163 436.071 -89.5884C436.459 -89.3605 436.776 -89.0302 436.988 -88.6337C437.199 -88.2373 437.298 -87.7901 437.272 -87.3412C437.246 -86.8923 437.097 -86.4591 436.841 -86.0892C436.585 -85.7193 436.233 -85.4271 435.822 -85.2446C435.411 -85.062 434.957 -84.9963 434.511 -85.0545C434.066 -85.1128 433.645 -85.2928 433.295 -85.5748C432.945 -85.8568 432.679 -86.2299 432.527 -86.6531ZM321.326 55.5849L137.138 55.6596L108.533 84.2649L-348.225 84.4141L-348.21 83.189L108.014 83.0543L136.634 54.4346L321.326 54.3742C321.444 53.9368 321.682 53.541 322.013 53.2316C322.344 52.9223 322.755 52.7117 323.199 52.6239C323.644 52.536 324.104 52.5743 324.527 52.7345C324.951 52.8946 325.321 53.1702 325.596 53.53C325.871 53.8899 326.04 54.3195 326.083 54.7704C326.126 55.2212 326.042 55.6753 325.841 56.0811C325.639 56.4869 325.328 56.8282 324.943 57.0665C324.557 57.3047 324.113 57.4303 323.66 57.4291C323.122 57.4213 322.602 57.2364 322.18 56.903C321.758 56.5697 321.458 56.1064 321.326 55.5849ZM-41.3638 122.552C-40.7365 122.581 -40.1446 122.85 -39.7104 123.303C-39.2762 123.757 -39.0332 124.36 -39.0315 124.988C-39.0299 125.616 -39.2697 126.22 -39.7015 126.677C-40.1333 127.133 -40.7238 127.406 -41.3509 127.438C-41.8872 127.439 -42.4079 127.259 -42.8288 126.927C-43.2497 126.595 -43.5464 126.13 -43.6709 125.609L-348.282 125.622L-348.296 124.397L-43.6561 124.355C-43.5248 123.837 -43.2261 123.376 -42.8064 123.045C-42.3866 122.714 -41.8694 122.531 -41.3349 122.523L-41.3638 122.552ZM441.013 190.584L327.768 190.635L299.148 219.255L194.449 219.289L165.863 190.703L50.0375 190.741L14.4483 155.151L-55.3986 155.174L-74.5312 174.307L-28.0051 174.205L1.14333 203.757L100.494 203.711L100.508 204.936L0.652875 204.968L-28.5244 175.416L-41.482 175.435L1.18181 218.099L146.872 218.051L146.871 219.262L0.676952 219.324L-43.1684 175.479L-126.924 175.492L-348.284 175.622L-348.298 174.396L-127.5 174.368L-91.8877 138.755L23.9953 138.631L52.6006 110.025L157.284 109.948L185.914 138.578L299.188 138.555C299.322 138.051 299.62 137.605 300.035 137.289C300.451 136.973 300.959 136.805 301.481 136.81C301.944 136.8 302.401 136.921 302.798 137.161C303.195 137.4 303.516 137.747 303.723 138.162C303.93 138.577 304.015 139.042 303.968 139.503C303.921 139.964 303.743 140.403 303.457 140.767C303.17 141.132 302.785 141.407 302.348 141.562C301.911 141.716 301.439 141.744 300.987 141.64C300.535 141.537 300.122 141.307 299.796 140.978C299.47 140.648 299.244 140.233 299.145 139.78L185.409 139.803L156.808 111.202L53.0326 111.236L24.4129 139.856L-91.4125 139.893L-125.799 174.28L-76.333 174.264L-55.9315 153.863L14.9388 153.854L50.5568 189.472L166.382 189.434L194.983 218.035L298.759 218.001L327.335 189.425L441.056 189.272C441.185 188.753 441.482 188.29 441.903 187.958C442.323 187.627 442.842 187.445 443.378 187.441C444.005 187.47 444.597 187.739 445.031 188.192C445.465 188.646 445.708 189.249 445.71 189.877C445.712 190.505 445.472 191.109 445.04 191.565C444.608 192.022 444.018 192.294 443.39 192.327C442.858 192.334 442.338 192.163 441.913 191.843C441.488 191.522 441.182 191.069 441.042 190.555L441.013 190.584ZM463.124 274.779L278.519 274.724L249.918 246.123L0.725874 246.334L-43.0475 202.561L-348.249 202.589L-348.249 201.378L-42.6868 201.278L1.12978 245.095L250.321 245.028L278.908 273.614L463.11 273.554C463.228 273.117 463.466 272.721 463.797 272.412C464.128 272.102 464.539 271.892 464.983 271.804C465.428 271.716 465.888 271.754 466.311 271.915C466.735 272.075 467.105 272.35 467.38 272.71C467.655 273.07 467.824 273.5 467.867 273.95C467.91 274.401 467.826 274.855 467.625 275.261C467.423 275.667 467.112 276.008 466.727 276.247C466.341 276.485 465.897 276.61 465.444 276.609C464.909 276.606 464.39 276.424 463.97 276.093C463.549 275.761 463.252 275.299 463.124 274.779ZM437.783 325.739L253.581 325.799L224.976 354.404L-348.313 354.548L-348.313 353.338L224.501 353.15L253.12 324.531L437.841 324.47C437.966 323.95 438.261 323.486 438.678 323.152C439.096 322.818 439.613 322.632 440.148 322.625C440.607 322.616 441.059 322.737 441.452 322.973C441.845 323.209 442.164 323.551 442.372 323.96C442.58 324.369 442.669 324.828 442.628 325.285C442.588 325.742 442.419 326.178 442.143 326.545C441.866 326.911 441.492 327.192 441.063 327.355C440.634 327.519 440.168 327.559 439.718 327.47C439.268 327.382 438.852 327.168 438.517 326.854C438.183 326.541 437.944 326.139 437.827 325.695L437.783 325.739ZM468.724 339.983L259.457 340.037L230.838 368.657L-348.289 368.817L-348.289 367.607L230.348 367.447L258.982 338.812L468.739 338.758C468.864 338.237 469.161 337.772 469.582 337.44C470.003 337.108 470.524 336.927 471.06 336.927C471.38 336.925 471.698 336.987 471.994 337.109C472.29 337.231 472.559 337.41 472.785 337.637C473.012 337.863 473.191 338.132 473.313 338.428C473.435 338.724 473.496 339.042 473.495 339.362C473.495 339.951 473.28 340.52 472.891 340.963C472.502 341.406 471.965 341.692 471.381 341.768C470.797 341.844 470.205 341.705 469.716 341.377C469.227 341.048 468.874 340.553 468.724 339.983ZM31.9633 322.758C32.6102 322.767 33.2279 323.028 33.6853 323.486C34.1426 323.943 34.4035 324.561 34.4128 325.207C34.4126 325.797 34.1981 326.366 33.809 326.809C33.42 327.252 32.8832 327.538 32.2989 327.614C31.7145 327.69 31.1226 327.551 30.6336 327.222C30.1447 326.894 29.7921 326.398 29.6418 325.829L-348.289 325.938L-348.289 324.727L29.6422 324.589C29.7765 324.073 30.0761 323.614 30.4952 323.284C30.9142 322.953 31.4298 322.768 31.9633 322.758ZM4.99409 108.21C5.45435 108.2 5.90805 108.321 6.3029 108.557C6.69773 108.794 7.01777 109.137 7.22618 109.547C7.43461 109.958 7.52286 110.418 7.48095 110.877C7.43906 111.335 7.26864 111.773 6.98924 112.139C6.70983 112.505 6.33279 112.785 5.90157 112.946C5.47033 113.108 5.0024 113.144 4.55149 113.052C4.1006 112.959 3.68504 112.741 3.35264 112.423C3.02027 112.105 2.78452 111.699 2.67253 111.252L-348.219 111.381L-348.233 110.156L2.67293 110.042C2.80103 109.522 3.09887 109.059 3.51929 108.728C3.93973 108.396 4.45874 108.214 4.99409 108.21ZM-109.874 1.67595C-109.535 1.64486 -109.194 1.68471 -108.872 1.79295C-108.55 1.90115 -108.253 2.0754 -108.002 2.30452C-107.751 2.53362 -107.551 2.8126 -107.414 3.12363C-107.277 3.43463 -107.206 3.77088 -107.206 4.11089C-107.206 4.45089 -107.277 4.78719 -107.414 5.09832C-107.552 5.40943 -107.752 5.68856 -108.004 5.91785C-108.255 6.14714 -108.551 6.32156 -108.873 6.43002C-109.196 6.53843 -109.537 6.57849 -109.876 6.54761C-110.412 6.54804 -110.932 6.36765 -111.353 6.03568C-111.774 5.70369 -112.071 5.23942 -112.195 4.71787L-348.127 4.80941L-348.141 3.58432L-112.195 3.50714C-112.07 2.98555 -111.773 2.52109 -111.352 2.18884C-110.931 1.85658 -110.41 1.67589 -109.874 1.67595Z" fill="white" fill-opacity="0.07"/>
</g>
<defs>
<linearGradient id="paint0_linear_115_2" x1="18.4375" y1="22.0916" x2="1105.03" y2="864.367" gradientUnits="userSpaceOnUse">
<stop offset="0.215895" stop-color="#0F4881"/>
<stop offset="1" stop-color="#0E2C4E"/>
</linearGradient>
</defs>
</svg>
