<svg width="46" height="46" viewBox="0 0 46 46" fill="none" xmlns="http://www.w3.org/2000/svg">
<circle cx="23" cy="23" r="23" fill="#FF8515"/>
<g clip-path="url(#clip0_104_2)">
<path d="M15.8089 12.8722V17.5128H31.1125V12.8829C32.0624 12.8291 33.0147 12.8435 33.9626 12.9259C34.3294 12.9797 34.6595 13.4959 34.9424 13.8508C35.0472 13.9906 34.9738 14.281 34.9738 14.5069V35.3496C34.9738 36.7369 34.7014 37.0004 33.3339 37.0004H13.6765C12.241 37.0004 12 36.7585 12 35.2904V14.5445C12 13.1572 12.2672 12.8829 13.6189 12.8722H15.8089ZM15.4893 27.7782L22.4155 33.6019L31.846 21.7179L30.138 20.2929L22.1745 30.2895L18.4809 27.1545C16.7624 25.6703 16.7624 25.6703 15.4893 27.7782Z" fill="white"/>
<path d="M27.4713 11.4147L29.1741 11.5384V15.7273H17.7998V11.533L19.5706 11.4201C19.5706 11.0974 19.5706 10.85 19.5706 10.6081C19.5633 10.3994 19.598 10.1914 19.6726 9.99708C19.7472 9.80279 19.8601 9.62641 20.0042 9.479C20.1483 9.33158 20.3205 9.21631 20.5101 9.1404C20.6996 9.0645 20.9024 9.02959 21.1057 9.03787C22.6775 8.99485 24.2492 8.9841 25.821 9.03787C26.9631 9.07014 27.2984 9.59712 27.4713 11.4147ZM23.5262 10.6726C23.0691 10.6726 22.6306 10.859 22.3074 11.1908C21.9841 11.5226 21.8025 11.9725 21.8025 12.4418C21.8025 12.911 21.9841 13.361 22.3074 13.6927C22.6306 14.0245 23.0691 14.2109 23.5262 14.2109C23.9576 14.2254 24.3769 14.0637 24.6922 13.7613C25.0075 13.4588 25.193 13.0404 25.208 12.5977C25.2273 12.3565 25.1985 12.1138 25.1233 11.8844C25.0482 11.655 24.9282 11.4438 24.7708 11.2636C24.6134 11.0834 24.4219 10.9381 24.2079 10.8365C23.9939 10.7349 23.7619 10.6791 23.5262 10.6726Z" fill="white"/>
</g>
<defs>
<clipPath id="clip0_104_2">
<rect width="23" height="28" fill="white" transform="translate(12 9)"/>
</clipPath>
</defs>
</svg>
