<svg width="46" height="46" viewBox="0 0 46 46" fill="none" xmlns="http://www.w3.org/2000/svg">
<circle cx="23" cy="23" r="23" fill="#FF8515"/>
<g clip-path="url(#clip0_104_4)">
<path d="M16.6826 23.4443V13.2899C16.6779 12.9922 16.7322 12.6965 16.8425 12.4198C16.9527 12.1432 17.1167 11.8912 17.3249 11.6783C17.5331 11.4654 17.7815 11.2958 18.0556 11.1794C18.3297 11.063 18.6242 11.0021 18.9221 11.0001C21.1565 11.0001 23.3756 11.0001 25.605 11.0001C26.5444 11.0001 27.489 11.0001 28.4335 11.0001C28.6361 10.9922 28.8381 11.028 29.0256 11.1051C29.2131 11.1822 29.3818 11.2988 29.5203 11.4469C31.5312 13.4778 33.5439 15.4883 35.5583 17.4786C35.7028 17.6163 35.8167 17.7828 35.8928 17.9674C35.9689 18.1519 36.0055 18.3503 36.0001 18.5499C36.0001 23.5966 36.0001 28.6433 36.0001 33.69C36.0041 33.9934 35.9475 34.2945 35.8334 34.5757C35.7193 34.8569 35.5501 35.1124 35.3357 35.3272C35.1213 35.542 34.8661 35.7117 34.5852 35.8264C34.3042 35.9411 34.0031 35.9984 33.6996 35.995C28.8195 35.995 23.9444 35.995 19.0642 35.995C18.7491 36.002 18.4359 35.945 18.1435 35.8275C17.851 35.7099 17.5855 35.5343 17.3628 35.3113C17.1402 35.0882 16.9651 34.8223 16.8482 34.5297C16.7313 34.2371 16.6749 33.9238 16.6826 33.6088C16.6927 30.2223 16.6826 26.8358 16.6826 23.4443ZM26.3312 23.5052H22.3549C22.2003 23.4989 22.0461 23.5244 21.9017 23.58C21.7573 23.6356 21.6259 23.7202 21.5155 23.8286C21.4051 23.937 21.3181 24.0669 21.2598 24.2102C21.2016 24.3535 21.1733 24.5072 21.1768 24.6619C21.1802 24.8165 21.2154 24.9689 21.28 25.1094C21.3447 25.25 21.4374 25.3758 21.5526 25.4791C21.6677 25.5824 21.8028 25.6611 21.9496 25.7101C22.0963 25.7592 22.2515 25.7777 22.4057 25.7645H28.2203C28.9261 25.7645 29.6371 25.7645 30.3429 25.7645C30.6299 25.7399 30.8966 25.6069 31.089 25.3927C31.2813 25.1784 31.3848 24.8989 31.3783 24.611C31.3718 24.3232 31.2559 24.0486 31.0542 23.8432C30.8524 23.6377 30.5799 23.5169 30.2922 23.5052H26.3312ZM25.219 30.2934H26.7425C27.1894 30.2934 27.6363 30.2934 28.0831 30.2934C28.3835 30.2893 28.6699 30.1662 28.8794 29.951C29.089 29.7358 29.2044 29.4462 29.2003 29.1459C29.1963 28.8456 29.0731 28.5593 28.8579 28.3498C28.6427 28.1403 28.353 28.0249 28.0527 28.0289H22.4159C22.2604 28.0185 22.1045 28.0402 21.9578 28.0925C21.8111 28.1448 21.6766 28.2267 21.5629 28.3331C21.4491 28.4395 21.3584 28.5681 21.2964 28.711C21.2344 28.8539 21.2024 29.0079 21.2024 29.1637C21.2024 29.3194 21.2344 29.4735 21.2964 29.6164C21.3584 29.7593 21.4491 29.8879 21.5629 29.9943C21.6766 30.1007 21.8111 30.1826 21.9578 30.2349C22.1045 30.2872 22.2604 30.3088 22.4159 30.2984L25.219 30.2934ZM33.7555 18.9611L28.0425 13.2493V17.7223C28.0295 17.8883 28.0527 18.0551 28.1104 18.2113C28.168 18.3675 28.2589 18.5093 28.3766 18.627C28.4944 18.7448 28.6363 18.8356 28.7925 18.8933C28.9487 18.9509 29.1156 18.9741 29.2816 18.9611H33.7555Z" fill="white"/>
<path d="M15.0116 35.9645C14.3148 36.0026 13.6163 36.0026 12.9194 35.9645C12.3859 35.8984 11.8953 35.6383 11.5413 35.2338C11.1873 34.8293 10.9945 34.3086 10.9999 33.7711C10.9999 31.6133 10.9999 29.4555 10.9999 27.2977V18.8544C10.9999 16.986 10.9999 15.1176 10.9999 13.2695C10.9971 12.6729 11.2306 12.0994 11.6492 11.6743C12.0678 11.2491 12.6376 11.0067 13.2343 11H15.0269L14.8187 11.4468C14.5452 12.0386 14.4064 12.6836 14.4124 13.3355C14.4124 18.0167 14.4124 22.6995 14.4124 27.384C14.4124 29.486 14.4124 31.5879 14.4124 33.6899C14.4065 34.4553 14.599 35.2092 14.971 35.8781C14.9866 35.9059 15.0002 35.9347 15.0116 35.9645Z" fill="white"/>
</g>
<defs>
<clipPath id="clip0_104_4">
<rect width="25" height="25" fill="white" transform="translate(11 11)"/>
</clipPath>
</defs>
</svg>
