<svg width="22" height="22" viewBox="0 0 22 22" fill="none" xmlns="http://www.w3.org/2000/svg">
<path fill-rule="evenodd" clip-rule="evenodd" d="M11 22C17.0751 22 22 17.0751 22 11C22 4.92487 17.0751 0 11 0C4.92487 0 0 4.92487 0 11C0 17.0751 4.92487 22 11 22ZM9.23566 13.1382V11.7122H9.36721C10.1753 11.7122 11.0211 11.7122 11.8621 11.7075C12.3565 11.7059 12.8478 11.6274 13.3186 11.4746C13.8261 11.3295 14.288 11.0541 14.6593 10.6752C15.0306 10.2963 15.2987 9.82663 15.4376 9.31192C15.642 8.57033 15.642 7.7863 15.4376 7.0447C15.3307 6.59852 15.125 6.18273 14.836 5.82869C14.5471 5.47465 14.1825 5.19159 13.7697 5.00087C13.1704 4.721 12.5174 4.57819 11.8574 4.5826H7.91539H7.82612V13.1382H6.41659V14.5641H7.82612V17.4159H9.23566V14.5641H14.1596V13.1382H9.23566ZM9.30143 10.2863H9.23566V6.00853H11.8104C12.1757 6.00795 12.5388 6.0657 12.8863 6.17964C13.2292 6.27622 13.534 6.47804 13.7587 6.75728C13.9834 7.03652 14.1169 7.37941 14.1408 7.73865C14.1918 8.1126 14.1743 8.49285 14.0891 8.86038C14.0164 9.18747 13.8502 9.48572 13.6113 9.7181C13.3724 9.95048 13.0713 10.1067 12.7454 10.1675C12.4563 10.2403 12.16 10.2802 11.8621 10.2863H9.30143Z" fill="#FF8515"/>
</svg>
