<svg width="19" height="21" viewBox="0 0 19 21" fill="none" xmlns="http://www.w3.org/2000/svg">
<path d="M18.1014 4.07043L18.2725 4.49454C18.2708 4.51351 18.2708 4.53259 18.2725 4.55156C18.3191 4.81081 18.3501 5.07265 18.3651 5.33563C18.3651 8.04425 18.3651 10.7529 18.3651 13.4615C18.3651 15.1223 18.3651 16.7831 18.3651 18.451C18.3522 19.1253 18.0777 19.7681 17.5995 20.2437C17.1213 20.7192 16.477 20.9901 15.8026 20.9993C15.0471 20.9993 14.2879 20.9993 13.5324 20.9993C9.90427 20.9993 6.27852 20.9993 2.65516 20.9993C2.23851 21.0092 1.82577 20.917 1.453 20.7306C1.08024 20.5442 0.758799 20.2694 0.516775 19.9301C0.434804 19.8232 0.367089 19.7056 0.292245 19.5737L0.114047 19.1282C0.11581 19.1104 0.11581 19.0925 0.114047 19.0747C0.0610097 18.8146 0.0229316 18.5516 0 18.2871C0 17.4709 0 16.6869 0 15.8885C0 12.3531 0.00712794 8.81763 0.0213838 5.28217C0.0146044 4.93023 0.0789265 4.58053 0.210498 4.25403C0.342069 3.92753 0.538183 3.63095 0.787093 3.38204C1.036 3.13313 1.33259 2.93701 1.65909 2.80544C1.98559 2.67387 2.33528 2.60955 2.68723 2.61633H4.61177V1.30835C5.17845 1.30835 5.73442 1.30835 6.2904 1.30835C6.34329 1.30295 6.39254 1.27895 6.4294 1.24063C6.61635 1.04342 6.81511 0.857755 7.02458 0.684656C7.78594 0.136737 8.72962 -0.0956721 9.65835 0.0360137C10.1102 0.0725817 10.5499 0.200773 10.9506 0.412776C11.3514 0.624779 11.7047 0.916155 11.9892 1.26915C12.0274 1.30294 12.0772 1.32079 12.1282 1.31904C12.5131 1.31904 12.898 1.31904 13.2865 1.31904H13.7926V2.63058H13.8995C14.5232 2.63058 15.1433 2.63058 15.7634 2.63058C16.1797 2.62307 16.5916 2.71639 16.9639 2.90257C17.3363 3.08875 17.6581 3.36227 17.9018 3.69977C17.9588 3.83164 18.0266 3.95638 18.1014 4.07043ZM12.4739 5.25366V2.63058H11.0269C11.0133 2.40933 10.9398 2.19594 10.8142 2.01326C10.6887 1.83057 10.5158 1.68547 10.3141 1.59347C9.9758 1.41283 9.59817 1.31833 9.21464 1.31833C8.83111 1.31833 8.45348 1.41283 8.11516 1.59347C7.80733 1.73337 7.56762 1.98974 7.44869 2.30626C7.41187 2.42316 7.38212 2.54218 7.35959 2.66266H5.93401V5.28217L12.4739 5.25366ZM4.3623 12.4814C4.29475 12.522 4.22933 12.566 4.16628 12.6133C4.06247 12.7028 3.98935 12.8226 3.95718 12.9559C3.92501 13.0892 3.93543 13.2292 3.98695 13.3562C4.03848 13.4833 4.12853 13.591 4.24444 13.6642C4.36035 13.7374 4.4963 13.7725 4.63316 13.7644H11.5437H13.7569C13.9308 13.7644 14.0976 13.6953 14.2206 13.5723C14.3436 13.4494 14.4127 13.2826 14.4127 13.1086C14.4127 12.9347 14.3436 12.7679 14.2206 12.6449C14.0976 12.522 13.9308 12.4529 13.7569 12.4529H11.6542H4.68662C4.57806 12.4563 4.46978 12.4658 4.3623 12.4814ZM14.0206 17.0183C14.1085 16.9804 14.1872 16.924 14.2514 16.8529C14.3155 16.7819 14.3636 16.6978 14.3923 16.6065C14.4211 16.5152 14.4298 16.4188 14.418 16.3238C14.4061 16.2288 14.3739 16.1375 14.3236 16.056C14.2519 15.9486 14.1523 15.8627 14.0356 15.8074C13.9188 15.7522 13.7892 15.7297 13.6607 15.7424H8.47868H4.63316C4.54322 15.7358 4.45287 15.7478 4.36777 15.7776C4.28266 15.8075 4.20463 15.8546 4.13856 15.9159C4.07248 15.9773 4.01977 16.0517 3.98372 16.1343C3.94768 16.217 3.92908 16.3062 3.92908 16.3964C3.92908 16.4866 3.94768 16.5758 3.98372 16.6585C4.01977 16.7412 4.07248 16.8155 4.13856 16.8769C4.20463 16.9383 4.28266 16.9853 4.36777 17.0152C4.45287 17.0451 4.54322 17.057 4.63316 17.0504H5.30318H13.7462C13.8382 17.0444 13.9298 17.0336 14.0206 17.0183ZM4.3516 9.20967C4.21053 9.27282 4.09499 9.38187 4.02381 9.51907C3.95262 9.65627 3.92998 9.81352 3.95957 9.96523C3.99283 10.1176 4.07845 10.2534 4.20152 10.3491C4.32459 10.4448 4.47733 10.4944 4.63316 10.4891H10.3355H13.7248C13.8904 10.4953 14.053 10.4437 14.1846 10.343C14.2951 10.256 14.3746 10.1358 14.4116 10.0001C14.4485 9.86442 14.4408 9.72045 14.3897 9.58946C14.3386 9.45846 14.2467 9.34736 14.1276 9.27256C14.0086 9.19776 13.8686 9.16322 13.7284 9.17403H4.65454C4.55303 9.18079 4.45192 9.19269 4.3516 9.20967Z" fill="#FF8515"/>
</svg>
