<svg width="18" height="20" viewBox="0 0 18 20" fill="none" xmlns="http://www.w3.org/2000/svg">
<g clip-path="url(#clip0_100_323)">
<path d="M-2.56235e-05 15.1535C-0.0203929 13.9464 0.400035 12.7738 1.18157 11.8578C2.65855 10.0485 4.11628 8.2197 5.58042 6.39741C6.86476 4.82714 8.0913 3.25686 9.3628 1.69951C9.8148 1.12712 10.3979 0.673509 11.0623 0.377522C11.7266 0.0815348 12.4523 -0.0480057 13.1773 -4.71808e-06C13.8557 0.0191666 14.5183 0.210314 15.1038 0.55573C15.8925 1.00141 16.5829 1.60381 17.133 2.32633C17.716 3.13571 18.0207 4.11432 18.001 5.11373C17.9813 6.11314 17.6383 7.07882 17.0239 7.86429C16.8564 8.08707 16.6095 8.2358 16.3352 8.27919C16.061 8.32257 15.7807 8.25724 15.5533 8.09693C15.4406 8.01764 15.3445 7.91665 15.2708 7.79978C15.1971 7.68291 15.1472 7.55249 15.1239 7.41608C15.1006 7.27966 15.1044 7.13994 15.1351 7.00502C15.1659 6.8701 15.2229 6.74265 15.3029 6.63004C15.5576 6.29744 15.7393 5.91419 15.8359 5.50565C15.9241 5.09354 15.9009 4.66517 15.7687 4.26513C15.6366 3.86509 15.4003 3.508 15.0845 3.23101C14.7406 2.90503 14.3564 2.62487 13.9415 2.39741C13.4527 2.14554 12.8923 2.07227 12.3558 2.19014C11.8194 2.308 11.3402 2.60968 11.0003 3.04361L6.35745 8.82067L2.68424 13.3958C2.47052 13.649 2.31066 13.9436 2.21454 14.2614C2.11842 14.5791 2.08808 14.9134 2.12539 15.2435C2.16271 15.5735 2.26688 15.8924 2.43148 16.1803C2.59608 16.4683 2.81761 16.7192 3.08239 16.9176C3.38344 17.1762 3.70811 17.4055 4.05206 17.6026C4.55124 17.8482 5.11919 17.9135 5.66057 17.7876C6.20196 17.6617 6.68383 17.3522 7.0253 16.9111C8.87047 14.6063 10.7199 12.3037 12.5736 10.0032C12.6461 9.92458 12.7015 9.83167 12.7364 9.73038C12.7713 9.62909 12.785 9.52161 12.7765 9.41473C12.7681 9.30785 12.7377 9.2039 12.6873 9.10943C12.6369 9.01497 12.5676 8.93205 12.4837 8.86591C12.3917 8.78117 12.2952 8.70136 12.1948 8.62681C12.1113 8.56246 12.0158 8.5158 11.914 8.48967C11.8121 8.46354 11.706 8.45847 11.6022 8.47478C11.4983 8.4911 11.3988 8.52844 11.3097 8.58456C11.2206 8.64068 11.1438 8.71441 11.0838 8.80129C10.7242 9.24071 10.3646 9.69305 10.005 10.1389C8.52156 11.9806 7.06383 13.8288 5.55474 15.6834C5.45253 15.8265 5.31721 15.9425 5.16048 16.0212C5.00375 16.1 4.83033 16.1391 4.65519 16.1353C4.48005 16.1315 4.30847 16.0848 4.15527 15.9993C4.00208 15.9138 3.87188 15.7921 3.77593 15.6446C3.65728 15.456 3.60085 15.2345 3.61469 15.0117C3.62853 14.7889 3.71193 14.5762 3.85299 14.4039C4.21903 13.9386 4.59148 13.4863 4.95752 13.0275C6.42595 11.1965 7.89437 9.36995 9.3628 7.54765C9.62474 7.18786 9.96411 6.89228 10.3555 6.68303C10.747 6.47378 11.1803 6.35626 11.6232 6.33925C12.1272 6.30588 12.6298 6.42276 13.0681 6.67528C13.7155 6.99643 14.2442 7.51711 14.5772 8.16155C14.8493 8.67506 14.9582 9.26021 14.8893 9.83801C14.8204 10.4158 14.577 10.9584 14.1919 11.3926C12.4581 13.5703 10.7049 15.7157 8.99034 17.8869C8.55414 18.4935 7.99901 19.0038 7.35923 19.3861C6.61498 19.8276 5.75925 20.0418 4.89619 20.0028C4.03313 19.9638 3.19994 19.6732 2.49801 19.1664C1.86888 18.7722 1.31797 18.2638 0.873324 17.6672C0.334549 16.9384 0.0298393 16.0613 -2.56235e-05 15.1535Z" fill="#004584"/>
</g>
<defs>
<clipPath id="clip0_100_323">
<rect width="18" height="20" fill="white"/>
</clipPath>
</defs>
</svg>
