<svg width="20" height="24" viewBox="0 0 20 24" fill="none" xmlns="http://www.w3.org/2000/svg">
<g clip-path="url(#clip0_131_205)">
<path d="M10.4189 23.968H9.57322H9.44558C8.85639 23.9389 8.27134 23.8533 7.69847 23.7124C6.00873 23.3142 4.45388 22.4764 3.19109 21.2836C2.27425 20.4244 1.52728 19.3999 0.989252 18.2636C0.441963 17.156 0.106447 15.9556 2.1942e-05 14.7244C-0.0560497 13.9749 -0.0239184 13.2214 0.0957539 12.4794C0.212688 11.695 0.424316 10.9277 0.725989 10.1944C1.32343 8.75472 2.24712 7.47397 3.42402 6.45342C4.60092 5.43287 5.99876 4.70051 7.507 4.31425C7.83409 4.22637 8.16915 4.17044 8.49623 4.09854V3.01997C8.28084 3.01997 8.06544 3.01997 7.866 3.01997C7.55857 2.9635 7.27644 2.81226 7.05903 2.58737C6.84162 2.36248 6.6998 2.07519 6.65339 1.76565C6.59987 1.46586 6.64012 1.15684 6.76864 0.880841C6.89715 0.604839 7.10767 0.375331 7.37138 0.223702C7.56593 0.13002 7.76895 0.0551139 7.97768 0L11.9665 0L12.158 0.0399467C12.4977 0.121697 12.7982 0.31965 13.0077 0.599639C13.2173 0.879628 13.3226 1.22408 13.3056 1.57355C13.2885 1.92302 13.1502 2.25557 12.9145 2.51381C12.6788 2.77205 12.3604 2.93976 12.0144 2.98802H11.4639V4.10652C13.0935 4.37263 14.636 5.02452 15.9633 6.00799L16.6095 5.35286C16.7802 5.17358 16.993 5.04012 17.2286 4.96474C17.4642 4.88935 17.7149 4.87446 17.9577 4.92144C18.2274 4.95541 18.482 5.06491 18.6923 5.23733C18.9025 5.40976 19.06 5.63811 19.1464 5.89614C19.2462 6.13854 19.276 6.40418 19.2323 6.6627C19.1885 6.92123 19.0731 7.16223 18.8991 7.35819C18.6757 7.62184 18.4204 7.86152 18.1731 8.1012C18.1613 8.1117 18.1517 8.1246 18.1452 8.13907C18.1387 8.15353 18.1353 8.16922 18.1353 8.18509C18.1353 8.20096 18.1387 8.21664 18.1452 8.23111C18.1517 8.24557 18.1613 8.25848 18.1731 8.26898C18.5546 8.7987 18.8807 9.36626 19.1464 9.96272C19.7084 11.2206 20.0096 12.5796 20.0319 13.9574C20.0377 14.8572 19.9141 15.7532 19.665 16.6178C19.1191 18.5893 17.9831 20.3459 16.4101 21.6511C15.59 22.3281 14.6659 22.8677 13.6737 23.249C12.8035 23.5969 11.8869 23.8149 10.9534 23.8961L10.4189 23.968ZM17.0962 13.9893C17.0969 12.5871 16.6854 11.2156 15.9131 10.046C15.1408 8.87633 14.0417 7.96023 12.753 7.4119C11.4643 6.86356 10.0429 6.70726 8.66609 6.96247C7.28927 7.21768 6.01792 7.87312 5.01055 8.84706C4.00318 9.821 3.30437 11.0704 3.00123 12.4394C2.6981 13.8084 2.80406 15.2364 3.3059 16.5455C3.80774 17.8546 4.68326 18.9869 5.82329 19.801C6.96333 20.6151 8.31745 21.0752 9.71682 21.1238C10.6712 21.1592 11.623 21.0019 12.5154 20.6611C13.4077 20.3203 14.2225 19.8032 14.9111 19.1404C15.5997 18.4776 16.148 17.6828 16.5234 16.8034C16.8988 15.9239 17.0936 14.9778 17.0962 14.0213V13.9893Z" fill="#FF8515"/>
<path d="M10.8337 13.3186L11.775 13.5662L13.5301 14.0296C13.7807 14.0943 14.0009 14.2447 14.1524 14.4548C14.3039 14.6649 14.3773 14.9215 14.3598 15.1801C14.3252 15.4386 14.2021 15.6771 14.0115 15.8548C13.8209 16.0326 13.5747 16.1386 13.3147 16.1548C13.0432 16.1405 12.7748 16.0895 12.5169 16.003L9.52533 15.2041C9.27507 15.1484 9.05207 15.007 8.89478 14.8042C8.73749 14.6015 8.65578 14.3501 8.66374 14.0935V9.76331C8.65845 9.4709 8.76937 9.18836 8.97209 8.97785C9.17481 8.76734 9.45273 8.6461 9.74471 8.64081C10.0367 8.63551 10.3188 8.74659 10.529 8.94961C10.7392 9.15263 10.8603 9.43095 10.8656 9.72336V13.3186H10.8337Z" fill="#FF8515"/>
</g>
<defs>
<clipPath id="clip0_131_205">
<rect width="20" height="24" fill="white"/>
</clipPath>
</defs>
</svg>
