<svg width="46" height="46" viewBox="0 0 46 46" fill="none" xmlns="http://www.w3.org/2000/svg">
<circle cx="23" cy="23" r="23" fill="#FF8515"/>
<path d="M12 11H31.4235V30.4787H14.2261C14.1832 31.3705 14.1964 32.2641 14.2658 33.1542C14.3668 33.642 14.6391 34.0772 15.0331 34.3806C15.4271 34.684 15.9167 34.8354 16.4126 34.8073C16.9178 34.7913 17.4011 34.5975 17.7781 34.26C18.1551 33.9224 18.4016 33.4626 18.4745 32.9611C18.4745 32.8702 18.5085 32.7737 18.5255 32.66H38C37.9133 33.1624 37.7979 33.6593 37.6545 34.1483C37.3498 34.9983 36.7856 35.7303 36.0422 36.2402C35.2989 36.7501 34.4141 37.012 33.5137 36.9886C30.4776 36.9886 27.4414 36.9886 24.4052 36.9886C21.7033 36.9886 19.0013 36.9886 16.2993 36.9886C15.3905 36.9915 14.5047 36.7016 13.7725 36.1616C13.0403 35.6217 12.5004 34.8602 12.2322 33.9893C12.0787 33.4848 12.0004 32.9603 12 32.4328C12 25.4154 12 18.4018 12 11.392V11ZM15.2741 20.7535V22.8838H28.1778V20.7535H15.2741ZM15.2741 27.2124H28.1891V25.0878H15.2627L15.2741 27.2124ZM21.2048 15.9989L19.5054 14.2947L17.9647 15.8285L20.3268 18.1575C20.4299 18.2836 20.5596 18.3851 20.7065 18.4548C20.8534 18.5245 21.0139 18.5607 21.1765 18.5607C21.339 18.5607 21.4995 18.5245 21.6465 18.4548C21.7934 18.3851 21.9231 18.2836 22.0261 18.1575L24.3712 15.8285L25.4758 14.7321L23.9521 13.2097L21.2048 15.9989Z" fill="white"/>
</svg>
