<svg width="46" height="46" viewBox="0 0 46 46" fill="none" xmlns="http://www.w3.org/2000/svg">
<circle cx="23" cy="23" r="23" fill="#FF8515"/>
<g clip-path="url(#clip0_104_3)">
<path d="M12.4214 11H34.5991L34.7274 11.0588C35.1005 11.1831 35.4242 11.4236 35.6512 11.745C35.8781 12.0665 35.9964 12.4522 35.9889 12.8457C35.9889 19.9664 35.9889 27.0871 35.9889 34.2078C35.952 34.6717 35.7508 35.1072 35.4215 35.4358C35.0922 35.7644 34.6565 35.9645 34.1928 36C27.0569 36 19.9155 36 12.7795 36C12.5449 36 12.3125 35.9536 12.0959 35.8634C11.8792 35.7732 11.6825 35.641 11.5171 35.4744C11.3517 35.3079 11.2208 35.1102 11.132 34.8928C11.0431 34.6754 10.9981 34.4426 10.9996 34.2078C10.9996 27.0746 10.9996 19.9414 10.9996 12.8083C10.9848 12.5692 11.0253 12.3299 11.118 12.1091C11.2107 11.8882 11.3531 11.6918 11.5341 11.535C11.8144 11.3322 12.1112 11.1532 12.4214 11V11ZM24.2933 25.0488C24.2985 24.1456 24.0592 23.2579 23.6008 22.4799C23.1425 21.7018 22.4823 21.0625 21.6902 20.6298C20.8479 20.1255 19.8725 19.8893 18.8931 19.9523C17.9137 20.0154 16.9766 20.3748 16.2059 20.9829C15.5557 21.4464 15.0277 22.061 14.6674 22.7739C14.307 23.4868 14.1251 24.2767 14.1372 25.0755L24.2933 25.0488ZM16.5159 28.7937L22.4813 34.6197L31.5683 26.1081L30.1464 24.6743L22.4813 31.7575L17.9485 27.3278L16.5159 28.7937ZM16.6602 16.2964C16.656 16.9723 16.9198 17.6222 17.3938 18.1037C17.8678 18.5851 18.5133 18.8587 19.1886 18.8643C19.8662 18.8643 20.5161 18.5949 20.9953 18.1153C21.4744 17.6358 21.7436 16.9853 21.7436 16.3071C21.7436 15.6289 21.4744 14.9784 20.9953 14.4988C20.5161 14.0193 19.8662 13.7498 19.1886 13.7498C18.5165 13.7541 17.8735 14.0242 17.3998 14.5014C16.9261 14.9785 16.6602 15.6238 16.6602 16.2964ZM25.4746 15.8523V16.703H32.3808V15.8523H25.4746ZM25.4746 18.9767V19.8273H32.3808V18.9767H25.4746ZM32.3808 21.9245H25.48V22.7697H32.3808V21.9245Z" fill="white"/>
</g>
<defs>
<clipPath id="clip0_104_3">
<rect width="25" height="25" fill="white" transform="translate(11 11)"/>
</clipPath>
</defs>
</svg>
