<svg width="46" height="46" viewBox="0 0 46 46" fill="none" xmlns="http://www.w3.org/2000/svg">
<circle cx="23" cy="23" r="23" fill="#FF8515"/>
<g clip-path="url(#clip0_41_570)">
<path d="M9.50594 34.9998C9.34135 34.2043 9.18284 33.4029 9.01825 32.6074C8.98911 32.4903 8.98793 32.3681 9.01479 32.2505C9.04165 32.1328 9.09583 32.0228 9.17311 31.9291C9.25039 31.8353 9.34868 31.7603 9.46034 31.7099C9.57199 31.6595 9.694 31.6351 9.81685 31.6385H36.0672C36.1826 31.6237 36.2994 31.6237 36.4147 31.6385C36.612 31.6907 36.7812 31.8157 36.8868 31.9873C36.9925 32.1589 37.0264 32.364 36.9817 32.5596C36.8171 33.367 36.6586 34.1684 36.494 34.9519L9.50594 34.9998Z" fill="white"/>
<path d="M34.8297 31.202H32.4278C32.4278 30.9687 32.4278 30.7415 32.4278 30.5142C32.4497 30.1122 32.3874 29.71 32.2448 29.3325C32.1022 28.955 31.8823 28.6102 31.5987 28.3192C31.5616 28.2714 31.5442 28.2116 31.5499 28.1518C31.5691 28.0153 31.556 27.8763 31.5116 27.7456C31.4672 27.615 31.3927 27.4961 31.2939 27.3982C30.7452 26.8599 30.1905 26.3156 29.6357 25.7833C29.4714 25.6298 29.2531 25.5441 29.0261 25.5441C28.7991 25.5441 28.5808 25.6298 28.4165 25.7833C28.2557 25.9424 28.1654 26.1574 28.1654 26.3814C28.1654 26.6055 28.2557 26.8204 28.4165 26.9795C28.9529 27.5238 29.5077 28.0561 30.0564 28.5943C30.1579 28.6968 30.2852 28.7712 30.4254 28.8101C30.5656 28.8489 30.7138 28.8508 30.855 28.8156C30.898 28.7991 30.9458 28.7992 30.9888 28.8158C31.0317 28.8325 31.0667 28.8644 31.0866 28.9053C31.3475 29.2529 31.4942 29.6701 31.5073 30.1015C31.5073 30.4604 31.5073 30.8312 31.5073 31.202H14.3769C14.3769 30.4065 14.2793 29.6111 14.8463 28.9352C14.9194 28.8575 14.9682 28.8096 15.0901 28.8336C15.2537 28.8717 15.4247 28.8663 15.5854 28.8179C15.7462 28.7695 15.8909 28.68 16.0045 28.5585C16.5288 28.0441 17.0592 27.5357 17.5713 27.0154C17.6811 26.9113 17.7608 26.7805 17.8025 26.6364C17.8441 26.4923 17.8462 26.3399 17.8084 26.1947C17.7706 26.0496 17.6944 25.9168 17.5875 25.8099C17.4805 25.703 17.3466 25.6257 17.1994 25.586C17.0543 25.5397 16.8989 25.5337 16.7505 25.5685C16.602 25.6033 16.4663 25.6777 16.3581 25.7833C15.7973 26.3216 15.2364 26.8718 14.6817 27.4221C14.5871 27.5163 14.516 27.6305 14.4737 27.756C14.4314 27.8815 14.4191 28.0149 14.4378 28.1458C14.4414 28.181 14.4378 28.2165 14.4274 28.2504C14.4169 28.2843 14.3997 28.3158 14.3769 28.3431C14.1062 28.625 13.8952 28.9568 13.7561 29.3191C13.6169 29.6815 13.5523 30.0674 13.5661 30.4544C13.5661 30.6996 13.5661 30.9448 13.5661 31.202H11.1276C11.1702 30.8431 11.219 30.4963 11.2556 30.1434C11.3775 29.025 11.4933 27.9065 11.6153 26.7881C11.6776 26.2293 11.7981 25.6781 11.9749 25.1434C12.1133 24.6926 12.3743 24.2874 12.7298 23.9712C13.0853 23.6551 13.522 23.44 13.9928 23.3491C14.6024 23.2056 15.2852 23.086 15.9253 22.9245C17.0455 22.6358 18.1278 22.2203 19.1502 21.6864C19.2322 21.6371 19.3011 21.5695 19.3514 21.4891C19.4733 21.2917 19.583 21.0824 19.7111 20.8491C19.7712 22.5208 19.9937 24.183 20.3755 25.8132C20.7535 27.4341 21.2046 29.0369 21.6253 30.6458H21.6862C21.6862 30.4484 21.7411 30.251 21.7655 30.0477C21.9484 28.5405 22.1313 27.0573 22.3081 25.5321C22.3095 25.4971 22.3038 25.4621 22.2912 25.4292C22.2786 25.3963 22.2595 25.3663 22.2349 25.3407C22.1766 25.2745 22.1134 25.2125 22.0459 25.1553C21.8204 24.8802 21.8143 24.7427 22.0459 24.4795C22.2776 24.2163 22.4727 24.025 22.6982 23.8037C22.776 23.7399 22.8742 23.705 22.9756 23.705C23.077 23.705 23.1751 23.7399 23.253 23.8037C23.5151 24.0728 23.7651 24.3539 24.0211 24.623C24.059 24.6525 24.0834 24.6954 24.0891 24.7425C24.0948 24.7895 24.0813 24.8369 24.0516 24.8742C23.9503 25.031 23.8382 25.1809 23.7163 25.3228C23.6845 25.3512 23.6602 25.3867 23.6454 25.4262C23.6305 25.4658 23.6256 25.5083 23.6309 25.5501C23.8382 27.1888 24.0394 28.8216 24.2406 30.4604C24.2413 30.5213 24.2516 30.5819 24.271 30.6398C25.2282 27.452 26.0999 24.2522 26.234 20.8491C26.3621 21.0764 26.4718 21.2678 26.5693 21.4472C26.6288 21.5643 26.7279 21.6573 26.8497 21.7104C28.3322 22.4475 29.9184 22.9636 31.556 23.2415C31.9785 23.3225 32.3883 23.4572 32.7753 23.6422C33.0712 23.7943 33.3322 24.0044 33.5419 24.2596C33.7517 24.5147 33.9057 24.8094 33.9945 25.1254C34.2011 25.7256 34.3321 26.3482 34.3847 26.9795C34.531 28.379 34.6773 29.7785 34.8297 31.202Z" fill="white"/>
<path d="M26.8497 13.2176C26.8132 13.7798 26.7827 14.1984 26.7522 14.6231C26.7522 14.6649 26.7522 14.7188 26.7522 14.7487C26.9049 14.991 26.9832 15.2713 26.9778 15.5561C27.0052 15.8705 27.0052 16.1866 26.9778 16.501C26.9235 16.8229 26.7577 17.1165 26.5084 17.3324C26.4688 17.369 26.438 17.4137 26.418 17.4633C26.3979 17.5129 26.3893 17.5662 26.3925 17.6195C26.364 18.3656 26.1083 19.0862 25.6584 19.6885C25.2086 20.2908 24.5853 20.7471 23.8687 20.9987C23.3199 21.1686 22.7323 21.177 22.1787 21.0229C21.625 20.8688 21.1296 20.5588 20.7535 20.1314C20.0526 19.4491 19.6465 18.528 19.6196 17.5597C19.6161 17.4877 19.5857 17.4196 19.5343 17.3683C19.3561 17.1979 19.2163 16.9928 19.1239 16.7662C19.0315 16.5395 18.9885 16.2964 18.9978 16.0525C18.9787 15.6454 19.043 15.2386 19.1868 14.8563C19.1868 14.8204 19.1868 14.7606 19.1868 14.7128C19.0839 13.8659 19.1314 13.0079 19.327 12.1769C19.4228 11.8223 19.597 11.4927 19.8372 11.2116C20.0774 10.9304 20.3778 10.7046 20.7169 10.5501C21.3619 10.2062 22.0813 10.0186 22.8151 10.003C23.549 9.98741 24.276 10.1442 24.9355 10.4604C25.2281 10.6316 25.5019 10.832 25.7524 11.0585C25.7829 11.0884 25.8134 11.1362 25.85 11.1422C26.0705 11.2049 26.267 11.3305 26.4146 11.503C26.5623 11.6755 26.6543 11.8872 26.679 12.1111C26.7666 12.4747 26.8237 12.8448 26.8497 13.2176Z" fill="white"/>
</g>
<defs>
<clipPath id="clip0_41_570">
<rect width="28" height="25" fill="white" transform="translate(9 10)"/>
</clipPath>
</defs>
</svg>
