<svg width="21" height="21" viewBox="0 0 21 21" fill="none" xmlns="http://www.w3.org/2000/svg">
<path fill-rule="evenodd" clip-rule="evenodd" d="M10.5 21C16.299 21 21 16.299 21 10.5C21 4.70101 16.299 0 10.5 0C4.70101 0 0 4.70101 0 10.5C0 16.299 4.70101 21 10.5 21ZM17.5821 7.45711C17.9726 7.06658 17.9726 6.43342 17.5821 6.04289C17.1916 5.65237 16.5584 5.65237 16.1679 6.04289L8.625 13.5858L4.45711 9.41789C4.06658 9.02737 3.43342 9.02737 3.04289 9.41789C2.65237 9.80842 2.65237 10.4416 3.04289 10.8321L8.625 16.4142L17.5821 7.45711Z" fill="#FF8515"/>
</svg>
