<svg width="21" height="21" viewBox="0 0 21 21" fill="none" xmlns="http://www.w3.org/2000/svg">
<path d="M21.0278 4.88498C20.7634 5.60757 20.3084 6.24534 19.7108 6.73077L14.2712 1.30945C14.5992 0.974684 14.9446 0.657402 15.306 0.358928C15.6476 0.103741 16.0688 -0.0219096 16.4945 0.00440996C16.9202 0.0307295 17.3227 0.207306 17.6301 0.502612C18.5874 1.41998 19.5171 2.35945 20.4744 3.31551C20.7501 3.59325 20.9303 3.95125 20.989 4.33787C20.9996 4.36653 21.0126 4.39425 21.0278 4.42077V4.88498Z" fill="#FF8515"/>
<path d="M11.1005 4.31543L16.7779 9.94675L16.6119 10.1181L7.95738 18.6894C7.72002 18.9273 7.42425 19.0988 7.09967 19.1867L0.990579 20.9994C0.853689 21.0329 0.710239 21.0285 0.575678 20.9866C0.441116 20.9447 0.320543 20.867 0.226942 20.7617C0.121615 20.6629 0.0480389 20.535 0.0155319 20.3943C-0.0169751 20.2536 -0.00695141 20.1065 0.0443337 19.9715C0.287812 19.0762 0.553425 18.2362 0.796903 17.352C1.15105 16.1417 1.51627 14.937 1.87042 13.7267C1.95112 13.4719 2.09817 13.243 2.29651 13.0636L8.73208 6.69175L11.1005 4.31543ZM6.52417 17.6836C6.4563 17.6076 6.38227 17.5374 6.30283 17.4736C6.18354 17.3872 6.08836 17.2718 6.02637 17.1383C5.96438 17.0048 5.93763 16.8577 5.94868 16.711C5.94868 16.2412 5.89888 15.777 5.88228 15.3073C5.88228 15.147 5.81587 15.0807 5.66093 15.0752C5.18504 15.042 4.71469 15.0033 4.2388 14.9757C4.07837 14.9833 3.91842 14.9527 3.77218 14.8864C3.62593 14.8201 3.49757 14.72 3.39769 14.5944C3.39769 14.5667 3.33682 14.5502 3.30362 14.5281C3.27042 14.506 3.27042 14.5723 3.26489 14.5944C2.95501 15.661 2.63959 16.7275 2.33524 17.7996C2.32984 17.8502 2.33492 17.9013 2.35015 17.9498C2.36538 17.9983 2.39045 18.0431 2.42378 18.0815C2.5653 18.2594 2.72477 18.4224 2.89967 18.5678C2.94517 18.6017 2.99707 18.626 3.05222 18.6393C3.10738 18.6525 3.16466 18.6546 3.22062 18.6452C4.31074 18.3412 5.39532 18.0207 6.52417 17.6836Z" fill="#FF8515"/>
<path d="M18.8863 7.83575L17.7077 8.94101L12.0579 3.31522L13.2421 2.20996L18.8863 7.83575Z" fill="#FF8515"/>
</svg>
