<svg width="46" height="46" viewBox="0 0 46 46" fill="none" xmlns="http://www.w3.org/2000/svg">
<circle cx="23" cy="23" r="23" fill="#FF8515"/>
<g clip-path="url(#clip0_9_390)">
<path d="M21.1697 33.2082C21.246 32.7063 21.3278 32.1547 21.4313 31.5535C20.8863 31.035 20.3413 30.4889 19.8998 30.0035C19.4584 29.5181 18.1067 28.1392 18.8098 26.0983C19.5129 24.0575 21.4313 23.7486 22.0799 23.6438L22.7339 23.5224C23.1209 23.4452 23.546 23.3625 23.9929 23.3073C24.3063 22.5214 24.6837 21.7631 25.1211 21.0403C25.706 20.0892 26.6219 19.3945 27.6881 19.0932C27.9027 19.0446 28.1221 19.0205 28.3421 19.0215C29.225 19.0215 30.4676 19.4021 31.3833 21.2278C31.5577 21.5698 31.7212 21.9118 31.8847 22.2593C32.0482 22.6068 32.2226 22.9708 32.397 23.3073L33.2799 23.4342L33.5361 23.4728C33.9993 23.0095 34.4626 22.5516 34.8932 22.0607C35.6562 21.1892 36.3483 20.2405 35.8905 18.9994C35.4327 17.7584 34.2991 17.4826 33.1655 17.3006C31.465 17.0303 29.7591 16.8262 28.0641 16.5394C27.9026 16.5003 27.7507 16.4283 27.6176 16.3278C27.4845 16.2273 27.3731 16.1003 27.2902 15.9547C26.5326 14.4765 25.8677 12.9486 25.1102 11.4814C24.7454 10.7694 24.2748 10.1183 23.7149 9.55082C23.5493 9.37191 23.3486 9.22999 23.1257 9.13415C22.9027 9.03832 22.6624 8.9907 22.4202 8.99433C22.1781 8.99797 21.9393 9.05278 21.7192 9.15526C21.4992 9.25774 21.3027 9.40563 21.1425 9.58943C20.6657 10.0609 20.2664 10.6065 19.9598 11.2056C19.2622 12.5845 18.6027 13.9635 18.0195 15.4086C17.6762 16.2526 17.2184 16.7435 16.2591 16.749C15.6163 16.7919 14.9782 16.8897 14.3516 17.0413C13.122 17.2047 11.9041 17.4479 10.7054 17.7694C8.99409 18.321 8.52538 19.8048 9.49005 21.3382C9.74925 21.7379 10.0508 22.1078 10.3893 22.4413C11.4794 23.5445 12.5694 24.6973 13.7139 25.7508C13.9652 25.959 14.1507 26.2371 14.2475 26.5508C14.3444 26.8644 14.3484 27.2 14.2589 27.5159C13.921 29.3913 13.654 31.2832 13.4251 32.767C13.3597 35.6076 14.8148 36.5949 17.0058 35.6242C17.0951 35.5864 17.1824 35.544 17.2674 35.4973C18.5536 34.7913 19.8399 34.0852 21.1207 33.3627C21.1534 33.313 21.1643 33.2689 21.1697 33.2082Z" fill="white"/>
<path d="M23.225 34.1963C23.3394 33.4627 23.4702 32.503 23.6556 31.5598C23.7224 31.3184 23.7155 31.0623 23.6357 30.825C23.5559 30.5877 23.4071 30.3805 23.2086 30.2305C22.5982 29.6789 22.0314 29.0997 21.47 28.504C21.034 28.0462 20.6144 27.5222 20.8487 26.8493C21.0831 26.1763 21.7371 25.9667 22.3966 25.8619C23.1431 25.6972 23.8982 25.5757 24.6584 25.4979C24.9166 25.4962 25.1672 25.409 25.3719 25.2497C25.5766 25.0903 25.7242 24.8675 25.792 24.6153C26.0988 23.7911 26.4763 22.9956 26.9202 22.238C27.1927 21.7754 27.62 21.4271 28.1247 21.2562C28.7296 21.1349 29.1656 21.6864 29.4055 22.238C29.8415 23.0985 30.223 23.9865 30.6917 24.8249C30.8794 25.1031 31.1633 25.2999 31.4874 25.3765C32.3976 25.5696 33.3296 25.6358 34.2452 25.8178C35.6241 26.0881 35.9838 27.1085 35.0627 28.1951C34.425 28.9453 33.6784 29.6017 33.0407 30.3518C32.8335 30.6177 32.7306 30.9516 32.7518 31.2895C32.8445 32.1775 33.0516 33.049 33.1879 33.9371C33.286 34.588 33.3568 35.294 32.7409 35.7297C32.1251 36.1655 31.5474 35.8952 30.9805 35.5974C30.2611 35.2113 29.5308 34.8527 28.8386 34.428C28.6556 34.2987 28.4378 34.2293 28.2146 34.2293C27.9914 34.2293 27.7736 34.2987 27.5906 34.428C26.8384 34.8913 26.0645 35.3271 25.2688 35.7187C24.0207 36.3696 23.1977 35.8235 23.225 34.1963Z" fill="white"/>
</g>
<defs>
<clipPath id="clip0_9_390">
<rect width="27" height="27" fill="white" transform="translate(9 9)"/>
</clipPath>
</defs>
</svg>
