<svg width="24" height="21" viewBox="0 0 24 21" fill="none" xmlns="http://www.w3.org/2000/svg">
<g clip-path="url(#clip0_125_277)">
<path d="M24 11.0362C24 11.2569 23.9545 11.4703 23.9241 11.691C23.7452 13.2859 23.1877 14.8188 22.2954 16.1695C21.4031 17.5202 20.2003 18.6519 18.7813 19.4759C17.3018 20.353 15.6203 20.8588 13.8887 20.9475C11.641 21.0928 9.40246 20.5541 7.48528 19.4066C5.56809 18.2591 4.06776 16.5599 3.19343 14.546C2.46725 12.8748 2.2057 11.048 2.43489 9.24814C2.47282 8.95381 2.51833 8.66685 2.56384 8.35781H0L3.45133 4.01653L6.89507 8.37252H6.73578H4.93805C4.81669 8.37252 4.77118 8.37252 4.74083 8.51969C4.40427 9.84238 4.40884 11.2251 4.75414 12.5457C5.09944 13.8663 5.77483 15.084 6.72061 16.0912C7.42635 16.8904 8.28857 17.5458 9.2573 18.0194C10.226 18.4931 11.282 18.7755 12.3641 18.8504C13.8689 19.0098 15.3901 18.7728 16.7677 18.1642C18.1453 17.5556 19.3283 16.598 20.1922 15.3921C21.3505 13.8736 21.9247 12.0098 21.8154 10.1237C21.7493 8.69073 21.3057 7.29804 20.5271 6.07855C19.7484 4.85906 18.6606 3.85344 17.3675 3.15762C16.0743 2.4618 14.619 2.09899 13.1402 2.10379C11.6615 2.1086 10.2087 2.48086 8.92035 3.18507L8.82933 3.22922L7.22124 1.70609L7.88116 1.32347C9.27427 0.553329 10.8317 0.10514 12.4324 0.0137286C14.2176 -0.121587 16.0091 0.183207 17.6404 0.899769C19.2716 1.61633 20.6895 2.72139 21.7623 4.11219C22.9492 5.57673 23.6948 7.33147 23.9166 9.18191C23.9166 9.43945 23.9697 9.69698 24 9.91772V11.0362Z" fill="#FF8515"/>
<path d="M12.1365 9.56496V9.33686C12.1365 8.0124 12.1365 6.68058 12.1365 5.35613C12.122 5.12861 12.1836 4.90264 12.312 4.71176C12.4405 4.52088 12.629 4.37528 12.8495 4.29656C13.007 4.24136 13.1756 4.22253 13.3419 4.24159C13.5082 4.26065 13.6676 4.31706 13.8075 4.40634C13.9474 4.49562 14.064 4.61532 14.1478 4.75593C14.2317 4.89653 14.2806 5.05417 14.2907 5.21632C14.2907 5.75346 14.2907 6.28325 14.2907 6.82039V11.1911C14.2907 11.2868 14.2907 11.3898 14.2907 11.4854C14.3112 11.6872 14.2716 11.8904 14.1765 12.071C14.0815 12.2516 13.935 12.4019 13.7546 12.5042C13.5741 12.6064 13.3671 12.6563 13.1583 12.6479C12.9495 12.6395 12.7475 12.5731 12.5764 12.4567L9.15543 10.1389C8.95923 10.0161 8.80577 9.83876 8.7151 9.63004C8.62443 9.42132 8.60077 9.19092 8.64721 8.96895C8.68041 8.83449 8.74156 8.70803 8.82692 8.59731C8.91227 8.48658 9.02004 8.39394 9.14362 8.32504C9.26719 8.25615 9.40397 8.21247 9.54556 8.19666C9.68716 8.18086 9.83059 8.19327 9.96706 8.23314C10.1406 8.27945 10.3048 8.3541 10.4525 8.45388C10.9683 8.79236 11.469 9.13819 11.9696 9.48402L12.1365 9.56496Z" fill="#FF8515"/>
</g>
<defs>
<clipPath id="clip0_125_277">
<rect width="24" height="21" fill="white"/>
</clipPath>
</defs>
</svg>
