<svg width="46" height="46" viewBox="0 0 46 46" fill="none" xmlns="http://www.w3.org/2000/svg">
<circle cx="23" cy="23" r="23" fill="#FF8515"/>
<g clip-path="url(#clip0_41_578)">
<path d="M17.0896 22.1862L15.6913 21.8093C15.4815 21.75 15.2395 21.5185 15.062 21.7608C14.8846 22.0031 15.062 22.2508 15.2341 22.4447C15.6471 22.9139 16.1701 23.2729 16.7561 23.4893C17.0086 23.6155 17.2735 23.7147 17.5467 23.7854C17.8331 23.8527 18.1002 23.9847 18.3277 24.1714C18.5552 24.358 18.7369 24.5944 18.859 24.8624C18.0953 25.1316 17.3262 25.4008 16.5625 25.6647C15.7074 25.977 14.8469 26.2839 14.0079 26.6285C13.4697 26.8158 12.9809 27.1229 12.5785 27.5268C12.176 27.9306 11.8704 28.4207 11.6846 28.96C11.5179 29.4716 11.5232 29.4985 10.9908 29.4985C9.9152 29.4985 8.80193 29.4716 7.71018 29.4985C7.47997 29.513 7.24933 29.4779 7.03381 29.3956C6.81829 29.3133 6.6229 29.1857 6.46082 29.0214C6.29873 28.8571 6.17373 28.6599 6.09422 28.4431C6.01472 28.2263 5.98257 27.995 5.99994 27.7647C5.99994 27.2747 5.99994 26.7901 5.99994 26.3C5.96999 25.8461 6.09611 25.3956 6.35734 25.0233C6.61857 24.6511 6.99918 24.3796 7.4359 24.2539C8.20496 23.9631 8.97941 23.7154 9.72696 23.3762C10.1064 23.2007 10.4579 22.9703 10.7703 22.6924C10.9709 22.5092 11.124 22.2801 11.2167 22.0247C11.3243 21.7447 11.1629 21.6047 10.8617 21.6908C10.3992 21.8254 9.93671 21.9924 9.46344 22.0839C8.82266 22.2116 8.15795 22.1324 7.56497 21.8577C7.0917 21.6424 7.08632 21.4754 7.4843 21.1685C8.05703 20.756 8.52817 20.2181 8.86182 19.5957C9.19548 18.9733 9.38285 18.2828 9.40966 17.577C9.4473 16.9308 9.51184 16.2847 9.61402 15.6439C9.69175 15.1389 9.90708 14.6651 10.2363 14.2746C10.5656 13.8842 10.996 13.5922 11.4802 13.4308C12.1106 13.1546 12.7999 13.0405 13.4856 13.0988C14.1712 13.1571 14.8314 13.386 15.4062 13.7647C15.7889 14.0076 16.1072 14.3398 16.3338 14.7326C16.5605 15.1255 16.6888 15.5675 16.7077 16.0208C16.7723 16.6347 16.8207 17.2539 16.8691 17.8677C16.8774 17.9475 16.8624 18.0279 16.8261 18.0993C16.454 18.7361 16.3386 19.491 16.5034 20.21C16.5361 20.8817 16.7559 21.5308 17.138 22.0839L17.0896 22.1862Z" fill="white"/>
<path d="M23.9305 32.0133C23.9789 31.8841 24.0381 31.7602 24.0757 31.631C24.592 29.9546 25.1065 28.28 25.6192 26.6072C25.7375 26.2249 25.7429 26.1926 26.114 26.3164C27.238 26.6879 28.3567 27.0702 29.4699 27.4741C30.0343 27.6644 30.5858 27.891 31.121 28.1526C31.4871 28.3125 31.7937 28.5837 31.9973 28.9277C32.201 29.2717 32.2914 29.6712 32.2558 30.0695C32.2235 30.8179 32.2558 31.5718 32.2558 32.3202C32.2767 32.5956 32.2245 32.8716 32.1046 33.1203C31.9846 33.369 31.8012 33.5816 31.5728 33.7364C31.3223 33.8949 31.0351 33.9859 30.7392 34.0002C25.3611 34.0002 19.983 34.0002 14.6049 34.0002C14.4016 34.018 14.1969 33.9937 14.0035 33.9287C13.81 33.8637 13.632 33.7595 13.4806 33.6226C13.3292 33.4856 13.2077 33.3189 13.1235 33.1328C13.0393 32.9467 12.9944 32.7453 12.9914 32.541C12.935 31.5582 12.935 30.573 12.9914 29.5902C13.0273 29.247 13.1617 28.9214 13.3783 28.6529C13.595 28.3844 13.8846 28.1845 14.2123 28.0772C15.0136 27.711 15.8257 27.4041 16.6701 27.1026C17.5144 26.801 18.2835 26.5641 19.1117 26.2895C19.4936 26.171 19.4936 26.1979 19.6119 26.5749C20.1282 28.2549 20.6481 29.9367 21.1715 31.6202C21.2096 31.7564 21.2818 31.8806 21.3813 31.981C21.5319 30.8233 21.6986 29.6602 21.8115 28.4972C21.7813 28.2268 21.6852 27.9679 21.5319 27.7433C21.4722 27.6481 21.4406 27.538 21.4406 27.4256C21.4406 27.3132 21.4722 27.2031 21.5319 27.1079C21.5738 27.0454 21.6277 26.9918 21.6905 26.9502C21.7533 26.9086 21.8237 26.8798 21.8976 26.8656C22.3493 26.8333 22.8065 26.8656 23.2636 26.8656C23.3501 26.8681 23.4347 26.8915 23.5103 26.9337C23.5858 26.976 23.6501 27.0358 23.6976 27.1082C23.7451 27.1806 23.7744 27.2634 23.7832 27.3496C23.7919 27.4358 23.7797 27.5229 23.7476 27.6033C23.4371 28.1744 23.3545 28.8421 23.5164 29.4718C23.6401 30.3118 23.7369 31.1518 23.8498 31.9972L23.9305 32.0133Z" fill="white"/>
<path d="M33.681 29.4987C33.6183 29.0052 33.4456 28.5322 33.1756 28.1147C32.9056 27.6971 32.5453 27.3457 32.1213 27.0864C31.7449 26.8499 31.347 26.6498 30.9328 26.4887C30.1798 26.1872 29.4215 25.9072 28.6632 25.6325C27.9049 25.3579 27.1573 25.0941 26.4152 24.8572C26.6679 24.4533 26.953 24.0118 27.2111 23.5864C27.2595 23.5164 27.3832 23.4895 27.48 23.4625C28.1642 23.3046 28.787 22.9489 29.2709 22.4395C29.4589 22.2792 29.5798 22.054 29.6096 21.8087C29.6395 21.5633 29.5762 21.3157 29.4323 21.1148C29.3323 20.9753 29.2442 20.8276 29.1687 20.6733C29.0108 20.339 28.8952 19.9863 28.8245 19.6233C28.7815 19.0879 28.6431 18.5645 28.4158 18.0779C28.3252 17.8507 28.2603 17.6142 28.2222 17.3725C28.6094 17.3725 28.561 17.1518 28.5449 16.9256C28.5019 16.2687 28.4588 15.6172 28.4642 14.9602C28.4695 14.7954 28.5234 14.6359 28.6191 14.5017C28.7148 14.3676 28.848 14.2648 29.002 14.2064C29.1877 14.1059 29.3478 13.9641 29.4699 13.7918C29.5709 13.6285 29.7041 13.4874 29.8613 13.3773C30.0184 13.2671 30.1964 13.1901 30.3842 13.151C31.2334 12.927 32.1287 12.9494 32.9657 13.2156C33.2378 13.3555 33.4865 13.5372 33.7025 13.7541C33.8638 13.8887 33.9768 14.1041 34.1596 14.1795C34.3673 14.2641 34.5403 14.4166 34.6507 14.612C34.761 14.8075 34.8021 15.0346 34.7674 15.2564C34.7674 15.8541 34.6974 16.4464 34.6437 17.0387C34.6437 17.2487 34.6437 17.3456 34.8857 17.3941C35.0094 17.3941 35.1922 17.6041 35.1815 17.7064C35.1438 18.2072 35.0524 18.6972 34.9717 19.1925C34.9696 19.2128 34.9632 19.2324 34.953 19.25C34.9428 19.2676 34.929 19.2829 34.9126 19.2948C34.2188 19.7418 34.2027 20.6033 33.7401 21.201C33.4121 21.621 33.525 22.0033 33.8907 22.4018C34.2978 22.8579 34.8197 23.1963 35.402 23.3818C36.0527 23.5918 36.6981 23.8448 37.3435 24.0764C38.29 24.421 39.1021 25.0887 38.9892 26.3972C38.9515 26.7956 38.9892 27.2048 38.9892 27.6141C38.9777 27.8959 38.9363 28.1757 38.8655 28.4487C38.7862 28.7369 38.6214 28.9942 38.3928 29.1865C38.1642 29.3788 37.8827 29.4971 37.5855 29.5256C36.2894 29.5148 35.004 29.4987 33.681 29.4987Z" fill="white"/>
<path d="M26.9746 16.554C26.91 16.9848 26.8186 17.6578 26.711 18.3255C26.6734 18.5625 26.711 18.6809 26.98 18.7132C27.042 18.7211 27.1018 18.7414 27.1558 18.773C27.2098 18.8046 27.2568 18.8469 27.294 18.8972C27.3312 18.9476 27.3578 19.0049 27.3722 19.0658C27.3867 19.1268 27.3886 19.19 27.3779 19.2517C27.3541 19.8058 27.284 20.357 27.1682 20.8994C27.0737 21.134 26.9153 21.3374 26.711 21.4863C26.4523 21.7131 26.2653 22.0107 26.1732 22.3425C25.9998 22.9446 25.6925 23.4996 25.2742 23.9659C24.856 24.4322 24.3378 24.7976 23.7585 25.0348C22.1719 25.7671 20.2788 24.5986 19.6012 23.4194C19.3646 22.9994 19.214 22.5309 19.0042 22.0948C18.9219 21.9067 18.7988 21.7393 18.6439 21.6048C18.3376 21.3804 18.125 21.0505 18.0469 20.6786C17.9732 20.2386 17.9265 19.7944 17.9071 19.3486C17.9071 18.9717 18.0684 18.8102 18.4449 18.724C18.7246 18.6809 18.6708 18.4978 18.6547 18.3148C18.5901 17.6309 18.5041 16.9471 18.461 16.2578C18.4579 15.9951 18.4868 15.7329 18.5471 15.4771C18.5756 15.2914 18.6494 15.1156 18.7619 14.9653C18.8745 14.815 19.0224 14.6949 19.1925 14.6155C19.4408 14.4935 19.6523 14.3077 19.8056 14.0771C19.9427 13.8495 20.1244 13.652 20.3398 13.4965C20.5551 13.3411 20.7997 13.2308 21.0587 13.1725C22.4635 12.8561 23.9332 13.0093 25.2428 13.6086C26.4368 14.1202 26.9746 15.0463 26.9746 16.554Z" fill="white"/>
</g>
<defs>
<clipPath id="clip0_41_578">
<rect width="33" height="21" fill="white" transform="translate(6 13)"/>
</clipPath>
</defs>
</svg>
