<svg width="35" height="35" viewBox="0 0 35 35" fill="none" xmlns="http://www.w3.org/2000/svg">
<path d="M17.347 35C7.43006 34.6392 -0.114542 27.2035 0.0013165 17.2865C0.125451 7.04457 8.20796 -0.15979 17.7249 0.00269365C27.9039 0.181701 35.1037 8.08005 34.9989 17.5922C34.883 27.7984 26.9439 34.8568 17.347 35ZM22.5165 10.3438C22.5165 9.45703 22.5689 8.44908 22.4862 7.45215C22.4613 7.16299 22.0696 6.67278 21.8296 6.66727C20.3207 6.63147 18.7787 6.52958 17.3056 6.78845C15.5374 7.09689 14.4092 8.31965 14.1085 10.1318C13.9099 11.338 13.8326 12.5635 13.7057 13.8138L11.7389 14.1801C11.3113 17.9034 11.3499 18.0108 13.7002 18.5341C13.7361 18.6139 13.805 18.6938 13.805 18.7764C13.8243 21.255 13.8437 23.7336 13.8492 26.1928C13.8492 30.131 13.8492 30.1062 17.8022 29.8859C18.7152 29.8363 18.98 29.4701 18.958 28.6163C18.9138 26.9226 18.958 25.229 18.958 23.5325V18.3386C19.8159 18.3386 20.5166 18.4377 21.1648 18.3C21.5455 18.2201 22.0751 17.8043 22.1413 17.4738C22.297 16.4511 22.3946 15.4204 22.4337 14.3866C21.3827 13.2547 18.6076 15.334 18.9387 12.1504C19.1925 9.57821 21.3524 11.3986 22.5165 10.3438Z" fill="#004584"/>
</svg>
