<svg width="80" height="90" viewBox="0 0 80 90" fill="none" xmlns="http://www.w3.org/2000/svg">
<g clip-path="url(#clip0_9_189)">
<path d="M23.4316 81.8369L7.97534 66.2126C8.24015 66.0512 8.49433 65.873 8.7363 65.679C12.7947 61.6272 16.8564 57.5687 20.9214 53.5037C21.3477 53.0582 21.8601 52.704 22.4276 52.4628C22.995 52.2215 23.6056 52.0983 24.2222 52.1004C33.7588 52.1004 43.2855 52.1004 52.8222 52.1004C53.4389 52.0769 54.0538 52.1809 54.6285 52.4059C55.2033 52.6308 55.7254 52.972 56.1622 53.4079C56.5991 53.8439 56.9413 54.3652 57.1675 54.9395C57.3937 55.5137 57.499 56.1284 57.4768 56.7452C57.4695 57.3594 57.3388 57.9658 57.0925 58.5285C56.8463 59.0912 56.4895 59.5987 56.0434 60.0208C55.5973 60.443 55.0709 60.7712 54.4955 60.9861C53.92 61.2009 53.3073 61.2979 52.6937 61.2714H39.8464C39.6092 61.2714 39.3622 61.2714 39.125 61.2714C38.8008 61.2946 38.4959 61.4346 38.267 61.6654C38.038 61.8961 37.9005 62.2021 37.8798 62.5265C37.8232 62.8486 37.8878 63.1803 38.0611 63.4576C38.2344 63.735 38.5043 63.9384 38.8186 64.0286C39.139 64.1235 39.4732 64.1636 39.8069 64.1472C45.0743 64.1472 50.3318 64.1472 55.6189 64.1472C56.2493 64.1343 56.8643 63.9498 57.3978 63.6135C62.507 60.2535 67.5768 56.844 72.686 53.484C73.2527 53.1012 73.9062 52.8662 74.5869 52.8004C75.2676 52.7346 75.954 52.8401 76.5835 53.1072C77.2131 53.3744 77.7658 53.7947 78.1915 54.33C78.6171 54.8653 78.9022 55.4985 79.0207 56.172C79.1933 56.9008 79.1476 57.6642 78.8893 58.3672C78.631 59.0701 78.1714 59.6815 77.568 60.125C72.6662 63.7815 67.7546 67.4051 62.8331 70.9958C60.7776 72.5276 58.7319 74.0692 56.6467 75.5615C56.2456 75.8502 55.7671 76.012 55.273 76.026C46.8597 76.026 38.4464 76.026 30.0331 76.026C29.7982 76.0151 29.5638 76.0564 29.3468 76.147C29.1298 76.2376 28.9355 76.3751 28.778 76.5497C26.9498 78.3088 25.2104 80.0482 23.4316 81.8369Z" fill="white" stroke="#0146A6" stroke-miterlimit="10"/>
<path d="M28.027 39.2237L22.4137 33.6796C23.3328 32.385 24.242 31.0608 25.1907 29.7266C25.3079 29.5605 25.3819 29.3678 25.406 29.166C25.4302 28.9642 25.4037 28.7595 25.3291 28.5704C24.9239 26.7224 23.7676 26.0405 21.9789 25.9911C21.1435 25.9364 20.3157 25.7973 19.5083 25.576C19.3007 25.5266 18.9944 25.2499 18.9944 25.072C18.9944 22.6211 18.9944 20.1307 18.9944 17.6502C20.6744 17.3636 22.2951 17.1067 23.9356 16.7806C24.2321 16.7213 24.4693 16.3853 24.7164 16.158C24.7757 16.1085 24.7164 15.99 24.8053 15.9208C25.9418 14.4285 25.2895 13.213 24.2618 11.9678C23.5996 11.1871 23.0561 10.2877 22.4928 9.49715L27.9973 3.95306C29.2524 4.8326 30.5767 5.74179 31.8713 6.69052C32.0434 6.82934 32.2475 6.92287 32.465 6.96257C32.6825 7.00227 32.9065 6.98689 33.1165 6.91781C35.0139 6.53239 35.5674 5.27732 35.6662 3.53799C35.7772 2.54154 35.9421 1.55184 36.1603 0.573242H43.9971C44.2244 1.85797 44.4517 3.12293 44.6691 4.38789C44.6788 4.50298 44.6788 4.61869 44.6691 4.73378C44.6691 5.72203 45.183 6.13709 46.0922 6.57193C46.5696 6.86878 47.1346 6.9925 47.6923 6.92232C48.2501 6.85215 48.7668 6.59236 49.1558 6.18651C50.0946 5.38602 51.1323 4.73378 52.1897 4.01236C52.3479 4.16059 52.4862 4.2693 52.6048 4.38789L57.7733 9.5268C56.8543 10.8313 55.9747 12.1061 55.0458 13.3513C54.8995 13.5646 54.8093 13.8113 54.7834 14.0686C54.7575 14.3259 54.7968 14.5856 54.8975 14.8238C55.3225 16.5533 56.4392 17.0968 58.0501 17.1759C58.8815 17.2571 59.7068 17.3924 60.5207 17.581C60.7183 17.581 60.916 17.67 61.2125 17.7392V23.6687C61.2125 25.5266 61.2125 25.5266 59.3545 25.8428C58.3663 26.0108 57.378 26.2085 56.3898 26.3567C55.8957 26.4259 55.7277 26.7125 55.4707 27.0979C54.4034 28.6989 54.8778 29.9836 56.0439 31.2683C56.6488 32.0078 57.2035 32.7869 57.7042 33.6006L52.0909 39.1644C50.9643 38.3738 49.6796 37.5536 48.4245 36.5653C48.2045 36.4057 47.947 36.3054 47.677 36.2743C47.4069 36.2431 47.1334 36.2821 46.8828 36.3875C45.0941 36.8025 44.5901 37.9785 44.511 39.6091C44.511 40.4096 44.2541 41.2002 44.1454 42.0007C44.0762 42.4652 43.9181 42.6925 43.3745 42.6925C41.2103 42.6925 39.046 42.6925 36.8718 42.6925C36.2888 42.6925 36.0714 42.4948 35.9923 41.9217C35.7946 40.5183 35.5476 39.1249 35.2808 37.7414C35.2443 37.4966 35.1173 37.2744 34.925 37.1188C34.2035 36.7592 33.4571 36.4521 32.6915 36.1997C32.4198 36.1904 32.1536 36.2779 31.9405 36.4467C30.636 37.3757 29.3018 38.3145 28.027 39.2237ZM40.1726 14.6657C38.8044 14.6657 37.4669 15.0714 36.3293 15.8316C35.1917 16.5917 34.305 17.6721 33.7814 18.9361C33.2578 20.2002 33.1208 21.5911 33.3878 22.933C33.6547 24.275 34.3135 25.5076 35.281 26.475C36.2485 27.4425 37.4811 28.1014 38.823 28.3683C40.1649 28.6352 41.5559 28.4982 42.8199 27.9746C44.084 27.451 45.1644 26.5644 45.9245 25.4268C46.6846 24.2891 47.0904 22.9517 47.0904 21.5835C47.0774 19.7528 46.3444 18.0007 45.0499 16.7062C43.7554 15.4116 42.0033 14.6786 40.1726 14.6657Z" fill="#CADAEF" stroke="#0146A6" stroke-miterlimit="10"/>
<path d="M23.3624 85.3751L19.6663 89.3281L0.691895 70.1066L4.43736 66.2129L23.3624 85.3751Z" fill="#CADAEF" stroke="#0146A6" stroke-miterlimit="10"/>
</g>
<defs>
<clipPath id="clip0_9_189">
<rect width="79.4652" height="90" fill="white"/>
</clipPath>
</defs>
</svg>
