<svg width="91" height="90" viewBox="0 0 91 90" fill="none" xmlns="http://www.w3.org/2000/svg">
<g clip-path="url(#clip0_9_211)">
<path d="M42.23 46.5H84.23V0.5H6.22998V46.5H12.23" stroke="#0146A6" stroke-miterlimit="10"/>
<path d="M69.77 64.3502C69.7432 62.3758 70.4992 60.4711 71.8728 59.0525C73.2464 57.634 75.1257 56.817 77.1 56.7802C78.1008 56.7319 79.1012 56.8854 80.0415 57.2317C80.9818 57.578 81.8428 58.1099 82.5733 58.7958C83.3038 59.4816 83.8888 60.3075 84.2936 61.2241C84.6983 62.1408 84.9145 63.1295 84.9293 64.1314C84.9441 65.1333 84.7571 66.128 84.3795 67.0562C84.002 67.9843 83.4415 68.8271 82.7315 69.5342C82.0216 70.2413 81.1766 70.7984 80.2469 71.1722C79.3172 71.546 78.3218 71.729 77.32 71.7102C75.3462 71.7237 73.4467 70.9586 72.0334 69.5808C70.62 68.203 69.8068 66.3236 69.77 64.3502Z" fill="#CADAEF" stroke="#0146A6" stroke-miterlimit="10"/>
<path d="M90.0001 86.0702C90.0001 84.6102 90.0001 83.1402 90.0001 81.6702C90.003 80.6247 89.8272 79.5864 89.4801 78.6002C88.3201 75.4702 85.9801 74.4702 83.4801 73.7402C83.0421 73.5772 82.5693 73.5312 82.1081 73.6066C81.6469 73.682 81.2134 73.8762 80.8501 74.1702C79.7001 75.0602 78.5201 75.9102 77.3401 76.7802C76.0001 75.8702 74.8301 75.0002 73.6501 74.1002C73.3126 73.832 72.9118 73.6552 72.4862 73.5869C72.0606 73.5186 71.6245 73.561 71.2201 73.7102L70.0001 74.1002C68.4108 74.6218 67.0274 75.6333 66.0483 76.9896C65.0693 78.3459 64.5448 79.9774 64.5501 81.6502C64.5501 83.1202 64.5501 84.6002 64.5501 86.0802C64.5554 86.989 64.9201 87.8589 65.5647 88.4997C66.2092 89.1405 67.0812 89.5002 67.9901 89.5002H86.5301C86.9839 89.5055 87.4342 89.4206 87.855 89.2506C88.2757 89.0806 88.6586 88.8288 88.9814 88.5098C89.3041 88.1908 89.5603 87.8108 89.7352 87.3921C89.9101 86.9733 90.0001 86.524 90.0001 86.0702Z" fill="#CADAEF" stroke="#0146A6" stroke-miterlimit="10"/>
<path d="M37.77 64.3502C37.7432 62.3758 38.4992 60.4711 39.8728 59.0525C41.2464 57.634 43.1257 56.817 45.1 56.7802C46.1008 56.7319 47.1012 56.8854 48.0415 57.2317C48.9818 57.578 49.8428 58.1099 50.5733 58.7958C51.3038 59.4816 51.8888 60.3075 52.2936 61.2241C52.6983 62.1408 52.9145 63.1295 52.9293 64.1314C52.9441 65.1333 52.7571 66.128 52.3795 67.0562C52.002 67.9843 51.4415 68.8271 50.7315 69.5342C50.0216 70.2413 49.1766 70.7984 48.2469 71.1722C47.3172 71.546 46.3218 71.729 45.32 71.7102C43.3462 71.7237 41.4467 70.9586 40.0334 69.5808C38.62 68.203 37.8068 66.3236 37.77 64.3502Z" fill="#CADAEF" stroke="#0146A6" stroke-miterlimit="10"/>
<path d="M58.0001 86.0702C58.0001 84.6102 58.0001 83.1402 58.0001 81.6702C58.003 80.6247 57.8272 79.5864 57.4801 78.6002C56.3201 75.4702 53.9801 74.4702 51.4801 73.7402C51.0421 73.5772 50.5693 73.5312 50.1081 73.6066C49.6469 73.682 49.2134 73.8762 48.8501 74.1702C47.7001 75.0602 46.5201 75.9102 45.3401 76.7802C44.0001 75.8702 42.8301 75.0002 41.6501 74.1002C41.3126 73.832 40.9118 73.6552 40.4862 73.5869C40.0606 73.5186 39.6245 73.561 39.2201 73.7102L38.0001 74.1002C36.4108 74.6218 35.0274 75.6333 34.0483 76.9896C33.0693 78.3459 32.5448 79.9774 32.5501 81.6502C32.5501 83.1202 32.5501 84.6002 32.5501 86.0802C32.5554 86.989 32.9201 87.8589 33.5647 88.4997C34.2092 89.1405 35.0812 89.5002 35.9901 89.5002H54.5301C54.9839 89.5055 55.4342 89.4206 55.855 89.2506C56.2758 89.0806 56.6586 88.8288 56.9814 88.5098C57.3041 88.1908 57.5604 87.8108 57.7352 87.3921C57.9101 86.9733 58.0001 86.524 58.0001 86.0702Z" fill="#CADAEF" stroke="#0146A6" stroke-miterlimit="10"/>
<path d="M5.76997 64.3502C5.7432 62.3758 6.49924 60.4711 7.87282 59.0525C9.24639 57.634 11.1257 56.817 13.1 56.7802C14.1008 56.7319 15.1012 56.8854 16.0415 57.2317C16.9818 57.578 17.8428 58.1099 18.5733 58.7958C19.3038 59.4816 19.8888 60.3075 20.2936 61.2241C20.6983 62.1408 20.9145 63.1295 20.9293 64.1314C20.9441 65.1333 20.7571 66.128 20.3795 67.0562C20.002 67.9843 19.4415 68.8271 18.7315 69.5342C18.0216 70.2413 17.1766 70.7984 16.2469 71.1722C15.3172 71.546 14.3218 71.729 13.32 71.7102C11.3462 71.7237 9.44673 70.9586 8.03338 69.5808C6.62003 68.203 5.80677 66.3236 5.76997 64.3502Z" fill="#CADAEF" stroke="#0146A6" stroke-miterlimit="10"/>
<path d="M26 86.0702C26 84.6102 26 83.1402 26 81.6702C26.003 80.6247 25.8271 79.5864 25.48 78.6002C24.32 75.4702 21.98 74.4702 19.48 73.7402C19.0421 73.5772 18.5692 73.5312 18.108 73.6066C17.6469 73.682 17.2133 73.8762 16.85 74.1702C15.7 75.0602 14.52 75.9102 13.34 76.7802C12 75.8702 10.83 75.0002 9.65002 74.1002C9.31256 73.832 8.91171 73.6552 8.4861 73.5869C8.06049 73.5186 7.62446 73.561 7.22002 73.7102L6.00002 74.1002C4.40322 74.6149 3.01113 75.6234 2.02445 76.9804C1.03777 78.3373 0.507478 79.9724 0.510019 81.6502C0.510019 83.1202 0.510019 84.6002 0.510019 86.0802C0.515289 86.9873 0.878672 87.8556 1.52107 88.4962C2.16346 89.1367 3.03286 89.4975 3.94002 89.5002H22.53C22.9838 89.5055 23.4341 89.4206 23.8549 89.2506C24.2757 89.0806 24.6585 88.8288 24.9813 88.5098C25.304 88.1908 25.5603 87.8108 25.7352 87.3921C25.91 86.9733 26 86.524 26 86.0702Z" fill="#CADAEF" stroke="#0146A6" stroke-miterlimit="10"/>
<path d="M19.77 21.3502C19.7432 19.3758 20.4992 17.4711 21.8728 16.0525C23.2464 14.634 25.1257 13.817 27.1 13.7802C28.1008 13.7319 29.1012 13.8854 30.0415 14.2317C30.9818 14.578 31.8428 15.1099 32.5733 15.7958C33.3038 16.4816 33.8888 17.3075 34.2936 18.2241C34.6983 19.1408 34.9145 20.1295 34.9293 21.1314C34.9441 22.1333 34.7571 23.128 34.3795 24.0562C34.002 24.9843 33.4415 25.8271 32.7315 26.5342C32.0216 27.2413 31.1766 27.7984 30.2469 28.1722C29.3172 28.546 28.3218 28.729 27.32 28.7102C25.3462 28.7237 23.4467 27.9586 22.0334 26.5808C20.62 25.203 19.8068 23.3236 19.77 21.3502Z" fill="#CADAEF" stroke="#0146A6" stroke-miterlimit="10"/>
<path d="M40.0001 43.0702C40.0001 41.6102 40.0001 40.1402 40.0001 38.6702C40.003 37.6247 39.8272 36.5864 39.4801 35.6002C38.3201 32.4702 35.9801 31.4702 33.4801 30.7402C33.0421 30.5772 32.5693 30.5312 32.1081 30.6066C31.6469 30.682 31.2134 30.8762 30.8501 31.1702C29.7001 32.0602 28.5201 32.9102 27.3401 33.7802C26.0001 32.8702 24.8301 32.0002 23.6501 31.1002C23.3126 30.832 22.9118 30.6552 22.4862 30.5869C22.0606 30.5186 21.6245 30.561 21.2201 30.7102L20.0001 31.1002C18.4108 31.6218 17.0274 32.6333 16.0483 33.9896C15.0693 35.3459 14.5448 36.9774 14.5501 38.6502C14.5501 40.1202 14.5501 41.6502 14.5501 43.0802C14.5554 43.989 14.9201 44.8589 15.5647 45.4997C16.2092 46.1405 17.0812 46.5002 17.9901 46.5002H36.5301C36.9839 46.5055 37.4342 46.4206 37.855 46.2506C38.2758 46.0806 38.6586 45.8288 38.9814 45.5098C39.3041 45.1908 39.5604 44.8108 39.7352 44.3921C39.9101 43.9733 40.0001 43.524 40.0001 43.0702Z" fill="#CADAEF" stroke="#0146A6" stroke-miterlimit="10"/>
<path d="M42.23 41H84.23V6H6.22998V41H12.23" stroke="#0146A6" stroke-miterlimit="10"/>
</g>
<defs>
<clipPath id="clip0_9_211">
<rect width="90.47" height="90" fill="white"/>
</clipPath>
</defs>
</svg>
