<svg width="21" height="20" viewBox="0 0 21 20" fill="none" xmlns="http://www.w3.org/2000/svg">
<g opacity="0.5">
<path d="M1.60746 2.41158V14.418C1.60335 14.5872 1.61163 14.7565 1.63223 14.9245C1.73683 15.6786 2.12493 16.0255 2.90389 16.0502C4.03517 16.0722 5.1692 16.0502 6.30323 16.0695C6.70234 16.0695 7.10421 16.086 7.50332 16.0998C7.8249 16.095 8.14242 16.172 8.42603 16.3237C8.70963 16.4754 8.95 16.6967 9.12455 16.9668C9.23637 17.1434 9.3841 17.2944 9.55814 17.4101C9.73219 17.5259 9.92863 17.6036 10.1347 17.6384C10.4261 17.7034 10.7299 17.6841 11.0107 17.5827C11.2915 17.4813 11.5375 17.302 11.7202 17.0659C11.8882 16.8539 12.0722 16.6552 12.2707 16.4714C12.5993 16.2203 13.0052 16.0918 13.4185 16.108C14.4369 16.086 15.4526 16.086 16.471 16.075C16.9774 16.075 17.4867 16.075 17.9959 16.0585C18.8409 16.0282 19.2675 15.6016 19.3005 14.7621C19.3198 14.2611 19.3171 13.7601 19.3171 13.2592C19.3171 9.74516 19.3171 6.23113 19.3171 2.7171V2.44185C19.6397 2.42244 19.9633 2.42244 20.2859 2.44185C20.6713 2.4914 20.9108 2.83821 20.9135 3.29238C20.9135 4.60257 20.9135 5.91184 20.9135 7.2202C20.9135 10.6351 20.9135 14.0492 20.9135 17.4623C20.9135 18.1972 20.6383 18.4724 19.9144 18.4724C17.9876 18.4724 16.0609 18.4917 14.1341 18.4724C13.5524 18.4536 12.9822 18.6375 12.5211 18.9927C12.193 19.2478 11.8462 19.4778 11.4834 19.6808C11.1966 19.8608 10.8712 19.9702 10.5338 20.0001C10.1476 19.9812 9.77095 19.8738 9.43283 19.6863C8.96554 19.4173 8.51429 19.1214 8.08135 18.8C7.75159 18.5704 7.35727 18.4518 6.95557 18.4614C4.96827 18.4614 2.97821 18.4614 0.990901 18.4614C0.280755 18.4614 0 18.1862 0 17.4678C0.00550501 12.8381 0.00825751 8.20835 0.00825751 3.57864C0.00825751 3.45478 0.00825751 3.33091 0.00825751 3.2098C0.00739959 3.10252 0.0284038 2.99619 0.0699893 2.89729C0.111575 2.79839 0.17287 2.70899 0.250136 2.63456C0.327403 2.56013 0.419021 2.50221 0.519405 2.46435C0.619788 2.42649 0.726832 2.40947 0.834008 2.41433C1.07623 2.40882 1.3212 2.41158 1.60746 2.41158Z" fill="white"/>
<path d="M3.24243 14.4399V0.0333421C3.27137 0.0167528 3.30308 0.00556096 3.33602 0.000312102C4.6352 0.000312102 5.93988 -0.0189554 7.22255 0.245285C8.03581 0.402257 8.79837 0.755661 9.44382 1.27472C9.51124 1.32426 9.56484 1.39024 9.59953 1.46637C9.63423 1.54249 9.64885 1.62624 9.642 1.70962C9.642 4.52818 9.642 7.34674 9.642 10.1653C9.642 11.7306 9.642 13.2903 9.642 14.8446V15.0758C9.27317 14.8996 8.93461 14.7014 8.57403 14.5693C7.72075 14.2555 6.82894 14.2941 5.94264 14.3271C5.11689 14.3519 4.31316 14.3931 3.49566 14.4262L3.24243 14.4399Z" fill="white"/>
<path d="M17.6627 0.0167592V14.4179C17.2884 14.4179 16.9306 14.4179 16.5617 14.4179C15.6534 14.3931 14.7451 14.3435 13.8368 14.338C12.9224 14.3065 12.0247 14.5891 11.2935 15.139C11.2935 15.0482 11.2797 14.9849 11.2797 14.9216C11.2797 10.5176 11.2797 6.11355 11.2797 1.70955C11.274 1.62309 11.2899 1.53658 11.3259 1.45779C11.362 1.379 11.417 1.31039 11.4861 1.25814C12.2342 0.637557 13.1504 0.254216 14.1175 0.157137C15.235 0.0663042 16.3773 0.0552942 17.5141 0.000244141C17.564 0.00255067 17.6136 0.0080671 17.6627 0.0167592Z" fill="white"/>
</g>
</svg>
