<svg width="46" height="46" viewBox="0 0 46 46" fill="none" xmlns="http://www.w3.org/2000/svg">
<circle cx="23" cy="23" r="23" fill="#FF8515"/>
<path d="M12 14.11C12 13.92 12.07 13.74 12.12 13.56C12.2898 12.9673 12.6441 12.4442 13.1314 12.0666C13.6188 11.689 14.2137 11.4765 14.83 11.46H27C26.9601 11.4969 26.9233 11.537 26.89 11.58L24.09 14.35C24.0631 14.3814 24.0291 14.4059 23.9909 14.4216C23.9526 14.4372 23.9112 14.4435 23.87 14.44H16.8C16.4857 14.4238 16.1731 14.4958 15.8975 14.6477C15.6219 14.7997 15.3942 15.0256 15.24 15.3C15.0893 15.529 15.0061 15.7959 15 16.07V16.19C15 20.53 15 24.8633 15 29.19C14.9843 29.4283 15.019 29.6673 15.1019 29.8913C15.1848 30.1153 15.3139 30.3194 15.4809 30.4901C15.6479 30.6609 15.849 30.7946 16.0711 30.8824C16.2932 30.9703 16.5314 31.0103 16.77 31H29.77C30.1798 31.0172 30.5816 30.883 30.8989 30.6229C31.2161 30.3629 31.4265 29.9952 31.49 29.59C31.5053 29.4638 31.5053 29.3362 31.49 29.21V22.1C31.486 22.0519 31.4929 22.0035 31.5102 21.9585C31.5275 21.9135 31.5548 21.873 31.59 21.84L34.39 19.07L34.52 19C34.5242 19.0398 34.5242 19.0801 34.52 19.12V31.05C34.5363 31.7655 34.2883 32.462 33.8234 33.0062C33.3585 33.5504 32.7093 33.9042 32 34H31.74H14.81H14.69C14.0995 33.9557 13.5367 33.7316 13.0772 33.358C12.6178 32.9844 12.2837 32.4791 12.12 31.91C12.12 31.72 12.04 31.53 12 31.34V14.11Z" fill="white"/>
<path d="M36 14.38L35.9 14.46C32.4134 17.9133 28.95 21.36 25.51 24.8L25.42 24.91L21.05 20.54L31.59 10C31.9 10.3 32.23 10.61 32.59 10.93L35.9 14.27L35.99 14.35L36 14.38Z" fill="white"/>
<path d="M19.4501 22L23.9501 26.5L18.0601 27.9L19.4501 22Z" fill="white"/>
</svg>
