<svg width="62" height="62" viewBox="0 0 62 62" fill="none" xmlns="http://www.w3.org/2000/svg">
<g clip-path="url(#clip0_1:270)">
<path d="M31 62C24.8688 62 18.8753 60.1819 13.7773 56.7756C8.67941 53.3693 4.70607 48.5277 2.35975 42.8632C0.0134318 37.1987 -0.600472 30.9656 0.59567 24.9522C1.79181 18.9388 4.74428 13.4151 9.0797 9.0797C13.4151 4.74428 18.9388 1.79181 24.9522 0.59567C30.9656 -0.600472 37.1987 0.0134318 42.8632 2.35975C48.5277 4.70607 53.3693 8.67941 56.7756 13.7773C60.1819 18.8753 62 24.8688 62 31C62 39.2217 58.734 47.1067 52.9203 52.9203C47.1067 58.734 39.2217 62 31 62ZM31 1.00001C25.0666 1.00001 19.2664 2.75948 14.3329 6.05593C9.39943 9.35237 5.55426 14.0377 3.28363 19.5195C1.013 25.0013 0.418899 31.0333 1.57646 36.8527C2.73401 42.6722 5.59124 48.0176 9.78681 52.2132C13.9824 56.4088 19.3279 59.266 25.1473 60.4236C30.9667 61.5811 36.9987 60.987 42.4805 58.7164C47.9623 56.4458 52.6477 52.6006 55.9441 47.6671C59.2405 42.7336 61 36.9335 61 31C61 23.0435 57.8393 15.4129 52.2132 9.78681C46.5871 4.16072 38.9565 1.00001 31 1.00001Z" fill="#0F4881"/>
<path d="M27.6401 48.11C26.9581 48.1067 26.2993 47.8622 25.7801 47.42C25.4272 47.0287 25.222 46.5265 25.2001 46C24.2001 46.47 22.7201 46.84 21.7401 45.66C21.5161 45.4258 21.3477 45.1442 21.2473 44.8361C21.1469 44.528 21.1171 44.2012 21.1601 43.88C21.1554 43.8268 21.1554 43.7732 21.1601 43.72C20.7868 43.7998 20.3986 43.7748 20.0386 43.6477C19.6786 43.5206 19.3607 43.2965 19.1201 43C18.842 42.5966 18.7092 42.1105 18.7438 41.6217C18.7783 41.1329 18.978 40.6703 19.3101 40.31C18.7346 39.8557 18.3208 39.228 18.1301 38.52C17.9601 37.3 18.4401 36.76 19.5301 36.08C20.6201 35.4 23.3301 34.08 23.4501 33.99L23.9001 34.88C23.9001 34.88 21.0601 36.3 20.0601 36.93C19.0601 37.56 19.0601 37.74 19.1201 38.38C19.1801 39.02 19.9101 39.54 20.3401 39.85L20.8801 40.23L20.3701 40.64C20.2601 40.73 19.3701 41.55 19.9401 42.43C20.5101 43.31 22.2501 42.43 22.2601 42.43L22.7701 43.29C22.4593 43.4916 22.2346 43.8017 22.1401 44.16C22.123 44.3429 22.1463 44.5273 22.2085 44.7002C22.2708 44.873 22.3703 45.03 22.5001 45.16C23.5001 46.32 25.6801 44.71 25.7001 44.69L26.3501 45.45C26.2864 45.5484 26.2391 45.6564 26.2101 45.77C26.1834 45.9456 26.1927 46.1248 26.2374 46.2967C26.2821 46.4686 26.3612 46.6296 26.4701 46.77C26.8529 47.0617 27.3305 47.2007 27.8101 47.16C28.1101 47.07 30.3001 45.97 32.6201 44.81C34.4801 43.88 36.6201 42.81 38.6201 41.81C41.4527 40.4036 43.9129 38.3478 45.8001 35.81L46.6301 36.36C44.6608 39.0685 42.063 41.2579 39.0601 42.74C37.0601 43.74 34.9101 44.79 33.0601 45.74C29.6801 47.43 28.3801 48.08 28.0601 48.16C27.9187 48.1593 27.7778 48.1425 27.6401 48.11Z" fill="#0F4881"/>
<path d="M24.2399 32.47C23.1347 32.4538 22.0399 32.2544 20.9999 31.88L21.3699 30.94C21.3699 30.94 24.1699 32.02 26.1499 31.09C28.1299 30.16 29.3799 27.24 29.3899 27.21L29.5599 26.79L35.1699 28.47C35.5818 28.5692 36.0134 28.5484 36.4139 28.4102C36.8143 28.272 37.1669 28.0221 37.4299 27.69V27.59C37.7699 26.92 37.6999 26.87 37.5699 26.79C36.9599 26.44 28.0599 23.29 27.0599 22.96C26.6844 22.8526 26.2908 22.8238 25.9036 22.8754C25.5165 22.9271 25.1442 23.058 24.8099 23.26C23.929 23.8538 22.866 24.116 21.8099 24C21.4174 23.8966 21.0357 23.756 20.6699 23.58L21.1199 22.68C21.416 22.8308 21.7279 22.9482 22.0499 23.03C22.8095 23.075 23.5644 22.8828 24.2099 22.48C24.6809 22.1654 25.2158 21.9592 25.776 21.8762C26.3363 21.7932 26.908 21.8355 27.4499 22C27.8399 22.13 37.4499 25.49 38.1599 25.93C39.1599 26.53 38.6499 27.54 38.3999 28.03V28.13C38.0295 28.6734 37.5001 29.089 36.8843 29.32C36.2685 29.5509 35.5963 29.5858 34.9599 29.42L30.1499 28C29.4097 29.669 28.1691 31.0667 26.5999 32C25.858 32.3302 25.0518 32.4908 24.2399 32.47Z" fill="#0F4881"/>
<path d="M32.6298 41.062L25.7761 44.5496L26.2296 45.4408L33.0833 41.9532L32.6298 41.062Z" fill="#0F4881"/>
<path d="M30.694 38.0723L22.2874 42.3446L22.7404 43.2361L31.1471 38.9638L30.694 38.0723Z" fill="#0F4881"/>
<path d="M28.4927 35.4911L19.8245 39.7545L20.2658 40.6519L28.9341 36.3884L28.4927 35.4911Z" fill="#0F4881"/>
<path d="M44.7961 20.5584L39.7195 23.1284L46.264 36.0562L51.3406 33.4863L44.7961 20.5584Z" fill="#E1ECF9"/>
<path d="M20.9378 23.001L15.593 21.0493L10.6229 34.6602L15.9677 36.6119L20.9378 23.001Z" fill="#E1ECF9"/>
<path d="M16.27 37.25L10 35L15.29 20.4L21.58 22.7L16.27 37.25ZM11.27 34.35L15.67 36L20.3 23.29L15.89 21.68L11.27 34.35Z" fill="#0F4881"/>
<path d="M46.05 36.73L39.05 22.91L45.05 19.91L52 33.7L46.05 36.73ZM40.39 23.35L46.4901 35.35L50.67 33.23L44.5801 21.23L40.39 23.35Z" fill="#0F4881"/>
</g>
<defs>
<clipPath id="clip0_1:270">
<rect width="62" height="62" fill="white"/>
</clipPath>
</defs>
</svg>
