<svg width="15" height="12" viewBox="0 0 15 12" fill="none" xmlns="http://www.w3.org/2000/svg">
<path fill-rule="evenodd" clip-rule="evenodd" d="M1.5 0H13.5C14.325 0 15 0.651989 15 1.44886V10.142C15 10.9389 14.325 11.5909 13.5 11.5909H1.5C0.675 11.5909 0 10.9389 0 10.142V1.44886C0 0.651989 0.675 0 1.5 0ZM8.295 6.04178L13.2 3.07885C13.3875 2.96294 13.5 2.76734 13.5 2.55726C13.5 2.07189 12.9525 1.78212 12.525 2.03567L7.5 5.07104L2.475 2.03567C2.0475 1.78212 1.5 2.07189 1.5 2.55726C1.5 2.76734 1.6125 2.96294 1.8 3.07885L6.705 6.04178C7.1925 6.33879 7.8075 6.33879 8.295 6.04178Z" fill="white"/>
</svg>
