<svg width="62" height="62" viewBox="0 0 62 62" fill="none" xmlns="http://www.w3.org/2000/svg">
<path d="M31 62C24.8688 62 18.8753 60.1819 13.7773 56.7756C8.67941 53.3693 4.70607 48.5277 2.35975 42.8632C0.0134318 37.1987 -0.600472 30.9656 0.59567 24.9522C1.79181 18.9388 4.74428 13.4151 9.0797 9.0797C13.4151 4.74428 18.9388 1.79181 24.9522 0.59567C30.9656 -0.600472 37.1987 0.0134318 42.8632 2.35975C48.5277 4.70607 53.3693 8.67941 56.7756 13.7773C60.1819 18.8753 62 24.8688 62 31C62 39.2217 58.734 47.1067 52.9203 52.9203C47.1067 58.734 39.2217 62 31 62ZM31 1.00001C25.0666 1.00001 19.2664 2.75948 14.3329 6.05593C9.39943 9.35237 5.55426 14.0377 3.28363 19.5195C1.013 25.0013 0.418899 31.0333 1.57646 36.8527C2.73401 42.6722 5.59124 48.0176 9.78681 52.2132C13.9824 56.4088 19.3279 59.266 25.1473 60.4236C30.9667 61.5811 36.9987 60.987 42.4805 58.7164C47.9623 56.4458 52.6477 52.6006 55.9441 47.6671C59.2405 42.7336 61 36.9335 61 31C61 23.0435 57.8393 15.4129 52.2132 9.78681C46.5871 4.16072 38.9565 1.00001 31 1.00001Z" fill="white"/>
<path d="M23.5398 22.2099C23.513 20.2355 24.269 18.3308 25.6426 16.9123C27.0162 15.4937 28.8955 14.6767 30.8698 14.6399C31.8507 14.6261 32.8248 14.8057 33.7364 15.1683C34.648 15.531 35.4792 16.0697 36.1826 16.7536C36.886 17.4375 37.4478 18.2532 37.8359 19.1542C38.2241 20.0553 38.431 21.0239 38.4447 22.0049C38.4585 22.9859 38.279 23.96 37.9163 24.8715C37.5536 25.7831 37.015 26.6143 36.3311 27.3177C35.6472 28.0211 34.8314 28.583 33.9304 28.9711C33.0294 29.3592 32.0607 29.5661 31.0797 29.5799C29.1068 29.5881 27.2099 28.8196 25.799 27.4405C24.3881 26.0614 23.5765 24.1825 23.5398 22.2099Z" fill="white" fill-opacity="0.5"/>
<path d="M43.73 43.9398C43.73 42.4698 43.73 40.9998 43.73 39.5398C43.7305 38.4905 43.5513 37.4487 43.2 36.4598C42.05 33.3398 39.7 32.3298 37.2 31.5998C36.7604 31.437 36.286 31.3911 35.8233 31.4664C35.3606 31.5418 34.9253 31.7359 34.56 32.0298C33.42 32.9198 32.24 33.7699 31.05 34.6499C29.83 33.7299 28.63 32.8598 27.46 31.9598C27.1194 31.6864 26.7133 31.5066 26.2818 31.4382C25.8504 31.3698 25.4086 31.4152 25 31.5698L23.72 31.9998C22.1315 32.5229 20.7491 33.5347 19.7702 34.8907C18.7914 36.2467 18.2663 37.8775 18.27 39.5498C18.27 41.0298 18.27 42.5498 18.27 43.9798C18.2727 44.8878 18.6352 45.7577 19.2782 46.3988C19.9212 47.0399 20.7921 47.3999 21.7 47.3998H40.3C40.753 47.3999 41.2015 47.3102 41.6196 47.1359C42.0377 46.9617 42.4172 46.7063 42.7361 46.3846C43.055 46.063 43.307 45.6813 43.4776 45.2617C43.6482 44.8421 43.734 44.3928 43.73 43.9398Z" fill="white" fill-opacity="0.5"/>
<path d="M30.8701 30.0799C28.7967 30.0465 26.8172 29.2094 25.3491 27.745C23.8809 26.2805 23.0387 24.3032 23.0001 22.2299C22.9651 21.2116 23.1347 20.1967 23.4989 19.2451C23.863 18.2935 24.4143 17.4247 25.1201 16.6899C25.8528 15.9071 26.7344 15.2783 27.7131 14.8404C28.6919 14.4026 29.7481 14.1644 30.8201 14.1399C31.9225 14.0288 33.036 14.148 34.09 14.4899C35.144 14.8318 36.1155 15.3889 36.9428 16.1259C37.7702 16.8629 38.4355 17.7637 38.8965 18.7713C39.3575 19.7789 39.6041 20.8713 39.6208 21.9792C39.6375 23.0871 39.4238 24.1864 38.9934 25.2074C38.5629 26.2284 37.9251 27.1489 37.1203 27.9104C36.3155 28.672 35.3612 29.2581 34.318 29.6315C33.2748 30.005 32.1654 30.1577 31.0601 30.0799H30.8701ZM31.0701 15.1399H30.8801C29.9389 15.1578 29.011 15.3655 28.1518 15.7504C27.2927 16.1353 26.5201 16.6895 25.8801 17.3799C25.259 18.0137 24.7723 18.7665 24.4493 19.593C24.1262 20.4196 23.9734 21.3028 24.0001 22.1899C24.028 23.9982 24.7547 25.7256 26.0279 27.01C27.3011 28.2944 29.0221 29.0362 30.8301 29.0799H31.0301C31.9578 29.091 32.8782 28.9146 33.7362 28.5614C34.5941 28.2081 35.3718 27.6852 36.0227 27.024C36.6736 26.3629 37.1842 25.5771 37.524 24.7137C37.8638 23.8504 38.0257 22.9273 38.0001 21.9999C37.9976 21.0673 37.8088 20.1445 37.4448 19.2859C37.0807 18.4273 36.5487 17.65 35.8801 16.9999C34.5786 15.7797 32.8539 15.1128 31.0701 15.1399Z" fill="white"/>
<path d="M40.3001 47.8602H21.7001C20.6595 47.8602 19.6614 47.4475 18.9247 46.7127C18.188 45.9778 17.7727 44.9808 17.7701 43.9402C17.7701 42.4602 17.7701 40.9902 17.7701 39.5102C17.7628 37.7338 18.3209 36.0012 19.3636 34.563C20.4063 33.1248 21.8795 32.0556 23.5701 31.5102L24.8401 31.1102C25.3205 30.937 25.8371 30.8892 26.3411 30.9714C26.8451 31.0537 27.3197 31.2632 27.7201 31.5802C28.5501 32.2202 29.3901 32.8402 30.2501 33.4802L31.0001 34.0002L31.7901 33.4302C32.6001 32.8302 33.4101 32.2302 34.2101 31.6102C34.6372 31.2693 35.1445 31.0434 35.6837 30.9541C36.2228 30.8648 36.7759 30.9151 37.2901 31.1002C39.7001 31.8002 42.3801 32.8302 43.6501 36.2702C44.0231 37.3096 44.2125 38.4059 44.2101 39.5102C44.2101 40.9802 44.2101 42.4502 44.2101 43.9202C44.2127 44.9608 43.8026 45.9599 43.0696 46.6985C42.3366 47.4372 41.3407 47.8549 40.3001 47.8602ZM25.8901 31.9202C25.6355 31.9225 25.3827 31.963 25.1401 32.0402L23.8801 32.4402C22.3875 32.9227 21.0875 33.8681 20.1687 35.1394C19.2498 36.4107 18.7599 37.9417 18.7701 39.5102C18.7701 40.9902 18.7701 42.5102 18.7701 43.9402C18.7727 44.7156 19.0826 45.4582 19.6318 46.0056C20.181 46.5529 20.9247 46.8602 21.7001 46.8602H40.3001C41.0754 46.8602 41.8192 46.5529 42.3684 46.0056C42.9176 45.4582 43.2274 44.7156 43.2301 43.9402C43.2301 42.4702 43.2301 41.0102 43.2301 39.5402C43.2322 38.5487 43.0631 37.5642 42.7301 36.6302C41.6201 33.6302 39.3101 32.7402 37.0301 32.0802C36.6673 31.9401 36.274 31.8977 35.8896 31.9574C35.5053 32.017 35.1434 32.1767 34.8401 32.4202C34.0401 33.0502 33.2201 33.6502 32.4001 34.2502L31.0201 35.2502L29.6601 34.2502C28.8001 33.6102 27.9601 32.9902 27.1201 32.3502C26.7732 32.0671 26.3378 31.9149 25.8901 31.9202Z" fill="white"/>
</svg>
