<svg width="46" height="46" viewBox="0 0 46 46" fill="none" xmlns="http://www.w3.org/2000/svg">
<circle cx="23" cy="23" r="23" fill="#FF8515"/>
<path d="M14.9074 10H30.591C30.8221 10.0575 31.0487 10.132 31.2688 10.2229C31.6592 10.4061 31.9856 10.7023 32.2058 11.0732C32.426 11.444 32.5298 11.8724 32.5038 12.3029V33.8086C32.512 34.2201 32.4005 34.6252 32.1829 34.9746C31.9653 35.3241 31.651 35.6029 31.2781 35.7771C31.0574 35.8667 30.831 35.9411 30.6002 36H14.9074C14.6771 35.9397 14.4507 35.8653 14.2295 35.7771C13.8417 35.5915 13.5179 35.2945 13.2996 34.924C13.0813 34.5535 12.9783 34.1264 13.0038 33.6971V12.1914C12.998 11.7803 13.1104 11.3762 13.3277 11.0272C13.545 10.6782 13.8581 10.399 14.2295 10.2229C14.4507 10.1347 14.6771 10.0603 14.9074 10V10ZM24.936 11.0957C24.936 11.17 24.936 11.235 24.936 11.3C24.936 13.1571 24.936 15.0143 24.936 16.8714C24.9132 16.9876 24.9268 17.1079 24.9749 17.2161C25.0229 17.3243 25.1032 17.415 25.2047 17.4759C25.3062 17.5368 25.424 17.5649 25.5421 17.5565C25.6602 17.548 25.7728 17.5033 25.8645 17.4286C26.4031 17.1407 26.9602 16.8807 27.4988 16.6021C27.5485 16.5745 27.6044 16.56 27.6613 16.56C27.7182 16.56 27.7741 16.5745 27.8238 16.6021L29.4117 17.4286C29.9595 17.7071 30.3402 17.475 30.3402 16.8621V11.2907C30.3402 11.2164 30.3402 11.1514 30.3402 11.0679L24.936 11.0957ZM22.7724 20.8271H18.1295H17.7952C17.6628 20.8562 17.5465 20.9351 17.4705 21.0474C17.3945 21.1597 17.3645 21.2969 17.3867 21.4307C17.4424 21.7464 17.6652 21.895 18.0831 21.895H27.4524C27.5481 21.9046 27.6445 21.9046 27.7402 21.895C27.8731 21.8702 27.9908 21.7937 28.0674 21.6823C28.1439 21.5709 28.1732 21.4337 28.1488 21.3007C28.1488 20.9943 27.8795 20.8364 27.4802 20.8364L22.7724 20.8271ZM22.7724 25.1729H18.0645C17.9688 25.1639 17.8724 25.1639 17.7767 25.1729C17.6415 25.1956 17.5208 25.2708 17.4409 25.3821C17.3609 25.4934 17.328 25.6318 17.3495 25.7671C17.4052 26.0829 17.6281 26.2314 18.0274 26.2314H27.471C27.5788 26.2456 27.6881 26.2456 27.796 26.2314C27.8729 26.2049 27.9428 26.1612 28.0005 26.1038C28.0582 26.0463 28.1021 25.9765 28.1289 25.8997C28.1557 25.8228 28.1647 25.7409 28.1553 25.66C28.1459 25.5792 28.1183 25.5015 28.0745 25.4329C28.0067 25.3424 27.9156 25.2722 27.8109 25.2296C27.7062 25.1871 27.5919 25.1739 27.4802 25.1914L22.7724 25.1729ZM22.7724 30.5864H27.4802C27.5822 30.5957 27.6847 30.5957 27.7867 30.5864C27.9196 30.5616 28.0372 30.4851 28.1138 30.3737C28.1904 30.2623 28.2197 30.1251 28.1952 29.9921C28.1952 29.6764 27.926 29.5279 27.5267 29.5279H18.0274C17.9257 29.5142 17.8226 29.5142 17.721 29.5279C17.5947 29.5628 17.4867 29.645 17.4193 29.7573C17.3519 29.8696 17.3302 30.0036 17.3588 30.1314C17.4145 30.4286 17.6188 30.5679 18.0088 30.5679L22.7724 30.5864ZM19.5038 16.5H22.1317C22.2745 16.5 22.4115 16.4433 22.5125 16.3423C22.6135 16.2413 22.6702 16.1043 22.6702 15.9614C22.6702 15.8186 22.6135 15.6816 22.5125 15.5806C22.4115 15.4796 22.2745 15.4229 22.1317 15.4229H16.8481C16.7724 15.4164 16.6961 15.4258 16.6242 15.4504C16.5522 15.4751 16.4862 15.5144 16.4303 15.5659C16.3744 15.6175 16.3299 15.6801 16.2995 15.7498C16.2691 15.8194 16.2535 15.8947 16.2538 15.9707C16.2574 16.0447 16.2756 16.1173 16.3075 16.1842C16.3395 16.2511 16.3844 16.3109 16.4398 16.3602C16.4951 16.4095 16.5597 16.4472 16.6299 16.4712C16.7 16.4952 16.7742 16.505 16.8481 16.5H19.5038Z" fill="white"/>
</svg>
