<svg width="159" height="98" viewBox="0 0 159 98" fill="none" xmlns="http://www.w3.org/2000/svg">
<g clip-path="url(#clip0_1:546)">
<path d="M123.42 55.48V54.48H143.43V81.48H140.39V55.98L123.42 55.48Z" fill="#E1ECF9"/>
<path d="M28.21 97.42C22.6306 97.42 17.1765 95.7655 12.5374 92.6658C7.89827 89.566 4.28252 85.1602 2.14737 80.0055C0.012223 74.8508 -0.546429 69.1787 0.54206 63.7065C1.63055 58.2343 4.31729 53.2078 8.26253 49.2625C12.2078 45.3173 17.2343 42.6305 22.7065 41.5421C28.1787 40.4536 33.8508 41.0122 39.0055 43.1474C44.1602 45.2825 48.566 48.8983 51.6658 53.5374C54.7655 58.1765 56.42 63.6306 56.42 69.21C56.4121 76.6893 53.4374 83.86 48.1487 89.1487C42.86 94.4374 35.6893 97.4121 28.21 97.42ZM28.21 42C22.8284 42 17.5676 43.5959 13.0929 46.5857C8.61828 49.5756 5.13071 53.8252 3.07125 58.7972C1.01179 63.7692 0.472941 69.2402 1.52285 74.5184C2.57275 79.7966 5.16425 84.645 8.96964 88.4504C12.775 92.2558 17.6234 94.8473 22.9016 95.8972C28.1798 96.9471 33.6509 96.4082 38.6228 94.3488C43.5948 92.2893 47.8444 88.8017 50.8343 84.3271C53.8242 79.8524 55.42 74.5916 55.42 69.21C55.4094 61.9967 52.5393 55.0819 47.4387 49.9813C42.3381 44.8808 35.4233 42.0106 28.21 42Z" fill="#0F4881"/>
<path d="M130.21 97.42C124.631 97.42 119.176 95.7655 114.537 92.6658C109.898 89.566 106.283 85.1602 104.147 80.0055C102.012 74.8508 101.454 69.1787 102.542 63.7065C103.631 58.2343 106.317 53.2078 110.263 49.2625C114.208 45.3173 119.234 42.6305 124.707 41.5421C130.179 40.4536 135.851 41.0122 141.006 43.1474C146.16 45.2825 150.566 48.8983 153.666 53.5374C156.766 58.1765 158.42 63.6306 158.42 69.21C158.412 76.6893 155.437 83.86 150.149 89.1487C144.86 94.4374 137.689 97.4121 130.21 97.42ZM130.21 42C124.828 42 119.568 43.5959 115.093 46.5857C110.618 49.5756 107.131 53.8252 105.071 58.7972C103.012 63.7692 102.473 69.2402 103.523 74.5184C104.573 79.7966 107.164 84.645 110.97 88.4504C114.775 92.2558 119.623 94.8473 124.902 95.8972C130.18 96.9471 135.651 96.4082 140.623 94.3488C145.595 92.2893 149.844 88.8017 152.834 84.3271C155.824 79.8524 157.42 74.5916 157.42 69.21C157.409 61.9967 154.539 55.0819 149.439 49.9813C144.338 44.8808 137.423 42.0106 130.21 42Z" fill="#0F4881"/>
<path d="M28.62 82.47C25.8906 82.47 23.2225 81.6606 20.9531 80.1443C18.6837 78.6279 16.9149 76.4727 15.8704 73.951C14.8259 71.4294 14.5526 68.6547 15.0851 65.9778C15.6176 63.3008 16.9319 60.8419 18.8619 58.9119C20.7918 56.982 23.2508 55.6676 25.9277 55.1352C28.6046 54.6027 31.3794 54.876 33.901 55.9205C36.4226 56.965 38.5779 58.7337 40.0942 61.0031C41.6106 63.2725 42.42 65.9406 42.42 68.67C42.4173 72.3292 40.9625 75.8377 38.3751 78.4251C35.7877 81.0126 32.2791 82.4674 28.62 82.47ZM28.62 55.87C26.0884 55.87 23.6136 56.6207 21.5087 58.0272C19.4037 59.4337 17.7631 61.4328 16.7943 63.7717C15.8255 66.1105 15.572 68.6842 16.0659 71.1672C16.5598 73.6501 17.7789 75.9309 19.569 77.721C21.3591 79.5111 23.6398 80.7302 26.1228 81.2241C28.6058 81.7179 31.1794 81.4645 33.5183 80.4957C35.8572 79.5269 37.8563 77.8862 39.2628 75.7813C40.6692 73.6763 41.42 71.2016 41.42 68.67C41.4173 65.276 40.0679 62.0219 37.668 59.622C35.2681 57.2221 32.0139 55.8726 28.62 55.87Z" fill="#0F4881"/>
<path d="M38.7755 77.2203L38.1235 77.9785L44.925 83.8266L45.577 83.0684L38.7755 77.2203Z" fill="#0F4881"/>
<path d="M22 74.22H19.36V66.63H22V74.22ZM20.35 73.22H21V67.63H20.35V73.22Z" fill="#0F4881"/>
<path d="M27.0001 74.1699H24.3101V62.3199H27.0001V74.1699ZM25.3501 73.1699H26.0001V63.3199H25.3501V73.1699Z" fill="#0F4881"/>
<path d="M31.9 74.22H29.25V66.63H31.9V74.22ZM30.25 73.22H30.9V67.63H30.25V73.22Z" fill="#0F4881"/>
<path d="M36.8499 74.19H34.2V64.59H36.8499V74.19ZM35.2 73.19H35.8499V65.59H35.2V73.19Z" fill="#0F4881"/>
<path d="M79.21 56.42C73.6306 56.42 68.1765 54.7655 63.5374 51.6658C58.8983 48.566 55.2825 44.1602 53.1474 39.0055C51.0122 33.8508 50.4536 28.1787 51.5421 22.7065C52.6305 17.2343 55.3173 12.2078 59.2625 8.26253C63.2078 4.31729 68.2343 1.63055 73.7065 0.54206C79.1787 -0.546429 84.8508 0.012223 90.0055 2.14737C95.1602 4.28252 99.566 7.89827 102.666 12.5374C105.766 17.1765 107.42 22.6306 107.42 28.21C107.412 35.6893 104.437 42.86 99.1487 48.1487C93.86 53.4374 86.6893 56.4121 79.21 56.42ZM79.21 1.00001C73.8284 1.00001 68.5676 2.59585 64.0929 5.58572C59.6183 8.5756 56.1307 12.8252 54.0713 17.7972C52.0118 22.7692 51.4729 28.2402 52.5228 33.5184C53.5727 38.7966 56.1643 43.645 59.9696 47.4504C63.775 51.2558 68.6234 53.8473 73.9016 54.8972C79.1798 55.9471 84.6509 55.4082 89.6228 53.3488C94.5948 51.2893 98.8444 47.8017 101.834 43.3271C104.824 38.8524 106.42 33.5916 106.42 28.21C106.409 20.9967 103.539 14.0819 98.4387 8.98132C93.3381 3.88075 86.4233 1.01059 79.21 1.00001Z" fill="#0F4881"/>
<path d="M95.27 26.84V29.59C95.27 29.88 95.06 29.96 94.82 30C93.99 30.16 93.16 30.33 92.33 30.47C92.2161 30.4763 92.1074 30.5198 92.0207 30.5939C91.934 30.668 91.874 30.7685 91.85 30.88C91.73 31.37 91.6 31.88 91.47 32.33C91.4483 32.3803 91.4444 32.4364 91.4589 32.4891C91.4735 32.5419 91.5056 32.5881 91.55 32.62L92.55 33.49L93.75 34.56C93.7831 34.5822 93.8114 34.6106 93.8334 34.6438C93.8554 34.677 93.8705 34.7142 93.878 34.7533C93.8854 34.7924 93.885 34.8326 93.8768 34.8715C93.8685 34.9104 93.8527 34.9473 93.83 34.98C93.36 35.79 92.91 36.61 92.44 37.42C92.29 37.67 92.21 37.69 91.93 37.59C91.05 37.28 90.17 36.97 89.29 36.59C89.2379 36.5658 89.1792 36.5595 89.1231 36.5722C89.067 36.5848 89.0167 36.6157 88.98 36.66C88.6 37.06 88.21 37.46 87.81 37.84C87.7433 37.8916 87.6975 37.9656 87.681 38.0482C87.6644 38.1309 87.6783 38.2168 87.72 38.29C88.04 39.14 88.34 40 88.64 40.86C88.73 41.11 88.7 41.17 88.5 41.32L88.32 41.45C87.63 41.84 86.95 42.25 86.25 42.62C85.75 42.88 85.81 42.9 85.42 42.47C84.82 41.81 84.25 41.14 83.68 40.47C83.6519 40.4295 83.611 40.3996 83.5639 40.385C83.5167 40.3705 83.4661 40.3723 83.42 40.39C82.9 40.54 82.42 40.68 81.87 40.8C81.7865 40.813 81.7096 40.8535 81.6516 40.9151C81.5937 40.9767 81.5579 41.0558 81.55 41.14C81.47 41.62 81.38 42.14 81.28 42.57C81.18 43 81.09 43.49 81 43.95C80.9925 44.0208 80.9583 44.0859 80.9044 44.1324C80.8506 44.1788 80.7811 44.203 80.71 44.2C80.6736 44.1942 80.6365 44.1942 80.6 44.2H77.93H77.79C77.56 44.2 77.51 44.15 77.46 43.92C77.41 43.69 77.33 43.39 77.28 43.12C77.16 42.47 77.03 41.81 76.92 41.12C76.9152 41.0261 76.8757 40.9373 76.8092 40.8708C76.7427 40.8043 76.6539 40.7649 76.56 40.76L76.26 40.69L75 40.46C74.9589 40.4573 74.9177 40.4639 74.8796 40.4795C74.8415 40.4951 74.8074 40.5193 74.78 40.55C74.6 40.73 74.45 40.93 74.28 41.11L72.85 42.73C72.8114 42.7869 72.7519 42.8262 72.6845 42.8393C72.617 42.8524 72.5471 42.8383 72.49 42.8C71.66 42.33 70.82 41.87 70 41.39C69.76 41.25 69.75 41.17 69.84 40.91C70.15 40.01 70.48 39.11 70.84 38.21C70.8632 38.1684 70.8698 38.1197 70.8587 38.0734C70.8476 38.0271 70.8195 37.9866 70.78 37.96C70.35 37.54 69.92 37.12 69.5 36.69C69.4645 36.6616 69.4205 36.6462 69.375 36.6462C69.3296 36.6462 69.2855 36.6616 69.25 36.69L66.62 37.63C66.29 37.75 66.23 37.73 66.05 37.44C65.75 36.94 65.46 36.44 65.17 35.94C64.99 35.62 64.84 35.29 64.67 34.94C64.6334 34.8967 64.6133 34.8418 64.6133 34.785C64.6133 34.7283 64.6334 34.6734 64.67 34.63L65.43 33.93C65.91 33.5 66.43 33.08 66.89 32.64C66.9182 32.6149 66.9407 32.584 66.9562 32.5496C66.9717 32.5151 66.9798 32.4778 66.98 32.44C66.84 31.88 66.68 31.32 66.53 30.76C66.5132 30.6945 66.4761 30.636 66.424 30.5929C66.3719 30.5498 66.3075 30.5243 66.24 30.52L63.64 30C63.36 29.95 63.15 29.85 63.17 29.52C63.17 29.52 63.17 29.52 63.17 29.47V26.84C63.17 26.55 63.38 26.46 63.63 26.42L63.85 26.37L66.24 25.92C66.3272 25.9147 66.4101 25.8803 66.4753 25.8223C66.5406 25.7642 66.5845 25.686 66.6 25.6C66.73 25.07 66.87 24.54 67.02 24.02C67.0363 23.9836 67.0392 23.9425 67.0282 23.9041C67.0172 23.8657 66.9931 23.8324 66.96 23.81L66.11 23.09L64.7 21.84C64.647 21.8003 64.6119 21.741 64.6025 21.6754C64.5932 21.6098 64.6102 21.5431 64.65 21.49C65.12 20.65 65.58 19.81 66.06 18.98C66.19 18.75 66.27 18.74 66.53 18.83L69.24 19.83C69.2795 19.8514 69.3252 19.8581 69.3692 19.8489C69.4131 19.8398 69.4524 19.8154 69.48 19.78C69.9 19.35 70.32 18.92 70.75 18.5C70.78 18.4614 70.7963 18.4139 70.7963 18.365C70.7963 18.3162 70.78 18.2686 70.75 18.23C70.43 17.35 70.12 16.48 69.81 15.6C69.7 15.29 69.72 15.22 70 15.04C70.46 14.76 70.93 14.49 71.4 14.22C71.87 13.95 72.11 13.85 72.47 13.66C72.5192 13.6245 72.5804 13.6098 72.6403 13.6192C72.7002 13.6285 72.7541 13.6612 72.79 13.71C72.96 13.89 73.13 14.05 73.29 14.23C73.79 14.81 74.29 15.4 74.78 15.97C74.8089 15.9975 74.8457 16.0151 74.8852 16.0205C74.9247 16.0259 74.9648 16.0187 75 16L76.67 15.56C76.7296 15.5514 76.7847 15.5231 76.8263 15.4796C76.868 15.4361 76.8939 15.38 76.9 15.32C76.9 15.17 76.97 15.03 76.99 14.89C77.14 14.13 77.27 13.36 77.43 12.61C77.5 12.26 77.49 12.2 77.88 12.17H77.94H80.6C80.88 12.17 80.98 12.36 81.01 12.61C81.0043 12.6833 81.0043 12.7568 81.01 12.83C81.16 13.64 81.32 14.45 81.47 15.26C81.4757 15.3434 81.5095 15.4224 81.5657 15.4841C81.622 15.5458 81.6976 15.5867 81.78 15.6C82.32 15.73 82.85 15.88 83.38 16.02C83.4156 16.0346 83.4542 16.0403 83.4925 16.0369C83.5307 16.0334 83.5676 16.0208 83.6 16C83.72 15.87 83.84 15.73 83.95 15.59C84.47 15 84.95 14.41 85.49 13.83C85.72 13.57 85.76 13.57 86.05 13.73L88.38 15C88.4347 15.0338 88.4851 15.0741 88.53 15.12C88.5787 15.1509 88.6153 15.1976 88.6335 15.2522C88.6517 15.3069 88.6505 15.3662 88.63 15.42C88.6055 15.4819 88.5854 15.5454 88.57 15.61C88.26 16.47 87.96 17.33 87.64 18.19C87.6173 18.2392 87.6118 18.2946 87.6245 18.3472C87.6372 18.3999 87.6673 18.4467 87.71 18.48C88.13 18.89 88.54 19.31 88.95 19.74C88.9832 19.7802 89.0296 19.8072 89.0809 19.8164C89.1321 19.8255 89.185 19.8162 89.23 19.79C90.1 19.47 90.98 19.16 91.85 18.86C92.18 18.74 92.25 18.76 92.44 19.07C92.75 19.58 93.05 20.07 93.35 20.62C93.51 20.91 93.65 21.21 93.8 21.51C93.8394 21.554 93.8611 21.611 93.8611 21.67C93.8611 21.7291 93.8394 21.786 93.8 21.83L93.04 22.53L91.57 23.8C91.51 23.85 91.44 23.94 91.45 23.99L91.9 25.68C91.9187 25.7464 91.9577 25.8052 92.0115 25.8482C92.0653 25.8912 92.1312 25.9164 92.2 25.92L94.82 26.42C95.06 26.47 95.26 26.55 95.27 26.84ZM79.2 35.77C80.6957 35.774 82.1589 35.3342 83.4045 34.5064C84.6502 33.6785 85.6223 32.4998 86.1978 31.1193C86.7734 29.7388 86.9265 28.2187 86.6379 26.7511C86.3493 25.2836 85.6318 23.9347 84.5763 22.875C83.5209 21.8153 82.1748 21.0925 80.7084 20.798C79.242 20.5036 77.7212 20.6507 76.3385 21.2208C74.9558 21.7908 73.7732 22.7582 72.9404 24.0006C72.1076 25.2429 71.662 26.7044 71.66 28.2C71.6756 30.1977 72.474 32.1096 73.8839 33.5251C75.2937 34.9405 77.2024 35.7465 79.2 35.77Z" fill="#E1ECF9"/>
<path d="M80.56 44.77H77.83C77.37 44.71 77.09 44.58 76.97 44.09C76.9 43.82 76.84 43.54 76.79 43.26L76.43 41.33L76.14 41.27L75.75 41.17L75 41C74.93 41.07 74.87 41.15 74.81 41.22L73.18 43.07C73.0622 43.2146 72.8959 43.3116 72.712 43.3429C72.5281 43.3742 72.339 43.3376 72.18 43.24L71.41 42.81L69.69 41.81C69.5914 41.7673 69.5026 41.7046 69.4293 41.626C69.356 41.5474 69.2997 41.4544 69.264 41.353C69.2284 41.2516 69.214 41.1439 69.2219 41.0367C69.2299 40.9295 69.2599 40.825 69.31 40.73L70.21 38.19L69.21 37.19L66.72 38.07C66.6187 38.1253 66.5069 38.1589 66.3918 38.1686C66.2767 38.1782 66.1609 38.1638 66.0517 38.1261C65.9425 38.0885 65.8424 38.0285 65.7577 37.9499C65.6731 37.8714 65.6057 37.776 65.56 37.67C65.26 37.17 64.96 36.67 64.68 36.16C64.56 35.95 64.45 35.73 64.34 35.51L64.16 35.17C64.0813 35.0222 64.0543 34.8523 64.0833 34.6874C64.1123 34.5225 64.1956 34.372 64.32 34.26L64.56 34.04L65.09 33.55L65.78 32.94L66.43 32.37C66.34 32.02 66.25 31.66 66.15 31.31L66.08 31L64.9 30.78L63.55 30.53C63.3207 30.5226 63.1026 30.4289 62.9394 30.2676C62.7762 30.1062 62.68 29.8892 62.67 29.66V26.86C62.67 26.622 62.7631 26.3936 62.9295 26.2235C63.0958 26.0534 63.3222 25.9552 63.56 25.95L64.19 25.82L66.13 25.45C66.24 24.99 66.36 24.54 66.49 24.09C66.25 23.89 66.01 23.69 65.78 23.48L64.78 22.63L64.33 22.23C64.1832 22.1134 64.0854 21.9461 64.0558 21.761C64.0262 21.576 64.0669 21.3865 64.17 21.23L64.56 20.53C64.9 19.93 65.24 19.32 65.56 18.72C65.604 18.6248 65.6665 18.5394 65.7439 18.4687C65.8212 18.398 65.9118 18.3433 66.0105 18.308C66.1091 18.2726 66.2138 18.2572 66.3185 18.2627C66.4231 18.2682 66.5256 18.2945 66.62 18.34L69.18 19.25C69.52 18.9 69.86 18.55 70.18 18.25C69.88 17.41 69.58 16.58 69.29 15.75C69.2365 15.6498 69.2044 15.5396 69.1957 15.4263C69.187 15.3131 69.2019 15.1992 69.2395 15.0921C69.2772 14.9849 69.3366 14.8867 69.4142 14.8037C69.4917 14.7207 69.5857 14.6547 69.69 14.61C70.16 14.32 70.63 14.04 71.1 13.78L71.8 13.41L72.19 13.21C72.3373 13.1257 72.5091 13.0946 72.6766 13.1219C72.8441 13.1492 72.9971 13.2333 73.11 13.36L73.27 13.53C73.39 13.65 73.51 13.77 73.62 13.9L74.99 15.5L75.99 15.22L76.31 15.14V15L76.48 14.1C76.57 13.58 76.67 13.1 76.78 12.53C76.89 11.96 77.04 11.76 77.62 11.71H77.78H80.44C80.6746 11.7124 80.8991 11.8053 81.0667 11.9693C81.2344 12.1332 81.3323 12.3556 81.34 12.59L81.39 12.78L81.49 13.33C81.61 13.94 81.73 14.55 81.84 15.16L82.67 15.38L83.21 15.52L83.31 15.41L83.86 14.77L84.97 13.5C85.031 13.4052 85.111 13.3243 85.205 13.2622C85.299 13.2002 85.4049 13.1584 85.5159 13.1396C85.627 13.1207 85.7407 13.1253 85.8499 13.1529C85.9591 13.1805 86.0613 13.2306 86.15 13.3L87.95 14.3L88.47 14.61C88.5477 14.6483 88.6186 14.6989 88.68 14.76C88.813 14.8563 88.9112 14.9932 88.9598 15.15C89.0085 15.3069 89.0051 15.4752 88.95 15.63L88.77 16.15L88.02 18.26L89.02 19.31L91.5 18.42C91.6045 18.3636 91.7196 18.33 91.838 18.3214C91.9563 18.3128 92.0751 18.3293 92.1866 18.3699C92.2981 18.4106 92.3997 18.4743 92.4848 18.5571C92.5698 18.6398 92.6364 18.7396 92.68 18.85C93 19.36 93.3 19.85 93.6 20.41C93.71 20.6 93.8 20.79 93.9 20.99L94.07 21.32C94.1532 21.4683 94.1826 21.6408 94.1535 21.8084C94.1243 21.9759 94.0384 22.1284 93.91 22.24L93.63 22.5L93.15 22.94L92 24.09C92.12 24.54 92.24 24.99 92.37 25.44L94.92 25.93C95.61 26.06 95.77 26.48 95.78 26.82V29.59C95.7803 29.8219 95.691 30.0449 95.5307 30.2126C95.3705 30.3803 95.1517 30.4797 94.92 30.49L93.92 30.68C93.41 30.78 92.92 30.88 92.39 30.96C92.22 31.44 92.09 31.89 91.96 32.33L93.06 33.33L94.06 34.19C94.2012 34.31 94.2964 34.4753 94.3292 34.6577C94.362 34.8401 94.3305 35.0282 94.24 35.19L93.81 35.95C93.5 36.51 93.18 37.08 92.81 37.64C92.7662 37.7402 92.7022 37.8303 92.6222 37.9048C92.5421 37.9793 92.4476 38.0366 92.3445 38.0732C92.2414 38.1097 92.1319 38.1248 92.0228 38.1173C91.9137 38.1099 91.8072 38.0802 91.71 38.03C90.86 37.74 90.02 37.44 89.18 37.13C88.84 37.49 88.5 37.84 88.18 38.13C88.49 39 88.79 39.84 89.08 40.67C89.1602 40.8446 89.174 41.0425 89.1188 41.2266C89.0636 41.4107 88.9431 41.5683 88.78 41.67C88.703 41.7325 88.6191 41.7862 88.53 41.83L87.95 42.17C87.46 42.45 86.95 42.74 86.45 43.01L86.34 43.07C85.74 43.39 85.5 43.29 85.07 42.82C84.64 42.35 84.07 41.68 83.61 41.13L83.36 41L82 41.32C81.92 41.79 81.84 42.25 81.74 42.71C81.74 42.99 81.63 43.28 81.57 43.56L81.46 44.09C81.4312 44.2727 81.3375 44.439 81.1961 44.5584C81.0547 44.6778 80.8751 44.7422 80.69 44.74L80.56 44.77ZM77.92 43.77H80.49L80.58 43.35C80.64 43.07 80.7 42.79 80.75 42.51C80.85 42.04 80.93 41.57 81.02 41.09C81.0426 40.9108 81.1216 40.7434 81.2457 40.6121C81.3697 40.4809 81.5324 40.3925 81.71 40.36L83.24 40C83.379 39.9549 83.5284 39.9538 83.668 39.9967C83.8076 40.0396 83.9305 40.1246 84.02 40.24L84.36 40.64C84.82 41.17 85.27 41.71 85.75 42.23L85.85 42.34L85.97 42.27C86.46 42.01 86.97 41.73 87.43 41.45L88.02 41.11H88.09C87.79 40.23 87.5 39.41 87.2 38.6C87.1247 38.4317 87.1054 38.2437 87.145 38.0637C87.1846 37.8836 87.281 37.7211 87.42 37.6C87.81 37.23 88.19 36.84 88.56 36.45C88.6634 36.3325 88.8014 36.2508 88.9541 36.2167C89.1069 36.1825 89.2665 36.1977 89.41 36.26L92 37.1C92.34 36.53 92.63 36.01 92.92 35.49L93.28 34.85L92.41 34.06L91.22 33C91.1087 32.9031 91.0285 32.7755 90.9893 32.6332C90.9502 32.4909 90.9539 32.3402 91 32.2C91.14 31.72 91.27 31.24 91.39 30.76C91.435 30.5552 91.5431 30.3696 91.6993 30.2297C91.8554 30.0897 92.0516 30.0023 92.26 29.98L93.77 29.7L94.77 29.51V26.92L92.15 26.42C91.9875 26.4024 91.8342 26.3355 91.7109 26.2283C91.5875 26.121 91.5 25.9785 91.46 25.82V25.73C91.31 25.19 91.16 24.66 91.03 24.12C91.0122 23.9924 91.0267 23.8624 91.0721 23.7418C91.1175 23.6213 91.1924 23.514 91.29 23.43L92.72 22.16L93.19 21.73L93.34 21.58L93.24 21.39C93.16 21.22 93.07 21.04 92.97 20.87C92.68 20.35 92.38 19.87 92.07 19.33C91.2 19.63 90.33 19.95 89.46 20.26C89.3235 20.3202 89.1712 20.3353 89.0255 20.3029C88.8798 20.2705 88.7482 20.1924 88.65 20.08L87.42 18.83C87.3084 18.7312 87.2302 18.6003 87.1962 18.4552C87.1622 18.3101 87.174 18.158 87.23 18.02C87.51 17.27 87.77 16.52 88.04 15.77L88.16 15.44L87.65 15.15L85.89 14.15L84.82 15.38L84.27 16.01C84.1883 16.1202 84.0981 16.2239 84 16.32C83.9151 16.4015 83.8113 16.4606 83.6978 16.4921C83.5843 16.5235 83.4648 16.5262 83.35 16.5L82.61 16.31L81.75 16.09C81.5729 16.0526 81.4115 15.9615 81.2881 15.829C81.1646 15.6966 81.085 15.5293 81.06 15.35C80.95 14.72 80.83 14.1 80.71 13.47L80.61 12.93C80.61 12.81 80.61 12.74 80.55 12.67H78H77.91C77.79 13.23 77.7 13.74 77.6 14.25L77.42 15.19C77.42 15.26 77.42 15.33 77.42 15.4C77.395 15.5553 77.3248 15.6998 77.2181 15.8154C77.1113 15.931 76.9729 16.0126 76.82 16.05L76.4 16.16L75.14 16.49C75.018 16.5147 74.8916 16.5064 74.7738 16.466C74.656 16.4255 74.5512 16.3544 74.47 16.26L72.97 14.52C72.88 14.41 72.77 14.31 72.67 14.2L72.61 14.14L72.37 14.27C72.15 14.38 71.92 14.49 71.7 14.62C71.25 14.87 70.8 15.14 70.35 15.41L71.25 18C71.3048 18.135 71.3179 18.2834 71.2876 18.426C71.2573 18.5686 71.185 18.6988 71.08 18.8C70.65 19.21 70.23 19.64 69.82 20.07C69.7253 20.1748 69.6002 20.2475 69.4622 20.278C69.3242 20.3084 69.1801 20.2951 69.05 20.24C68.17 19.93 67.3 19.61 66.42 19.31C66.08 19.9 65.77 20.46 65.42 21.01L65.12 21.56L65.44 21.84C65.75 22.13 66.07 22.41 66.44 22.69C66.81 22.97 67 23.17 67.28 23.41C67.3857 23.4932 67.4635 23.6068 67.5028 23.7355C67.5421 23.8642 67.5411 24.0018 67.5 24.13C67.36 24.65 67.21 25.13 67.09 25.7C67.0488 25.8787 66.9539 26.0406 66.8181 26.1639C66.6822 26.2873 66.512 26.3661 66.33 26.39L64.33 26.76L63.89 26.84L63.65 26.9V29.5H63.71L65.06 29.75L66.31 29.98C66.4734 29.9995 66.6269 30.0684 66.7502 30.1774C66.8734 30.2863 66.9606 30.4302 67 30.59L67.11 31C67.22 31.42 67.34 31.85 67.44 32.27C67.4652 32.3966 67.4572 32.5275 67.4169 32.6502C67.3766 32.7728 67.3054 32.8829 67.21 32.97L66.43 33.65L65.74 34.25L65.24 34.72L65.12 34.82L65.22 35.01C65.32 35.22 65.43 35.42 65.54 35.61C65.81 36.11 66.1 36.61 66.4 37.08L69 36.17C69.1321 36.1168 69.2771 36.1046 69.4162 36.135C69.5553 36.1653 69.6821 36.2367 69.78 36.34C70.2 36.77 70.62 37.18 71.05 37.6C71.1595 37.6958 71.2359 37.8239 71.2682 37.9658C71.3005 38.1076 71.2872 38.2561 71.23 38.39C70.91 39.25 70.6 40.13 70.3 41L71.92 41.93L72.55 42.28L74.05 40.57C74.16 40.45 74.26 40.32 74.38 40.2C74.4732 40.1082 74.5882 40.0418 74.7142 40.0068C74.8401 39.9718 74.9729 39.9694 75.1 40C75.4 40.06 75.69 40.14 75.99 40.21L76.38 40.31L76.63 40.36C76.828 40.3812 77.0129 40.4688 77.1546 40.6087C77.2962 40.7486 77.3863 40.9323 77.41 41.13L77.77 43.13L77.92 43.77ZM79.2 36.27C77.0727 36.2489 75.0395 35.3897 73.5418 33.8788C72.044 32.368 71.2026 30.3274 71.2 28.2C71.2237 26.0717 72.0851 24.0385 73.5976 22.5411C75.11 21.0436 77.1517 20.2025 79.28 20.2C81.3882 20.2434 83.3979 21.1002 84.8888 22.5912C86.3798 24.0821 87.2366 26.0918 87.28 28.2C87.2696 30.3398 86.417 32.3895 84.9067 33.9054C83.3963 35.4213 81.3498 36.2816 79.21 36.3L79.2 36.27ZM79.2 35.27C81.0745 35.2568 82.8682 34.505 84.1918 33.1776C85.5154 31.8503 86.2622 30.0545 86.27 28.18C86.2317 26.3355 85.4819 24.5772 84.1774 23.2726C82.8729 21.9681 81.1145 21.2183 79.27 21.18C77.3976 21.18 75.6019 21.9238 74.2779 23.2478C72.9539 24.5718 72.21 26.3675 72.21 28.24C72.21 30.1124 72.9539 31.9081 74.2779 33.2321C75.6019 34.5561 77.3976 35.3 79.27 35.3L79.2 35.27Z" fill="#0F4881"/>
<path d="M140.42 84.48H118.42V55.48H140.42V84.48ZM119.42 83.48H139.42V56.48H119.42V83.48Z" fill="#0F4881"/>
<path d="M144.43 82.48H139.89V81.48H143.43V54.48H123.42V55.98H122.42V53.48H144.43V82.48Z" fill="#0F4881"/>
<path d="M135.92 62.48H122.92C122.788 62.4774 122.663 62.4239 122.569 62.3307C122.476 62.2375 122.423 62.1118 122.42 61.98C122.42 61.8474 122.473 61.7202 122.566 61.6264C122.66 61.5327 122.787 61.48 122.92 61.48H135.92C136.053 61.48 136.18 61.5327 136.274 61.6264C136.367 61.7202 136.42 61.8474 136.42 61.98C136.42 62.1126 136.367 62.2398 136.274 62.3335C136.18 62.4273 136.053 62.48 135.92 62.48Z" fill="#0F4881"/>
<path d="M135.92 67.48H122.92C122.788 67.4774 122.663 67.4239 122.569 67.3307C122.476 67.2375 122.423 67.1118 122.42 66.98C122.42 66.8474 122.473 66.7202 122.566 66.6264C122.66 66.5327 122.787 66.48 122.92 66.48H135.92C136.053 66.48 136.18 66.5327 136.274 66.6264C136.367 66.7202 136.42 66.8474 136.42 66.98C136.42 67.1126 136.367 67.2398 136.274 67.3335C136.18 67.4273 136.053 67.48 135.92 67.48Z" fill="#0F4881"/>
<path d="M135.92 72.48H122.92C122.788 72.4774 122.663 72.4239 122.569 72.3307C122.476 72.2375 122.423 72.1118 122.42 71.98C122.42 71.8474 122.473 71.7202 122.566 71.6264C122.66 71.5327 122.787 71.48 122.92 71.48H135.92C136.053 71.48 136.18 71.5327 136.274 71.6264C136.367 71.7202 136.42 71.8474 136.42 71.98C136.42 72.1126 136.367 72.2398 136.274 72.3335C136.18 72.4273 136.053 72.48 135.92 72.48Z" fill="#0F4881"/>
<path d="M135.92 77.48H122.92C122.788 77.4774 122.663 77.4239 122.569 77.3307C122.476 77.2375 122.423 77.1118 122.42 76.98C122.42 76.8474 122.473 76.7202 122.566 76.6264C122.66 76.5327 122.787 76.48 122.92 76.48H135.92C136.053 76.48 136.18 76.5327 136.274 76.6264C136.367 76.7202 136.42 76.8474 136.42 76.98C136.42 77.1126 136.367 77.2398 136.274 77.3335C136.18 77.4273 136.053 77.48 135.92 77.48Z" fill="#0F4881"/>
</g>
<defs>
<clipPath id="clip0_1:546">
<rect width="158.42" height="97.42" fill="white"/>
</clipPath>
</defs>
</svg>
