<svg width="20" height="20" viewBox="0 0 20 20" fill="none" xmlns="http://www.w3.org/2000/svg">
<path d="M17.07 2.92738C13.1642 -0.97727 6.83251 -0.976333 2.92787 2.92953C-0.976782 6.83539 -0.975845 13.167 2.93001 17.0717C6.83587 20.9763 13.1675 20.9754 17.0722 17.0695C18.9474 15.1937 20.0006 12.6498 20 9.99738C19.9995 7.34543 18.9455 4.8023 17.07 2.92738ZM15.1447 13.9294C15.1442 13.9298 15.1438 13.9303 15.1433 13.9307V13.9274L14.6367 14.4307C13.9814 15.0943 13.027 15.3673 12.12 15.1507C11.2061 14.9061 10.3374 14.5168 9.54666 13.9974C8.81205 13.5279 8.13126 12.9791 7.51666 12.3607C6.95115 11.7994 6.4431 11.183 5.99998 10.5207C5.51529 9.80816 5.13166 9.03191 4.85998 8.21406C4.54853 7.25328 4.80662 6.19902 5.52666 5.49074L6.11998 4.89742C6.28494 4.73171 6.55298 4.73113 6.71865 4.89609C6.71908 4.89652 6.71955 4.89695 6.71998 4.89742L8.5933 6.77074C8.759 6.9357 8.75959 7.20375 8.59462 7.36941C8.59419 7.36984 8.59377 7.37027 8.5933 7.37074L7.4933 8.47074C7.17767 8.78293 7.13798 9.27902 7.39998 9.63742C7.79783 10.1834 8.2381 10.6972 8.71666 11.1741C9.25021 11.71 9.83025 12.1974 10.45 12.6308C10.8081 12.8805 11.2935 12.8384 11.6033 12.5308L12.6666 11.4508C12.8316 11.2851 13.0996 11.2845 13.2653 11.4494C13.2657 11.4499 13.2661 11.4503 13.2666 11.4508L15.1433 13.3308C15.309 13.4957 15.3096 13.7637 15.1447 13.9294Z" fill="#FF8515"/>
</svg>
