<svg width="20" height="20" viewBox="0 0 20 20" fill="none" xmlns="http://www.w3.org/2000/svg">
<g clip-path="url(#clip0_28_1139)">
<path d="M4.54644 9.9557V1.83222C4.54268 1.59403 4.58616 1.35746 4.67436 1.13616C4.76256 0.91487 4.89374 0.713239 5.06032 0.542917C5.2269 0.372594 5.42558 0.236956 5.64488 0.143834C5.86419 0.0507127 6.09978 0.00195405 6.33804 0.000374171C8.12556 0.000374171 9.90091 0.000374171 11.6844 0.000374171C12.4359 0.000374171 13.1916 0.000374171 13.9472 0.000374171C14.1093 -0.00596299 14.2709 0.0226821 14.4209 0.0843605C14.5709 0.146039 14.7059 0.239303 14.8166 0.357807C16.4254 1.9825 18.0355 3.59095 19.647 5.18315C19.7626 5.29334 19.8538 5.42655 19.9147 5.57417C19.9755 5.7218 20.0048 5.88056 20.0004 6.04018C20.0004 10.0775 20.0004 14.1149 20.0004 18.1523C20.0037 18.395 19.9584 18.6359 19.8671 18.8609C19.7758 19.0858 19.6404 19.2902 19.4689 19.462C19.2975 19.6339 19.0933 19.7697 18.8685 19.8614C18.6437 19.9532 18.4029 19.999 18.1601 19.9963C14.256 19.9963 10.3559 19.9963 6.45179 19.9963C6.19971 20.0019 5.94911 19.9563 5.71516 19.8623C5.48121 19.7682 5.26876 19.6278 5.09066 19.4493C4.91256 19.2709 4.7725 19.0582 4.67896 18.8241C4.58542 18.59 4.54034 18.3393 4.54644 18.0873C4.55457 15.3781 4.54644 12.6689 4.54644 9.9557ZM12.2653 10.0044H9.08433C8.96065 9.99941 8.83725 10.0198 8.72175 10.0643C8.60624 10.1088 8.50109 10.1765 8.41277 10.2632C8.32445 10.3499 8.25484 10.4538 8.20824 10.5684C8.16163 10.6831 8.13902 10.8061 8.1418 10.9298C8.14459 11.0535 8.1727 11.1754 8.22441 11.2878C8.27611 11.4003 8.35032 11.5009 8.44245 11.5836C8.53457 11.6662 8.64266 11.7291 8.76005 11.7684C8.87744 11.8077 9.00163 11.8225 9.12496 11.8119H13.7766C14.3413 11.8119 14.91 11.8119 15.4747 11.8119C15.7043 11.7922 15.9177 11.6858 16.0716 11.5144C16.2254 11.343 16.3082 11.1194 16.303 10.8891C16.2979 10.6588 16.2051 10.4392 16.0437 10.2748C15.8823 10.1105 15.6643 10.0138 15.4341 10.0044H12.2653ZM11.3756 15.435H12.5944C12.9519 15.435 13.3094 15.435 13.6669 15.435C13.9072 15.4317 14.1363 15.3332 14.3039 15.1611C14.4716 14.9889 14.5639 14.7573 14.5607 14.517C14.5574 14.2768 14.4589 14.0477 14.2867 13.8801C14.1145 13.7125 13.8828 13.6202 13.6425 13.6234H9.13308C9.00873 13.6151 8.88401 13.6324 8.76662 13.6743C8.64924 13.7161 8.54171 13.7817 8.45069 13.8668C8.35967 13.9519 8.28711 14.0548 8.2375 14.1691C8.1879 14.2834 8.1623 14.4066 8.1623 14.5312C8.1623 14.6558 8.1879 14.7791 8.2375 14.8934C8.28711 15.0077 8.35967 15.1106 8.45069 15.1957C8.54171 15.2808 8.64924 15.3464 8.76662 15.3882C8.88401 15.4301 9.00873 15.4474 9.13308 15.439L11.3756 15.435ZM18.2048 6.36918L13.6344 1.79972V5.37812C13.624 5.51091 13.6425 5.64437 13.6887 5.76932C13.7348 5.89428 13.8075 6.00775 13.9017 6.10193C13.9959 6.19612 14.1094 6.26878 14.2344 6.31491C14.3594 6.36105 14.4928 6.37956 14.6257 6.36918H18.2048Z" fill="#FF8515"/>
<path d="M3.20951 19.9716C2.652 20.0021 2.09324 20.0021 1.53573 19.9716C1.1089 19.9187 0.716451 19.7106 0.43323 19.387C0.150008 19.0634 -0.00417361 18.6469 8.59577e-05 18.2169C8.59577e-05 16.4907 8.59577e-05 14.7644 8.59577e-05 13.0382V6.28351C8.59577e-05 4.78879 8.59577e-05 3.29407 8.59577e-05 1.8156C-0.00208965 1.33832 0.184638 0.879552 0.519523 0.539409C0.854408 0.199265 1.31026 0.00535778 1.78761 0L3.2217 0L3.05513 0.357433C2.83636 0.830857 2.72536 1.34691 2.73013 1.8684C2.73013 5.61332 2.73013 9.3596 2.73013 13.1072C2.73013 14.7888 2.73013 16.4703 2.73013 18.1519C2.7254 18.7642 2.87936 19.3673 3.17701 19.9025C3.1895 19.9247 3.20036 19.9478 3.20951 19.9716Z" fill="#FF8515"/>
</g>
<defs>
<clipPath id="clip0_28_1139">
<rect width="20" height="20" fill="white"/>
</clipPath>
</defs>
</svg>
