<svg width="134" height="90" viewBox="0 0 134 90" fill="none" xmlns="http://www.w3.org/2000/svg">
<g clip-path="url(#clip0_1:231)">
<path d="M53.5801 9.50006C53.5801 9.50006 55.8301 1.06006 62.7001 1.06006C69.5701 1.06006 70.7001 7.56006 70.7001 7.56006L71.0001 9.88006L53.5801 9.50006Z" fill="#E1ECF9"/>
<path d="M92.5801 75.5H132.58C132.58 75.5 132.74 82.83 124.66 85.17C116.58 87.51 95.5801 85.5 95.5801 85.5H81.5801L86.4901 83.25L89.9901 79.25L91.5801 75.5H92.5801Z" fill="#E1ECF9"/>
<path d="M119.08 86.5H83.0801C82.1046 86.5036 81.1307 86.4199 80.1701 86.25H80.0601C71.5801 84.6 70.5901 75.95 70.5901 72.02V63.83H71.5901V72C71.5901 76.51 72.7801 83.75 80.1901 85.23C83.0003 84.8026 85.6226 83.5575 87.7301 81.65C89.6401 79.74 91.6001 74.86 91.6201 74.81L91.7501 74.5H133.59V75C133.59 75.09 133.59 77.16 131.53 81.22C129.47 85.28 122.47 86.5 119.08 86.5ZM83.0801 85.5H119.08C121.63 85.5 128.69 84.65 130.63 80.78C131.522 79.1249 132.159 77.3449 132.52 75.5H92.4101C91.9301 76.65 90.2101 80.58 88.4101 82.35C86.9013 83.7832 85.0901 84.8596 83.1101 85.5H83.0801Z" fill="#0F4881"/>
<path d="M71.5801 50.5H70.5801V12C70.5801 11.51 70.5801 11 70.5801 10.5H53.5801L53.6401 9.94C53.6401 9.85 54.7901 0.5 63.1401 0.5C71.4901 0.5 71.6401 9.16 71.6401 12L71.5801 50.5ZM54.6601 9.5H70.4801C70.1301 5.38 68.6101 1.5 63.0801 1.5C56.6501 1.5 55.0001 7.59 54.6601 9.5Z" fill="#0F4881"/>
<path d="M121.08 68.5H120.08V13.5C120.08 9.74 119 1 108.58 1H64.5801V0H108.58C120.18 0 121.08 10.33 121.08 13.5V68.5Z" fill="#0F4881"/>
<path d="M104.58 23.5C108.446 23.5 111.58 20.366 111.58 16.5C111.58 12.634 108.446 9.5 104.58 9.5C100.714 9.5 97.5801 12.634 97.5801 16.5C97.5801 20.366 100.714 23.5 104.58 23.5Z" fill="#E1ECF9"/>
<path d="M104.58 24C103.097 24 101.647 23.5601 100.413 22.736C99.1799 21.9119 98.2186 20.7406 97.651 19.3701C97.0833 17.9997 96.9348 16.4917 97.2242 15.0368C97.5136 13.582 98.2279 12.2456 99.2768 11.1967C100.326 10.1478 101.662 9.4335 103.117 9.14411C104.572 8.85472 106.08 9.00325 107.45 9.57091C108.821 10.1386 109.992 11.0999 110.816 12.3332C111.64 13.5666 112.08 15.0166 112.08 16.5C112.08 18.4891 111.29 20.3968 109.883 21.8033C108.477 23.2098 106.569 24 104.58 24ZM104.58 10C103.295 10 102.038 10.3812 100.969 11.0955C99.9 11.8097 99.0668 12.8248 98.5749 14.0126C98.0829 15.2003 97.9542 16.5072 98.205 17.7681C98.4558 19.029 99.0748 20.1872 99.9839 21.0962C100.893 22.0052 102.051 22.6243 103.312 22.8751C104.573 23.1259 105.88 22.9972 107.068 22.5052C108.255 22.0132 109.27 21.1801 109.985 20.1112C110.699 19.0423 111.08 17.7856 111.08 16.5C111.077 14.7769 110.392 13.1251 109.173 11.9067C107.955 10.6883 106.303 10.0026 104.58 10Z" fill="#0F4881"/>
<path d="M110.36 35.76L104.58 31.14L98.8101 35.76L101.46 22.86L102.44 23.06L100.35 33.24L104.58 29.86L108.8 33.24L106.67 23.19L107.65 22.98L110.36 35.76Z" fill="#0F4881"/>
<path d="M92.5801 15H81.5801V16H92.5801V15Z" fill="#0F4881"/>
<path d="M92.5801 23.17H81.5801V24.17H92.5801V23.17Z" fill="#0F4881"/>
<path d="M92.5801 31.33H81.5801V32.33H92.5801V31.33Z" fill="#0F4881"/>
<path d="M109.58 39.5H81.5801V40.5H109.58V39.5Z" fill="#0F4881"/>
<path d="M109.58 47.67H81.5801V48.67H109.58V47.67Z" fill="#0F4881"/>
<path d="M109.58 55.83H88.0801V56.83H109.58V55.83Z" fill="#0F4881"/>
<path d="M109.58 64H81.5801V65H109.58V64Z" fill="#0F4881"/>
<path d="M42.07 79.5699L0 56.9999L42.07 35.4399L85.17 56.9999L42.07 79.5699ZM2.15 56.9999L42.08 78.4299L83 56.9999L42.08 36.5599L2.15 56.9999Z" fill="#0F4881"/>
<path d="M42.0801 58.5C44.5654 58.5 46.5801 57.6046 46.5801 56.5C46.5801 55.3954 44.5654 54.5 42.0801 54.5C39.5948 54.5 37.5801 55.3954 37.5801 56.5C37.5801 57.6046 39.5948 58.5 42.0801 58.5Z" fill="#E1ECF9"/>
<path d="M42.0801 59C39.2301 59 37.0801 57.93 37.0801 56.5C37.0801 55.07 39.2301 54 42.0801 54C44.9301 54 47.0801 55.07 47.0801 56.5C47.0801 57.93 44.9301 59 42.0801 59ZM42.0801 55C39.6401 55 38.0801 55.89 38.0801 56.5C38.0801 57.11 39.6401 58 42.0801 58C44.5201 58 46.0801 57.11 46.0801 56.5C46.0801 55.89 44.5201 55 42.0801 55Z" fill="#0F4881"/>
<path d="M42.58 90C24.83 90 17 80.22 17 76.5V65.75H18V76.5C18 79.5 25.41 89 42.63 89C60.01 89 66.13 79.53 66.13 77.5V66.13H67.13V77.5C67.08 80 60.68 90 42.58 90Z" fill="#0F4881"/>
<path d="M9.94995 71.5H8.94995V61.33L37.4799 56.01L37.6699 56.99L9.94995 62.17V71.5Z" fill="#0F4881"/>
<path d="M4.58008 87.5C5.94925 88.7506 7.7261 89.4614 9.58008 89.5C11.4341 89.4614 13.2109 88.7506 14.5801 87.5L9.58008 71.5L4.58008 87.5Z" fill="#E1ECF9"/>
<path d="M9.58 89.9999C7.59023 89.9643 5.68283 89.1992 4.22 87.8499L4 87.6399L9.58 69.8199L15.14 87.6399L14.93 87.8499C13.4718 89.2002 11.5671 89.9656 9.58 89.9999ZM5.15 87.3399C6.39553 88.3799 7.95775 88.9653 9.58 88.9999C11.1994 88.9662 12.7588 88.3806 14 87.3399L9.58 73.1799L5.15 87.3399Z" fill="#0F4881"/>
</g>
<defs>
<clipPath id="clip0_1:231">
<rect width="133.58" height="90" fill="white"/>
</clipPath>
</defs>
</svg>
