<svg width="25" height="20" viewBox="0 0 25 20" fill="none" xmlns="http://www.w3.org/2000/svg">
<g opacity="0.5">
<path d="M24.4717 15.5351H22.245V7.86416L21.9728 8.0166L14.4027 12.1379C13.7548 12.489 13.1042 12.8374 12.4645 13.1995C12.3975 13.2452 12.3183 13.2697 12.2372 13.2697C12.1561 13.2697 12.0769 13.2452 12.0099 13.1995C10.0827 12.1433 8.1527 11.0899 6.22001 10.0391L0.193269 6.75354L0 6.64466L1.3175 5.92058L11.7295 0.242267C11.8983 0.152438 12.0698 0 12.2495 0C12.4291 0 12.5761 0.15516 12.7394 0.244989L22.539 5.5912C23.1324 5.91513 23.7259 6.24179 24.322 6.56027C24.371 6.58085 24.4121 6.61646 24.4395 6.66197C24.4669 6.70748 24.4792 6.76052 24.4744 6.81343C24.4744 9.6426 24.4744 12.4709 24.4744 15.2982L24.4717 15.5351ZM24.4009 6.68004V6.65282H12.2495V7.74167C12.342 7.74167 12.4237 7.74167 12.5217 7.74167H22.1579C22.2119 7.74422 22.2658 7.73493 22.3158 7.71444L24.4009 6.68004Z" fill="rgba(255,255,255,0.5)"/>
<path d="M20.0129 10.8882C20.0129 10.9562 20.0129 10.9971 20.0129 11.0406C20.0129 12.5795 20.0129 14.1166 20.0129 15.6519C20.0058 15.7397 19.9758 15.8242 19.9258 15.8969C19.4026 16.7334 18.7353 17.4707 17.955 18.0745C16.4696 19.2425 14.6522 19.9096 12.7639 19.98C11.2575 20.0778 9.7497 19.8117 8.36774 19.2042C6.80677 18.5157 5.48184 17.3848 4.55679 15.9513C4.47641 15.8276 4.43558 15.6823 4.43974 15.5348C4.43974 14.0676 4.43974 12.5977 4.43974 11.1305V10.8882L4.59218 10.9698C7.09107 12.4634 9.58906 13.9587 12.0861 15.4559C12.1281 15.4875 12.1792 15.5045 12.2318 15.5045C12.2843 15.5045 12.3354 15.4875 12.3774 15.4559C14.8708 13.9623 17.3688 12.4706 19.8714 10.9807L20.0129 10.8882Z" fill="rgba(255,255,255,0.5)"/>
</g>
</svg>
