<svg width="48" height="39" viewBox="0 0 48 39" fill="none" xmlns="http://www.w3.org/2000/svg">
<path d="M47.1051 29.9031H42.819V15.1376L42.2951 15.431L27.7234 23.3639C26.4763 24.0399 25.224 24.7105 23.9927 25.4074C23.8638 25.4955 23.7113 25.5426 23.5552 25.5426C23.3991 25.5426 23.2466 25.4955 23.1177 25.4074C19.4079 23.3744 15.693 21.3466 11.9728 19.3241L0.37202 12.9998L0 12.7902L2.53603 11.3964L22.578 0.466335C22.9028 0.293425 23.2329 0 23.5788 0C23.9246 0 24.2075 0.298664 24.5219 0.471575L43.3849 10.7624C44.5272 11.3859 45.6694 12.0147 46.8169 12.6277C46.9112 12.6673 46.9904 12.7359 47.0432 12.8235C47.0959 12.9111 47.1195 13.0132 47.1104 13.115C47.1104 18.5609 47.1104 24.0049 47.1104 29.4473L47.1051 29.9031ZM46.9689 12.8583V12.8059H23.5788V14.9018C23.7569 14.9018 23.9141 14.9018 24.1027 14.9018H42.6514C42.7553 14.9067 42.859 14.8888 42.9553 14.8494L46.9689 12.8583Z" fill="#FF8515"/>
<path d="M38.5224 20.9561C38.5224 21.087 38.5224 21.1656 38.5224 21.2495C38.5224 24.2117 38.5224 27.1704 38.5224 30.1256C38.5088 30.2947 38.451 30.4573 38.3548 30.5971C37.3476 32.2074 36.0633 33.6266 34.5612 34.7889C31.702 37.0372 28.2038 38.3213 24.569 38.4567C21.6694 38.6449 18.767 38.1327 16.1069 36.9634C13.1022 35.6381 10.5519 33.4613 8.77128 30.7019C8.61654 30.4638 8.53795 30.1842 8.54597 29.9003C8.54597 27.0761 8.54597 24.2466 8.54597 21.4224V20.9561L8.83939 21.1132C13.6495 23.9881 18.4578 26.8665 23.2644 29.7483C23.3452 29.8091 23.4436 29.842 23.5447 29.842C23.6458 29.842 23.7442 29.8091 23.825 29.7483C28.6246 26.8734 33.4329 24.0021 38.25 21.1342L38.5224 20.9561Z" fill="#FF8515"/>
</svg>
