<svg width="97" height="90" viewBox="0 0 97 90" fill="none" xmlns="http://www.w3.org/2000/svg">
<g clip-path="url(#clip0_1:208)">
<path d="M64.07 39.76L63.78 38.81C65.7297 38.1534 67.7394 37.6911 69.78 37.43C75.2419 36.919 80.7502 37.2767 86.1 38.49L85.88 39.49C80.632 38.3209 75.2328 37.9835 69.88 38.49C67.9062 38.7207 65.9601 39.1461 64.07 39.76Z" fill="#0F4881"/>
<path d="M11.8101 39.63L11.6101 38.63C15.6101 37.82 21.3201 36.9 25.5401 37.17C26.9322 37.2644 28.3178 37.438 29.6901 37.69L29.5101 38.69C28.1869 38.4506 26.8516 38.2837 25.5101 38.19C21.3701 37.93 15.7801 38.83 11.8101 39.63Z" fill="#0F4881"/>
<path d="M54.3499 52.4401L53.95 51.5201C58.84 49.4301 65.5599 46.8501 69.82 46.4301C75.2686 45.9233 80.7631 46.281 86.0999 47.4901L85.8799 48.4901C80.6319 47.321 75.2327 46.9835 69.8799 47.4901C65.7799 47.8301 59.1699 50.3701 54.3499 52.4401Z" fill="#0F4881"/>
<path d="M42.8801 52.21C38.6001 50.16 32.1101 47.61 25.4801 47.21C21.3701 46.95 15.7801 47.85 11.8101 48.65L11.6101 47.65C15.6101 46.84 21.3201 45.93 25.5401 46.19C32.3401 46.63 38.9601 49.19 43.3101 51.31L42.8801 52.21Z" fill="#0F4881"/>
<path d="M54.3499 61.4401L53.95 60.5201C58.84 58.4301 65.5599 55.8501 69.82 55.4301C75.2686 54.9233 80.7631 55.281 86.0999 56.4901L85.8799 57.4901C80.6319 56.321 75.2327 55.9835 69.8799 56.4901C65.7799 56.8301 59.1699 59.3701 54.3499 61.4401Z" fill="#0F4881"/>
<path d="M42.8801 61.21C38.6001 59.16 32.1101 56.61 25.4801 56.21C21.3701 55.95 15.7801 56.85 11.8101 57.65L11.6101 56.65C15.6101 55.84 21.3201 54.93 25.5401 55.19C32.3401 55.63 38.9601 58.19 43.3101 60.31L42.8801 61.21Z" fill="#0F4881"/>
<path d="M54.3499 71.4401L53.95 70.5201C58.84 68.4301 65.5599 65.8501 69.82 65.4301C75.2686 64.9233 80.7631 65.281 86.0999 66.4901L85.8799 67.4901C80.6319 66.321 75.2327 65.9835 69.8799 66.4901C65.7799 66.8301 59.1699 69.3701 54.3499 71.4401Z" fill="#0F4881"/>
<path d="M42.8801 71.21C38.6001 69.21 32.1101 66.61 25.4801 66.21C21.3701 65.95 15.7801 66.85 11.8101 67.65L11.6101 66.65C15.6101 65.84 21.3201 64.93 25.5401 65.19C32.3401 65.63 38.9601 68.19 43.3101 70.31L42.8801 71.21Z" fill="#0F4881"/>
<path d="M48.1399 0.5H48.5499C48.5499 0.5 48.55 0.55 48.61 0.56L49.68 0.8L54.07 1.8L57.07 2.46L61.83 3.46L64.6399 4.07L68 4.82C68.0272 4.82241 68.0537 4.8304 68.0778 4.84346C68.1018 4.85653 68.123 4.8744 68.1398 4.89596C68.1567 4.91752 68.169 4.94232 68.1759 4.96882C68.1828 4.99531 68.1842 5.02295 68.18 5.05C68.18 9.45 68.18 13.8533 68.18 18.26C68.1782 18.7012 68.1515 19.1419 68.0999 19.58C67.9899 20.43 67.88 21.28 67.73 22.12C67.4977 23.4766 67.1634 24.8137 66.73 26.12C66.45 26.94 66.15 27.77 65.79 28.56C65.2 29.71 64.63 30.86 64 32C63.3724 33.1372 62.6427 34.215 61.82 35.22C61.1199 36.07 60.42 36.9 59.68 37.7C59.1839 38.2278 58.6598 38.7285 58.11 39.2C57.57 39.68 57.0299 40.2 56.4599 40.58C55.1799 41.58 53.8899 42.48 52.5999 43.43L48.4399 46.43C48.4065 46.4493 48.3686 46.4595 48.33 46.4595C48.2913 46.4595 48.2534 46.4493 48.22 46.43C47.99 46.28 47.77 46.1 47.54 45.94L44.4199 43.65C43.5699 43.02 42.73 42.39 41.88 41.78C40.6055 40.8891 39.3896 39.9171 38.24 38.87C37.61 38.28 36.9999 37.66 36.4199 37.01C35.8399 36.36 35.1799 35.58 34.5999 34.83C33.574 33.4994 32.6735 32.0767 31.91 30.58C31.52 29.83 31.17 29.05 30.83 28.27C30.251 26.9497 29.7892 25.5811 29.45 24.18C29.2 23.18 28.9999 22.18 28.8099 21.12C28.7099 20.59 28.65 20.05 28.6 19.51C28.55 18.97 28.54 18.63 28.51 18.18C28.51 18.18 28.51 18.11 28.45 18.08V4.82C28.5095 4.82989 28.5704 4.82989 28.6299 4.82L29.57 4.61L32.72 3.91L38.13 2.73L44.52 1.33L48 0.59C48.0505 0.566537 48.0976 0.536255 48.1399 0.5ZM64.8899 12.4V8C64.8899 7.4 64.9799 7.57 64.43 7.44C62.91 7.09 61.43 6.77 59.88 6.44C58.88 6.22 57.88 5.99 56.88 5.78L52.1399 4.78L48.63 4C48.4948 3.97168 48.3552 3.97168 48.22 4L45 4.68L39.2999 5.94L35 6.87L32.2 7.49C31.81 7.58 31.8099 7.58 31.8099 7.99C31.8099 10.69 31.8099 13.38 31.8099 16.07C31.8099 16.49 31.8099 16.92 31.8099 17.34C31.8099 18.11 31.8899 18.89 31.9699 19.66C32.0499 20.43 32.14 21.02 32.27 21.66C32.493 22.9532 32.8276 24.2246 33.27 25.46C33.63 26.4 33.9999 27.35 34.4199 28.26C35.0874 29.6664 35.8877 31.0058 36.81 32.26C37.5741 33.3241 38.42 34.3272 39.34 35.26C39.75 35.68 40.1699 36.09 40.5999 36.48C41.0299 36.87 41.6 37.34 42.09 37.74C42.76 38.27 43.46 38.74 44.15 39.27L48.15 42.27C48.1776 42.2849 48.2085 42.2927 48.24 42.2927C48.2714 42.2927 48.3023 42.2849 48.33 42.27C49 41.79 49.66 41.27 50.33 40.81C51.28 40.1 52.2299 39.39 53.1899 38.7C54.3922 37.8861 55.532 36.9836 56.5999 36C57.1741 35.4461 57.7182 34.862 58.2299 34.25C58.9 33.45 59.5399 32.63 60.1399 31.79C61.0805 30.431 61.8876 28.9843 62.5499 27.47C63.1466 26.0945 63.6315 24.6733 64 23.22C64.3497 21.858 64.5905 20.4703 64.72 19.07C64.79 18.31 64.84 17.55 64.8499 16.79C64.8999 15.33 64.8899 13.86 64.8899 12.4Z" fill="#E1ECF9"/>
<path d="M48.35 47C48.2123 47.0003 48.0772 46.9622 47.96 46.89L47.43 46.51L43.27 43.45L41.6 42.22C40.307 41.3217 39.0744 40.3396 37.91 39.28C37.28 38.69 36.66 38.05 36.06 37.39C35.46 36.73 34.81 35.94 34.21 35.17C33.1685 33.8174 32.2546 32.3712 31.48 30.85C31.07 30.06 30.71 29.25 30.38 28.51C29.8072 27.1599 29.3456 25.7653 29 24.34C28.75 23.34 28.56 22.34 28.36 21.25C28.25 20.69 28.19 20.11 28.14 19.6C28.14 19.31 28.09 19.03 28.08 18.75L28 18.12V4.31H28.63L29.37 4.14L48.14 0H48.75L48.85 0.1L49.79 0.31L64.7 3.58L68.13 4.33C68.2986 4.35696 68.4513 4.4455 68.5584 4.57849C68.6656 4.71149 68.7196 4.87949 68.71 5.05V18.26C68.7109 18.7215 68.6808 19.1825 68.62 19.64C68.51 20.55 68.4 21.37 68.25 22.21C68.0231 23.5841 67.6888 24.9382 67.25 26.26C66.9587 27.1063 66.625 27.9373 66.25 28.75C65.65 30.05 65.07 31.19 64.5 32.23C63.8597 33.3986 63.1097 34.5036 62.26 35.53C61.63 36.29 60.89 37.19 60.11 38.03C59.6 38.58 59.04 39.03 58.5 39.57C57.96 40.11 57.44 40.5 56.82 40.97L54 43L52.42 44.16L48.71 46.89C48.6023 46.9589 48.4778 46.9969 48.35 47ZM29 18C29.033 18.0692 29.0533 18.1437 29.06 18.22V18.71C29.06 18.98 29.06 19.25 29.11 19.52C29.17 20.03 29.22 20.57 29.32 21.08C29.52 22.16 29.71 23.14 29.95 24.08C30.2877 25.4499 30.7428 26.7882 31.31 28.08C31.63 28.81 31.98 29.59 32.38 30.37C33.1234 31.8438 34.0004 33.2464 35 34.56C35.58 35.31 36.19 36.03 36.81 36.72C37.43 37.41 38 38 38.59 38.55C39.7261 39.577 40.9251 40.5322 42.18 41.41C42.75 41.82 43.3 42.23 43.86 42.65L48 45.71L48.31 45.94L51.83 43.35L53.42 42.18C54.33 41.52 55.24 40.85 56.14 40.18C56.73 39.73 57.29 39.25 57.75 38.83C58.21 38.41 58.82 37.83 59.29 37.37C60.05 36.54 60.79 35.66 61.41 34.91C62.2184 33.93 62.9317 32.8753 63.54 31.76C64.11 30.76 64.67 29.62 65.26 28.34C65.61 27.57 65.89 26.77 66.18 25.95C66.6037 24.6715 66.9379 23.365 67.18 22.04C67.32 21.23 67.43 20.42 67.54 19.53C67.5922 19.1087 67.6189 18.6846 67.62 18.26V5.26L64.4 4.56L49.58 1.29L48.49 1H48.28C48.2132 1.03447 48.1428 1.06131 48.07 1.08L29.55 5.14L29 5.27V18ZM48.36 42.85C48.2132 42.8501 48.0699 42.8047 47.95 42.72L44.51 40.19L43.3 39.3L41.85 38.21C41.39 37.86 40.91 37.45 40.34 36.93C39.77 36.41 39.47 36.12 39.06 35.69C38.1149 34.7314 37.2487 33.6981 36.47 32.6C35.5197 31.3104 34.6927 29.9344 34 28.49C33.56 27.54 33.18 26.56 32.83 25.65C32.3665 24.3927 32.0119 23.098 31.77 21.78C31.6433 21.1133 31.5433 20.4233 31.47 19.71C31.4 19.05 31.36 18.37 31.32 17.71V17.38C31.32 16.95 31.32 16.51 31.32 16.08V8C31.32 7.36 31.48 7.16 32.1 7L34.9 6.37L45.67 4L48.11 3.46C48.318 3.41903 48.532 3.41903 48.74 3.46L61.52 6.32L64.52 6.99H64.75C65.28 7.07 65.38 7.37 65.37 7.78V13.62C65.37 14.66 65.37 15.7 65.37 16.74C65.37 17.51 65.31 18.29 65.24 19.07C65.1121 20.4949 64.8646 21.9066 64.5 23.29C64.1228 24.7957 63.6211 26.2674 63 27.69C62.3297 29.2323 61.5056 30.7031 60.54 32.08C60 32.86 59.37 33.68 58.62 34.58C58.1115 35.2044 57.5707 35.8019 57 36.37C55.9443 37.3858 54.8145 38.3217 53.62 39.17C52.98 39.62 52.35 40.09 51.72 40.56L50.72 41.27L48.72 42.73C48.6155 42.8066 48.4896 42.8486 48.36 42.85ZM32.3 8V16.08C32.3 16.49 32.3 16.91 32.3 17.32V17.65C32.3 18.31 32.37 18.97 32.44 19.65C32.51 20.33 32.61 20.98 32.73 21.65C32.9519 22.914 33.2866 24.1557 33.73 25.36C34.06 26.25 34.44 27.21 34.87 28.13C35.516 29.5353 36.2963 30.8749 37.2 32.13C37.9527 33.1917 38.7851 34.1946 39.69 35.13C40.09 35.54 40.5 35.95 40.93 36.33C41.36 36.71 41.93 37.22 42.39 37.57C42.85 37.92 43.33 38.28 43.81 38.63L45.03 39.52L48.27 41.91L50.04 40.61L51.04 39.9C51.68 39.42 52.31 38.95 52.96 38.49C54.1133 37.6695 55.2061 36.7672 56.23 35.79C56.7886 35.2473 57.3193 34.6766 57.82 34.08C58.55 33.2 59.16 32.4 59.7 31.65C60.6246 30.3215 61.4152 28.9046 62.06 27.42C62.6582 26.0647 63.1464 24.6635 63.52 23.23C63.8886 21.8441 64.1362 20.4288 64.26 19C64.34 18.24 64.38 17.49 64.39 16.75C64.39 15.75 64.39 14.68 64.39 13.64V8H64.31L61.31 7.33L48.53 4.49H48.32L45.89 5L35.1 7.36L32.3 8Z" fill="#0F4881"/>
<path d="M53.06 29.67H42C41.6694 29.6889 41.3422 29.5941 41.0729 29.4012C40.8037 29.2084 40.6086 28.9292 40.52 28.61C40.5047 28.4838 40.5047 28.3562 40.52 28.23V19.4C40.5189 19.047 40.6512 18.7066 40.8904 18.447C41.1296 18.1874 41.4581 18.0278 41.81 18H42.64V15.94C42.6349 14.5478 43.1413 13.2021 44.0631 12.1587C44.9849 11.1152 46.2578 10.4467 47.64 10.28C48.3967 10.1771 49.1665 10.2314 49.9012 10.4396C50.636 10.6478 51.3198 11.0054 51.91 11.49C53.0206 12.3747 53.739 13.6605 53.91 15.07C53.9647 15.5549 53.9947 16.0421 54 16.53V16.88C54 17.25 54 17.62 54 18H54.69C54.8724 17.9887 55.0553 18.0147 55.2272 18.0766C55.3992 18.1385 55.5567 18.235 55.69 18.36C55.8467 18.501 55.9715 18.6739 56.0561 18.8671C56.1406 19.0602 56.1828 19.2692 56.18 19.48C56.18 22.3734 56.18 25.26 56.18 28.14C56.1916 28.344 56.16 28.5481 56.0872 28.739C56.0144 28.9299 55.9021 29.1032 55.7577 29.2477C55.6132 29.3921 55.4398 29.5044 55.249 29.5772C55.0581 29.65 54.854 29.6816 54.65 29.67H53.06ZM50.66 28.67H54.72C55.2 28.67 55.25 28.37 55.25 28.15C55.25 25.2633 55.25 22.3734 55.25 19.48C55.2513 19.409 55.2377 19.3386 55.2101 19.2731C55.1826 19.2077 55.1417 19.1487 55.09 19.1C55.0565 19.0628 55.0144 19.0342 54.9673 19.0168C54.9203 18.9994 54.8697 18.9936 54.82 19C54.6535 19.01 54.4865 19.01 54.32 19H53V18C53 17.63 53 17.28 53 16.92V16.56C52.9991 16.1055 52.9724 15.6515 52.92 15.2C52.8471 14.6264 52.6611 14.0729 52.3727 13.5716C52.0843 13.0704 51.6993 12.6314 51.24 12.28C50.7561 11.8761 50.1926 11.5783 49.5862 11.4061C48.9799 11.2338 48.3441 11.1909 47.72 11.28C46.5491 11.4148 45.4749 11.9949 44.72 12.9C44.0097 13.7382 43.6199 14.8013 43.62 15.9V18.79L43.27 18.9L43.12 18.42L43.25 18.91H43.05H41.82C41.7671 18.9086 41.7145 18.918 41.6653 18.9377C41.6162 18.9573 41.5715 18.9867 41.5341 19.0241C41.4967 19.0615 41.4673 19.1062 41.4477 19.1553C41.428 19.2045 41.4186 19.2571 41.42 19.31V28.14C41.4221 28.2051 41.4379 28.269 41.4665 28.3275C41.4951 28.386 41.5359 28.4377 41.586 28.4793C41.6361 28.5209 41.6944 28.5514 41.7572 28.5688C41.8199 28.5861 41.8857 28.59 41.95 28.58L50.66 28.67ZM48.36 26.94H47.52C47.391 26.9354 47.2648 26.9004 47.1519 26.8379C47.0389 26.7753 46.9424 26.687 46.87 26.58C46.785 26.4557 46.7291 26.3138 46.7066 26.1649C46.6841 26.016 46.6955 25.8639 46.74 25.72C46.84 25.37 46.93 25.01 47.02 24.65V24.46C46.7536 24.2589 46.5417 23.9944 46.4038 23.6905C46.2658 23.3866 46.206 23.0529 46.23 22.72C46.2471 22.3349 46.3752 21.963 46.5987 21.649C46.8222 21.335 47.1318 21.0923 47.49 20.95C47.812 20.7995 48.1695 20.7413 48.5226 20.7819C48.8757 20.8225 49.2106 20.9603 49.49 21.18C49.7541 21.3643 49.9697 21.6097 50.1186 21.8952C50.2675 22.1807 50.3453 22.498 50.3453 22.82C50.3453 23.142 50.2675 23.4593 50.1186 23.7448C49.9697 24.0304 49.7541 24.2757 49.49 24.46C49.61 24.9 49.73 25.33 49.84 25.76C49.8784 25.9002 49.8858 26.0471 49.8616 26.1905C49.8374 26.3338 49.7823 26.4702 49.7 26.59C49.6224 26.6963 49.5219 26.7838 49.4059 26.8461C49.29 26.9084 49.1615 26.9439 49.03 26.95C48.87 26.94 48.62 26.94 48.36 26.94ZM47.71 25.94C48.1196 25.9649 48.5304 25.9649 48.94 25.94C48.82 25.45 48.7 24.99 48.57 24.54C48.5202 24.3845 48.5247 24.2166 48.5828 24.0639C48.641 23.9113 48.7493 23.783 48.89 23.7C49.0383 23.6145 49.1621 23.4924 49.2496 23.3453C49.3372 23.1982 49.3855 23.0311 49.39 22.86C49.4009 22.6956 49.371 22.5311 49.3029 22.3811C49.2349 22.2311 49.1308 22.1002 49 22C48.8619 21.8872 48.6945 21.816 48.5174 21.7948C48.3404 21.7735 48.1609 21.8031 48 21.88C47.8099 21.9487 47.6451 22.0734 47.5273 22.2376C47.4094 22.4018 47.3442 22.5979 47.34 22.8C47.3244 23.0108 47.376 23.2212 47.4874 23.4009C47.5988 23.5805 47.7642 23.7203 47.96 23.8L48.29 24L48.05 24.88C47.9 25.22 47.81 25.57 47.71 25.92V25.94ZM51.44 19H45.26V18.53C45.26 18.39 45.26 18.34 45.26 18.28V17.55C45.26 16.94 45.26 16.33 45.26 15.72C45.3087 14.9234 45.6619 14.1759 46.2463 13.6324C46.8308 13.0888 47.6019 12.7908 48.4 12.8C48.9866 12.8105 49.5579 12.9883 50.0469 13.3125C50.5358 13.6367 50.922 14.0938 51.16 14.63C51.3653 15.0565 51.4615 15.5272 51.44 16V19ZM46.23 18H50.44V16C50.4532 15.6964 50.3914 15.3941 50.26 15.12C50.104 14.7444 49.8404 14.4234 49.5023 14.1974C49.1642 13.9714 48.7667 13.8505 48.36 13.85C47.8498 13.8332 47.3526 14.0121 46.97 14.35C46.7492 14.5217 46.5686 14.7395 46.4408 14.9882C46.313 15.2369 46.241 15.5106 46.23 15.79C46.23 16.39 46.23 16.99 46.23 17.58V18Z" fill="#0F4881"/>
<path d="M89.29 29.61V82.23C82.8914 80.2817 76.0857 80.0952 69.59 81.69C64 83.05 47.84 87.81 47.84 87.81C47.84 87.81 31.76 82.26 26 81.2C14.31 79.04 7.14 81.43 7.14 81.43V29.61H0V88.61H95.67V29.61H89.29Z" fill="#E1ECF9"/>
<path d="M96.67 89.11H0V29.61H1V88.11H95.67V29.61H96.67V89.11Z" fill="#0F4881"/>
<path d="M48.3199 88.33H48.1699C48.0099 88.33 32.0699 82.78 26.4499 81.74C14.9999 79.58 7.89993 81.88 7.82993 81.91L7.17993 82.13V23.64L7.54993 23.54C7.99993 23.43 18.6899 20.76 25.5499 21.19C26.6099 21.26 27.7199 21.39 28.8399 21.56L28.6799 22.56C27.5899 22.39 26.5199 22.27 25.4899 22.2C19.4899 21.83 10.1699 23.96 8.18993 24.43V80.77C10.1899 80.23 16.8299 78.9 26.6399 80.71C32.1099 81.71 46.6399 86.71 48.3599 87.28C49.9999 86.79 64.7099 82.48 69.9999 81.21C76.361 79.6557 83.0156 79.7694 89.3199 81.54V24.39C83.0509 22.4722 76.4685 21.7929 69.9399 22.39C69.2141 22.4625 68.4929 22.576 67.7799 22.73L67.5799 21.73C68.3292 21.565 69.087 21.4415 69.8499 21.36C76.6462 20.7359 83.4985 21.484 89.9999 23.56L90.3299 23.68V82.94L89.6599 82.7C83.351 80.8057 76.6513 80.6262 70.2499 82.18C64.7199 83.52 48.6799 88.24 48.5199 88.29L48.3199 88.33Z" fill="#0F4881"/>
<path d="M48.8401 46.5H47.8401V88.61H48.8401V46.5Z" fill="#0F4881"/>
<path d="M96.6701 29.61H89.6101V30.61H96.6701V29.61Z" fill="#0F4881"/>
<path d="M7.61 29.61H0V30.61H7.61V29.61Z" fill="#0F4881"/>
</g>
<defs>
<clipPath id="clip0_1:208">
<rect width="96.67" height="89.11" fill="white"/>
</clipPath>
</defs>
</svg>
