<svg width="62" height="62" viewBox="0 0 62 62" fill="none" xmlns="http://www.w3.org/2000/svg">
<path d="M31 62C24.8688 62 18.8753 60.1819 13.7773 56.7756C8.67941 53.3693 4.70607 48.5277 2.35975 42.8632C0.0134318 37.1987 -0.600472 30.9656 0.59567 24.9522C1.79181 18.9388 4.74428 13.4151 9.0797 9.0797C13.4151 4.74428 18.9388 1.79181 24.9522 0.59567C30.9656 -0.600472 37.1987 0.0134318 42.8632 2.35975C48.5277 4.70607 53.3693 8.67941 56.7756 13.7773C60.1819 18.8753 62 24.8688 62 31C62 39.2217 58.734 47.1067 52.9203 52.9203C47.1067 58.734 39.2217 62 31 62ZM31 1.00001C25.0666 1.00001 19.2664 2.75948 14.3329 6.05593C9.39943 9.35237 5.55426 14.0377 3.28363 19.5195C1.013 25.0013 0.418899 31.0333 1.57646 36.8527C2.73401 42.6722 5.59124 48.0176 9.78681 52.2132C13.9824 56.4088 19.3279 59.266 25.1473 60.4236C30.9667 61.5811 36.9987 60.987 42.4805 58.7164C47.9623 56.4458 52.6477 52.6006 55.9441 47.6671C59.2405 42.7336 61 36.9335 61 31C61 23.0435 57.8393 15.4129 52.2132 9.78681C46.5871 4.16072 38.9565 1.00001 31 1.00001Z" fill="white"/>
<path d="M27.6401 48.1102C26.9581 48.1069 26.2993 47.8625 25.7801 47.4202C25.4272 47.029 25.222 46.5267 25.2001 46.0002C24.2001 46.4702 22.7201 46.8402 21.7401 45.6602C21.5161 45.4261 21.3477 45.1445 21.2473 44.8363C21.1469 44.5282 21.1171 44.2014 21.1601 43.8802C21.1554 43.827 21.1554 43.7735 21.1601 43.7202C20.7868 43.8 20.3986 43.775 20.0386 43.6479C19.6786 43.5209 19.3607 43.2967 19.1201 43.0002C18.842 42.5968 18.7092 42.1108 18.7438 41.6219C18.7783 41.1331 18.978 40.6706 19.3101 40.3102C18.7346 39.8559 18.3208 39.2282 18.1301 38.5202C17.9601 37.3002 18.4401 36.7602 19.5301 36.0802C20.6201 35.4002 23.3301 34.0802 23.4501 33.9902L23.9001 34.8802C23.9001 34.8802 21.0601 36.3002 20.0601 36.9302C19.0601 37.5602 19.0601 37.7402 19.1201 38.3802C19.1801 39.0202 19.9101 39.5402 20.3401 39.8502L20.8801 40.2302L20.3701 40.6402C20.2601 40.7302 19.3701 41.5502 19.9401 42.4302C20.5101 43.3102 22.2501 42.4302 22.2601 42.4302L22.7701 43.2902C22.4593 43.4918 22.2346 43.802 22.1401 44.1602C22.123 44.3431 22.1463 44.5276 22.2085 44.7004C22.2708 44.8732 22.3703 45.0302 22.5001 45.1602C23.5001 46.3202 25.6801 44.7102 25.7001 44.6902L26.3501 45.4502C26.2864 45.5486 26.2391 45.6567 26.2101 45.7702C26.1834 45.9458 26.1927 46.125 26.2374 46.2969C26.2821 46.4689 26.3612 46.6299 26.4701 46.7702C26.8529 47.062 27.3305 47.201 27.8101 47.1602C28.1101 47.0702 30.3001 45.9702 32.6201 44.8102C34.4801 43.8802 36.6201 42.8102 38.6201 41.8102C41.4527 40.4039 43.9129 38.348 45.8001 35.8102L46.6301 36.3602C44.6608 39.0687 42.063 41.2582 39.0601 42.7402C37.0601 43.7402 34.9101 44.7902 33.0601 45.7402C29.6801 47.4302 28.3801 48.0802 28.0601 48.1602C27.9187 48.1595 27.7778 48.1427 27.6401 48.1102Z" fill="white"/>
<path d="M24.2399 32.4701C23.1347 32.4539 22.0399 32.2545 20.9999 31.8801L21.3699 30.9401C21.3699 30.9401 24.1699 32.0201 26.1499 31.0901C28.1299 30.1601 29.3799 27.2401 29.3899 27.2101L29.5599 26.7901L35.1699 28.4701C35.5818 28.5693 36.0134 28.5486 36.4139 28.4103C36.8143 28.2721 37.1669 28.0222 37.4299 27.6901V27.5901C37.7699 26.9201 37.6999 26.8701 37.5699 26.7901C36.9599 26.4401 28.0599 23.2901 27.0599 22.9601C26.6844 22.8527 26.2908 22.8239 25.9036 22.8756C25.5165 22.9272 25.1442 23.0581 24.8099 23.2601C23.929 23.854 22.866 24.1162 21.8099 24.0001C21.4174 23.8968 21.0357 23.7561 20.6699 23.5801L21.1199 22.6801C21.416 22.8309 21.7279 22.9483 22.0499 23.0301C22.8095 23.0752 23.5644 22.883 24.2099 22.4801C24.6809 22.1655 25.2158 21.9593 25.776 21.8763C26.3363 21.7933 26.908 21.8356 27.4499 22.0001C27.8399 22.1301 37.4499 25.4901 38.1599 25.9301C39.1599 26.5301 38.6499 27.5401 38.3999 28.0301V28.1301C38.0295 28.6735 37.5001 29.0891 36.8843 29.3201C36.2685 29.551 35.5963 29.5859 34.9599 29.4201L30.1499 28.0001C29.4097 29.6691 28.1691 31.0669 26.5999 32.0001C25.858 32.3304 25.0518 32.4909 24.2399 32.4701Z" fill="white"/>
<path d="M32.63 41.0617L25.7764 44.5493L26.2299 45.4406L33.0836 41.953L32.63 41.0617Z" fill="white"/>
<path d="M30.6938 38.0724L22.2871 42.3447L22.7402 43.2362L31.1468 38.9639L30.6938 38.0724Z" fill="white"/>
<path d="M28.4925 35.491L19.8242 39.7544L20.2656 40.6517L28.9338 36.3883L28.4925 35.491Z" fill="white"/>
<path d="M44.7963 20.5585L39.7197 23.1284L46.2641 36.0563L51.3407 33.4864L44.7963 20.5585Z" fill="white" fill-opacity="0.5"/>
<path d="M20.9376 23.001L15.5928 21.0493L10.6226 34.6603L15.9674 36.6119L20.9376 23.001Z" fill="white" fill-opacity="0.5"/>
<path d="M16.27 37.2499L10 34.9999L15.29 20.3999L21.58 22.6999L16.27 37.2499ZM11.27 34.3499L15.67 35.9999L20.3 23.2899L15.89 21.6799L11.27 34.3499Z" fill="white"/>
<path d="M46.0498 36.7302L39.0498 22.9102L45.0498 19.9102L51.9998 33.7002L46.0498 36.7302ZM40.3898 23.3502L46.4898 35.3502L50.6698 33.2302L44.5798 21.2302L40.3898 23.3502Z" fill="white"/>
</svg>
