<svg width="90" height="90" viewBox="0 0 90 90" fill="none" xmlns="http://www.w3.org/2000/svg">
<g clip-path="url(#clip0_9_195)">
<path d="M50.6677 50.6676C55.5259 48.5813 62.2915 45.9784 66.5635 45.5611C71.3467 45.0368 76.1855 45.3937 80.8399 46.6142" stroke="#0146A6" stroke-miterlimit="10"/>
<path d="M50.6677 41.5672C55.5259 39.4809 62.2915 36.878 66.5635 36.4607C71.3473 35.9385 76.1863 36.2988 80.8399 37.5238" stroke="#0146A6" stroke-miterlimit="10"/>
<path d="M9.81567 46.783C13.6803 46.0081 17.4854 45.0543 21.7375 45.3226C28.5032 45.7498 35.1198 48.303 39.511 50.449" stroke="#0146A6" stroke-miterlimit="10"/>
<path d="M9.81567 37.6829C13.6803 36.908 17.4854 35.9542 21.7375 36.2225C28.5032 36.6596 35.1198 39.2029 39.511 41.3489" stroke="#0146A6" stroke-miterlimit="10"/>
<path d="M50.6677 59.7581C55.5259 57.6817 62.2915 55.0689 66.5635 54.6615C71.3466 54.132 76.1863 54.489 80.8399 55.7146" stroke="#0146A6" stroke-miterlimit="10"/>
<path d="M9.81567 55.8734C13.6803 55.0985 17.4854 54.1447 21.7375 54.4229C28.5032 54.8501 35.1198 57.4034 39.511 59.5394" stroke="#0146A6" stroke-miterlimit="10"/>
<path d="M50.6677 69.8719C55.5259 67.7856 62.2915 65.1827 66.5635 64.7654C71.3473 64.2432 76.1863 64.6035 80.8399 65.8284" stroke="#0146A6" stroke-miterlimit="10"/>
<path d="M9.81567 65.9871C13.6803 65.2122 17.4854 64.2584 21.7375 64.5267C28.5032 64.9638 35.1198 67.5072 39.511 69.6531" stroke="#0146A6" stroke-miterlimit="10"/>
<path d="M84.198 29.8643V83.0556C84.198 83.0556 77.3529 79.8367 66.3153 82.5091C60.6027 83.8901 44.3095 88.6986 44.3095 88.6986C44.3095 88.6986 28.066 83.0854 22.274 82.0124C10.4614 79.8367 5.23568 82.2508 5.23568 82.2508V29.8643H0V89.4735H88.619V29.8643H84.198Z" fill="#CADAEF"/>
<path d="M5.79194 29.8643H0.506592V89.5033H89.1257V29.8643H84.5159" stroke="#0146A6" stroke-miterlimit="10"/>
<path d="M64.3382 22.4624C65.0722 22.2992 65.8153 22.1798 66.5636 22.1047C77.8396 21.002 84.6848 24.2209 84.6848 24.2209V83.0552C84.6848 83.0552 77.8396 79.8363 66.802 82.5088C61.1292 83.8897 44.8062 88.6982 44.8062 88.6982C44.8062 88.6982 28.5627 83.085 22.7707 82.012C10.9581 79.8363 5.72241 82.2505 5.72241 82.2505V24.2209C5.72241 24.2209 14.8128 21.4192 21.7474 21.8564C22.8402 21.9259 23.943 22.0451 25.0259 22.224" stroke="#0146A6" stroke-miterlimit="10"/>
<path d="M44.8162 42.335V89.503" stroke="#0146A6" stroke-miterlimit="10"/>
<path d="M50.4592 19.1145V0.496582H39.1731V19.1145H29.1389L44.8161 37.047L60.5033 19.1145H50.4592Z" fill="#CADAEF" stroke="#0146A6" stroke-miterlimit="10"/>
</g>
<defs>
<clipPath id="clip0_9_195">
<rect width="89.6225" height="90" fill="white"/>
</clipPath>
</defs>
</svg>
