<svg width="46" height="46" viewBox="0 0 46 46" fill="none" xmlns="http://www.w3.org/2000/svg">
<circle cx="23" cy="23" r="23" fill="#FF8515"/>
<path d="M32.3895 38.0024C32.0249 37.5933 31.6958 37.2287 31.3757 36.8552L27.1873 32.1422C27.1266 32.0873 27.0467 32.0585 26.965 32.0621H20.0999C18.766 32.0621 17.4322 32.0621 16.1161 32.0621C15.3062 32.0706 14.5028 31.9164 13.7537 31.6084C13.0045 31.3005 12.3249 30.8452 11.7551 30.2696C11.1853 29.694 10.7369 29.0098 10.4366 28.2576C10.1363 27.5054 9.99015 26.7005 10.0069 25.8907C10.0069 24.1122 10.0069 22.3337 10.0069 20.5552C9.98599 19.7924 10.0127 19.0292 10.0869 18.2698C10.186 17.4421 10.464 16.6459 10.9016 15.9365C11.3393 15.227 11.9261 14.6213 12.6213 14.1614C13.6632 13.4441 14.9048 13.0738 16.1694 13.1032H30.0151C30.8036 13.0996 31.5848 13.2526 32.3137 13.5532C33.0426 13.8538 33.7045 14.2961 34.2612 14.8544C34.8179 15.4128 35.2582 16.076 35.5566 16.8058C35.8551 17.5355 36.0057 18.3173 35.9998 19.1057C35.9998 21.4889 35.9998 23.8721 35.9998 26.2197C35.9961 27.1129 35.7825 27.9928 35.3762 28.7883C34.97 29.5838 34.3825 30.2727 33.6611 30.7994C33.313 31.0504 32.9475 31.2763 32.5673 31.4752C32.4428 31.5464 32.3806 31.5997 32.3806 31.7598C32.3806 33.7458 32.3806 35.7348 32.3806 37.7267L32.3895 38.0024ZM21.8962 26.3442H24.3506C24.3506 25.7395 24.3506 25.1704 24.3506 24.5657C24.3349 24.2562 24.4057 23.9484 24.5549 23.6767C24.704 23.4051 24.9258 23.1802 25.1954 23.0273L25.809 22.636C26.5075 22.2234 27.0583 21.601 27.3829 20.8575C27.6367 20.1318 27.6725 19.3477 27.486 18.6019C27.2996 17.8561 26.899 17.1811 26.3336 16.6602C25.4549 15.8177 24.2783 15.3573 23.0612 15.3797C22.2573 15.3346 21.4568 15.5136 20.7487 15.8967C20.0406 16.2798 19.4527 16.852 19.0506 17.5495C18.5429 18.5713 18.3187 19.7106 18.4014 20.8486H20.8024C20.8024 20.4307 20.8024 20.0216 20.8647 19.6125C20.8666 19.3022 20.9496 18.9977 21.1056 18.7294C21.2616 18.461 21.4851 18.2382 21.7539 18.083C22.1016 17.8848 22.4904 17.7696 22.8899 17.7465C23.2894 17.7234 23.6889 17.7929 24.0571 17.9496C24.2541 18.0141 24.4352 18.1195 24.5884 18.259C24.7417 18.3985 24.8637 18.5688 24.9464 18.7589C25.0854 19.1003 25.1029 19.4792 24.9961 19.832C24.8893 20.1849 24.6645 20.4904 24.3595 20.6974L22.8655 21.729C22.5657 21.9175 22.3197 22.1803 22.1514 22.4919C21.9832 22.8036 21.8983 23.1534 21.9051 23.5075C21.9051 24.2278 21.9051 24.9481 21.9051 25.6684L21.8962 26.3442ZM21.8962 29.7945H24.3239V27.3313H21.9051L21.8962 29.7945Z" fill="white"/>
</svg>
