<svg width="13" height="17" viewBox="0 0 13 17" fill="none" xmlns="http://www.w3.org/2000/svg">
<path d="M6.15676 0C2.76191 0 0 2.76191 0 6.15673C0 10.3698 5.5097 16.5549 5.74428 16.8161C5.96462 17.0615 6.34931 17.0611 6.56925 16.8161C6.80383 16.5549 12.3135 10.3698 12.3135 6.15673C12.3135 2.76191 9.55159 0 6.15676 0ZM6.15676 9.25435C4.44873 9.25435 3.05917 7.86477 3.05917 6.15673C3.05917 4.44869 4.44876 3.05914 6.15676 3.05914C7.86477 3.05914 9.25432 4.44873 9.25432 6.15676C9.25432 7.8648 7.86477 9.25435 6.15676 9.25435Z" fill="white"/>
</svg>
