<svg width="90" height="90" viewBox="0 0 90 90" fill="none" xmlns="http://www.w3.org/2000/svg">
<g clip-path="url(#clip0_9_160)">
<path d="M72.4206 74.8608C69.6201 79.0088 65.9191 82.4709 61.5937 84.9889C57.2684 87.5069 52.4303 89.0158 47.4404 89.403C42.4506 89.7902 37.4376 89.0458 32.7756 87.2252C28.1136 85.4046 23.9228 82.5549 20.5159 78.8886" stroke="#0F4881" stroke-miterlimit="10"/>
<path d="M11.6367 56.2698C11.6367 47.4555 15.1382 39.0023 21.3708 32.7697C27.6034 26.5371 36.0566 23.0356 44.8708 23.0356C53.6851 23.0356 62.1383 26.5371 68.3709 32.7697C74.6035 39.0023 78.105 47.4555 78.105 56.2698" stroke="#0F4881" stroke-miterlimit="10"/>
<path d="M69.2163 58.6011C69.1897 56.6423 69.9397 54.7528 71.3024 53.3455C72.6651 51.9382 74.5295 51.1277 76.4881 51.0911C77.4613 51.0768 78.4278 51.2543 79.3324 51.6135C80.2369 51.9727 81.0619 52.5065 81.7602 53.1845C82.4585 53.8625 83.0164 54.6714 83.4021 55.5651C83.7877 56.4587 83.9936 57.4195 84.0079 58.3927C84.0223 59.3659 83.8448 60.3324 83.4856 61.237C83.1264 62.1416 82.5926 62.9666 81.9145 63.6649C81.2365 64.3631 80.4276 64.921 79.534 65.3067C78.6404 65.6924 77.6795 65.8982 76.7063 65.9126C74.7473 65.9233 72.8629 65.1621 71.4611 63.7937C70.0592 62.4252 69.2527 60.5597 69.2163 58.6011Z" fill="#CADAEF" stroke="#0146A6" stroke-miterlimit="10"/>
<path d="M89.2856 80.1585C89.2856 78.7002 89.2856 77.2517 89.2856 75.7934C89.2895 74.7529 89.115 73.7194 88.7697 72.7379C87.6189 69.6426 85.2975 68.6506 82.8174 67.9164C82.3826 67.7567 81.9139 67.7121 81.4567 67.7868C80.9996 67.8616 80.5695 68.0532 80.2082 68.343C79.0674 69.2259 77.8967 70.0692 76.7261 70.9422C75.5058 70.0394 74.3253 69.1664 73.1547 68.2736C72.8199 68.0075 72.4222 67.8321 72 67.7644C71.5777 67.6966 71.1452 67.7387 70.7439 67.8867L69.4443 68.2736C67.8693 68.7938 66.4986 69.7979 65.5278 71.1428C64.5569 72.4878 64.0354 74.1049 64.0376 75.7637C64.0376 77.2319 64.0376 78.6902 64.0376 80.1585C64.0428 81.0602 64.4047 81.9231 65.0441 82.5588C65.6836 83.1945 66.5486 83.5514 67.4503 83.5514H85.8432C86.2925 83.5566 86.7384 83.4728 87.1552 83.3047C87.572 83.1367 87.9514 82.8878 88.2715 82.5723C88.5915 82.2569 88.8459 81.8812 89.02 81.4669C89.1941 81.0526 89.2843 80.6079 89.2856 80.1585Z" fill="#CADAEF" stroke="#0146A6" stroke-miterlimit="10"/>
<path d="M5.72407 58.6011C5.69751 56.6423 6.44755 54.7528 7.81022 53.3455C9.17289 51.9382 11.0373 51.1277 12.9959 51.0911C14.9613 51.0622 16.8578 51.8152 18.268 53.1845C19.6783 54.5538 20.4868 56.4273 20.5157 58.3927C20.5447 60.3582 19.7917 62.2546 18.4224 63.6649C17.053 65.0751 15.1796 65.8836 13.2141 65.9126C11.2552 65.9233 9.37074 65.1621 7.96889 63.7937C6.56703 62.4252 5.76056 60.5597 5.72407 58.6011Z" fill="#CADAEF" stroke="#0146A6" stroke-miterlimit="10"/>
<path d="M25.7936 80.1585C25.7936 78.7002 25.7936 77.2517 25.7936 75.7934C25.7974 74.7529 25.6229 73.7194 25.2777 72.7379C24.1269 69.6426 21.8055 68.6506 19.3253 67.9164C18.8905 67.7567 18.4218 67.7121 17.9647 67.7868C17.5076 67.8616 17.0775 68.0532 16.7162 68.343C15.5753 69.2259 14.4047 70.0692 13.234 70.9422C12.0138 70.0394 10.8332 69.1664 9.6626 68.2736C9.32782 68.0075 8.93015 67.8321 8.50792 67.7644C8.08569 67.6966 7.65312 67.7387 7.25189 67.8867L5.95229 68.2736C4.36981 68.7869 2.99049 69.7881 2.01208 71.1337C1.03366 72.4792 0.506395 74.1 0.505859 75.7637C0.505859 77.2319 0.505859 78.6902 0.505859 80.1585C0.511102 81.0602 0.872966 81.9231 1.5124 82.5588C2.15184 83.1945 3.01688 83.5514 3.91856 83.5514H22.3511C22.8005 83.5566 23.2464 83.4728 23.6632 83.3047C24.08 83.1367 24.4593 82.8878 24.7794 82.5723C25.0995 82.2569 25.3539 81.8812 25.5279 81.4669C25.702 81.0526 25.7923 80.6079 25.7936 80.1585Z" fill="#CADAEF" stroke="#0146A6" stroke-miterlimit="10"/>
<path d="M37.4702 8.00583C37.4436 6.0471 38.1936 4.15753 39.5563 2.75025C40.919 1.34296 42.7834 0.532446 44.742 0.495913C45.7215 0.462622 46.6977 0.626873 47.6124 0.978878C48.5271 1.33088 49.3616 1.86343 50.0661 2.54479C50.7706 3.22615 51.3307 4.04237 51.7131 4.94481C52.0954 5.84724 52.2922 6.81741 52.2916 7.7975C52.314 8.7753 52.1411 9.74776 51.783 10.6579C51.4249 11.568 50.8887 12.3975 50.206 13.0979C49.5232 13.7982 48.7076 14.3552 47.8068 14.7363C46.9061 15.1174 45.9383 15.315 44.9602 15.3173C43.0012 15.3281 41.1168 14.5669 39.715 13.1985C38.3131 11.83 37.5067 9.96452 37.4702 8.00583Z" fill="#CADAEF" stroke="#0146A6" stroke-miterlimit="10"/>
<path d="M57.5395 29.5633C57.5395 28.1049 57.5395 26.6565 57.5395 25.1982C57.5434 24.1577 57.3689 23.1242 57.0237 22.1426C55.8729 19.0474 53.5514 18.0553 51.0713 17.3212C50.6365 17.1615 50.1678 17.1169 49.7107 17.1916C49.2535 17.2664 48.8235 17.458 48.4621 17.7478C47.3213 18.6307 46.1506 19.474 44.98 20.347C43.7598 19.4442 42.5792 18.5712 41.4086 17.6784C41.0738 17.4123 40.6761 17.2369 40.2539 17.1692C39.8317 17.1014 39.3991 17.1435 38.9979 17.2914L37.6983 17.6784C36.1232 18.1985 34.7525 19.2027 33.7817 20.5476C32.8108 21.8926 32.2893 23.5097 32.2915 25.1684C32.2915 26.6367 32.2915 28.095 32.2915 29.5633C32.2968 30.4649 32.6586 31.3279 33.2981 31.9636C33.9375 32.5993 34.8025 32.9561 35.7042 32.9561H54.0971C54.5464 32.9614 54.9924 32.8776 55.4092 32.7095C55.8259 32.5415 56.2053 32.2926 56.5254 31.9771C56.8454 31.6617 57.0998 31.2859 57.2739 30.8716C57.448 30.4573 57.5382 30.0127 57.5395 29.5633Z" fill="#CADAEF" stroke="#0146A6" stroke-miterlimit="10"/>
<path d="M28.0059 59.7221V46.0514C28.0549 45.8435 28.1145 45.6382 28.1844 45.4364C28.3659 44.9875 28.6814 44.6056 29.0881 44.3428C29.4947 44.08 29.9725 43.9492 30.4563 43.9681H50.9225C51.2342 43.9641 51.5434 44.0224 51.8323 44.1395C52.1211 44.2567 52.3836 44.4303 52.6044 44.6502C52.8253 44.8701 53 45.1319 53.1183 45.4202C53.2366 45.7085 53.2962 46.0176 53.2936 46.3292V59.4245C53.3015 59.9239 53.1446 60.4121 52.8471 60.8133C52.6174 61.1372 52.3097 61.3979 51.9525 61.5713C51.5952 61.7447 51.2001 61.8252 50.8035 61.8054H40.4662C40.4056 61.803 40.3453 61.8132 40.2889 61.8354C40.2326 61.8577 40.1814 61.8913 40.1388 61.9344L34.3947 67.113L34.2856 67.1923V61.8054H32.4305C31.6963 61.8054 30.9523 61.8054 30.2182 61.8054C29.7266 61.7812 29.2556 61.6007 28.8738 61.2902C28.492 60.9797 28.2192 60.5555 28.0951 60.0792L28.0059 59.7221Z" stroke="#0146A6" stroke-miterlimit="10"/>
<path d="M55.5554 50.0894C56.5475 50.0894 57.5395 50.0894 58.5316 50.0894C59.0487 50.0987 59.5473 50.2834 59.9456 50.6133C60.344 50.9431 60.6184 51.3985 60.724 51.9048C60.724 51.9644 60.724 52.0239 60.724 52.0933V64.1271C60.707 64.2415 60.6805 64.3543 60.6447 64.4644C60.5323 64.835 60.3169 65.1661 60.0235 65.419C59.7302 65.6719 59.3711 65.8363 58.9879 65.8929C58.7522 65.9362 58.5133 65.9594 58.2736 65.9624H54.474V71.3195L54.3153 71.1806L48.6903 66.0715C48.6505 66.0343 48.6037 66.0055 48.5526 65.9867C48.5015 65.968 48.4471 65.9597 48.3927 65.9624H44.1169C43.5647 65.9842 43.0198 65.8314 42.5594 65.5259C42.2933 65.3508 42.0732 65.1143 41.9178 64.8363C41.7624 64.5583 41.6762 64.247 41.6665 63.9286" stroke="#0146A6" stroke-miterlimit="10"/>
<path d="M32.4702 48.8291H48.3432" stroke="#0146A6" stroke-miterlimit="10" stroke-linecap="round"/>
<path d="M32.4702 52.7974H48.3432" stroke="#0146A6" stroke-miterlimit="10" stroke-linecap="round"/>
<path d="M32.4702 56.7656H48.3432" stroke="#0146A6" stroke-miterlimit="10" stroke-linecap="round"/>
</g>
<defs>
<clipPath id="clip0_9_160">
<rect width="89.752" height="90" fill="white"/>
</clipPath>
</defs>
</svg>
