<svg width="21" height="21" viewBox="0 0 21 21" fill="none" xmlns="http://www.w3.org/2000/svg">
<path fill-rule="evenodd" clip-rule="evenodd" d="M10.4 20.8C16.1438 20.8 20.8 16.1438 20.8 10.4C20.8 4.65624 16.1438 0 10.4 0C4.65624 0 0 4.65624 0 10.4C0 16.1438 4.65624 20.8 10.4 20.8ZM7.2535 11.4861L4.86249 10.5946C4.61934 10.5135 4.61934 10.1488 4.86249 10.0677L14.7102 6.25834C14.9128 6.17729 15.1154 6.37991 15.0749 6.58254L13.2918 15.0929C13.2513 15.2955 13.0081 15.3766 12.846 15.255L10.455 13.5124C10.2929 13.3908 10.0903 13.3908 9.9687 13.5124L8.63137 14.6066C8.46926 14.7282 8.22611 14.6876 8.18558 14.485L7.2535 11.4861ZM12.765 8.16303L8.06401 11.0403C7.86138 11.1214 7.78032 11.3645 7.9019 11.5672L8.38821 13.3503C8.42874 13.5124 8.63137 13.4719 8.63137 13.3503L8.75294 12.3777C8.75294 12.1751 8.87452 12.013 8.99609 11.8914L12.846 8.28461C12.9271 8.24409 12.846 8.12251 12.765 8.16303Z" fill="white"/>
</svg>
