<svg width="20" height="20" viewBox="0 0 20 20" fill="none" xmlns="http://www.w3.org/2000/svg">
<path d="M9.54254 19.9996C4.08725 19.8012 -0.0630093 15.7108 0.000724203 10.2554C0.0690101 4.62132 4.51518 0.658193 9.75043 0.747576C15.3499 0.846048 19.3105 5.19094 19.2528 10.4236C19.1891 16.038 14.8218 19.9209 9.54254 19.9996ZM12.3863 6.43624C12.3863 5.94842 12.4151 5.39395 12.3696 4.84553C12.3559 4.68646 12.1404 4.4168 12.0084 4.41377C11.1784 4.39408 10.3301 4.33802 9.51977 4.48043C8.54708 4.6501 7.92644 5.32274 7.76103 6.31958C7.65178 6.98314 7.60929 7.65729 7.53948 8.34508L6.45753 8.54657C6.22233 10.5948 6.24357 10.6539 7.53645 10.9417C7.55618 10.9857 7.59411 11.0296 7.59411 11.075C7.60474 12.4385 7.61536 13.802 7.61839 15.1548C7.61839 17.3212 7.61839 17.3076 9.79292 17.1864C10.2952 17.1591 10.4409 16.9576 10.4287 16.488C10.4045 15.5563 10.4287 14.6246 10.4287 13.6914V10.8342C10.9007 10.8342 11.2861 10.8887 11.6427 10.8129C11.8521 10.769 12.1435 10.5403 12.1799 10.3585C12.2655 9.79585 12.3192 9.22885 12.3407 8.66019C11.7626 8.03755 10.236 9.18134 10.4181 7.43005C10.5577 6.01508 11.7459 7.01646 12.3863 6.43624Z" fill="#FF8515"/>
</svg>
