<svg width="79" height="91" viewBox="0 0 79 91" fill="none" xmlns="http://www.w3.org/2000/svg">
<g clip-path="url(#clip0_1:298)">
<path d="M74.6936 10.4453L18.5642 0.931519L5.01971 80.8418L61.1491 90.3555L74.6936 10.4453Z" fill="white"/>
<path d="M61.5499 90.93L4.43994 81.25L18.1599 0.359985L75.2699 9.99999L61.5499 90.93ZM5.59994 80.43L60.7299 89.78L74.1199 10.86L18.9999 1.50999L5.59994 80.43Z" fill="#0146A6"/>
<path d="M58.5 83.5H0.5V11.25L11.38 0.5H58.5V83.5Z" fill="white"/>
<path d="M59 84H0V11L11.17 0H59V84ZM1 83H58V1H11.58L1 11.46V83Z" fill="#0146A6"/>
<path d="M43.5 23.5H15.5V24.5H43.5V23.5Z" fill="#0146A6"/>
<path d="M43.5 31.67H15.5V32.67H43.5V31.67Z" fill="#0146A6"/>
<path d="M43.5 39.5H15.5V40.5H43.5V39.5Z" fill="#0146A6"/>
<path d="M43.5 47.67H15.5V48.67H43.5V47.67Z" fill="#0146A6"/>
<path d="M43.5 55.5H15.5V56.5H43.5V55.5Z" fill="#0146A6"/>
<path d="M43.5 63.67H15.5V64.67H43.5V63.67Z" fill="#0146A6"/>
<path d="M11.5 11.5H0.5L11.5 0.5V11.5Z" fill="#CADAEF"/>
<path d="M11.4999 12H0.499914C0.394505 12.0079 0.289331 11.9821 0.199497 11.9264C0.109663 11.8707 0.0397911 11.7879 -8.55513e-05 11.69C-0.0409298 11.5999 -0.0522853 11.4992 -0.0325338 11.4022C-0.0127824 11.3053 0.0370682 11.217 0.109914 11.15L11.1099 0.150045C11.174 0.0614752 11.2671 -0.00196096 11.3729 -0.0293402C11.4788 -0.0567194 11.5909 -0.046328 11.6899 4.45507e-05C11.7878 0.0399212 11.8705 0.109793 11.9262 0.199627C11.9819 0.289461 12.0077 0.394635 11.9999 0.500045V11.5C11.9999 11.6327 11.9472 11.7598 11.8535 11.8536C11.7597 11.9474 11.6325 12 11.4999 12ZM1.70991 11H10.9999V1.71004L1.70991 11Z" fill="#0146A6"/>
<path d="M64.1399 76.09C71.9989 76.09 78.3699 69.719 78.3699 61.86C78.3699 54.001 71.9989 47.63 64.1399 47.63C56.2809 47.63 49.9099 54.001 49.9099 61.86C49.9099 69.719 56.2809 76.09 64.1399 76.09Z" fill="#CADAEF"/>
<path d="M66.0599 76.48C63.0064 76.882 59.9037 76.3174 57.1876 74.8656C54.4714 73.4138 52.2783 71.1476 50.9161 68.3854C49.5539 65.6232 49.0912 62.5037 49.5929 59.465C50.0946 56.4263 51.5355 53.6211 53.7133 51.4434C55.891 49.2656 58.6962 47.8247 61.7349 47.323C64.7736 46.8213 67.8931 47.284 70.6553 48.6462C73.4175 50.0084 75.6837 52.2015 77.1355 54.9177C78.5873 57.6338 79.1519 60.7365 78.7499 63.79C78.3232 67.0058 76.8489 69.9914 74.5551 72.2852C72.2613 74.579 69.2757 76.0533 66.0599 76.48ZM65.9299 48.24C63.0836 47.8655 60.1915 48.3919 57.6598 49.7453C55.128 51.0987 53.0838 53.2111 51.8141 55.7859C50.5445 58.3607 50.1132 61.2685 50.5809 64.101C51.0486 66.9334 52.3917 69.5483 54.4217 71.5782C56.4517 73.6082 59.0665 74.9513 61.899 75.419C64.7314 75.8867 67.6392 75.4555 70.214 74.1858C72.7888 72.9162 74.9012 70.8719 76.2546 68.3402C77.608 65.8084 78.1345 62.9163 77.7599 60.07C77.362 57.0722 75.9877 54.289 73.8493 52.1506C71.711 50.0123 68.9277 48.6379 65.9299 48.24Z" fill="#0146A6"/>
<path d="M63.5099 68.23L57.68 62.23C57.609 62.1327 57.5756 62.013 57.5858 61.8931C57.596 61.7731 57.6492 61.6608 57.7355 61.5769C57.8219 61.493 57.9356 61.443 58.0558 61.4362C58.1761 61.4295 58.2947 61.4663 58.3899 61.54L63.49 66.79L72.1299 57.19C72.2218 57.1106 72.3394 57.0674 72.4608 57.0684C72.5821 57.0693 72.699 57.1144 72.7896 57.1952C72.8802 57.276 72.9383 57.387 72.9531 57.5075C72.9679 57.628 72.9383 57.7497 72.87 57.85L63.5099 68.23Z" fill="#0146A6"/>
</g>
<defs>
<clipPath id="clip0_1:298">
<rect width="78.87" height="90.93" fill="white"/>
</clipPath>
</defs>
</svg>
