<svg width="78" height="90" viewBox="0 0 78 90" fill="none" xmlns="http://www.w3.org/2000/svg">
<g clip-path="url(#clip0_9_224)">
<path d="M38.8265 89.3788C30.7101 82.8403 21.5089 77.7614 14.7239 69.6549C5.55286 59.0487 0.514216 45.4909 0.532572 31.4695C0.483262 24.3985 0.542434 17.3275 0.493124 10.2565C0.483262 9.10267 0.82843 8.7082 1.97241 8.46165C14.0138 5.91727 26.0454 3.20524 38.077 0.591826C38.5935 0.478506 39.1285 0.478506 39.645 0.591826C51.7752 3.20524 63.8955 5.91727 76.0355 8.51096C77.0217 8.71806 77.288 9.08295 77.288 10.0396C77.288 17.7417 77.5247 25.4538 77.2091 33.1461C76.4202 52.2683 68.2446 67.5544 52.929 79.0139C48.3235 82.4557 43.6588 85.7989 38.8265 89.3788ZM70.8186 26.5583C70.8186 21.8048 70.8186 18.5405 70.8186 15.2762C70.8186 14.29 70.5326 13.9646 69.576 13.7575C59.714 11.6372 49.8521 9.44784 40.0395 7.3078C39.285 7.1501 38.506 7.1501 37.7515 7.3078C27.8896 9.44784 18.077 11.6471 8.22488 13.7575C7.18938 13.9745 6.90338 14.3591 6.90338 15.3749C6.90338 20.8285 6.90338 26.292 6.90338 31.7457C7.14993 46.223 12.2781 58.7476 22.7712 68.7181C27.4754 73.1855 32.9882 76.8048 38.1854 80.7595C38.4204 80.8521 38.6738 80.8887 38.9254 80.8665C39.177 80.8442 39.42 80.7637 39.6351 80.6313C42.8896 78.3137 46.1046 75.937 49.3097 73.5504C59.0198 66.417 65.9833 56.1632 69.0336 44.507C70.8679 38.1263 70.9369 31.6076 70.8186 26.5583Z" fill="#CADAEF" stroke="#0146A6" stroke-miterlimit="10"/>
<path d="M28.8956 35.1479C28.8956 33.3136 28.8956 31.7061 28.8956 30.1084C28.8535 28.7694 29.0809 27.4357 29.5643 26.1862C30.0477 24.9368 30.7772 23.7973 31.7094 22.8353C32.6417 21.8732 33.7578 21.1083 34.9914 20.586C36.225 20.0636 37.551 19.7944 38.8907 19.7944C40.2303 19.7944 41.5563 20.0636 42.7899 20.586C44.0235 21.1083 45.1396 21.8732 46.0719 22.8353C47.0042 23.7973 47.7337 24.9368 48.217 26.1862C48.7004 27.4357 48.9278 28.7694 48.8857 30.1084C48.8857 31.7061 48.8857 33.3037 48.8857 35.0887H51.1836C51.454 35.0487 51.73 35.0717 51.9901 35.1559C52.2502 35.2401 52.4873 35.3832 52.683 35.5741C52.8786 35.765 53.0276 35.9985 53.1182 36.2565C53.2088 36.5144 53.2386 36.7898 53.2053 37.0611C53.2053 42.6232 53.2053 48.1755 53.2053 53.7376C53.2418 54.0005 53.2175 54.2682 53.1344 54.5202C53.0513 54.7722 52.9115 55.0017 52.7258 55.1913C52.5401 55.3808 52.3134 55.5252 52.0631 55.6134C51.8129 55.7017 51.5457 55.7313 51.2822 55.7001C42.985 55.7001 34.6944 55.7001 26.4104 55.7001C26.1626 55.7242 25.9126 55.6935 25.6781 55.6101C25.4436 55.5267 25.2302 55.3927 25.0533 55.2177C24.8764 55.0426 24.7401 54.8307 24.6542 54.5971C24.5683 54.3635 24.5349 54.1138 24.5563 53.8658C24.5563 48.2051 24.5563 42.5476 24.5563 36.8934C24.5416 36.6587 24.5773 36.4235 24.6611 36.2037C24.7449 35.9839 24.8748 35.7846 25.0421 35.6192C25.2093 35.4539 25.4101 35.3262 25.6308 35.2449C25.8515 35.1636 26.0871 35.1305 26.3216 35.1479C27.1204 35.1183 27.8995 35.1479 28.8956 35.1479ZM43.8857 35.0591C43.8857 33.0867 44.0139 31.2524 43.8857 29.4181C43.7391 28.2424 43.174 27.1588 42.2938 26.3656C41.4137 25.5724 40.2774 25.1226 39.0928 25.0986C37.9329 25.0246 36.7853 25.372 35.8612 26.0769C34.937 26.7817 34.2986 27.7967 34.0632 28.9349C33.9297 30.9741 33.9297 33.0199 34.0632 35.0591H43.8857ZM38.7575 50.4536C41.2822 50.4536 41.3414 50.4536 40.6707 48.0276C40.365 46.9526 40.2467 46.1341 41.2526 45.2169C42.2585 44.2998 42.0218 42.3175 40.9272 41.2721C40.3769 40.7476 39.6459 40.455 38.8857 40.455C38.1256 40.455 37.3945 40.7476 36.8443 41.2721C35.7398 42.2583 35.4341 44.2307 36.5386 45.2169C37.6431 46.2031 37.3571 47.1005 37.0711 48.1755C36.4893 50.3451 36.5879 50.4437 38.7575 50.4536Z" stroke="#0146A6" stroke-miterlimit="10"/>
</g>
<defs>
<clipPath id="clip0_9_224">
<rect width="77.86" height="90" fill="white"/>
</clipPath>
</defs>
</svg>
