<svg width="49" height="50" viewBox="0 0 49 50" fill="none" xmlns="http://www.w3.org/2000/svg">
<g opacity="0.5" clip-path="url(#clip0_154_229)">
<path d="M48.7494 2.01381C48.5312 1.82249 48.2208 1.77811 47.9577 1.90013L0.422611 23.9863C0.166697 24.1053 0.00189928 24.3606 -0.00117696 24.6427C-0.00425319 24.9249 0.155125 25.1837 0.408548 25.3081L13.8609 31.91C14.1076 32.0311 14.4017 32.0037 14.6221 31.8391L27.7015 22.0634L17.4336 32.6251C17.2871 32.7758 17.2124 32.9822 17.2285 33.1917L18.2508 46.5058C18.2736 46.8008 18.4713 47.0531 18.7524 47.1455C18.8276 47.1701 18.9048 47.1821 18.9811 47.1821C19.1904 47.1821 19.394 47.0923 19.5357 46.9283L26.6758 38.6544L35.5024 42.8717C35.694 42.9633 35.9157 42.9671 36.1104 42.8824C36.3051 42.7976 36.4534 42.6327 36.5169 42.4302L48.9651 2.78389C49.0521 2.50703 48.9673 2.20512 48.7494 2.01381Z" fill="rgba(255,255,255,0.5)"/>
</g>
<defs>
<clipPath id="clip0_154_229">
<rect width="49" height="49" fill="rgba(255,255,255,0.5)" transform="translate(0 0.0078125)"/>
</clipPath>
</defs>
</svg>
