<svg width="62" height="62" viewBox="0 0 62 62" fill="none" xmlns="http://www.w3.org/2000/svg">
<circle cx="31" cy="31" r="30.5" stroke="#0F4881"/>
<path d="M35.2448 25.9314L35.3657 26.2577H35.7137H46.7283H46.7405L46.7526 26.2571C46.99 26.2456 47.2278 26.2672 47.4591 26.3213C47.6178 26.3626 47.76 26.4515 47.8666 26.576C47.9741 26.7016 48.0403 26.8574 48.0559 27.022L48.0573 27.0366L48.0596 27.0512C48.0869 27.2274 48.061 27.4078 47.9851 27.5693C47.9093 27.7308 47.787 27.8659 47.634 27.9575L47.6149 27.9689L47.597 27.9819L40.2643 33.302L40.2635 33.3026C40.088 33.4305 39.929 33.5538 39.7772 33.6716C39.4866 33.8969 39.2219 34.1023 38.9162 34.2818C38.6133 34.4597 38.3666 34.6941 38.293 35.044C38.2324 35.3325 38.3173 35.6181 38.3723 35.8032C38.3743 35.8097 38.3762 35.8161 38.378 35.8223L38.378 35.8223L38.3801 35.8293C39.1577 38.32 39.9221 40.8103 40.6868 43.3019C40.942 44.1333 41.1972 44.9648 41.453 45.7965L41.4629 45.829L41.4772 45.8597C41.5639 46.0469 41.5905 46.2563 41.5532 46.4592C41.516 46.6619 41.4169 46.8482 41.2696 46.9924C41.0979 47.1595 40.8678 47.2529 40.6282 47.2529C40.3884 47.2529 40.1581 47.1593 39.9864 46.992L39.9611 46.9673L39.9326 46.9465L31.6144 40.8658C31.4766 40.7596 31.33 40.6595 31.1869 40.5618C31.139 40.5292 31.0915 40.4967 31.0449 40.4644L30.7527 40.2622L30.4657 40.4715L23.8141 45.3218C23.8137 45.3221 23.8133 45.3224 23.8128 45.3227C23.6167 45.4639 23.4212 45.6052 23.2261 45.7462C22.6418 46.1683 22.061 46.5879 21.4793 46.9951L21.4554 47.0119L21.4336 47.0313C21.2877 47.1611 21.1009 47.2356 20.9058 47.2419C20.7106 47.2481 20.5194 47.1857 20.3656 47.0654L20.3538 47.0562L20.3416 47.0478C20.1776 46.9346 20.0568 46.7692 19.9989 46.5785C19.9411 46.3878 19.9496 46.1831 20.0231 45.9979L20.0302 45.98L20.0359 45.9617C20.4896 44.5011 20.9375 43.0413 21.3852 41.5822C21.9526 39.733 22.5198 37.8848 23.0979 36.0369C23.2515 35.7092 23.2752 35.3346 23.163 34.9893C23.0501 34.6421 22.8089 34.3519 22.4895 34.1774C19.9031 32.3356 17.3418 30.4558 14.7566 28.5584C14.4851 28.3591 14.2133 28.1597 13.9412 27.96L13.9281 27.9504L13.9143 27.9416C13.7494 27.8364 13.6234 27.6801 13.5555 27.4965C13.4881 27.314 13.4819 27.1146 13.5378 26.9283C13.6018 26.73 13.7312 26.5592 13.9049 26.4441C14.0795 26.3283 14.2884 26.2756 14.497 26.2947L14.5197 26.2967H14.5426H14.5635H14.5844H14.6054H14.6263H14.6472H14.6682H14.6891H14.71H14.731H14.7519H14.7728H14.7938H14.8147H14.8356H14.8566H14.8775H14.8984H14.9194H14.9403H14.9612H14.9822H15.0031H15.024H15.045H15.0659H15.0868H15.1078H15.1287H15.1496H15.1706H15.1915H15.2124H15.2334H15.2543H15.2752H15.2962H15.3171H15.338H15.359H15.3799H15.4008H15.4218H15.4427H15.4636H15.4846H15.5055H15.5264H15.5474H15.5683H15.5893H15.6102H15.6311H15.6521H15.673H15.6939H15.7149H15.7358H15.7567H15.7777H15.7986H15.8195H15.8405H15.8614H15.8823H15.9033H15.9242H15.9451H15.9661H15.987H16.0079H16.0289H16.0498H16.0707H16.0917H16.1126H16.1335H16.1545H16.1754H16.1963H16.2173H16.2382H16.2591H16.2801H16.301H16.3219H16.3429H16.3638H16.3847H16.4057H16.4266H16.4475H16.4685H16.4894H16.5103H16.5313H16.5522H16.5731H16.5941H16.615H16.6359H16.6569H16.6778H16.6988H16.7197H16.7406H16.7616H16.7825H16.8034H16.8244H16.8453H16.8662H16.8872H16.9081H16.929H16.95H16.9709H16.9918H17.0128H17.0337H17.0546H17.0756H17.0965H17.1174H17.1384H17.1593H17.1802H17.2012H17.2221H17.243H17.264H17.2849H17.3058H17.3268H17.3477H17.3686H17.3896H17.4105H17.4314H17.4524H17.4733H17.4942H17.5152H17.5361H17.557H17.578H17.5989H17.6198H17.6408H17.6617H17.6826H17.7036H17.7245H17.7454H17.7664H17.7873H17.8083H17.8292H17.8501H17.8711H17.892H17.9129H17.9339H17.9548H17.9757H17.9967H18.0176H18.0385H18.0595H18.0804H18.1013H18.1223H18.1432H18.1641H18.1851H18.206H18.2269H18.2479H18.2688H18.2897H18.3107H18.3316H18.3525H18.3735H18.3944H18.4153H18.4363H18.4572H18.4781H18.4991H18.52H18.5409H18.5619H18.5828H18.6037H18.6247H18.6456H18.6665H18.6875H18.7084H18.7293H18.7503H18.7712H18.7921H18.8131H18.834H18.8549H18.8759H18.8968H18.9178H18.9387H18.9596H18.9806H19.0015H19.0224H19.0434H19.0643H19.0852H19.1062H19.1271H19.148H19.169H19.1899H19.2108H19.2318H19.2527H19.2736H19.2946H19.3155H19.3364H19.3574H19.3783H19.3992H19.4202H19.4411H19.462H19.483H19.5039H19.5248H19.5458H19.5667H19.5876H19.6086H19.6295H19.6504H19.6714H19.6923H19.7132H19.7342H19.7551H19.776H19.797H19.8179H19.8388H19.8598H19.8807H19.9016H19.9226H19.9435H19.9644H19.9854H20.0063H20.0273H20.0482H20.0691H20.0901H20.111H20.1319H20.1529H20.1738H20.1947H20.2157H20.2366H20.2575H20.2785H20.2994H20.3203H20.3413H20.3622H20.3831H20.4041H20.425H20.4459H20.4669H20.4878H20.5087H20.5297H20.5506H20.5715H20.5925H20.6134H20.6343H20.6553H20.6762H20.6971H20.7181H20.739H20.7599H20.7809H20.8018H20.8227H20.8437H20.8646H20.8855H20.9065H20.9274H20.9483H20.9693H20.9902H21.0111H21.0321H21.053H21.0739H21.0949H21.1158H21.1368H21.1577H21.1786H21.1996H21.2205H21.2414H21.2624H21.2833H21.3042H21.3252H21.3461H21.367H21.388H21.4089H21.4298H21.4508H21.4717H21.4926H21.5136H21.5345H21.5554H21.5764H21.5973H21.6182H21.6392H21.6601H21.681H21.702H21.7229H21.7438H21.7648H21.7857H21.8066H21.8276H21.8485H21.8694H21.8904H21.9113H21.9322H21.9532H21.9741H21.995H22.016H22.0369H22.0578H22.0788H22.0997H22.1206H22.1416H22.1625H22.1834H22.2044H22.2253H22.2463H22.2672H22.2881H22.3091H22.33H22.3509H22.3719H22.3928H22.4137H22.4347H22.4556H22.4765H22.4975H22.5184H22.5393H22.5603H22.5812H22.6021H22.6231H22.644H22.6649H22.6859H22.7068H22.7277H22.7487H22.7696H22.7905H22.8115H22.8324H22.8533H22.8743H22.8952H22.9161H22.9371H22.958H22.9789H22.9999H23.0208H23.0417H23.0627H23.0836H23.1045H23.1255H23.1464H23.1673H23.1883H23.2092H23.2301H23.2511H23.272H23.2929H23.3139H23.3348H23.3558H23.3767H23.3976H23.4186H23.4395H23.4604H23.4814H23.5023H23.5232H23.5442H23.5651H23.586H23.607H23.6279H23.6488H23.6698H23.6907H23.7116H23.7326H23.7535H23.7744H23.7954H23.8163H23.8372H23.8582H23.8791H23.9H23.921H23.9419H23.9628H23.9838H24.0047H24.0256H24.0466H24.0675H24.0884H24.1094H24.1303H24.1512H24.1722H24.1931H24.214H24.235H24.2559H24.2768H24.2978H24.3187H24.3396H24.3606H24.3815H24.4025H24.4234H24.4443H24.4653H24.4862H24.5071H24.5281H24.549H24.5699H24.5909H24.6118H24.6327H24.6537H24.6746H24.6955H24.7165H24.7374H24.7583H24.7793H24.8002H24.8211H24.8421H24.863H24.8839H24.9049H24.9258H24.9467H24.9677H24.9886H25.0095H25.0305H25.0514H25.0723H25.0933H25.1142H25.1351H25.1561H25.177H25.1979H25.2189H25.2247C25.5295 26.3358 25.8386 26.2589 26.09 26.0803C26.3436 25.9002 26.5187 25.6308 26.5809 25.3272C27.6616 21.9456 28.7656 18.5714 29.87 15.2194L29.8764 15.2L29.8812 15.1802C29.9087 15.0662 29.9584 14.9589 30.0276 14.8642C30.0968 14.7696 30.184 14.6896 30.2842 14.6288C30.3844 14.568 30.4957 14.5277 30.6115 14.5101C30.7274 14.4925 30.8457 14.498 30.9594 14.5263L30.9769 14.5306L30.9947 14.5337C31.1779 14.5655 31.3471 14.6524 31.4794 14.783C31.6118 14.9136 31.7011 15.0815 31.7353 15.2643L31.7412 15.2953L31.7508 15.3253C32.3241 17.107 32.906 18.893 33.4896 20.684C34.0077 22.2741 34.5271 23.8682 35.0428 25.4666L35.0699 25.5505L35.1154 25.609C35.1159 25.6099 35.1165 25.611 35.1171 25.6122C35.1238 25.6253 35.1337 25.6462 35.1469 25.6776C35.174 25.7415 35.2052 25.8245 35.2448 25.9314Z" fill="#E1ECF9" stroke="#0F4881"/>
</svg>
