<svg width="21" height="21" viewBox="0 0 21 21" fill="none" xmlns="http://www.w3.org/2000/svg">
<path d="M10.3098 20.8016C4.41588 20.5872 -0.0680754 16.1679 0.000782431 10.2739C0.0745587 4.18681 4.87822 -0.0949682 10.5344 0.00160092C16.5841 0.107991 20.8631 4.80223 20.8008 10.4556C20.7319 16.5215 16.0135 20.7165 10.3098 20.8016ZM13.3822 6.14765C13.3822 5.62061 13.4133 5.02156 13.3641 4.42905C13.3494 4.25719 13.1166 3.96584 12.9739 3.96257C12.0771 3.94129 11.1607 3.88073 10.2852 4.03459C9.2343 4.21791 8.56375 4.94463 8.38505 6.02162C8.26701 6.73852 8.2211 7.46688 8.14569 8.20997L6.97674 8.42766C6.72262 10.6406 6.74558 10.7044 8.14241 11.0154C8.16372 11.0629 8.20471 11.1103 8.20471 11.1594C8.21618 12.6325 8.22766 14.1056 8.23094 15.5672C8.23094 17.9078 8.23094 17.8931 10.5803 17.7621C11.123 17.7327 11.2804 17.515 11.2672 17.0076C11.241 16.001 11.2672 14.9944 11.2672 13.9861V10.8992C11.7771 10.8992 12.1935 10.9581 12.5788 10.8763C12.8051 10.8288 13.1198 10.5816 13.1592 10.3852C13.2517 9.77738 13.3097 9.1648 13.333 8.55042C12.7083 7.87771 11.059 9.11347 11.2558 7.22137C11.4066 5.69263 12.6903 6.77453 13.3822 6.14765Z" fill="white"/>
</svg>
