<svg width="33" height="38" viewBox="0 0 33 38" fill="none" xmlns="http://www.w3.org/2000/svg">
<path d="M32.3643 7.27769L32.6702 8.03598C32.6672 8.0699 32.6672 8.10402 32.6702 8.13794C32.7536 8.60146 32.8089 9.06961 32.8358 9.53982C32.8358 14.3827 32.8358 19.2255 32.8358 24.0684C32.8358 27.0378 32.8358 30.0072 32.8358 32.9894C32.8128 34.195 32.3219 35.3443 31.4669 36.1945C30.6119 37.0447 29.4599 37.5292 28.2542 37.5455C26.9033 37.5455 25.5461 37.5455 24.1952 37.5455C17.7083 37.5455 11.2257 37.5455 4.74727 37.5455C4.00233 37.5633 3.26437 37.3984 2.59789 37.0652C1.93141 36.7319 1.35669 36.2405 0.923966 35.6339C0.777406 35.4427 0.656334 35.2324 0.522519 34.9967L0.20391 34.2001C0.207062 34.1684 0.207062 34.1363 0.20391 34.1046C0.109082 33.6394 0.0410004 33.1692 0 32.6963C0 31.2371 0 29.8352 0 28.4078C0 22.0866 0.0127444 15.7654 0.0382331 9.44423C0.0261118 8.81497 0.141116 8.18974 0.376358 7.60597C0.611601 7.02221 0.962241 6.49193 1.40728 6.04689C1.85232 5.60185 2.3826 5.25121 2.96636 5.01597C3.55012 4.78073 4.17536 4.66573 4.80462 4.67785H8.2456V2.33926C9.25877 2.33926 10.2528 2.33926 11.2469 2.33926C11.3415 2.32959 11.4295 2.28669 11.4954 2.21819C11.8297 1.86558 12.185 1.53362 12.5596 1.22413C13.9208 0.244479 15.6081 -0.171056 17.2686 0.0643905C18.0765 0.129772 18.8627 0.358971 19.5791 0.738021C20.2956 1.11707 20.9274 1.63803 21.436 2.26916C21.5044 2.32958 21.5933 2.36151 21.6845 2.35837C22.3727 2.35837 23.0609 2.35837 23.7555 2.35837H24.6603V4.70334H24.8515C25.9666 4.70334 27.0754 4.70334 28.1841 4.70334C28.9284 4.68991 29.6648 4.85676 30.3306 5.18964C30.9963 5.52252 31.5717 6.01155 32.0074 6.61499C32.1094 6.85076 32.2305 7.07378 32.3643 7.27769ZM22.3026 9.39326V4.70334H19.7155C19.6912 4.30775 19.5597 3.92622 19.3352 3.59959C19.1108 3.27296 18.8017 3.01352 18.4411 2.84903C17.8362 2.52606 17.161 2.3571 16.4753 2.3571C15.7895 2.3571 15.1144 2.52606 14.5094 2.84903C13.9591 3.09917 13.5305 3.55754 13.3179 4.12347C13.252 4.33248 13.1988 4.54528 13.1585 4.76068H10.6097V9.44423L22.3026 9.39326ZM7.79955 22.316C7.67878 22.3886 7.5618 22.4673 7.44908 22.5518C7.26348 22.7119 7.13273 22.9262 7.07522 23.1645C7.01771 23.4028 7.03633 23.6531 7.12845 23.8802C7.22058 24.1074 7.38158 24.2999 7.58883 24.4308C7.79607 24.5618 8.03913 24.6244 8.28383 24.61H20.6395H24.5966C24.9076 24.61 25.2058 24.4865 25.4257 24.2666C25.6456 24.0467 25.7691 23.7485 25.7691 23.4375C25.7691 23.1266 25.6456 22.8284 25.4257 22.6085C25.2058 22.3886 24.9076 22.2651 24.5966 22.2651H20.837H8.37941C8.18532 22.2712 7.99173 22.2882 7.79955 22.316ZM25.0681 30.4278C25.2253 30.36 25.366 30.2592 25.4807 30.1321C25.5953 30.005 25.6813 29.8548 25.7327 29.6915C25.7841 29.5283 25.7997 29.3559 25.7785 29.186C25.7573 29.0162 25.6997 28.8529 25.6098 28.7073C25.4816 28.5152 25.3036 28.3616 25.0948 28.2628C24.8861 28.1641 24.6544 28.1239 24.4246 28.1466H15.1594H8.28383C8.12302 28.1347 7.96148 28.1561 7.80933 28.2095C7.65717 28.2629 7.51765 28.3471 7.39951 28.4568C7.28136 28.5665 7.18712 28.6995 7.12268 28.8473C7.05823 28.9951 7.02497 29.1546 7.02497 29.3159C7.02497 29.4771 7.05823 29.6366 7.12268 29.7844C7.18712 29.9323 7.28136 30.0652 7.39951 30.1749C7.51765 30.2847 7.65717 30.3689 7.80933 30.4222C7.96148 30.4756 8.12302 30.497 8.28383 30.4852H9.4818H24.5775C24.7419 30.4744 24.9057 30.4552 25.0681 30.4278ZM7.78043 16.4664C7.5282 16.5793 7.32162 16.7743 7.19434 17.0196C7.06706 17.2649 7.02658 17.546 7.07949 17.8173C7.13896 18.0896 7.29204 18.3325 7.51208 18.5037C7.73213 18.6748 8.00522 18.7634 8.28383 18.754H18.4793H24.5393C24.8353 18.7651 25.126 18.6727 25.3613 18.4927C25.5588 18.3372 25.701 18.1222 25.7671 17.8796C25.8331 17.637 25.8194 17.3796 25.728 17.1454C25.6366 16.9112 25.4724 16.7126 25.2595 16.5788C25.0466 16.4451 24.7963 16.3833 24.5456 16.4027H8.32206C8.14056 16.4148 7.95978 16.436 7.78043 16.4664Z" fill="#004584"/>
</svg>
