<svg width="74" height="90" viewBox="0 0 74 90" fill="none" xmlns="http://www.w3.org/2000/svg">
<g clip-path="url(#clip0_9_176)">
<path d="M58.0421 82.8464H0.496094V11.162L11.2909 0.496094H58.0421V82.8464Z" fill="white" stroke="#0146A6" stroke-miterlimit="10"/>
<path d="M15.3787 23.812H43.1595" stroke="#0146A6" stroke-miterlimit="10"/>
<path d="M15.3787 31.918H43.1595" stroke="#0146A6" stroke-miterlimit="10"/>
<path d="M15.3787 39.687H43.1595" stroke="#0146A6" stroke-miterlimit="10"/>
<path d="M15.3787 47.793H43.1595" stroke="#0146A6" stroke-miterlimit="10"/>
<path d="M15.3787 55.5615H43.1595" stroke="#0146A6" stroke-miterlimit="10"/>
<path d="M15.3787 63.668H37.2065" stroke="#0146A6" stroke-miterlimit="10"/>
<path d="M11.41 11.41H0.496094L11.41 0.496094V11.41Z" fill="#CADAEF" stroke="#0146A6" stroke-linejoin="round"/>
<path d="M72.9247 40.4607C72.4882 43.3082 70.8709 45.6398 69.5712 48.1004C67.4182 52.1683 65.1461 56.1767 62.9435 60.2347C62.8158 60.4753 62.6332 60.6824 62.4107 60.8394C62.1881 60.9964 61.9318 61.0988 61.6623 61.1384C61.3928 61.178 61.1178 61.1537 60.8595 61.0674C60.6012 60.981 60.3668 60.8351 60.1753 60.6415C59.9242 60.4518 59.7485 60.1792 59.6794 59.8722C59.6104 59.5652 59.6525 59.2436 59.7983 58.9647C60.6615 57.1788 61.5445 55.4028 62.4672 53.6467C64.3722 50.0153 66.2474 46.3641 68.2516 42.7923C68.7623 41.8629 69.0817 40.8406 69.1907 39.7858C69.2998 38.731 69.1964 37.665 68.8866 36.6507C68.7477 36.0951 68.5592 35.5494 68.3905 35.0037H68.2317L67.8944 35.5891L58.9152 52.079C58.7664 52.3469 58.6176 52.6247 58.4588 52.8926C58.0223 53.6368 57.9925 53.6864 57.2583 53.2895C54.9962 52.079 52.7737 50.8091 50.5215 49.5887C50.0055 49.3109 50.2337 49.0033 50.4024 48.6759C52.7241 44.3996 55.016 40.1134 57.3476 35.857C59.6792 31.6006 61.9116 27.6319 64.2134 23.5243C64.3388 23.2819 64.517 23.0707 64.7348 22.9062C64.9526 22.7417 65.2045 22.6282 65.472 22.5739C65.7395 22.5197 66.0157 22.5261 66.2804 22.5927C66.5451 22.6593 66.7915 22.7844 67.0014 22.9588C67.2197 22.6611 67.4578 22.3635 67.6563 22.036C68.2218 21.1133 68.7477 20.1509 69.333 19.248C69.5315 18.8939 69.8619 18.6326 70.2522 18.5211C70.6425 18.4096 71.0611 18.4569 71.4166 18.6527C71.6275 18.7262 71.8206 18.843 71.9836 18.9957C72.1465 19.1484 72.2756 19.3336 72.3625 19.5393C72.4495 19.745 72.4924 19.9666 72.4884 20.1899C72.4844 20.4131 72.4336 20.6331 72.3393 20.8355C71.9822 21.6987 71.5258 22.5123 71.109 23.3457C70.8808 23.7922 70.6328 24.2287 70.3848 24.6951C70.7618 24.9233 71.109 25.0919 71.3769 25.3201C71.5831 25.4252 71.7651 25.5721 71.9114 25.7514C72.0578 25.9307 72.1651 26.1385 72.2267 26.3615C72.2883 26.5846 72.3028 26.818 72.2692 27.047C72.2357 27.276 72.1548 27.4954 72.0318 27.6914C71.5853 28.6836 71.0396 29.6758 70.5832 30.6084C70.5347 30.716 70.5096 30.8327 70.5096 30.9507C70.5096 31.0687 70.5347 31.1854 70.5832 31.293C71.7808 33.3287 72.5506 35.5873 72.8453 37.9307C72.8549 38.0039 72.8785 38.0747 72.9148 38.139L72.9247 40.4607Z" fill="white" stroke="#0146A6" stroke-miterlimit="10"/>
<path d="M55.6807 56.7226C53.4285 55.4923 51.1861 54.2323 48.9339 53.002C48.289 52.6448 48.1699 52.6944 47.8128 53.379C44.0756 60.3375 40.345 67.2827 36.621 74.2147C34.3589 78.4711 33.5156 83.1442 32.8012 87.8471C32.7998 88.0011 32.7798 88.1543 32.7417 88.3035C32.7417 88.7401 32.6524 89.3751 32.8012 89.5239C32.95 89.6727 34.726 88.6309 35.7182 88.0455C36.3432 87.5197 36.9584 86.9938 37.5636 86.4382C40.689 83.5808 43.6556 80.5943 45.501 76.6951C45.8284 76.0105 46.2352 75.3755 46.6023 74.7107C49.7045 69.0091 52.81 63.3041 55.9188 57.5958C56.1172 57.189 56.1172 56.9608 55.6807 56.7226Z" fill="#CADAEF" stroke="#0146A6" stroke-miterlimit="10"/>
</g>
<defs>
<clipPath id="clip0_9_176">
<rect width="73.4208" height="90" fill="white"/>
</clipPath>
</defs>
</svg>
