<svg width="20" height="15" viewBox="0 0 20 15" fill="none" xmlns="http://www.w3.org/2000/svg">
<path fill-rule="evenodd" clip-rule="evenodd" d="M2 0H18C19.1 0 20 0.84375 20 1.875V13.125C20 14.1562 19.1 15 18 15H2C0.9 15 0 14.1562 0 13.125V1.875C0 0.84375 0.9 0 2 0ZM11.06 7.81877L17.6 3.98439C17.85 3.83439 18 3.58127 18 3.30939C18 2.68127 17.27 2.30627 16.7 2.63439L10 6.56252L3.3 2.63439C2.73 2.30627 2 2.68127 2 3.30939C2 3.58127 2.15 3.83439 2.4 3.98439L8.94 7.81877C9.59 8.20314 10.41 8.20314 11.06 7.81877Z" fill="#FF8515"/>
</svg>
