<svg width="156" height="31" viewBox="0 0 156 31" fill="none" xmlns="http://www.w3.org/2000/svg">
<g opacity="0.7">
<path d="M36.4111 0.496094H59.8392V5.85092H43.0868V11.8221H51.1328C54.644 11.8221 57.3186 12.5559 59.1568 14.0235C60.9949 15.4911 61.9121 17.6062 61.9085 20.3689C61.9085 23.2711 60.8848 25.5238 58.8376 27.1271C56.7903 28.7305 53.9047 29.5303 50.1807 29.5266H36.4221L36.4111 0.496094ZM49.8065 24.5515C51.5162 24.5515 52.8297 24.2122 53.7469 23.5334C54.2001 23.19 54.5617 22.7401 54.7997 22.2237C55.0378 21.7073 55.1449 21.1402 55.1118 20.5726C55.1118 18.0227 53.3433 16.7495 49.8065 16.7532H43.0868V24.5515H49.8065Z" fill="white"/>
<path d="M67.0146 0.500488H73.6903V19.4102L87.5424 0.500488H93.8438V29.5255H87.2122V10.6598L73.3601 29.5255H67.0146V0.500488Z" fill="white"/>
<path d="M106.507 28.0951C104.172 26.8637 102.22 25.013 100.866 22.7458C99.4885 20.4144 98.7784 17.7489 98.8136 15.041C98.7734 12.3221 99.4837 9.64468 100.866 7.30321C102.219 5.02838 104.17 3.16853 106.507 1.92637C108.802 0.769925 111.318 0.118071 113.886 0.0146028C116.454 -0.0888652 119.014 0.358451 121.394 1.32649C123.379 2.17517 125.135 3.48217 126.518 5.14036L122.203 9.12484C121.321 8.04531 120.207 7.17879 118.943 6.5899C117.68 6.00101 116.3 5.70492 114.906 5.72373C113.227 5.69203 111.568 6.09993 110.096 6.90696C108.704 7.67188 107.559 8.81719 106.794 10.209C105.989 11.6828 105.581 13.3402 105.61 15.019C105.586 16.6926 105.996 18.3439 106.799 19.8125C107.566 21.203 108.711 22.3479 110.101 23.1145C111.575 23.9189 113.232 24.3267 114.911 24.2978C116.309 24.3145 117.693 24.013 118.957 23.4162C120.221 22.8193 121.333 21.9427 122.209 20.8526L126.523 24.8371C125.147 26.518 123.383 27.8399 121.383 28.6895C119.217 29.6002 116.886 30.0536 114.537 30.0213C111.743 30.0604 108.983 29.3962 106.513 28.0896" fill="white"/>
<path d="M135.996 28.0951C133.659 26.8654 131.707 25.0143 130.355 22.7458C128.974 20.4154 128.264 17.7493 128.302 15.041C128.259 12.3217 128.969 9.64357 130.355 7.30321C131.706 5.02713 133.657 3.16691 135.996 1.92637C138.291 0.769925 140.806 0.118071 143.374 0.0146028C145.942 -0.0888652 148.502 0.358451 150.882 1.32649C152.865 2.17665 154.619 3.48347 156.001 5.14036L151.691 9.12484C150.809 8.04622 149.694 7.18036 148.431 6.59155C147.167 6.00274 145.788 5.70612 144.394 5.72373C142.715 5.69203 141.057 6.09993 139.584 6.90696C138.193 7.67261 137.048 8.81774 136.282 10.209C135.479 11.6832 135.073 13.3407 135.104 15.019C135.077 16.6916 135.483 18.3429 136.282 19.8125C137.049 21.2027 138.194 22.3474 139.584 23.1145C141.058 23.9189 142.715 24.3267 144.394 24.2978C145.792 24.3133 147.175 24.0113 148.439 23.4145C149.703 22.8177 150.815 21.9418 151.691 20.8526L156.001 24.8371C154.625 26.5193 152.861 27.8415 150.86 28.6895C148.696 29.5994 146.367 30.0528 144.02 30.0213C141.225 30.0618 138.466 29.3975 135.996 28.0896" fill="white"/>
<path d="M18.9373 0.500488H12.9385L0 29.5255H6.86827L18.9373 0.500488Z" fill="white"/>
<path d="M20.2906 2.09717L17.2362 9.56531L20.8189 18.2057H13.7085L11.6282 23.3074H22.9322L25.5023 29.5262H32.5522L20.2906 2.09717Z" fill="white"/>
</g>
</svg>
