<svg width="156" height="31" viewBox="0 0 156 31" fill="none" xmlns="http://www.w3.org/2000/svg">
<path d="M36.4111 0.8396H59.8392V6.19443H43.0868V12.1656H51.1328C54.644 12.1656 57.3186 12.8994 59.1568 14.367C60.9949 15.8346 61.9121 17.9497 61.9085 20.7125C61.9085 23.6146 60.8848 25.8673 58.8376 27.4707C56.7903 29.074 53.9047 29.8738 50.1807 29.8701H36.4221L36.4111 0.8396ZM49.8065 24.8951C51.5162 24.8951 52.8297 24.5557 53.7469 23.8769C54.2001 23.5335 54.5617 23.0836 54.7997 22.5672C55.0378 22.0508 55.1449 21.4837 55.1118 20.9161C55.1118 18.3662 53.3433 17.093 49.8065 17.0967H43.0868V24.8951H49.8065Z" fill="#004584"/>
<path d="M67.0146 0.844238H73.6903V19.754L87.5424 0.844238H93.8438V29.8693H87.2122V11.0036L73.3601 29.8693H67.0146V0.844238Z" fill="#004584"/>
<path d="M106.507 28.4389C104.172 27.2075 102.22 25.3567 100.866 23.0896C99.4885 20.7581 98.7784 18.0927 98.8136 15.3848C98.7734 12.6658 99.4837 9.98843 100.866 7.64696C102.219 5.37213 104.17 3.51228 106.507 2.27012C108.802 1.11368 111.318 0.461821 113.886 0.358353C116.454 0.254885 119.014 0.702201 121.394 1.67024C123.379 2.51892 125.135 3.82592 126.518 5.48411L122.203 9.46859C121.321 8.38906 120.207 7.52254 118.943 6.93365C117.68 6.34476 116.3 6.04867 114.906 6.06748C113.227 6.03578 111.568 6.44368 110.096 7.25071C108.704 8.01563 107.559 9.16094 106.794 10.5528C105.989 12.0265 105.581 13.684 105.61 15.3628C105.586 17.0364 105.996 18.6877 106.799 20.1562C107.566 21.5468 108.711 22.6917 110.101 23.4583C111.575 24.2627 113.232 24.6704 114.911 24.6415C116.309 24.6583 117.693 24.3568 118.957 23.7599C120.221 23.1631 121.333 22.2864 122.209 21.1964L126.523 25.1809C125.147 26.8618 123.383 28.1837 121.383 29.0333C119.217 29.9439 116.886 30.3973 114.537 30.3651C111.743 30.4042 108.983 29.7399 106.513 28.4334" fill="#004584"/>
<path d="M135.996 28.4389C133.659 27.2091 131.707 25.358 130.355 23.0896C128.974 20.7591 128.264 18.093 128.302 15.3848C128.259 12.6655 128.969 9.98732 130.355 7.64696C131.706 5.37088 133.657 3.51066 135.996 2.27012C138.291 1.11368 140.806 0.461821 143.374 0.358353C145.942 0.254885 148.502 0.702201 150.882 1.67024C152.865 2.5204 154.619 3.82722 156.001 5.48411L151.691 9.46859C150.809 8.38997 149.694 7.52411 148.431 6.9353C147.167 6.34649 145.788 6.04987 144.394 6.06748C142.715 6.03578 141.057 6.44368 139.584 7.25071C138.193 8.01636 137.048 9.16149 136.282 10.5528C135.479 12.027 135.073 13.6845 135.104 15.3628C135.077 17.0354 135.483 18.6867 136.282 20.1562C137.049 21.5464 138.194 22.6912 139.584 23.4583C141.058 24.2627 142.715 24.6704 144.394 24.6415C145.792 24.6571 147.175 24.355 148.439 23.7583C149.703 23.1615 150.815 22.2855 151.691 21.1964L156.001 25.1809C154.625 26.863 152.861 28.1852 150.86 29.0333C148.696 29.9432 146.367 30.3966 144.02 30.3651C141.225 30.4056 138.466 29.7412 135.996 28.4334" fill="#004584"/>
<path d="M18.9373 0.844238H12.9385L0 29.8693H6.86827L18.9373 0.844238Z" fill="#F1841F"/>
<path d="M20.2906 2.44092L17.2362 9.90906L20.8189 18.5494H13.7085L11.6282 23.6511H22.9322L25.5023 29.87H32.5522L20.2906 2.44092Z" fill="#004584"/>
</svg>
