<svg width="588" height="544" viewBox="0 0 588 544" fill="none" xmlns="http://www.w3.org/2000/svg">
<path d="M519 231.73C556.832 231.73 587.5 201.061 587.5 163.23C587.5 125.398 556.832 94.73 519 94.73C481.168 94.73 450.5 125.398 450.5 163.23C450.5 201.061 481.168 231.73 519 231.73Z" fill="url(#paint0_radial_43_591)"/>
<path d="M505.75 151.31C505.006 148.319 505.473 145.156 507.05 142.507C508.627 139.859 511.186 137.941 514.17 137.17C516.024 136.585 518.013 136.585 519.866 137.17C521.72 137.755 523.348 138.897 524.53 140.44C524.61 140.567 524.724 140.668 524.86 140.73C527.14 141.46 527.77 143.31 528.08 145.38C528.281 147.385 528.173 149.408 527.76 151.38C527.778 151.656 527.853 151.925 527.98 152.17C528.151 152.453 528.28 152.759 528.36 153.08C528.407 155.174 527.821 157.234 526.68 158.99C526.58 159.17 526.33 159.43 526.16 159.43C525.44 159.43 525.44 159.9 525.28 160.37C524.973 161.464 524.585 162.533 524.12 163.57C523.425 165.027 522.317 166.249 520.934 167.082C519.551 167.916 517.954 168.326 516.34 168.26C514.727 168.318 513.129 167.921 511.731 167.115C510.332 166.309 509.188 165.125 508.43 163.7C507.827 162.405 507.319 161.068 506.91 159.7C506.75 159.344 506.548 159.009 506.31 158.7C506.31 158.6 506.11 158.53 506.04 158.43C504.909 156.666 504.328 154.605 504.37 152.51C504.354 152.193 504.463 151.883 504.675 151.647C504.887 151.411 505.183 151.268 505.5 151.25C505.583 151.24 505.667 151.24 505.75 151.25V151.31Z" fill="white"/>
<path d="M524.88 185.71V175.89C524.823 175.196 524.903 174.497 525.116 173.834C525.33 173.17 525.672 172.556 526.124 172.025C526.575 171.495 527.127 171.058 527.748 170.742C528.368 170.425 529.045 170.234 529.74 170.18V170.18C530.006 170.16 530.274 170.16 530.54 170.18H530.76L525.76 167.76C525.32 167.522 524.893 167.262 524.48 166.98L519.77 181.8C519.107 180.387 518.542 178.931 518.08 177.44C518.008 177.253 517.983 177.051 518.007 176.852C518.032 176.654 518.105 176.464 518.22 176.3C518.78 175.346 519.249 174.342 519.62 173.3C519.802 172.82 519.787 172.287 519.577 171.819C519.367 171.35 518.98 170.984 518.5 170.8V170.8C518.364 170.749 518.223 170.713 518.08 170.69C517.194 170.53 516.286 170.53 515.4 170.69C515.128 170.698 514.86 170.759 514.611 170.871C514.363 170.983 514.139 171.144 513.953 171.343C513.767 171.542 513.623 171.776 513.528 172.031C513.433 172.286 513.389 172.558 513.4 172.83C513.407 173.078 513.461 173.322 513.56 173.55C513.937 174.543 514.388 175.505 514.91 176.43C515.03 176.65 515.23 176.94 515.16 177.12C514.64 178.81 514.05 180.34 513.47 181.96H513.29C511.74 177.01 510.17 172.09 508.61 167.09L507.97 167.44C505.019 169.357 501.787 170.801 498.39 171.72C497.466 171.925 496.62 172.389 495.949 173.056C495.278 173.723 494.81 174.567 494.6 175.49C493.907 178.375 493.873 181.38 494.5 184.28C494.543 184.436 494.619 184.58 494.723 184.704C494.826 184.829 494.955 184.929 495.1 185C496.16 185.56 497.22 186.11 498.33 186.57C504.713 189.128 511.572 190.281 518.44 189.95C520.9 189.86 523.35 189.59 525.77 189.14C525.175 188.095 524.868 186.912 524.88 185.71Z" fill="white"/>
<path d="M534.54 173.35V171.8C534.521 171.319 534.692 170.851 535.015 170.495C535.339 170.14 535.79 169.926 536.27 169.9H541.38C541.829 169.913 542.257 170.092 542.582 170.403C542.907 170.713 543.106 171.132 543.14 171.58V173.37H547.33C547.581 173.349 547.835 173.379 548.075 173.456C548.315 173.533 548.538 173.657 548.73 173.821C548.922 173.984 549.08 174.184 549.195 174.409C549.31 174.633 549.38 174.878 549.4 175.13V186.13C549.405 186.599 549.236 187.052 548.926 187.404C548.616 187.755 548.186 187.978 547.72 188.03H530.81C528.81 188.03 528.17 187.4 528.17 185.42V175.61C528.17 173.92 528.88 173.29 530.5 173.27H534.37C534.37 173.27 534.38 173.43 534.54 173.35ZM536.38 173.35H541.38C541.38 173.03 541.38 172.697 541.38 172.35C541.48 171.64 541.18 171.44 540.5 171.47C539.82 171.5 538.68 171.47 537.77 171.47C536.09 171.57 536.09 171.57 536.33 173.39L536.38 173.35Z" fill="white"/>
<path d="M68.5 236.73C106.332 236.73 137 206.061 137 168.23C137 130.398 106.332 99.73 68.5 99.73C30.6685 99.73 0 130.398 0 168.23C0 206.061 30.6685 236.73 68.5 236.73Z" fill="url(#paint1_radial_43_591)"/>
<path d="M85.4302 176.86V175.15C85.4387 173.059 86.1924 171.039 87.556 169.454C88.9197 167.869 90.8038 166.821 92.8702 166.5C94.2884 166.282 95.7369 166.372 97.1173 166.764C98.4977 167.156 99.7776 167.84 100.87 168.77C101.06 168.92 101.231 169.091 101.38 169.28C100.68 169.15 99.9902 168.99 99.3002 168.89C96.8199 168.43 94.2617 168.64 91.8902 169.5C90.5026 170.049 89.249 170.889 88.2139 171.964C87.1789 173.039 86.3864 174.323 85.8902 175.73C85.7602 176.07 85.6402 176.42 85.5002 176.73L85.4302 176.86Z" fill="#88A4BA"/>
<path d="M54.24 154.32C53.496 151.313 53.9682 148.134 55.5541 145.474C57.1399 142.813 59.7114 140.886 62.71 140.11C64.5761 139.518 66.5795 139.519 68.4453 140.111C70.311 140.704 71.9475 141.86 73.13 143.42C73.23 143.52 73.33 143.67 73.47 143.71C75.74 144.44 76.4 146.3 76.7 148.36C76.8991 150.394 76.7912 152.447 76.38 154.45C76.4132 154.723 76.4873 154.989 76.6 155.24C76.7672 155.526 76.8982 155.832 76.99 156.15C77.0295 158.257 76.4413 160.328 75.3 162.1C75.18 162.29 74.94 162.53 74.77 162.53C74.04 162.53 74.04 162.98 73.89 163.44C73.583 164.547 73.185 165.628 72.7 166.67C72.0146 168.146 70.9065 169.385 69.5162 170.231C68.1259 171.076 66.5158 171.49 64.89 171.42C63.2594 171.487 61.6429 171.092 60.2272 170.28C58.8116 169.468 57.6547 168.272 56.89 166.83C56.2986 165.531 55.7941 164.195 55.38 162.83C55.2574 162.478 55.0929 162.142 54.89 161.83C54.89 161.72 54.69 161.66 54.62 161.54C53.51 159.758 52.9468 157.689 53 155.59C52.9947 155.427 53.0219 155.264 53.0801 155.111C53.1383 154.959 53.2262 154.819 53.3389 154.701C53.4515 154.583 53.5865 154.488 53.7361 154.423C53.8857 154.357 54.0468 154.322 54.21 154.32H54.27H54.24Z" fill="#88A4BA"/>
<path d="M69.8101 189.41L75.3501 183.82L77.9201 181.21C76.8873 178.309 76.6423 175.186 77.2101 172.16L74.3801 170.8C73.9601 170.59 73.5901 170.34 73.0901 170.03L68.3501 184.96C67.6843 183.538 67.1196 182.071 66.6601 180.57C66.584 180.383 66.556 180.179 66.5787 179.978C66.6014 179.777 66.6741 179.585 66.7901 179.42C67.3466 178.463 67.8184 177.459 68.2001 176.42C68.3695 175.938 68.3479 175.409 68.1396 174.942C67.9313 174.475 67.5522 174.106 67.0801 173.91C66.9472 173.85 66.8053 173.813 66.6601 173.8C65.7649 173.591 64.8372 173.56 63.9301 173.71C63.6083 173.73 63.2959 173.826 63.0182 173.99C62.7406 174.154 62.5055 174.381 62.3321 174.653C62.1586 174.925 62.0518 175.234 62.0202 175.555C61.9885 175.876 62.0331 176.199 62.1501 176.5C62.5313 177.497 62.9893 178.463 63.5201 179.39C63.6301 179.63 63.8301 179.9 63.7701 180.09C63.2301 181.8 62.6401 183.32 62.0701 184.97H61.8901C60.2968 180.016 58.7168 175.046 57.1501 170.06C56.9284 170.161 56.7145 170.278 56.5101 170.41C53.537 172.33 50.2806 173.771 46.8601 174.68C45.9344 174.896 45.0875 175.366 44.4144 176.038C43.7413 176.709 43.2689 177.555 43.0501 178.48C42.3604 181.39 42.3297 184.417 42.9601 187.34C43.0082 187.496 43.0869 187.641 43.1917 187.766C43.2964 187.891 43.4251 187.995 43.5701 188.07C44.6401 188.63 45.7001 189.19 46.8101 189.65C53.0359 192.164 59.7195 193.346 66.4301 193.12C67.4768 191.866 68.6034 190.63 69.8101 189.41Z" fill="#88A4BA"/>
<path d="M94.19 161.42C96.2798 161.396 98.3484 161.841 100.244 162.722C102.139 163.602 103.814 164.896 105.144 166.507C106.474 168.119 107.427 170.009 107.932 172.037C108.437 174.065 108.481 176.18 108.062 178.227C107.643 180.275 106.77 182.202 105.509 183.869C104.247 185.535 102.629 186.898 100.772 187.857C98.9152 188.816 96.8672 189.348 94.7783 189.412C92.6893 189.477 90.6125 189.073 88.7 188.23C88.01 187.94 88.01 187.94 87.45 188.48L75.58 200.2C75.222 200.554 74.8448 200.887 74.45 201.2C73.8818 201.69 73.1748 201.991 72.4274 202.061C71.68 202.131 70.9294 201.966 70.28 201.59C69.4571 201.159 68.7864 200.486 68.3589 199.661C67.9314 198.837 67.7677 197.9 67.89 196.98C67.9498 196.499 68.1557 196.049 68.48 195.69C69.69 194.32 70.92 193.01 72.2 191.69C75.06 188.77 77.96 185.86 80.84 182.95C81.11 182.66 81.37 182.35 81.64 182.04C81.6978 181.96 81.7289 181.863 81.7289 181.765C81.7289 181.666 81.6978 181.57 81.64 181.49C80.0001 178.161 79.7488 174.317 80.9414 170.803C82.134 167.289 84.6728 164.393 88 162.75C88.6437 162.432 89.3127 162.167 90 161.96C91.3525 161.528 92.7722 161.345 94.19 161.42V161.42ZM94.34 164.71C91.5013 164.702 88.7755 165.821 86.7616 167.822C84.7478 169.823 83.6106 172.541 83.6 175.38V175.38V175.5C83.6721 178.306 84.8272 180.976 86.8236 182.95C88.82 184.924 91.5028 186.049 94.31 186.09C95.7125 186.091 97.1016 185.816 98.3978 185.281C99.6941 184.745 100.872 183.96 101.865 182.969C102.858 181.978 103.645 180.801 104.183 179.506C104.721 178.211 104.999 176.822 105 175.42V175.24C105.005 173.857 104.738 172.487 104.212 171.208C103.687 169.929 102.915 168.766 101.939 167.786C100.964 166.806 99.8048 166.028 98.5282 165.496C97.2516 164.965 95.8828 164.691 94.5 164.69L94.34 164.71Z" fill="#88A4BA"/>
<path d="M293.75 543.73C331.582 543.73 362.25 513.061 362.25 475.23C362.25 437.398 331.582 406.73 293.75 406.73C255.918 406.73 225.25 437.398 225.25 475.23C225.25 513.061 255.918 543.73 293.75 543.73Z" fill="url(#paint2_radial_43_591)"/>
<path d="M319.77 464.57H267.67C267.67 463.65 267.67 462.76 267.67 461.87C267.67 461.77 267.87 461.64 268.01 461.59L276.3 458.46C282 456.3 287.697 454.15 293.39 452.01C293.588 451.947 293.802 451.947 294 452.01L315.92 460.29C317.09 460.74 318.26 461.18 319.43 461.6C319.534 461.622 319.625 461.683 319.685 461.771C319.744 461.858 319.768 461.966 319.75 462.07C319.76 462.89 319.77 463.71 319.77 464.57ZM293.71 460.78C293.995 460.795 294.281 460.752 294.549 460.653C294.817 460.554 295.062 460.402 295.27 460.206C295.477 460.009 295.643 459.773 295.757 459.511C295.87 459.248 295.929 458.966 295.93 458.68C295.93 458.102 295.7 457.547 295.291 457.139C294.883 456.73 294.328 456.5 293.75 456.5C293.172 456.5 292.617 456.73 292.208 457.139C291.8 457.547 291.57 458.102 291.57 458.68C291.57 458.959 291.625 459.236 291.733 459.493C291.842 459.75 292 459.984 292.199 460.179C292.398 460.375 292.635 460.529 292.894 460.632C293.153 460.735 293.431 460.785 293.71 460.78Z" fill="white"/>
<path d="M266 469.02V466.12H321C321.38 466.12 321.49 466.19 321.48 466.45C321.48 467.22 321.48 467.99 321.48 468.76C321.48 468.84 321.48 468.93 321.48 469.04L266 469.02Z" fill="white"/>
<path d="M270.83 492.5V472.35H269.08V470.61H279.08V472.33H277.34V492.5H279.07V494.23H269.07V492.5H270.83Z" fill="white"/>
<path d="M310.25 472.35H308.47C308.47 471.79 308.47 471.28 308.47 470.77C308.47 470.7 308.67 470.59 308.78 470.59H318.5C318.5 471.13 318.5 471.59 318.5 472.11C318.5 472.19 318.32 472.32 318.22 472.33C317.74 472.33 317.22 472.33 316.75 472.33V492.5H318C318.52 492.5 318.52 492.5 318.52 493.04V494.04C318.526 494.093 318.526 494.147 318.52 494.2H308.52C308.52 493.7 308.52 493.2 308.52 492.68C308.52 492.61 308.73 492.5 308.85 492.5C309.31 492.5 309.77 492.5 310.27 492.5L310.25 472.35Z" fill="white"/>
<path d="M292.22 494.25H282.22V492.5H284V472.36H282.27V470.61H292.27V472.33H290.53V492.5C291 492.5 291.47 492.5 291.94 492.5C292.23 492.5 292.32 492.59 292.31 492.88C292.21 493.34 292.22 493.78 292.22 494.25Z" fill="white"/>
<path d="M295.36 494.24V492.5C295.83 492.5 296.28 492.5 296.74 492.5C297.03 492.5 297.14 492.44 297.14 492.12C297.14 488.36 297.14 484.6 297.14 480.84V472.33H295.37V470.58H295.82H304.82C305.5 470.58 305.43 470.58 305.41 471.15C305.41 471.53 305.41 471.91 305.41 472.32H303.62C303.62 472.51 303.62 472.65 303.62 472.8C303.62 479.22 303.62 485.643 303.62 492.07C303.62 492.42 303.71 492.55 304.08 492.53C304.45 492.51 304.94 492.53 305.41 492.53V494.24H295.36Z" fill="white"/>
<path d="M322.62 495.71V498.5H264.88V495.71H322.62Z" fill="white"/>
<path d="M207.64 223.37H256.15V234.5H221.46V246.86H238.12C245.387 246.86 250.923 248.38 254.73 251.42C258.537 254.46 260.437 258.84 260.43 264.56C260.43 270.56 258.31 275.227 254.07 278.56C249.83 281.893 243.857 283.56 236.15 283.56H207.66L207.64 223.37ZM235.37 273.18C238.91 273.18 241.63 272.477 243.53 271.07C244.47 270.361 245.22 269.43 245.714 268.36C246.208 267.291 246.43 266.116 246.36 264.94C246.36 259.66 242.693 257.023 235.36 257.03H221.46V273.18H235.37Z" fill="#004584"/>
<path d="M271.01 223.38H284.83V262.54L313.51 223.38H326.56V283.48H312.82V244.42L284.14 283.48H271.01V223.38Z" fill="#004584"/>
<path d="M352.78 280.5C347.943 277.949 343.902 274.116 341.1 269.42C338.31 264.549 336.842 259.033 336.842 253.42C336.842 247.807 338.31 242.291 341.1 237.42C343.903 232.709 347.942 228.857 352.78 226.28C357.532 223.888 362.74 222.54 368.056 222.326C373.372 222.112 378.671 223.038 383.6 225.04C387.711 226.799 391.346 229.506 394.21 232.94L385.27 241.19C383.44 238.962 381.132 237.175 378.515 235.963C375.899 234.751 373.043 234.145 370.16 234.19C366.669 234.109 363.218 234.954 360.16 236.64C357.275 238.217 354.901 240.587 353.32 243.47C351.708 246.537 350.865 249.95 350.865 253.415C350.865 256.88 351.708 260.293 353.32 263.36C354.907 266.239 357.279 268.607 360.16 270.19C363.222 271.865 366.67 272.71 370.16 272.64C373.058 272.675 375.927 272.051 378.548 270.814C381.169 269.577 383.475 267.76 385.29 265.5L394.22 273.75C391.373 277.238 387.722 279.983 383.58 281.75C379.093 283.632 374.266 284.568 369.4 284.5C363.615 284.588 357.901 283.212 352.79 280.5" fill="#004584"/>
<path d="M413.83 280.5C408.991 277.952 404.949 274.118 402.15 269.42C399.36 264.549 397.892 259.033 397.892 253.42C397.892 247.807 399.36 242.291 402.15 237.42C404.947 232.705 408.988 228.851 413.83 226.28C418.582 223.888 423.79 222.54 429.106 222.326C434.422 222.112 439.721 223.038 444.65 225.04C448.757 226.8 452.389 229.507 455.25 232.94L446.33 241.19C444.5 238.963 442.19 237.177 439.574 235.965C436.958 234.753 434.103 234.146 431.22 234.19C427.729 234.111 424.279 234.956 421.22 236.64C418.339 238.223 415.967 240.591 414.38 243.47C412.777 246.54 411.94 249.952 411.94 253.415C411.94 256.878 412.777 260.29 414.38 263.36C415.967 266.239 418.339 268.607 421.22 270.19C424.283 271.865 427.73 272.71 431.22 272.64C434.115 272.672 436.979 272.046 439.597 270.809C442.215 269.572 444.517 267.757 446.33 265.5L455.25 273.75C452.403 277.238 448.752 279.983 444.61 281.75C440.126 283.632 435.302 284.568 430.44 284.5C424.655 284.588 418.941 283.212 413.83 280.5" fill="#004584"/>
<path d="M171.46 223.38H159.04L132.25 283.48H146.47L171.46 223.38Z" fill="#F1841F"/>
<path d="M174.26 226.69L167.94 242.15L175.36 260.04H160.63L156.33 270.6H179.73L185.05 283.48H199.65L174.26 226.69Z" fill="#004584"/>
<path d="M477.81 80.73C454.211 55.5627 425.701 35.5024 394.043 21.7889C362.385 8.07539 328.251 1 293.75 1C259.249 1 225.115 8.07539 193.457 21.7889C161.798 35.5024 133.289 55.5627 109.69 80.73" stroke="#E3EDF3" stroke-miterlimit="10"/>
<path d="M103.68 87.2102L111.38 69.7202L120.82 78.6502L103.68 87.2102Z" fill="#E3EDF3"/>
<path d="M483.82 87.2102L476.12 69.7202L466.68 78.6502L483.82 87.2102Z" fill="#E3EDF3"/>
<path d="M371.89 493.98L390.99 493.59L386.37 481.44L371.89 493.98Z" fill="#E3EDF3"/>
<path d="M375 492.96C475.36 459.61 547.74 364.96 547.74 253.43C547.74 250.763 547.697 248.14 547.61 245.56" stroke="#E3EDF3" stroke-miterlimit="10"/>
<path d="M546.9 239.84L553.61 257.73L540.62 257.94L546.9 239.84Z" fill="#E3EDF3"/>
<path d="M215.61 493.98L196.51 493.59L201.13 481.44L215.61 493.98Z" fill="#E3EDF3"/>
<path d="M212.48 492.96C112.12 459.61 39.74 364.96 39.74 253.43C39.74 250.763 39.7833 248.14 39.87 245.56" stroke="#E3EDF3" stroke-miterlimit="10"/>
<path d="M40.5999 239.84L33.8899 257.73L46.8799 257.94L40.5999 239.84Z" fill="#E3EDF3"/>
<defs>
<radialGradient id="paint0_radial_43_591" cx="0" cy="0" r="1" gradientUnits="userSpaceOnUse" gradientTransform="translate(532.15 127.94) scale(109.54)">
<stop stop-color="#FFB271"/>
<stop offset="0.17" stop-color="#FEAF6B"/>
<stop offset="0.39" stop-color="#FBA55A"/>
<stop offset="0.65" stop-color="#F6953E"/>
<stop offset="0.88" stop-color="#F0841F"/>
</radialGradient>
<radialGradient id="paint1_radial_43_591" cx="0" cy="0" r="1" gradientUnits="userSpaceOnUse" gradientTransform="translate(79 150.73) scale(73.76)">
<stop offset="0.37" stop-color="white"/>
<stop offset="0.73" stop-color="#F6F8FB"/>
<stop offset="1" stop-color="#ECF1F7"/>
</radialGradient>
<radialGradient id="paint2_radial_43_591" cx="0" cy="0" r="1" gradientUnits="userSpaceOnUse" gradientTransform="translate(313.82 448.25) scale(73.4)">
<stop stop-color="#ECF1F7"/>
<stop offset="0.14" stop-color="#E6EDF4"/>
<stop offset="0.15" stop-color="#E6EDF4"/>
<stop offset="0.39" stop-color="#DCE6EF"/>
<stop offset="0.8" stop-color="#C1D3E2"/>
<stop offset="0.84" stop-color="#BED1E1"/>
</radialGradient>
</defs>
</svg>
